G75*
%MOIN*%
%OFA0B0*%
%FSLAX25Y25*%
%IPPOS*%
%LPD*%
%AMOC8*
5,1,8,0,0,1.08239X$1,22.5*
%
%ADD10R,0.05906X0.05118*%
%ADD11R,0.05118X0.05906*%
%ADD12R,0.03937X0.04331*%
%ADD13R,0.03150X0.03150*%
%ADD14R,0.18110X0.03937*%
%ADD15R,0.13386X0.06299*%
%ADD16R,0.03150X0.01000*%
%ADD17R,0.01969X0.05200*%
%ADD18C,0.01181*%
%ADD19R,0.02362X0.01575*%
%ADD20R,0.00394X0.00394*%
%ADD21R,0.06299X0.07087*%
%ADD22R,0.04331X0.03937*%
%ADD23C,0.01000*%
%ADD24R,0.02500X0.05000*%
%ADD25R,0.03900X0.01200*%
%ADD26C,0.06000*%
%ADD27R,0.03937X0.05512*%
%ADD28R,0.01181X0.05512*%
%ADD29R,0.06496X0.05118*%
%ADD30R,0.02559X0.05118*%
%ADD31R,0.01890X0.07087*%
%ADD32R,0.04055X0.03937*%
%ADD33R,0.03346X0.08661*%
%ADD34R,0.03937X0.04134*%
%ADD35R,0.04724X0.02362*%
%ADD36R,0.03150X0.03543*%
%ADD37R,0.03346X0.02756*%
%ADD38R,0.08661X0.07874*%
%ADD39R,0.03000X0.06000*%
%ADD40R,0.02756X0.03346*%
%ADD41R,0.03150X0.05906*%
%ADD42R,0.05906X0.03150*%
%ADD43R,0.04331X0.04331*%
%ADD44C,0.02067*%
%ADD45R,0.19685X0.19685*%
%ADD46R,0.07874X0.09843*%
%ADD47R,0.07087X0.06299*%
%ADD48R,0.10433X0.06496*%
%ADD49R,0.00984X0.02362*%
%ADD50R,0.02362X0.00984*%
%ADD51C,0.01476*%
%ADD52C,0.00246*%
%ADD53R,0.09449X0.03307*%
%ADD54C,0.01200*%
%ADD55R,0.02362X0.04724*%
%ADD56R,0.03543X0.03543*%
%ADD57R,0.05906X0.03543*%
%ADD58R,0.03543X0.05906*%
%ADD59C,0.01575*%
%ADD60R,0.07480X0.07480*%
%ADD61R,0.01575X0.05315*%
%ADD62R,0.03937X0.02362*%
%ADD63R,0.05512X0.03937*%
%ADD64R,0.08268X0.05512*%
%ADD65R,0.02165X0.06299*%
%ADD66C,0.01200*%
%ADD67C,0.02000*%
%ADD68C,0.03248*%
%ADD69C,0.01772*%
%ADD70C,0.02400*%
%ADD71C,0.01600*%
%ADD72C,0.02953*%
%ADD73C,0.03200*%
%ADD74C,0.04000*%
%ADD75C,0.05000*%
%ADD76C,0.00500*%
%ADD77C,0.04300*%
%ADD78C,0.02165*%
D10*
X0061550Y0022453D03*
X0061550Y0029933D03*
X0009719Y0054583D03*
X0009719Y0062063D03*
X0087050Y0141634D03*
X0087050Y0149114D03*
X0103050Y0149114D03*
X0103050Y0141634D03*
X0127050Y0141634D03*
X0127050Y0149114D03*
X0141050Y0150634D03*
X0141050Y0158114D03*
X0036050Y0156114D03*
X0036050Y0148634D03*
X0036050Y0165634D03*
X0036050Y0173114D03*
X0014050Y0161114D03*
X0014050Y0153634D03*
D11*
X0056310Y0153374D03*
X0063790Y0153374D03*
X0063790Y0139374D03*
X0056310Y0139374D03*
X0014418Y0080299D03*
X0006938Y0080299D03*
D12*
X0009097Y0090175D03*
X0015790Y0090175D03*
X0032704Y0068374D03*
X0039396Y0068374D03*
X0026727Y0057925D03*
X0020034Y0057925D03*
X0020396Y0044374D03*
X0013704Y0044374D03*
X0051459Y0038201D03*
X0058152Y0038201D03*
X0069550Y0030720D03*
X0069550Y0024028D03*
X0163204Y0025874D03*
X0169896Y0025874D03*
X0169896Y0034374D03*
X0163204Y0034374D03*
X0163204Y0042374D03*
X0169896Y0042374D03*
X0214050Y0064528D03*
X0214050Y0071220D03*
X0249204Y0025374D03*
X0255896Y0025374D03*
X0269704Y0048374D03*
X0276396Y0048374D03*
X0253896Y0167874D03*
X0247204Y0167874D03*
X0240896Y0167874D03*
X0234204Y0167874D03*
X0231204Y0190874D03*
X0237896Y0190874D03*
X0244204Y0190874D03*
X0250896Y0190874D03*
X0278050Y0202028D03*
X0278050Y0208720D03*
X0095050Y0148720D03*
X0095050Y0142028D03*
X0064050Y0217028D03*
X0064050Y0223720D03*
D13*
X0193550Y0172327D03*
X0193550Y0166421D03*
X0243050Y0075327D03*
X0243050Y0069421D03*
X0021694Y0078722D03*
X0021694Y0084628D03*
D14*
X0036633Y0109035D03*
X0036633Y0116909D03*
D15*
X0016160Y0126358D03*
X0016160Y0099587D03*
D16*
X0043704Y0160406D03*
X0043704Y0162374D03*
X0043704Y0164343D03*
X0050396Y0164343D03*
X0050396Y0162374D03*
X0050396Y0160406D03*
D17*
X0047050Y0162374D03*
D18*
X0050393Y0228917D02*
X0050395Y0229020D01*
X0050401Y0229123D01*
X0050411Y0229225D01*
X0050425Y0229328D01*
X0050443Y0229429D01*
X0050465Y0229530D01*
X0050490Y0229630D01*
X0050520Y0229728D01*
X0050553Y0229826D01*
X0050590Y0229922D01*
X0050631Y0230016D01*
X0050676Y0230109D01*
X0050724Y0230201D01*
X0050775Y0230290D01*
X0050830Y0230377D01*
X0050888Y0230462D01*
X0050950Y0230545D01*
X0051015Y0230625D01*
X0051082Y0230703D01*
X0051153Y0230777D01*
X0051227Y0230850D01*
X0051303Y0230919D01*
X0051382Y0230985D01*
X0051463Y0231048D01*
X0051547Y0231108D01*
X0051633Y0231165D01*
X0051721Y0231218D01*
X0051812Y0231268D01*
X0051904Y0231314D01*
X0051998Y0231357D01*
X0052093Y0231396D01*
X0052190Y0231431D01*
X0052288Y0231462D01*
X0052387Y0231490D01*
X0052488Y0231514D01*
X0052589Y0231534D01*
X0052690Y0231550D01*
X0052793Y0231562D01*
X0052896Y0231570D01*
X0052998Y0231574D01*
X0053102Y0231574D01*
X0053204Y0231570D01*
X0053307Y0231562D01*
X0053410Y0231550D01*
X0053511Y0231534D01*
X0053612Y0231514D01*
X0053713Y0231490D01*
X0053812Y0231462D01*
X0053910Y0231431D01*
X0054007Y0231396D01*
X0054102Y0231357D01*
X0054196Y0231314D01*
X0054288Y0231268D01*
X0054378Y0231218D01*
X0054467Y0231165D01*
X0054553Y0231108D01*
X0054637Y0231048D01*
X0054718Y0230985D01*
X0054797Y0230919D01*
X0054873Y0230850D01*
X0054947Y0230777D01*
X0055018Y0230703D01*
X0055085Y0230625D01*
X0055150Y0230545D01*
X0055212Y0230462D01*
X0055270Y0230377D01*
X0055325Y0230290D01*
X0055376Y0230201D01*
X0055424Y0230109D01*
X0055469Y0230016D01*
X0055510Y0229922D01*
X0055547Y0229826D01*
X0055580Y0229728D01*
X0055610Y0229630D01*
X0055635Y0229530D01*
X0055657Y0229429D01*
X0055675Y0229328D01*
X0055689Y0229225D01*
X0055699Y0229123D01*
X0055705Y0229020D01*
X0055707Y0228917D01*
X0055705Y0228814D01*
X0055699Y0228711D01*
X0055689Y0228609D01*
X0055675Y0228506D01*
X0055657Y0228405D01*
X0055635Y0228304D01*
X0055610Y0228204D01*
X0055580Y0228106D01*
X0055547Y0228008D01*
X0055510Y0227912D01*
X0055469Y0227818D01*
X0055424Y0227725D01*
X0055376Y0227633D01*
X0055325Y0227544D01*
X0055270Y0227457D01*
X0055212Y0227372D01*
X0055150Y0227289D01*
X0055085Y0227209D01*
X0055018Y0227131D01*
X0054947Y0227057D01*
X0054873Y0226984D01*
X0054797Y0226915D01*
X0054718Y0226849D01*
X0054637Y0226786D01*
X0054553Y0226726D01*
X0054467Y0226669D01*
X0054379Y0226616D01*
X0054288Y0226566D01*
X0054196Y0226520D01*
X0054102Y0226477D01*
X0054007Y0226438D01*
X0053910Y0226403D01*
X0053812Y0226372D01*
X0053713Y0226344D01*
X0053612Y0226320D01*
X0053511Y0226300D01*
X0053410Y0226284D01*
X0053307Y0226272D01*
X0053204Y0226264D01*
X0053102Y0226260D01*
X0052998Y0226260D01*
X0052896Y0226264D01*
X0052793Y0226272D01*
X0052690Y0226284D01*
X0052589Y0226300D01*
X0052488Y0226320D01*
X0052387Y0226344D01*
X0052288Y0226372D01*
X0052190Y0226403D01*
X0052093Y0226438D01*
X0051998Y0226477D01*
X0051904Y0226520D01*
X0051812Y0226566D01*
X0051722Y0226616D01*
X0051633Y0226669D01*
X0051547Y0226726D01*
X0051463Y0226786D01*
X0051382Y0226849D01*
X0051303Y0226915D01*
X0051227Y0226984D01*
X0051153Y0227057D01*
X0051082Y0227131D01*
X0051015Y0227209D01*
X0050950Y0227289D01*
X0050888Y0227372D01*
X0050830Y0227457D01*
X0050775Y0227544D01*
X0050724Y0227633D01*
X0050676Y0227725D01*
X0050631Y0227818D01*
X0050590Y0227912D01*
X0050553Y0228008D01*
X0050520Y0228106D01*
X0050490Y0228204D01*
X0050465Y0228304D01*
X0050443Y0228405D01*
X0050425Y0228506D01*
X0050411Y0228609D01*
X0050401Y0228711D01*
X0050395Y0228814D01*
X0050393Y0228917D01*
D19*
X0048818Y0223898D03*
X0048818Y0221339D03*
X0048818Y0218780D03*
X0057282Y0218780D03*
X0057282Y0221339D03*
X0057282Y0223898D03*
D20*
X0053050Y0231476D03*
D21*
X0159538Y0015874D03*
X0170562Y0015874D03*
D22*
X0167896Y0007374D03*
X0161204Y0007374D03*
X0189704Y0060874D03*
X0196396Y0060874D03*
X0195704Y0066874D03*
X0202396Y0066874D03*
X0224704Y0063874D03*
X0231396Y0063874D03*
X0231396Y0070874D03*
X0224704Y0070874D03*
X0243050Y0083028D03*
X0243050Y0089720D03*
X0251704Y0083374D03*
X0258396Y0083374D03*
X0258396Y0076374D03*
X0251704Y0076374D03*
X0265704Y0076374D03*
X0272396Y0076374D03*
X0272396Y0083374D03*
X0265704Y0083374D03*
X0264050Y0027720D03*
X0264050Y0021028D03*
X0119050Y0142028D03*
X0119050Y0148720D03*
X0111050Y0148720D03*
X0111050Y0142028D03*
X0095357Y0095878D03*
X0095357Y0089185D03*
X0085515Y0089185D03*
X0085515Y0095878D03*
X0068585Y0067531D03*
X0068585Y0060839D03*
X0060318Y0060445D03*
X0060318Y0067138D03*
X0054806Y0051783D03*
X0054806Y0045091D03*
X0039050Y0055028D03*
X0039050Y0061720D03*
X0033050Y0078028D03*
X0033050Y0084720D03*
X0057050Y0164528D03*
X0057050Y0171220D03*
X0008050Y0218728D03*
X0008050Y0225420D03*
X0200050Y0173220D03*
X0200050Y0166528D03*
X0264704Y0212374D03*
X0271396Y0212374D03*
D23*
X0250550Y0184874D02*
X0243550Y0184874D01*
X0237896Y0183874D02*
X0236896Y0184874D01*
X0227550Y0184874D01*
X0210615Y0164874D02*
X0206550Y0164874D01*
X0206550Y0164937D01*
X0210615Y0164874D02*
X0210615Y0162710D01*
X0212451Y0160874D01*
X0212896Y0160874D01*
X0208550Y0160874D02*
X0208550Y0155752D01*
X0208566Y0155736D01*
X0208550Y0160874D02*
X0186550Y0160874D01*
X0185550Y0161874D01*
X0187503Y0124043D02*
X0178219Y0124043D01*
X0177050Y0123874D01*
X0178050Y0118874D02*
X0182050Y0119374D01*
X0187164Y0119374D01*
X0187503Y0119713D01*
X0169050Y0080374D02*
X0172417Y0077007D01*
X0181434Y0077007D01*
X0182683Y0075758D01*
X0182683Y0073990D01*
X0181434Y0072741D01*
X0180217Y0072741D01*
X0168350Y0060874D01*
X0168350Y0053218D01*
X0172126Y0049441D01*
X0172126Y0049374D01*
X0173550Y0047950D01*
X0173550Y0021374D01*
X0163204Y0021374D01*
X0154550Y0032764D02*
X0154550Y0035874D01*
X0154923Y0035874D01*
X0156150Y0037101D01*
X0156150Y0039838D01*
X0157750Y0041438D01*
X0157750Y0044176D01*
X0161350Y0047776D01*
X0161350Y0052250D01*
X0163550Y0054450D01*
X0163550Y0067293D01*
X0167375Y0067293D01*
X0173067Y0072984D01*
X0173067Y0073891D01*
X0174050Y0074874D01*
X0173550Y0074874D01*
X0174667Y0072491D02*
X0177050Y0074874D01*
X0180067Y0074874D02*
X0169286Y0064093D01*
X0167469Y0064093D01*
X0166750Y0063374D01*
X0166750Y0053125D01*
X0165050Y0051425D01*
X0165050Y0046217D01*
X0166272Y0044995D01*
X0166272Y0038096D01*
X0162550Y0034374D01*
X0163204Y0042374D02*
X0163204Y0051374D01*
X0163050Y0051374D01*
X0163050Y0051687D01*
X0165150Y0053787D01*
X0165150Y0065693D01*
X0168038Y0065693D01*
X0174667Y0072322D01*
X0174667Y0072491D01*
X0170050Y0074874D02*
X0167650Y0072474D01*
X0167650Y0069830D01*
X0166713Y0068893D01*
X0162069Y0068893D01*
X0161950Y0068774D01*
X0161950Y0055113D01*
X0159750Y0052913D01*
X0159750Y0048438D01*
X0156150Y0044838D01*
X0156150Y0042101D01*
X0154923Y0040874D01*
X0154550Y0040874D01*
X0154550Y0037764D01*
X0149999Y0037764D01*
X0149999Y0042764D02*
X0154550Y0042764D01*
X0154550Y0045874D01*
X0154923Y0045874D01*
X0156150Y0047101D01*
X0156150Y0049274D01*
X0157213Y0049274D01*
X0158150Y0050211D01*
X0158150Y0053576D01*
X0160350Y0055776D01*
X0160350Y0069911D01*
X0160931Y0070493D01*
X0166050Y0070493D01*
X0166050Y0074874D01*
X0162550Y0074874D02*
X0160050Y0072374D01*
X0160050Y0071874D01*
X0158750Y0070574D01*
X0158750Y0056438D01*
X0156550Y0054238D01*
X0156550Y0050874D01*
X0154550Y0050874D01*
X0154550Y0047764D01*
X0149999Y0047764D01*
X0149999Y0052764D02*
X0154550Y0052764D01*
X0154550Y0055874D01*
X0155923Y0055874D01*
X0157150Y0057101D01*
X0157150Y0072974D01*
X0159050Y0074874D01*
X0155550Y0074741D02*
X0155550Y0057764D01*
X0149999Y0057764D01*
X0149109Y0066874D02*
X0143550Y0066874D01*
X0140550Y0070874D02*
X0142440Y0072764D01*
X0149999Y0072764D01*
X0149999Y0067764D02*
X0149109Y0066874D01*
X0141814Y0074364D02*
X0141777Y0074364D01*
X0140864Y0073450D01*
X0139483Y0073450D01*
X0137304Y0071272D01*
X0118192Y0071272D01*
X0109050Y0062130D01*
X0109050Y0019874D01*
X0107450Y0023274D02*
X0107450Y0062793D01*
X0110318Y0065660D01*
X0110318Y0073240D01*
X0104412Y0073240D01*
X0104019Y0073634D01*
X0104019Y0076717D01*
X0103050Y0077685D01*
X0098050Y0077685D02*
X0098050Y0084874D01*
X0097050Y0084874D01*
X0097050Y0087492D01*
X0095357Y0089185D01*
X0093050Y0084874D02*
X0093050Y0077685D01*
X0093050Y0084874D02*
X0088550Y0084874D01*
X0088550Y0086150D01*
X0085515Y0089185D01*
X0101550Y0092374D02*
X0102050Y0092374D01*
X0108050Y0086374D01*
X0108050Y0077685D01*
X0113050Y0077685D02*
X0113050Y0085874D01*
X0106550Y0092374D01*
X0112550Y0092374D02*
X0118050Y0086874D01*
X0118050Y0077685D01*
X0123050Y0077685D02*
X0123050Y0087374D01*
X0118550Y0092374D01*
X0124050Y0092374D02*
X0128050Y0088374D01*
X0128050Y0077685D01*
X0133050Y0077685D02*
X0133050Y0089374D01*
X0130050Y0092374D01*
X0138050Y0077685D02*
X0138050Y0110374D01*
X0136310Y0131043D02*
X0135979Y0131374D01*
X0131550Y0131374D01*
X0119050Y0148720D02*
X0119050Y0149374D01*
X0116550Y0151874D01*
X0112650Y0151874D01*
X0112650Y0153813D01*
X0112713Y0153892D01*
X0112650Y0154463D01*
X0112650Y0155037D01*
X0112578Y0155109D01*
X0112567Y0155209D01*
X0112119Y0155568D01*
X0111513Y0156174D01*
X0111361Y0156174D01*
X0111282Y0156237D01*
X0110711Y0156174D01*
X0110203Y0156174D01*
X0110003Y0156374D01*
X0109845Y0164319D01*
X0107877Y0164319D02*
X0107877Y0167701D01*
X0107879Y0167726D01*
X0107884Y0167750D01*
X0107893Y0167773D01*
X0107904Y0167795D01*
X0107919Y0167814D01*
X0107937Y0167832D01*
X0107956Y0167847D01*
X0107978Y0167858D01*
X0108001Y0167867D01*
X0108025Y0167872D01*
X0108050Y0167874D01*
X0108550Y0168374D01*
X0108550Y0169374D01*
X0105050Y0169374D02*
X0103940Y0169374D01*
X0103940Y0164319D01*
X0105908Y0164319D02*
X0106066Y0158390D01*
X0106050Y0158374D01*
X0108203Y0156652D01*
X0108203Y0155628D01*
X0109257Y0154574D01*
X0110800Y0154574D01*
X0111050Y0154374D01*
X0111050Y0148720D01*
X0103050Y0149114D02*
X0102129Y0150035D01*
X0101971Y0164319D01*
X0102129Y0182374D01*
X0101550Y0182374D01*
X0098050Y0176374D02*
X0098192Y0176232D01*
X0098034Y0164319D01*
X0096066Y0164319D02*
X0096066Y0169358D01*
X0095550Y0169874D01*
X0096223Y0169874D01*
X0092050Y0166374D02*
X0092286Y0165374D01*
X0092129Y0164319D01*
X0092129Y0158768D01*
X0092286Y0158610D01*
X0092050Y0158374D01*
X0094097Y0157327D02*
X0095550Y0155874D01*
X0094097Y0157327D02*
X0094097Y0164319D01*
X0090160Y0164319D02*
X0090318Y0172106D01*
X0090050Y0172374D01*
X0086550Y0171874D02*
X0086550Y0173374D01*
X0086550Y0171874D02*
X0084255Y0169579D01*
X0084255Y0164319D01*
X0086223Y0164319D02*
X0086223Y0158201D01*
X0087050Y0157374D01*
X0088192Y0164319D02*
X0088192Y0167732D01*
X0088191Y0167732D02*
X0088202Y0167787D01*
X0088210Y0167843D01*
X0088213Y0167900D01*
X0088214Y0167956D01*
X0088210Y0168012D01*
X0088203Y0168068D01*
X0088192Y0168123D01*
X0088177Y0168178D01*
X0088159Y0168231D01*
X0088138Y0168283D01*
X0088113Y0168334D01*
X0088085Y0168383D01*
X0088054Y0168429D01*
X0088019Y0168474D01*
X0087982Y0168517D01*
X0087943Y0168557D01*
X0087900Y0168594D01*
X0087856Y0168628D01*
X0087809Y0168659D01*
X0087760Y0168688D01*
X0087710Y0168713D01*
X0087657Y0168734D01*
X0087604Y0168753D01*
X0087550Y0168767D01*
X0083183Y0171490D02*
X0083183Y0175507D01*
X0083550Y0175874D01*
X0081050Y0172374D02*
X0080475Y0171799D01*
X0080318Y0164319D01*
X0082286Y0164319D02*
X0082444Y0170751D01*
X0083183Y0171490D01*
X0078349Y0164319D02*
X0078349Y0157374D01*
X0076550Y0157374D01*
X0057050Y0160374D02*
X0057050Y0164528D01*
X0050581Y0164528D01*
X0050396Y0164343D01*
X0050396Y0165028D01*
X0048550Y0166874D01*
X0046235Y0166874D01*
X0043704Y0164343D01*
X0043704Y0162374D02*
X0036050Y0162374D01*
X0036050Y0165634D01*
X0040341Y0160406D02*
X0036050Y0156114D01*
X0040341Y0160406D02*
X0043704Y0160406D01*
X0046578Y0159292D02*
X0046578Y0161902D01*
X0047050Y0162374D01*
X0050396Y0162374D01*
X0053050Y0162374D01*
X0050396Y0160406D02*
X0052575Y0157815D01*
X0056310Y0153374D01*
X0046578Y0159292D02*
X0036050Y0148764D01*
X0036050Y0148634D01*
X0035050Y0138374D02*
X0035050Y0130374D01*
X0020050Y0116874D02*
X0019585Y0116874D01*
X0019550Y0116909D01*
X0060129Y0122886D02*
X0061050Y0122886D01*
X0062097Y0122886D01*
X0064066Y0122886D02*
X0065050Y0122886D01*
X0065050Y0119343D01*
X0065050Y0117374D01*
X0067019Y0115406D01*
X0068987Y0115406D01*
X0068003Y0114421D01*
X0068003Y0111862D01*
X0069971Y0111862D02*
X0072530Y0111862D01*
X0072530Y0114421D01*
X0069971Y0122886D02*
X0069050Y0122886D01*
X0068003Y0122886D01*
X0066034Y0122886D02*
X0065050Y0122886D01*
X0095050Y0148720D02*
X0100160Y0154224D01*
X0100003Y0164319D01*
X0111814Y0164319D02*
X0111814Y0171874D01*
X0111550Y0171874D01*
X0113782Y0169374D02*
X0114050Y0169374D01*
X0113940Y0169374D01*
X0113782Y0169374D02*
X0113782Y0164319D01*
X0115751Y0164319D02*
X0115751Y0168045D01*
X0117050Y0169344D01*
X0117719Y0164319D02*
X0117719Y0158705D01*
X0117721Y0158670D01*
X0117726Y0158636D01*
X0117735Y0158603D01*
X0117748Y0158570D01*
X0117763Y0158540D01*
X0117782Y0158510D01*
X0117804Y0158484D01*
X0117829Y0158459D01*
X0117855Y0158437D01*
X0117885Y0158418D01*
X0117915Y0158403D01*
X0117948Y0158390D01*
X0117981Y0158381D01*
X0118015Y0158376D01*
X0118050Y0158374D01*
X0057050Y0209374D02*
X0053050Y0209374D01*
X0053050Y0221374D02*
X0053050Y0224569D01*
X0053050Y0221374D02*
X0057282Y0221339D01*
X0053050Y0231476D02*
X0053050Y0234374D01*
X0051941Y0233265D01*
X0051249Y0233265D01*
X0049535Y0231551D01*
X0040537Y0231551D01*
X0023050Y0224374D02*
X0022550Y0223874D01*
X0017563Y0223874D01*
X0017504Y0221374D02*
X0014050Y0221374D01*
X0017504Y0221374D02*
X0017563Y0221315D01*
X0009050Y0214374D02*
X0008050Y0215374D01*
X0008050Y0218728D01*
X0021694Y0078722D02*
X0022050Y0078722D01*
X0022050Y0074059D01*
X0024019Y0074059D02*
X0025987Y0074059D01*
X0030251Y0078028D01*
X0033050Y0078028D01*
X0032704Y0068374D02*
X0032704Y0068067D01*
X0029621Y0064984D01*
X0025987Y0064689D01*
X0024019Y0064689D02*
X0024019Y0062406D01*
X0025050Y0061374D01*
X0034050Y0061374D01*
X0034050Y0055374D01*
X0034396Y0055028D01*
X0039050Y0055028D01*
X0045020Y0049874D02*
X0038441Y0043295D01*
X0037204Y0043295D01*
X0035522Y0041614D01*
X0035522Y0034134D02*
X0034550Y0033161D01*
X0034550Y0029874D01*
X0034050Y0029874D01*
X0044578Y0034134D02*
X0045837Y0032874D01*
X0049050Y0032874D01*
X0051459Y0038201D02*
X0051192Y0038469D01*
X0051192Y0043583D01*
X0053298Y0043583D01*
X0054806Y0045091D01*
X0047550Y0046374D02*
X0044578Y0043402D01*
X0044578Y0041614D01*
X0045020Y0049874D02*
X0047550Y0049874D01*
X0054806Y0051783D02*
X0054806Y0053161D01*
X0057168Y0055524D01*
X0057168Y0055917D01*
X0056977Y0056503D01*
X0060318Y0060327D02*
X0063898Y0063907D01*
X0071206Y0063907D01*
X0072503Y0062610D01*
X0073310Y0062610D01*
X0076066Y0065366D01*
X0076066Y0073374D01*
X0073239Y0067598D02*
X0068585Y0067598D01*
X0068585Y0067531D01*
X0060318Y0067531D01*
X0060318Y0067138D01*
X0060318Y0060445D02*
X0060318Y0060327D01*
X0063310Y0057335D01*
X0063310Y0052902D01*
X0068585Y0059839D02*
X0071050Y0057374D01*
X0068585Y0059839D02*
X0068585Y0060839D01*
X0073310Y0062610D02*
X0073550Y0062850D01*
X0071977Y0043846D02*
X0070790Y0043846D01*
X0076550Y0037764D02*
X0076550Y0034374D01*
X0076150Y0033974D01*
X0075887Y0033974D01*
X0074950Y0033037D01*
X0074950Y0020874D01*
X0071450Y0017374D01*
X0068050Y0017374D01*
X0067183Y0016507D01*
X0067166Y0016507D01*
X0065917Y0015258D01*
X0065917Y0015241D01*
X0064050Y0013374D01*
X0064050Y0014107D01*
X0067550Y0010374D02*
X0069050Y0010374D01*
X0076050Y0017374D01*
X0080711Y0017374D01*
X0081101Y0017764D01*
X0081101Y0012764D02*
X0087660Y0012764D01*
X0089050Y0011374D01*
X0088550Y0011374D01*
X0089050Y0022764D02*
X0081101Y0022764D01*
X0081101Y0027764D02*
X0085550Y0027764D01*
X0085550Y0025374D01*
X0092050Y0025374D01*
X0089050Y0022874D02*
X0089050Y0022764D01*
X0081101Y0032374D02*
X0081101Y0032764D01*
X0081101Y0032374D02*
X0076550Y0032374D01*
X0076550Y0018974D01*
X0075387Y0018974D01*
X0070787Y0014374D01*
X0068050Y0014374D01*
X0062129Y0038201D02*
X0058152Y0038201D01*
X0062129Y0038201D02*
X0063310Y0039382D01*
X0076550Y0037764D02*
X0081101Y0037764D01*
X0104050Y0019874D02*
X0107450Y0023274D01*
X0149999Y0032764D02*
X0154550Y0032764D01*
X0141814Y0074364D02*
X0141814Y0076449D01*
X0143050Y0077685D01*
X0180067Y0074874D02*
X0180550Y0074874D01*
X0181050Y0074874D01*
X0251381Y0009374D02*
X0252550Y0010543D01*
X0251381Y0009374D02*
X0247050Y0009374D01*
X0264050Y0027720D02*
X0268050Y0031720D01*
X0268050Y0043374D01*
X0265550Y0045874D01*
X0265550Y0065705D01*
X0269704Y0056650D02*
X0269704Y0048374D01*
X0271550Y0046528D01*
X0271550Y0042374D01*
X0039050Y0061720D02*
X0032704Y0068067D01*
X0022050Y0069374D02*
X0022050Y0064689D01*
X0020081Y0064689D02*
X0020081Y0057972D01*
X0020034Y0057925D01*
X0015503Y0062374D02*
X0015050Y0062374D01*
X0015503Y0062374D02*
X0018113Y0064689D01*
X0018050Y0073827D02*
X0018050Y0076374D01*
X0018113Y0074059D02*
X0018050Y0073827D01*
D24*
X0049050Y0209374D03*
X0053050Y0209374D03*
X0057050Y0209374D03*
D25*
X0040537Y0216197D03*
X0040537Y0218756D03*
X0040537Y0221315D03*
X0040537Y0223874D03*
X0040537Y0226433D03*
X0040537Y0228992D03*
X0040537Y0231551D03*
X0017563Y0231551D03*
X0017563Y0228992D03*
X0017563Y0226433D03*
X0017563Y0223874D03*
X0017563Y0221315D03*
X0017563Y0218756D03*
X0017563Y0216197D03*
D26*
X0178050Y0062874D02*
X0184050Y0062874D01*
X0184050Y0052874D02*
X0178050Y0052874D01*
X0178050Y0042874D02*
X0184050Y0042874D01*
X0184050Y0032874D02*
X0178050Y0032874D01*
X0178050Y0022874D02*
X0184050Y0022874D01*
X0184050Y0012874D02*
X0178050Y0012874D01*
D27*
X0269310Y0057043D03*
X0276790Y0057043D03*
X0273050Y0065705D03*
X0143790Y0131043D03*
X0136310Y0131043D03*
X0140050Y0139705D03*
D28*
X0119688Y0164319D03*
X0117719Y0164319D03*
X0115751Y0164319D03*
X0113782Y0164319D03*
X0111814Y0164319D03*
X0109845Y0164319D03*
X0107877Y0164319D03*
X0105908Y0164319D03*
X0103940Y0164319D03*
X0101971Y0164319D03*
X0100003Y0164319D03*
X0098034Y0164319D03*
X0096066Y0164319D03*
X0094097Y0164319D03*
X0092129Y0164319D03*
X0090160Y0164319D03*
X0088192Y0164319D03*
X0086223Y0164319D03*
X0084255Y0164319D03*
X0082286Y0164319D03*
X0080318Y0164319D03*
X0078349Y0164319D03*
X0076381Y0164319D03*
X0074412Y0164319D03*
D29*
X0065456Y0171799D03*
X0128644Y0171799D03*
D30*
X0204550Y0055480D03*
X0209550Y0055480D03*
X0214550Y0055480D03*
X0219550Y0055480D03*
X0224550Y0055480D03*
X0229550Y0055480D03*
D31*
X0235396Y0052843D03*
X0235396Y0030205D03*
X0198585Y0030205D03*
X0198585Y0052843D03*
D32*
X0199471Y0007685D03*
X0234629Y0007685D03*
D33*
X0272637Y0222374D03*
X0283463Y0222374D03*
D34*
X0278050Y0228378D03*
X0278050Y0216370D03*
D35*
X0217578Y0085614D03*
X0217578Y0081874D03*
X0217578Y0078134D03*
X0208522Y0078134D03*
X0208522Y0081874D03*
X0208522Y0085614D03*
X0044578Y0041614D03*
X0044578Y0037874D03*
X0044578Y0034134D03*
X0035522Y0034134D03*
X0035522Y0037874D03*
X0035522Y0041614D03*
D36*
X0205810Y0164937D03*
X0213290Y0164937D03*
X0209550Y0173205D03*
X0233810Y0174937D03*
X0241290Y0174937D03*
X0246810Y0174937D03*
X0254290Y0174937D03*
X0250550Y0183205D03*
X0237550Y0183205D03*
X0248810Y0018811D03*
X0256290Y0018811D03*
X0252550Y0010543D03*
D37*
X0259507Y0090374D03*
X0265806Y0090374D03*
X0027593Y0161374D03*
X0021294Y0161374D03*
D38*
X0257050Y0065280D03*
X0257050Y0053469D03*
D39*
X0169050Y0080374D03*
X0154050Y0080374D03*
X0154050Y0102374D03*
X0169050Y0102374D03*
X0073550Y0095374D03*
X0058550Y0095374D03*
X0058550Y0073374D03*
X0073550Y0073374D03*
D40*
X0048050Y0146831D03*
X0048050Y0153130D03*
D41*
X0191243Y0155736D03*
X0195574Y0155736D03*
X0199904Y0155736D03*
X0204235Y0155736D03*
X0208566Y0155736D03*
X0212896Y0155736D03*
X0217227Y0155736D03*
X0221558Y0155736D03*
X0225889Y0155736D03*
X0230219Y0155736D03*
X0234550Y0155736D03*
X0238881Y0155736D03*
X0243211Y0155736D03*
X0247542Y0155736D03*
X0251873Y0155736D03*
X0256204Y0155736D03*
X0260534Y0155736D03*
X0264865Y0155736D03*
X0269196Y0155736D03*
X0273526Y0155736D03*
X0277857Y0155736D03*
X0277857Y0101012D03*
X0273526Y0101012D03*
X0269196Y0101012D03*
X0264865Y0101012D03*
X0260534Y0101012D03*
X0256204Y0101012D03*
X0251873Y0101012D03*
X0247542Y0101012D03*
X0243211Y0101012D03*
X0238881Y0101012D03*
X0234550Y0101012D03*
X0230219Y0101012D03*
X0225889Y0101012D03*
X0221558Y0101012D03*
X0217227Y0101012D03*
X0212896Y0101012D03*
X0208566Y0101012D03*
X0204235Y0101012D03*
X0199904Y0101012D03*
X0195574Y0101012D03*
X0191243Y0101012D03*
D42*
X0187503Y0106720D03*
X0187503Y0111051D03*
X0187503Y0115382D03*
X0187503Y0119713D03*
X0187503Y0124043D03*
X0187503Y0128374D03*
X0187503Y0132705D03*
X0187503Y0137035D03*
X0187503Y0141366D03*
X0187503Y0145697D03*
X0187503Y0150028D03*
X0281597Y0150028D03*
X0281597Y0145697D03*
X0281597Y0141366D03*
X0281597Y0137035D03*
X0281597Y0132705D03*
X0281597Y0128374D03*
X0281597Y0124043D03*
X0281597Y0119713D03*
X0281597Y0115382D03*
X0281597Y0111051D03*
X0281597Y0106720D03*
D43*
X0274904Y0107705D03*
X0267818Y0107705D03*
X0260731Y0107705D03*
X0267818Y0115972D03*
X0274904Y0115972D03*
X0274904Y0124240D03*
X0267818Y0124240D03*
X0267818Y0132508D03*
X0274904Y0132508D03*
X0274904Y0140776D03*
X0267818Y0140776D03*
X0267818Y0149043D03*
X0260731Y0149043D03*
X0246558Y0149043D03*
X0222542Y0149043D03*
X0208369Y0149043D03*
X0201282Y0149043D03*
X0194196Y0149043D03*
X0194196Y0140776D03*
X0201282Y0140776D03*
X0201282Y0132508D03*
X0194196Y0132508D03*
X0194196Y0124240D03*
X0201282Y0124240D03*
X0201282Y0115972D03*
X0194196Y0115972D03*
X0194196Y0107705D03*
X0201282Y0107705D03*
X0208369Y0107705D03*
X0222542Y0107705D03*
X0246558Y0107705D03*
X0274904Y0149043D03*
D44*
X0262109Y0144122D03*
X0262109Y0140185D03*
X0258172Y0140185D03*
X0254235Y0140185D03*
X0254235Y0144122D03*
X0258172Y0144122D03*
X0254235Y0148059D03*
X0250298Y0148059D03*
X0250298Y0144122D03*
X0250298Y0140185D03*
X0246361Y0140185D03*
X0242424Y0140185D03*
X0242424Y0144122D03*
X0246361Y0144122D03*
X0242424Y0148059D03*
X0238487Y0148059D03*
X0234550Y0148059D03*
X0230613Y0148059D03*
X0230613Y0144122D03*
X0230613Y0140185D03*
X0234550Y0140185D03*
X0238487Y0140185D03*
X0238487Y0144122D03*
X0234550Y0144122D03*
X0234550Y0136248D03*
X0230613Y0136248D03*
X0230613Y0132311D03*
X0230613Y0128374D03*
X0234550Y0128374D03*
X0238487Y0128374D03*
X0238487Y0132311D03*
X0234550Y0132311D03*
X0238487Y0136248D03*
X0242424Y0136248D03*
X0246361Y0136248D03*
X0250298Y0136248D03*
X0250298Y0132311D03*
X0246361Y0132311D03*
X0246361Y0128374D03*
X0242424Y0128374D03*
X0242424Y0132311D03*
X0250298Y0128374D03*
X0250298Y0124437D03*
X0246361Y0124437D03*
X0242424Y0124437D03*
X0242424Y0120500D03*
X0246361Y0120500D03*
X0250298Y0120500D03*
X0250298Y0116563D03*
X0246361Y0116563D03*
X0242424Y0116563D03*
X0242424Y0112626D03*
X0246361Y0112626D03*
X0250298Y0112626D03*
X0250298Y0108689D03*
X0254235Y0108689D03*
X0254235Y0112626D03*
X0254235Y0116563D03*
X0258172Y0116563D03*
X0258172Y0112626D03*
X0262109Y0112626D03*
X0262109Y0116563D03*
X0262109Y0120500D03*
X0258172Y0120500D03*
X0254235Y0120500D03*
X0254235Y0124437D03*
X0258172Y0124437D03*
X0262109Y0124437D03*
X0262109Y0128374D03*
X0258172Y0128374D03*
X0254235Y0128374D03*
X0254235Y0132311D03*
X0258172Y0132311D03*
X0262109Y0132311D03*
X0262109Y0136248D03*
X0258172Y0136248D03*
X0254235Y0136248D03*
X0238487Y0124437D03*
X0238487Y0120500D03*
X0234550Y0120500D03*
X0234550Y0124437D03*
X0230613Y0124437D03*
X0230613Y0120500D03*
X0230613Y0116563D03*
X0234550Y0116563D03*
X0238487Y0116563D03*
X0238487Y0112626D03*
X0234550Y0112626D03*
X0230613Y0112626D03*
X0230613Y0108689D03*
X0234550Y0108689D03*
X0238487Y0108689D03*
X0242424Y0108689D03*
X0226676Y0108689D03*
X0226676Y0112626D03*
X0226676Y0116563D03*
X0222739Y0116563D03*
X0222739Y0112626D03*
X0218802Y0112626D03*
X0218802Y0116563D03*
X0218802Y0120500D03*
X0222739Y0120500D03*
X0226676Y0120500D03*
X0226676Y0124437D03*
X0222739Y0124437D03*
X0218802Y0124437D03*
X0218802Y0128374D03*
X0222739Y0128374D03*
X0226676Y0128374D03*
X0226676Y0132311D03*
X0222739Y0132311D03*
X0218802Y0132311D03*
X0218802Y0136248D03*
X0222739Y0136248D03*
X0226676Y0136248D03*
X0226676Y0140185D03*
X0222739Y0140185D03*
X0218802Y0140185D03*
X0218802Y0144122D03*
X0222739Y0144122D03*
X0226676Y0144122D03*
X0226676Y0148059D03*
X0218802Y0148059D03*
X0214865Y0148059D03*
X0214865Y0144122D03*
X0214865Y0140185D03*
X0210928Y0140185D03*
X0210928Y0144122D03*
X0206991Y0144122D03*
X0206991Y0140185D03*
X0206991Y0136248D03*
X0210928Y0136248D03*
X0214865Y0136248D03*
X0214865Y0132311D03*
X0214865Y0128374D03*
X0210928Y0128374D03*
X0210928Y0132311D03*
X0206991Y0132311D03*
X0206991Y0128374D03*
X0206991Y0124437D03*
X0210928Y0124437D03*
X0214865Y0124437D03*
X0214865Y0120500D03*
X0210928Y0120500D03*
X0206991Y0120500D03*
X0206991Y0116563D03*
X0210928Y0116563D03*
X0214865Y0116563D03*
X0214865Y0112626D03*
X0210928Y0112626D03*
X0206991Y0112626D03*
X0214865Y0108689D03*
X0218802Y0108689D03*
X0213727Y0090874D03*
X0222050Y0081874D03*
X0204050Y0081874D03*
X0209050Y0067874D03*
X0205050Y0048874D03*
X0200050Y0039874D03*
X0180550Y0074874D03*
X0177050Y0074874D03*
X0173550Y0074874D03*
X0170050Y0074874D03*
X0166050Y0074874D03*
X0162550Y0074874D03*
X0159050Y0074874D03*
X0155550Y0074741D03*
X0133550Y0068374D03*
X0130050Y0092374D03*
X0124050Y0092374D03*
X0118550Y0092374D03*
X0112550Y0092374D03*
X0106550Y0092374D03*
X0097050Y0084874D03*
X0088550Y0084874D03*
X0073310Y0062610D03*
X0071050Y0057374D03*
X0075550Y0045874D03*
X0073550Y0039374D03*
X0089050Y0022874D03*
X0092050Y0025374D03*
X0068050Y0014374D03*
X0067550Y0010374D03*
X0064050Y0014107D03*
X0047550Y0046374D03*
X0047550Y0049874D03*
X0095550Y0155874D03*
X0105050Y0169374D03*
X0108550Y0169374D03*
X0111550Y0171874D03*
X0098050Y0176374D03*
X0090050Y0172374D03*
X0081050Y0172374D03*
X0217550Y0167874D03*
X0231550Y0195874D03*
X0244550Y0195874D03*
X0264550Y0177874D03*
X0278050Y0066374D03*
X0260050Y0015374D03*
X0247050Y0009374D03*
D45*
X0206172Y0193252D03*
X0206172Y0216874D03*
X0182550Y0216874D03*
X0158928Y0216874D03*
X0158928Y0240496D03*
X0182550Y0240496D03*
X0206172Y0240496D03*
X0158928Y0193252D03*
D46*
X0182550Y0186953D03*
D47*
X0087550Y0116886D03*
X0079050Y0116886D03*
X0079050Y0105862D03*
X0087550Y0105862D03*
X0051050Y0105862D03*
X0051050Y0116886D03*
D48*
X0065050Y0117374D03*
D49*
X0064066Y0122886D03*
X0066034Y0122886D03*
X0068003Y0122886D03*
X0069971Y0122886D03*
X0062097Y0122886D03*
X0060129Y0122886D03*
X0060129Y0111862D03*
X0062097Y0111862D03*
X0064066Y0111862D03*
X0066034Y0111862D03*
X0068003Y0111862D03*
X0069971Y0111862D03*
D50*
X0072530Y0114421D03*
X0072530Y0116390D03*
X0072530Y0118358D03*
X0072530Y0120327D03*
X0057570Y0120327D03*
X0057570Y0118358D03*
X0057570Y0116390D03*
X0057570Y0114421D03*
D51*
X0061113Y0115406D03*
X0061113Y0119343D03*
X0065050Y0119343D03*
X0068987Y0119343D03*
X0068987Y0115406D03*
X0065050Y0115406D03*
D52*
X0026356Y0075392D02*
X0026356Y0072726D01*
X0025618Y0072726D01*
X0025618Y0075392D01*
X0026356Y0075392D01*
X0026356Y0072971D02*
X0025618Y0072971D01*
X0025618Y0073216D02*
X0026356Y0073216D01*
X0026356Y0073461D02*
X0025618Y0073461D01*
X0025618Y0073706D02*
X0026356Y0073706D01*
X0026356Y0073951D02*
X0025618Y0073951D01*
X0025618Y0074196D02*
X0026356Y0074196D01*
X0026356Y0074441D02*
X0025618Y0074441D01*
X0025618Y0074686D02*
X0026356Y0074686D01*
X0026356Y0074931D02*
X0025618Y0074931D01*
X0025618Y0075176D02*
X0026356Y0075176D01*
X0024388Y0075392D02*
X0024388Y0072726D01*
X0023650Y0072726D01*
X0023650Y0075392D01*
X0024388Y0075392D01*
X0024388Y0072971D02*
X0023650Y0072971D01*
X0023650Y0073216D02*
X0024388Y0073216D01*
X0024388Y0073461D02*
X0023650Y0073461D01*
X0023650Y0073706D02*
X0024388Y0073706D01*
X0024388Y0073951D02*
X0023650Y0073951D01*
X0023650Y0074196D02*
X0024388Y0074196D01*
X0024388Y0074441D02*
X0023650Y0074441D01*
X0023650Y0074686D02*
X0024388Y0074686D01*
X0024388Y0074931D02*
X0023650Y0074931D01*
X0023650Y0075176D02*
X0024388Y0075176D01*
X0022419Y0075392D02*
X0022419Y0072726D01*
X0021681Y0072726D01*
X0021681Y0075392D01*
X0022419Y0075392D01*
X0022419Y0072971D02*
X0021681Y0072971D01*
X0021681Y0073216D02*
X0022419Y0073216D01*
X0022419Y0073461D02*
X0021681Y0073461D01*
X0021681Y0073706D02*
X0022419Y0073706D01*
X0022419Y0073951D02*
X0021681Y0073951D01*
X0021681Y0074196D02*
X0022419Y0074196D01*
X0022419Y0074441D02*
X0021681Y0074441D01*
X0021681Y0074686D02*
X0022419Y0074686D01*
X0022419Y0074931D02*
X0021681Y0074931D01*
X0021681Y0075176D02*
X0022419Y0075176D01*
X0020450Y0075392D02*
X0020450Y0072726D01*
X0019712Y0072726D01*
X0019712Y0075392D01*
X0020450Y0075392D01*
X0020450Y0072971D02*
X0019712Y0072971D01*
X0019712Y0073216D02*
X0020450Y0073216D01*
X0020450Y0073461D02*
X0019712Y0073461D01*
X0019712Y0073706D02*
X0020450Y0073706D01*
X0020450Y0073951D02*
X0019712Y0073951D01*
X0019712Y0074196D02*
X0020450Y0074196D01*
X0020450Y0074441D02*
X0019712Y0074441D01*
X0019712Y0074686D02*
X0020450Y0074686D01*
X0020450Y0074931D02*
X0019712Y0074931D01*
X0019712Y0075176D02*
X0020450Y0075176D01*
X0018482Y0075392D02*
X0018482Y0072726D01*
X0017744Y0072726D01*
X0017744Y0075392D01*
X0018482Y0075392D01*
X0018482Y0072971D02*
X0017744Y0072971D01*
X0017744Y0073216D02*
X0018482Y0073216D01*
X0018482Y0073461D02*
X0017744Y0073461D01*
X0017744Y0073706D02*
X0018482Y0073706D01*
X0018482Y0073951D02*
X0017744Y0073951D01*
X0017744Y0074196D02*
X0018482Y0074196D01*
X0018482Y0074441D02*
X0017744Y0074441D01*
X0017744Y0074686D02*
X0018482Y0074686D01*
X0018482Y0074931D02*
X0017744Y0074931D01*
X0017744Y0075176D02*
X0018482Y0075176D01*
X0018482Y0066022D02*
X0018482Y0063356D01*
X0017744Y0063356D01*
X0017744Y0066022D01*
X0018482Y0066022D01*
X0018482Y0063601D02*
X0017744Y0063601D01*
X0017744Y0063846D02*
X0018482Y0063846D01*
X0018482Y0064091D02*
X0017744Y0064091D01*
X0017744Y0064336D02*
X0018482Y0064336D01*
X0018482Y0064581D02*
X0017744Y0064581D01*
X0017744Y0064826D02*
X0018482Y0064826D01*
X0018482Y0065071D02*
X0017744Y0065071D01*
X0017744Y0065316D02*
X0018482Y0065316D01*
X0018482Y0065561D02*
X0017744Y0065561D01*
X0017744Y0065806D02*
X0018482Y0065806D01*
X0020450Y0066022D02*
X0020450Y0063356D01*
X0019712Y0063356D01*
X0019712Y0066022D01*
X0020450Y0066022D01*
X0020450Y0063601D02*
X0019712Y0063601D01*
X0019712Y0063846D02*
X0020450Y0063846D01*
X0020450Y0064091D02*
X0019712Y0064091D01*
X0019712Y0064336D02*
X0020450Y0064336D01*
X0020450Y0064581D02*
X0019712Y0064581D01*
X0019712Y0064826D02*
X0020450Y0064826D01*
X0020450Y0065071D02*
X0019712Y0065071D01*
X0019712Y0065316D02*
X0020450Y0065316D01*
X0020450Y0065561D02*
X0019712Y0065561D01*
X0019712Y0065806D02*
X0020450Y0065806D01*
X0022419Y0066022D02*
X0022419Y0063356D01*
X0021681Y0063356D01*
X0021681Y0066022D01*
X0022419Y0066022D01*
X0022419Y0063601D02*
X0021681Y0063601D01*
X0021681Y0063846D02*
X0022419Y0063846D01*
X0022419Y0064091D02*
X0021681Y0064091D01*
X0021681Y0064336D02*
X0022419Y0064336D01*
X0022419Y0064581D02*
X0021681Y0064581D01*
X0021681Y0064826D02*
X0022419Y0064826D01*
X0022419Y0065071D02*
X0021681Y0065071D01*
X0021681Y0065316D02*
X0022419Y0065316D01*
X0022419Y0065561D02*
X0021681Y0065561D01*
X0021681Y0065806D02*
X0022419Y0065806D01*
X0024388Y0066022D02*
X0024388Y0063356D01*
X0023650Y0063356D01*
X0023650Y0066022D01*
X0024388Y0066022D01*
X0024388Y0063601D02*
X0023650Y0063601D01*
X0023650Y0063846D02*
X0024388Y0063846D01*
X0024388Y0064091D02*
X0023650Y0064091D01*
X0023650Y0064336D02*
X0024388Y0064336D01*
X0024388Y0064581D02*
X0023650Y0064581D01*
X0023650Y0064826D02*
X0024388Y0064826D01*
X0024388Y0065071D02*
X0023650Y0065071D01*
X0023650Y0065316D02*
X0024388Y0065316D01*
X0024388Y0065561D02*
X0023650Y0065561D01*
X0023650Y0065806D02*
X0024388Y0065806D01*
X0026356Y0066022D02*
X0026356Y0063356D01*
X0025618Y0063356D01*
X0025618Y0066022D01*
X0026356Y0066022D01*
X0026356Y0063601D02*
X0025618Y0063601D01*
X0025618Y0063846D02*
X0026356Y0063846D01*
X0026356Y0064091D02*
X0025618Y0064091D01*
X0025618Y0064336D02*
X0026356Y0064336D01*
X0026356Y0064581D02*
X0025618Y0064581D01*
X0025618Y0064826D02*
X0026356Y0064826D01*
X0026356Y0065071D02*
X0025618Y0065071D01*
X0025618Y0065316D02*
X0026356Y0065316D01*
X0026356Y0065561D02*
X0025618Y0065561D01*
X0025618Y0065806D02*
X0026356Y0065806D01*
D53*
X0022050Y0069374D03*
D54*
X0022050Y0069374D03*
X0018310Y0069374D03*
X0025790Y0069374D03*
D55*
X0063310Y0052902D03*
X0067050Y0052902D03*
X0070790Y0052902D03*
X0070790Y0043846D03*
X0067050Y0043846D03*
X0063310Y0043846D03*
D56*
X0115944Y0043669D03*
X0121456Y0043669D03*
X0126967Y0043669D03*
X0126967Y0038157D03*
X0126967Y0032646D03*
X0121456Y0032646D03*
X0121456Y0038157D03*
X0115944Y0038157D03*
X0115944Y0032646D03*
D57*
X0149999Y0032764D03*
X0149999Y0037764D03*
X0149999Y0042764D03*
X0149999Y0047764D03*
X0149999Y0052764D03*
X0149999Y0057764D03*
X0149999Y0062764D03*
X0149999Y0067764D03*
X0149999Y0072764D03*
X0149999Y0027764D03*
X0149999Y0022764D03*
X0149999Y0017764D03*
X0149999Y0012764D03*
X0149999Y0007764D03*
X0081101Y0007764D03*
X0081101Y0012764D03*
X0081101Y0017764D03*
X0081101Y0022764D03*
X0081101Y0027764D03*
X0081101Y0032764D03*
X0081101Y0037764D03*
X0081101Y0042764D03*
X0081101Y0047764D03*
X0081101Y0052764D03*
X0081101Y0057764D03*
X0081101Y0062764D03*
X0081101Y0067764D03*
X0081101Y0072764D03*
D58*
X0088050Y0077685D03*
X0093050Y0077685D03*
X0098050Y0077685D03*
X0103050Y0077685D03*
X0108050Y0077685D03*
X0113050Y0077685D03*
X0118050Y0077685D03*
X0123050Y0077685D03*
X0128050Y0077685D03*
X0133050Y0077685D03*
X0138050Y0077685D03*
X0143050Y0077685D03*
D59*
X0124211Y0043669D03*
X0121456Y0040913D03*
X0118700Y0043669D03*
X0115944Y0040913D03*
X0118700Y0038157D03*
X0121456Y0035402D03*
X0124211Y0038157D03*
X0126967Y0035402D03*
X0124211Y0032646D03*
X0118700Y0032646D03*
X0115944Y0035402D03*
X0126967Y0040913D03*
D60*
X0055798Y0010874D03*
X0044774Y0010874D03*
X0035326Y0010874D03*
X0024302Y0010874D03*
D61*
X0034932Y0021504D03*
X0037491Y0021504D03*
X0040050Y0021504D03*
X0042609Y0021504D03*
X0045168Y0021504D03*
D62*
X0025381Y0032374D03*
X0016719Y0032374D03*
D63*
X0050881Y0086634D03*
X0050881Y0094114D03*
X0042219Y0090374D03*
D64*
X0050050Y0076535D03*
X0050050Y0059213D03*
D65*
X0062196Y0128874D03*
X0067904Y0128874D03*
D66*
X0095050Y0142028D02*
X0103050Y0141634D01*
X0094896Y0096339D02*
X0090562Y0096339D01*
X0085975Y0096339D01*
X0085515Y0095878D01*
X0094896Y0096339D02*
X0095357Y0095878D01*
X0073550Y0095374D02*
X0073550Y0073374D01*
X0076066Y0073374D01*
X0081101Y0073374D01*
X0081101Y0072764D01*
X0071050Y0057374D02*
X0071050Y0052764D01*
X0070790Y0052764D01*
X0070790Y0052902D01*
X0071050Y0052764D02*
X0081101Y0052764D01*
X0081101Y0047764D02*
X0077440Y0047764D01*
X0075550Y0045874D01*
X0074350Y0044674D01*
X0072804Y0044674D01*
X0071977Y0043846D01*
X0073550Y0042874D02*
X0081101Y0042874D01*
X0081101Y0042764D01*
X0073550Y0042874D02*
X0073550Y0039374D01*
X0063310Y0039374D01*
X0063310Y0039382D01*
X0063310Y0043846D01*
X0033050Y0084720D02*
X0030368Y0087403D01*
X0021747Y0087403D01*
X0018959Y0090191D01*
X0018959Y0092838D01*
X0018256Y0093541D01*
X0013325Y0093541D01*
X0009959Y0090175D01*
X0009097Y0090175D01*
X0133550Y0068374D02*
X0139160Y0062764D01*
X0149999Y0062764D01*
X0169050Y0080374D02*
X0169050Y0102374D01*
X0200050Y0083874D02*
X0212896Y0096720D01*
X0212896Y0101012D01*
X0217227Y0101012D02*
X0217227Y0094374D01*
X0213727Y0090874D01*
X0217578Y0087402D02*
X0221550Y0091374D01*
X0221550Y0101004D01*
X0221558Y0101012D01*
X0225889Y0101012D02*
X0226050Y0100850D01*
X0226050Y0084290D01*
X0217578Y0085614D02*
X0217578Y0087402D01*
X0239050Y0095874D02*
X0239050Y0035528D01*
X0249204Y0025374D01*
X0249204Y0019205D01*
X0248810Y0018811D01*
X0255896Y0019205D02*
X0255896Y0025374D01*
X0255896Y0019205D02*
X0256290Y0018811D01*
X0259727Y0015374D01*
X0260050Y0015374D01*
X0264050Y0010543D02*
X0264050Y0021028D01*
X0264050Y0010543D02*
X0252550Y0010543D01*
X0264050Y0064205D02*
X0265550Y0065705D01*
X0251050Y0095874D02*
X0239050Y0095874D01*
X0251050Y0095874D02*
X0251873Y0096697D01*
X0251873Y0101012D01*
X0230219Y0155736D02*
X0230219Y0161874D01*
X0253550Y0161874D01*
X0253550Y0167874D01*
X0253896Y0167874D01*
X0240896Y0167874D02*
X0236696Y0163674D01*
X0229474Y0163674D01*
X0226674Y0160874D01*
X0226674Y0156521D01*
X0225889Y0155736D01*
X0226550Y0160874D02*
X0226674Y0160874D01*
X0217550Y0156059D02*
X0217227Y0155736D01*
X0217550Y0156059D02*
X0217550Y0167874D01*
X0212896Y0160874D02*
X0212896Y0155736D01*
X0206550Y0164937D02*
X0205810Y0164937D01*
X0200050Y0166528D02*
X0198763Y0165240D01*
X0193550Y0166421D01*
X0193550Y0172327D02*
X0193550Y0178374D01*
X0218100Y0178374D01*
X0218686Y0178960D01*
X0221136Y0178960D01*
X0225267Y0183091D01*
X0225267Y0185820D01*
X0226550Y0187102D01*
X0226550Y0190874D01*
X0231204Y0190874D01*
X0237896Y0190874D02*
X0237896Y0183874D01*
X0237896Y0183551D01*
X0237550Y0183205D01*
X0250550Y0183205D02*
X0250550Y0184874D01*
X0250550Y0190528D01*
X0250896Y0190874D01*
X0209550Y0173205D02*
X0209204Y0173205D01*
X0209204Y0173220D01*
X0200050Y0173220D01*
X0070050Y0224374D02*
X0069790Y0224114D01*
X0064050Y0223720D01*
X0057499Y0224114D01*
X0057282Y0223898D01*
X0057282Y0218780D02*
X0053050Y0214547D01*
X0053050Y0209374D01*
X0049050Y0209374D02*
X0046050Y0209374D01*
X0043050Y0212374D01*
X0043050Y0212684D01*
X0040537Y0216197D01*
X0040537Y0218756D02*
X0048794Y0218756D01*
X0048818Y0218780D01*
X0048794Y0221315D02*
X0040537Y0221315D01*
X0040537Y0223874D02*
X0040561Y0223898D01*
X0048818Y0223898D01*
X0048818Y0221339D02*
X0048794Y0221315D01*
X0070050Y0224374D02*
X0070050Y0228374D01*
X0022050Y0236374D02*
X0017740Y0232374D01*
X0017563Y0231551D01*
X0017563Y0226433D02*
X0008050Y0225420D01*
X0008050Y0218728D02*
X0017563Y0218756D01*
X0017563Y0216197D02*
X0017050Y0215684D01*
X0017050Y0212374D01*
X0163204Y0042374D02*
X0162704Y0040205D01*
X0159535Y0037036D01*
X0159535Y0032905D01*
X0157250Y0030620D01*
X0157250Y0030074D01*
X0157050Y0029874D01*
X0157050Y0027764D01*
X0149999Y0027764D01*
X0149999Y0023374D02*
X0159050Y0023374D01*
X0159050Y0029874D01*
X0162550Y0029874D01*
X0162550Y0034374D01*
X0163204Y0034374D01*
X0163204Y0025874D02*
X0163204Y0021374D01*
X0155050Y0021374D01*
X0155050Y0017764D01*
X0149999Y0017764D01*
X0149999Y0022764D02*
X0149999Y0023374D01*
D67*
X0006287Y0006611D02*
X0004788Y0008674D01*
X0004000Y0011099D01*
X0003900Y0012374D01*
X0003900Y0087837D01*
X0004533Y0087575D01*
X0005529Y0087575D01*
X0005529Y0087347D01*
X0006466Y0086410D01*
X0006611Y0086410D01*
X0006653Y0086242D01*
X0006757Y0086101D01*
X0006821Y0085939D01*
X0007062Y0085689D01*
X0007269Y0085411D01*
X0007419Y0085321D01*
X0007540Y0085195D01*
X0007858Y0085057D01*
X0010259Y0083616D01*
X0010259Y0076684D01*
X0011196Y0075746D01*
X0015361Y0075746D01*
X0015950Y0075110D01*
X0015950Y0074106D01*
X0015796Y0073537D01*
X0015950Y0073267D01*
X0015950Y0072957D01*
X0016021Y0072886D01*
X0016021Y0072012D01*
X0017030Y0071002D01*
X0027070Y0071002D01*
X0028079Y0072012D01*
X0028079Y0073137D01*
X0029873Y0074808D01*
X0030222Y0074459D01*
X0035878Y0074459D01*
X0036815Y0075396D01*
X0036815Y0080659D01*
X0036100Y0081374D01*
X0036815Y0082089D01*
X0036815Y0087352D01*
X0035878Y0088289D01*
X0032593Y0088289D01*
X0032568Y0088314D01*
X0031279Y0089603D01*
X0022659Y0089603D01*
X0021159Y0091103D01*
X0021159Y0093749D01*
X0020456Y0094452D01*
X0019167Y0095741D01*
X0012413Y0095741D01*
X0011125Y0094452D01*
X0010613Y0093941D01*
X0007650Y0093941D01*
X0007650Y0114309D01*
X0018264Y0114309D01*
X0018307Y0114266D01*
X0019438Y0113798D01*
X0020662Y0113798D01*
X0021793Y0114266D01*
X0021836Y0114309D01*
X0022264Y0114309D01*
X0022307Y0114266D01*
X0023438Y0113798D01*
X0024662Y0113798D01*
X0025793Y0114266D01*
X0025836Y0114309D01*
X0025978Y0114309D01*
X0025978Y0114278D01*
X0026915Y0113341D01*
X0045907Y0113341D01*
X0045907Y0113073D01*
X0046050Y0112930D01*
X0046050Y0107374D01*
X0057050Y0107374D01*
X0057050Y0097874D01*
X0059050Y0097874D01*
X0059050Y0070706D01*
X0057490Y0070706D01*
X0056552Y0069769D01*
X0056552Y0064507D01*
X0057268Y0063791D01*
X0056552Y0063076D01*
X0056552Y0058988D01*
X0056482Y0058988D01*
X0055784Y0058699D01*
X0055784Y0062631D01*
X0054847Y0063568D01*
X0053250Y0063568D01*
X0053250Y0065511D01*
X0052763Y0066687D01*
X0051863Y0067587D01*
X0050687Y0068074D01*
X0045413Y0068074D01*
X0044237Y0067587D01*
X0043337Y0066687D01*
X0042850Y0065511D01*
X0042850Y0064237D01*
X0043337Y0063061D01*
X0044237Y0062161D01*
X0044316Y0062129D01*
X0044316Y0055794D01*
X0044399Y0055711D01*
X0044077Y0055578D01*
X0042815Y0054316D01*
X0042815Y0057659D01*
X0042100Y0058374D01*
X0042815Y0059089D01*
X0042815Y0064352D01*
X0041878Y0065289D01*
X0038451Y0065289D01*
X0036272Y0067468D01*
X0036272Y0071202D01*
X0035335Y0072139D01*
X0030072Y0072139D01*
X0029135Y0071202D01*
X0029135Y0067468D01*
X0028682Y0067015D01*
X0027867Y0066949D01*
X0027070Y0067746D01*
X0022936Y0067746D01*
X0022050Y0066860D01*
X0021164Y0067746D01*
X0017030Y0067746D01*
X0016021Y0066736D01*
X0016021Y0065640D01*
X0015495Y0065174D01*
X0014272Y0065174D01*
X0014272Y0065285D01*
X0013335Y0066222D01*
X0006104Y0066222D01*
X0005167Y0065285D01*
X0005167Y0058841D01*
X0006104Y0057904D01*
X0012250Y0057904D01*
X0012250Y0052817D01*
X0012676Y0051788D01*
X0017045Y0047419D01*
X0016828Y0047202D01*
X0016828Y0041546D01*
X0017765Y0040609D01*
X0018928Y0040609D01*
X0021812Y0033666D01*
X0021812Y0030530D01*
X0022749Y0029593D01*
X0024270Y0029593D01*
X0031027Y0023389D01*
X0030194Y0023044D01*
X0029356Y0022207D01*
X0028903Y0021112D01*
X0028903Y0019927D01*
X0029356Y0018833D01*
X0030194Y0017995D01*
X0031288Y0017542D01*
X0032473Y0017542D01*
X0032978Y0017751D01*
X0033482Y0017246D01*
X0044059Y0017246D01*
X0044996Y0018184D01*
X0044996Y0024824D01*
X0044059Y0025761D01*
X0042450Y0025761D01*
X0042450Y0031353D01*
X0044389Y0031353D01*
X0044968Y0030774D01*
X0046050Y0030774D01*
X0046050Y0022562D01*
X0045695Y0022207D01*
X0045241Y0021112D01*
X0045241Y0019927D01*
X0045695Y0018833D01*
X0046050Y0018478D01*
X0046050Y0004224D01*
X0012050Y0004224D01*
X0010775Y0004324D01*
X0008350Y0005112D01*
X0006287Y0006611D01*
X0006617Y0006371D02*
X0006951Y0006371D01*
X0007603Y0005719D02*
X0010489Y0004524D01*
X0013611Y0004524D01*
X0016497Y0005719D01*
X0018705Y0007927D01*
X0019900Y0010813D01*
X0019900Y0013935D01*
X0018705Y0016821D01*
X0016497Y0019029D01*
X0013611Y0020224D01*
X0010489Y0020224D01*
X0007603Y0019029D01*
X0005395Y0016821D01*
X0004200Y0013935D01*
X0004200Y0010813D01*
X0005395Y0007927D01*
X0007603Y0005719D01*
X0010627Y0004373D02*
X0046050Y0004373D01*
X0046050Y0006371D02*
X0017149Y0006371D01*
X0018888Y0008370D02*
X0046050Y0008370D01*
X0046050Y0010368D02*
X0019716Y0010368D01*
X0019900Y0012367D02*
X0046050Y0012367D01*
X0046050Y0014365D02*
X0019722Y0014365D01*
X0018894Y0016364D02*
X0046050Y0016364D01*
X0046050Y0018362D02*
X0044996Y0018362D01*
X0044996Y0020361D02*
X0045241Y0020361D01*
X0044996Y0022359D02*
X0045847Y0022359D01*
X0046050Y0024358D02*
X0044996Y0024358D01*
X0046050Y0026356D02*
X0042450Y0026356D01*
X0042450Y0028355D02*
X0046050Y0028355D01*
X0046050Y0030353D02*
X0042450Y0030353D01*
X0041172Y0036534D02*
X0039573Y0036534D01*
X0039117Y0036345D01*
X0038547Y0036915D01*
X0032497Y0036915D01*
X0031560Y0035978D01*
X0031560Y0032290D01*
X0031838Y0032012D01*
X0031442Y0031617D01*
X0031140Y0030888D01*
X0028949Y0032899D01*
X0028949Y0034218D01*
X0028012Y0035155D01*
X0027257Y0035155D01*
X0024301Y0042274D01*
X0026567Y0042274D01*
X0027523Y0042670D01*
X0027627Y0042774D01*
X0031560Y0042774D01*
X0031560Y0039770D01*
X0032497Y0038833D01*
X0038547Y0038833D01*
X0039485Y0039770D01*
X0039485Y0041369D01*
X0040615Y0042500D01*
X0040615Y0039770D01*
X0041553Y0038833D01*
X0046050Y0038833D01*
X0046050Y0036915D01*
X0041553Y0036915D01*
X0041172Y0036534D01*
X0039126Y0036349D02*
X0039114Y0036349D01*
X0039485Y0040346D02*
X0040615Y0040346D01*
X0040615Y0042344D02*
X0040460Y0042344D01*
X0037571Y0045395D02*
X0032083Y0045395D01*
X0032062Y0045374D01*
X0026050Y0045374D01*
X0026050Y0044874D01*
X0020396Y0044874D01*
X0016828Y0044343D02*
X0003900Y0044343D01*
X0003900Y0046341D02*
X0016828Y0046341D01*
X0016124Y0048340D02*
X0003900Y0048340D01*
X0003900Y0050338D02*
X0014126Y0050338D01*
X0012449Y0052337D02*
X0003900Y0052337D01*
X0003900Y0054335D02*
X0012250Y0054335D01*
X0012250Y0056334D02*
X0003900Y0056334D01*
X0003900Y0058332D02*
X0005675Y0058332D01*
X0005167Y0060331D02*
X0003900Y0060331D01*
X0003900Y0062329D02*
X0005167Y0062329D01*
X0005167Y0064328D02*
X0003900Y0064328D01*
X0003900Y0066326D02*
X0016021Y0066326D01*
X0016021Y0072322D02*
X0003900Y0072322D01*
X0003900Y0074320D02*
X0015950Y0074320D01*
X0010624Y0076319D02*
X0003900Y0076319D01*
X0003900Y0078317D02*
X0010259Y0078317D01*
X0010259Y0080316D02*
X0003900Y0080316D01*
X0003900Y0082314D02*
X0010259Y0082314D01*
X0009098Y0084313D02*
X0003900Y0084313D01*
X0003900Y0086311D02*
X0006636Y0086311D01*
X0009050Y0087374D02*
X0009097Y0090175D01*
X0005050Y0090175D01*
X0005050Y0116909D01*
X0019550Y0116909D01*
X0036633Y0116909D01*
X0045498Y0121335D02*
X0044950Y0122658D01*
X0044950Y0124090D01*
X0045498Y0125413D01*
X0046511Y0126426D01*
X0047834Y0126974D01*
X0049450Y0126974D01*
X0045166Y0131258D01*
X0045011Y0131322D01*
X0044959Y0131374D01*
X0003900Y0131374D01*
X0003900Y0119247D01*
X0004533Y0119509D01*
X0018374Y0119509D01*
X0019438Y0119950D01*
X0020662Y0119950D01*
X0021726Y0119509D01*
X0022374Y0119509D01*
X0023438Y0119950D01*
X0024662Y0119950D01*
X0025726Y0119509D01*
X0025978Y0119509D01*
X0025978Y0119541D01*
X0026915Y0120478D01*
X0045907Y0120478D01*
X0045907Y0120698D01*
X0046021Y0120812D01*
X0045498Y0121335D01*
X0045105Y0122285D02*
X0003900Y0122285D01*
X0003900Y0124283D02*
X0045030Y0124283D01*
X0046367Y0126282D02*
X0003900Y0126282D01*
X0003900Y0128280D02*
X0048144Y0128280D01*
X0046145Y0130279D02*
X0003900Y0130279D01*
X0003900Y0134374D02*
X0003900Y0242374D01*
X0004000Y0243649D01*
X0004788Y0246074D01*
X0006287Y0248137D01*
X0008350Y0249636D01*
X0010775Y0250424D01*
X0012050Y0250524D01*
X0067050Y0250524D01*
X0068325Y0250424D01*
X0070750Y0249636D01*
X0072813Y0248137D01*
X0074312Y0246074D01*
X0075100Y0243649D01*
X0075200Y0242374D01*
X0075200Y0224721D01*
X0076470Y0219569D01*
X0078936Y0214871D01*
X0078936Y0214871D01*
X0082454Y0210899D01*
X0082454Y0210899D01*
X0082454Y0210899D01*
X0086821Y0207885D01*
X0086821Y0207885D01*
X0091783Y0206003D01*
X0097050Y0205364D01*
X0102317Y0206003D01*
X0102317Y0206003D01*
X0107279Y0207885D01*
X0111646Y0210899D01*
X0115164Y0214871D01*
X0117630Y0219569D01*
X0118900Y0224721D01*
X0118900Y0242374D01*
X0119000Y0243649D01*
X0119788Y0246074D01*
X0121287Y0248137D01*
X0123350Y0249636D01*
X0125775Y0250424D01*
X0127050Y0250524D01*
X0132050Y0250524D01*
X0132050Y0136374D01*
X0121450Y0136374D01*
X0121450Y0138459D01*
X0121878Y0138459D01*
X0122815Y0139396D01*
X0122815Y0144659D01*
X0122100Y0145374D01*
X0122558Y0145832D01*
X0123434Y0144955D01*
X0130665Y0144955D01*
X0131603Y0145892D01*
X0131603Y0152336D01*
X0130665Y0153273D01*
X0130300Y0153273D01*
X0130658Y0153631D01*
X0131126Y0154762D01*
X0131126Y0155986D01*
X0130658Y0157117D01*
X0129793Y0157982D01*
X0128662Y0158450D01*
X0127438Y0158450D01*
X0126307Y0157982D01*
X0126134Y0157809D01*
X0125577Y0157578D01*
X0124846Y0156847D01*
X0124450Y0155891D01*
X0124450Y0153273D01*
X0123434Y0153273D01*
X0122497Y0152336D01*
X0122497Y0151670D01*
X0121878Y0152289D01*
X0119105Y0152289D01*
X0117420Y0153974D01*
X0114817Y0153974D01*
X0114808Y0154059D01*
X0114750Y0154577D01*
X0114750Y0154577D01*
X0114750Y0154579D01*
X0114750Y0155907D01*
X0114584Y0156073D01*
X0114558Y0156306D01*
X0114295Y0156516D01*
X0113521Y0157135D01*
X0112383Y0158274D01*
X0112098Y0158274D01*
X0112065Y0158300D01*
X0112032Y0159963D01*
X0117004Y0159963D01*
X0117719Y0160678D01*
X0118434Y0159963D01*
X0120941Y0159963D01*
X0121878Y0160900D01*
X0121878Y0167738D01*
X0120941Y0168675D01*
X0119676Y0168675D01*
X0119733Y0168810D01*
X0119733Y0169878D01*
X0119324Y0170864D01*
X0118570Y0171618D01*
X0117584Y0172027D01*
X0116516Y0172027D01*
X0115530Y0171618D01*
X0115412Y0171500D01*
X0114544Y0171860D01*
X0114183Y0171860D01*
X0114183Y0172398D01*
X0113783Y0173366D01*
X0113042Y0174107D01*
X0112074Y0174507D01*
X0111026Y0174507D01*
X0110058Y0174107D01*
X0109317Y0173366D01*
X0108917Y0172398D01*
X0108917Y0172007D01*
X0108026Y0172007D01*
X0107058Y0171607D01*
X0106800Y0171348D01*
X0106542Y0171607D01*
X0105574Y0172007D01*
X0104526Y0172007D01*
X0104137Y0171846D01*
X0104221Y0181497D01*
X0104229Y0181504D01*
X0104229Y0182365D01*
X0104236Y0183226D01*
X0104229Y0183233D01*
X0104229Y0183244D01*
X0103620Y0183853D01*
X0103017Y0184466D01*
X0103006Y0184466D01*
X0102999Y0184474D01*
X0102965Y0184474D01*
X0102958Y0184481D01*
X0102044Y0184860D01*
X0101056Y0184860D01*
X0100142Y0184481D01*
X0099443Y0183782D01*
X0099064Y0182868D01*
X0099064Y0181880D01*
X0099443Y0180966D01*
X0100011Y0180397D01*
X0099992Y0178156D01*
X0099542Y0178607D01*
X0098574Y0179007D01*
X0097526Y0179007D01*
X0096558Y0178607D01*
X0095817Y0177866D01*
X0095417Y0176898D01*
X0095417Y0175850D01*
X0095817Y0174882D01*
X0096070Y0174629D01*
X0096043Y0172557D01*
X0095016Y0172557D01*
X0094030Y0172148D01*
X0093276Y0171394D01*
X0092867Y0170408D01*
X0092867Y0169340D01*
X0093143Y0168675D01*
X0092844Y0168675D01*
X0092339Y0168169D01*
X0092399Y0171164D01*
X0092683Y0171850D01*
X0092683Y0172898D01*
X0092283Y0173866D01*
X0091542Y0174607D01*
X0090574Y0175007D01*
X0089526Y0175007D01*
X0088887Y0174743D01*
X0088824Y0174894D01*
X0088070Y0175648D01*
X0087084Y0176057D01*
X0086233Y0176057D01*
X0086233Y0176408D01*
X0085824Y0177394D01*
X0085070Y0178148D01*
X0084084Y0178557D01*
X0083016Y0178557D01*
X0082030Y0178148D01*
X0081276Y0177394D01*
X0080867Y0176408D01*
X0080867Y0175340D01*
X0081005Y0175007D01*
X0080526Y0175007D01*
X0079558Y0174607D01*
X0078817Y0173866D01*
X0078417Y0172898D01*
X0078417Y0172735D01*
X0078394Y0172713D01*
X0078393Y0172687D01*
X0078375Y0172669D01*
X0078375Y0171821D01*
X0078309Y0168675D01*
X0073159Y0168675D01*
X0072222Y0167738D01*
X0072222Y0160900D01*
X0073159Y0159963D01*
X0075790Y0159963D01*
X0075030Y0159648D01*
X0074276Y0158894D01*
X0073867Y0157908D01*
X0073867Y0156840D01*
X0074276Y0155854D01*
X0075030Y0155100D01*
X0076016Y0154691D01*
X0077084Y0154691D01*
X0078070Y0155100D01*
X0078244Y0155274D01*
X0079219Y0155274D01*
X0080449Y0156504D01*
X0080449Y0159963D01*
X0084123Y0159963D01*
X0084123Y0157331D01*
X0084367Y0157087D01*
X0084367Y0156840D01*
X0084776Y0155854D01*
X0085530Y0155100D01*
X0086516Y0154691D01*
X0087584Y0154691D01*
X0088570Y0155100D01*
X0089324Y0155854D01*
X0089733Y0156840D01*
X0089733Y0157908D01*
X0089324Y0158894D01*
X0088570Y0159648D01*
X0088323Y0159750D01*
X0088323Y0159963D01*
X0091414Y0159963D01*
X0091997Y0160547D01*
X0091997Y0156457D01*
X0092917Y0155538D01*
X0092917Y0155350D01*
X0093317Y0154382D01*
X0093326Y0154374D01*
X0068050Y0154374D01*
X0068050Y0137174D01*
X0060469Y0137174D01*
X0060469Y0142990D01*
X0059532Y0143927D01*
X0053088Y0143927D01*
X0052151Y0142990D01*
X0052151Y0142974D01*
X0051422Y0142974D01*
X0051422Y0147318D01*
X0051028Y0148269D01*
X0051028Y0149167D01*
X0050214Y0149980D01*
X0051028Y0150794D01*
X0051028Y0152714D01*
X0052151Y0153837D01*
X0052151Y0149759D01*
X0053088Y0148821D01*
X0059532Y0148821D01*
X0060469Y0149759D01*
X0060469Y0156990D01*
X0059532Y0157927D01*
X0058953Y0157927D01*
X0059658Y0158631D01*
X0060126Y0159762D01*
X0060126Y0160986D01*
X0060062Y0161142D01*
X0060815Y0161896D01*
X0060815Y0167159D01*
X0059878Y0168096D01*
X0054222Y0168096D01*
X0053285Y0167159D01*
X0053285Y0166628D01*
X0051766Y0166628D01*
X0051266Y0167128D01*
X0049420Y0168974D01*
X0045365Y0168974D01*
X0044135Y0167744D01*
X0042834Y0166443D01*
X0041466Y0166443D01*
X0040603Y0165579D01*
X0040603Y0168856D01*
X0039665Y0169793D01*
X0032434Y0169793D01*
X0031673Y0169032D01*
X0030662Y0169450D01*
X0029438Y0169450D01*
X0028307Y0168982D01*
X0027442Y0168117D01*
X0026974Y0166986D01*
X0026974Y0165762D01*
X0027442Y0164631D01*
X0027499Y0164574D01*
X0026957Y0164574D01*
X0026421Y0164352D01*
X0025257Y0164352D01*
X0024444Y0163538D01*
X0023630Y0164352D01*
X0022467Y0164352D01*
X0021931Y0164574D01*
X0018365Y0164574D01*
X0017665Y0165273D01*
X0011250Y0165273D01*
X0011250Y0169011D01*
X0010763Y0170187D01*
X0009863Y0171087D01*
X0008687Y0171574D01*
X0007413Y0171574D01*
X0006237Y0171087D01*
X0005337Y0170187D01*
X0004850Y0169011D01*
X0004850Y0159737D01*
X0005337Y0158561D01*
X0006237Y0157661D01*
X0007413Y0157174D01*
X0010216Y0157174D01*
X0010434Y0156955D01*
X0017665Y0156955D01*
X0018603Y0157892D01*
X0018603Y0158174D01*
X0021931Y0158174D01*
X0022467Y0158396D01*
X0023630Y0158396D01*
X0024393Y0159159D01*
X0024393Y0157245D01*
X0024222Y0156830D01*
X0024222Y0155398D01*
X0024770Y0154075D01*
X0025782Y0153062D01*
X0027106Y0152514D01*
X0031875Y0152514D01*
X0032434Y0151955D01*
X0039665Y0151955D01*
X0040603Y0152892D01*
X0040603Y0157697D01*
X0041211Y0158306D01*
X0045941Y0158306D01*
X0046878Y0159243D01*
X0046878Y0164547D01*
X0047105Y0164774D01*
X0047222Y0164774D01*
X0047222Y0163180D01*
X0048027Y0162374D01*
X0047222Y0161568D01*
X0047222Y0159243D01*
X0048159Y0158306D01*
X0049419Y0158306D01*
X0049607Y0158081D01*
X0047929Y0156403D01*
X0046009Y0156403D01*
X0045072Y0155466D01*
X0045072Y0150794D01*
X0045886Y0149980D01*
X0045072Y0149167D01*
X0045072Y0148944D01*
X0044770Y0148642D01*
X0044222Y0147318D01*
X0044222Y0141637D01*
X0043998Y0141413D01*
X0043450Y0140090D01*
X0043450Y0134374D01*
X0003900Y0134374D01*
X0003900Y0136274D02*
X0043450Y0136274D01*
X0043450Y0138273D02*
X0003900Y0138273D01*
X0003900Y0140271D02*
X0043525Y0140271D01*
X0044222Y0142270D02*
X0003900Y0142270D01*
X0003900Y0144268D02*
X0044222Y0144268D01*
X0044222Y0146267D02*
X0003900Y0146267D01*
X0003900Y0148265D02*
X0044614Y0148265D01*
X0045602Y0150264D02*
X0003900Y0150264D01*
X0003900Y0152262D02*
X0032127Y0152262D01*
X0024693Y0154261D02*
X0003900Y0154261D01*
X0003900Y0156259D02*
X0024222Y0156259D01*
X0024393Y0158258D02*
X0022133Y0158258D01*
X0023729Y0164253D02*
X0025159Y0164253D01*
X0026974Y0166252D02*
X0011250Y0166252D01*
X0011250Y0168250D02*
X0027576Y0168250D01*
X0030050Y0166374D02*
X0035310Y0166374D01*
X0036050Y0165634D01*
X0040603Y0166252D02*
X0041275Y0166252D01*
X0040603Y0168250D02*
X0044642Y0168250D01*
X0046878Y0164253D02*
X0047222Y0164253D01*
X0046878Y0162255D02*
X0047908Y0162255D01*
X0047222Y0160256D02*
X0046878Y0160256D01*
X0049459Y0158258D02*
X0041164Y0158258D01*
X0040603Y0156259D02*
X0045866Y0156259D01*
X0045072Y0154261D02*
X0040603Y0154261D01*
X0039973Y0152262D02*
X0045072Y0152262D01*
X0050498Y0150264D02*
X0052151Y0150264D01*
X0052151Y0152262D02*
X0051028Y0152262D01*
X0051029Y0148265D02*
X0068050Y0148265D01*
X0068050Y0146267D02*
X0051422Y0146267D01*
X0051422Y0144268D02*
X0068050Y0144268D01*
X0068050Y0142270D02*
X0060469Y0142270D01*
X0060469Y0140271D02*
X0068050Y0140271D01*
X0068050Y0138273D02*
X0060469Y0138273D01*
X0072050Y0138273D02*
X0097050Y0138273D01*
X0097050Y0140271D02*
X0072050Y0140271D01*
X0072050Y0142270D02*
X0097050Y0142270D01*
X0097050Y0143374D02*
X0097050Y0124374D01*
X0116650Y0124374D01*
X0116650Y0118963D01*
X0116974Y0118402D01*
X0116974Y0118262D01*
X0117442Y0117131D01*
X0118307Y0116266D01*
X0119438Y0115798D01*
X0120662Y0115798D01*
X0121793Y0116266D01*
X0122658Y0117131D01*
X0123126Y0118262D01*
X0123126Y0119486D01*
X0122658Y0120617D01*
X0121793Y0121482D01*
X0121450Y0121624D01*
X0121450Y0124374D01*
X0144050Y0124374D01*
X0144136Y0146475D01*
X0144665Y0146475D01*
X0145603Y0147412D01*
X0145603Y0153856D01*
X0145084Y0154374D01*
X0145603Y0154892D01*
X0145603Y0161336D01*
X0144665Y0162273D01*
X0144198Y0162273D01*
X0144248Y0175099D01*
X0144442Y0174631D01*
X0145307Y0173766D01*
X0146438Y0173298D01*
X0147662Y0173298D01*
X0148793Y0173766D01*
X0149658Y0174631D01*
X0150126Y0175762D01*
X0150126Y0176986D01*
X0149658Y0178117D01*
X0148793Y0178982D01*
X0147662Y0179450D01*
X0146438Y0179450D01*
X0145307Y0178982D01*
X0144442Y0178117D01*
X0144258Y0177673D01*
X0144543Y0250524D01*
X0282050Y0250524D01*
X0283325Y0250424D01*
X0285750Y0249636D01*
X0287813Y0248137D01*
X0289312Y0246074D01*
X0290100Y0243649D01*
X0290200Y0242374D01*
X0290200Y0195181D01*
X0281618Y0203762D01*
X0281618Y0204856D01*
X0281100Y0205374D01*
X0281618Y0205892D01*
X0281618Y0208275D01*
X0282150Y0209558D01*
X0282150Y0215190D01*
X0281618Y0216473D01*
X0281618Y0219100D01*
X0280681Y0220037D01*
X0275419Y0220037D01*
X0274481Y0219100D01*
X0274481Y0216474D01*
X0270581Y0216474D01*
X0269298Y0215943D01*
X0268568Y0215943D01*
X0267631Y0215005D01*
X0267631Y0213997D01*
X0267296Y0213190D01*
X0267296Y0211558D01*
X0267631Y0210751D01*
X0267631Y0209743D01*
X0268568Y0208806D01*
X0269298Y0208806D01*
X0270581Y0208274D01*
X0274481Y0208274D01*
X0274481Y0205892D01*
X0275000Y0205374D01*
X0274481Y0204856D01*
X0274481Y0203212D01*
X0274300Y0202773D01*
X0274300Y0201282D01*
X0274481Y0200843D01*
X0274481Y0199199D01*
X0275419Y0198262D01*
X0276512Y0198262D01*
X0285300Y0189474D01*
X0285300Y0144454D01*
X0285213Y0144541D01*
X0277982Y0144541D01*
X0277044Y0143604D01*
X0277044Y0139129D01*
X0277982Y0138191D01*
X0285213Y0138191D01*
X0285300Y0138279D01*
X0285300Y0119656D01*
X0276550Y0119374D01*
X0276550Y0111874D01*
X0284701Y0111874D01*
X0285304Y0111624D01*
X0289796Y0111624D01*
X0290200Y0111791D01*
X0290200Y0012374D01*
X0290100Y0011099D01*
X0289312Y0008674D01*
X0287813Y0006611D01*
X0285750Y0005112D01*
X0283325Y0004324D01*
X0282050Y0004224D01*
X0237426Y0004224D01*
X0238256Y0005054D01*
X0238256Y0010316D01*
X0237319Y0011254D01*
X0231938Y0011254D01*
X0231001Y0010316D01*
X0231001Y0005054D01*
X0231831Y0004224D01*
X0202269Y0004224D01*
X0203099Y0005054D01*
X0203099Y0010316D01*
X0202162Y0011254D01*
X0196781Y0011254D01*
X0195844Y0010316D01*
X0195844Y0005054D01*
X0196673Y0004224D01*
X0164450Y0004224D01*
X0164969Y0004743D01*
X0164969Y0010005D01*
X0164032Y0010943D01*
X0163562Y0010943D01*
X0164288Y0011668D01*
X0164288Y0019274D01*
X0174420Y0019274D01*
X0174782Y0019636D01*
X0175444Y0018974D01*
X0177135Y0018274D01*
X0184965Y0018274D01*
X0186656Y0018974D01*
X0187950Y0020268D01*
X0188650Y0021959D01*
X0188650Y0023789D01*
X0187950Y0025480D01*
X0186656Y0026774D01*
X0184965Y0027474D01*
X0177135Y0027474D01*
X0175650Y0026859D01*
X0175650Y0028889D01*
X0177135Y0028274D01*
X0184965Y0028274D01*
X0186656Y0028974D01*
X0187950Y0030268D01*
X0188650Y0031959D01*
X0188650Y0033789D01*
X0187950Y0035480D01*
X0186656Y0036774D01*
X0184965Y0037474D01*
X0177135Y0037474D01*
X0175650Y0036859D01*
X0175650Y0038889D01*
X0177135Y0038274D01*
X0184965Y0038274D01*
X0186656Y0038974D01*
X0187950Y0040268D01*
X0188650Y0041959D01*
X0188650Y0043789D01*
X0187950Y0045480D01*
X0186656Y0046774D01*
X0184965Y0047474D01*
X0177135Y0047474D01*
X0175650Y0046859D01*
X0175650Y0048820D01*
X0175532Y0048938D01*
X0177135Y0048274D01*
X0184965Y0048274D01*
X0186656Y0048974D01*
X0187950Y0050268D01*
X0188650Y0051959D01*
X0188650Y0053789D01*
X0187950Y0055480D01*
X0186656Y0056774D01*
X0184965Y0057474D01*
X0177135Y0057474D01*
X0175444Y0056774D01*
X0174150Y0055480D01*
X0173450Y0053789D01*
X0173450Y0051959D01*
X0174066Y0050471D01*
X0170450Y0054087D01*
X0170450Y0060004D01*
X0181086Y0070641D01*
X0182304Y0070641D01*
X0183534Y0071871D01*
X0183553Y0071890D01*
X0183553Y0071890D01*
X0184783Y0073120D01*
X0184783Y0076628D01*
X0183534Y0077877D01*
X0183534Y0077877D01*
X0182304Y0079107D01*
X0173286Y0079107D01*
X0172150Y0080244D01*
X0172150Y0084037D01*
X0171250Y0084937D01*
X0171250Y0097811D01*
X0172150Y0098711D01*
X0172150Y0106037D01*
X0171213Y0106974D01*
X0166887Y0106974D01*
X0165950Y0106037D01*
X0165950Y0098711D01*
X0166850Y0097811D01*
X0166850Y0084937D01*
X0165950Y0084037D01*
X0165950Y0077507D01*
X0165526Y0077507D01*
X0164558Y0077107D01*
X0164300Y0076848D01*
X0164042Y0077107D01*
X0163074Y0077507D01*
X0162026Y0077507D01*
X0161058Y0077107D01*
X0160800Y0076848D01*
X0160542Y0077107D01*
X0159574Y0077507D01*
X0158526Y0077507D01*
X0157558Y0077107D01*
X0157233Y0076782D01*
X0157042Y0076973D01*
X0156074Y0077374D01*
X0155026Y0077374D01*
X0154058Y0076973D01*
X0153317Y0076232D01*
X0153277Y0076135D01*
X0146422Y0076135D01*
X0146422Y0081301D01*
X0145484Y0082238D01*
X0140616Y0082238D01*
X0140550Y0082172D01*
X0140484Y0082238D01*
X0140150Y0082238D01*
X0140150Y0108123D01*
X0140658Y0108631D01*
X0141126Y0109762D01*
X0141126Y0110986D01*
X0140658Y0112117D01*
X0139793Y0112982D01*
X0138662Y0113450D01*
X0137438Y0113450D01*
X0136307Y0112982D01*
X0135442Y0112117D01*
X0134974Y0110986D01*
X0134974Y0109762D01*
X0135442Y0108631D01*
X0135950Y0108123D01*
X0135950Y0082238D01*
X0135616Y0082238D01*
X0135550Y0082172D01*
X0135484Y0082238D01*
X0135150Y0082238D01*
X0135150Y0090244D01*
X0132683Y0092710D01*
X0132683Y0092898D01*
X0132283Y0093866D01*
X0131542Y0094607D01*
X0130574Y0095007D01*
X0129526Y0095007D01*
X0128558Y0094607D01*
X0127817Y0093866D01*
X0127417Y0092898D01*
X0127417Y0091977D01*
X0126683Y0092710D01*
X0126683Y0092898D01*
X0126283Y0093866D01*
X0125542Y0094607D01*
X0124574Y0095007D01*
X0123526Y0095007D01*
X0122558Y0094607D01*
X0121817Y0093866D01*
X0121417Y0092898D01*
X0121417Y0092328D01*
X0121183Y0092587D01*
X0121183Y0092898D01*
X0120783Y0093866D01*
X0120042Y0094607D01*
X0119074Y0095007D01*
X0118026Y0095007D01*
X0117058Y0094607D01*
X0116317Y0093866D01*
X0115917Y0092898D01*
X0115917Y0091977D01*
X0115183Y0092710D01*
X0115183Y0092898D01*
X0114783Y0093866D01*
X0114042Y0094607D01*
X0113074Y0095007D01*
X0112026Y0095007D01*
X0111058Y0094607D01*
X0110317Y0093866D01*
X0109917Y0092898D01*
X0109917Y0091977D01*
X0109183Y0092710D01*
X0109183Y0092898D01*
X0108783Y0093866D01*
X0108042Y0094607D01*
X0107074Y0095007D01*
X0106026Y0095007D01*
X0105058Y0094607D01*
X0104317Y0093866D01*
X0104290Y0093799D01*
X0104158Y0094117D01*
X0103293Y0094982D01*
X0102162Y0095450D01*
X0100938Y0095450D01*
X0099807Y0094982D01*
X0099122Y0094297D01*
X0099122Y0098509D01*
X0098185Y0099446D01*
X0092529Y0099446D01*
X0091658Y0098575D01*
X0091056Y0098824D01*
X0090067Y0098824D01*
X0089377Y0098539D01*
X0089251Y0098539D01*
X0088343Y0099446D01*
X0082686Y0099446D01*
X0081749Y0098509D01*
X0081749Y0093247D01*
X0082464Y0092531D01*
X0081749Y0091816D01*
X0081749Y0086554D01*
X0082686Y0085617D01*
X0086007Y0085617D01*
X0085917Y0085398D01*
X0085917Y0084350D01*
X0086317Y0083382D01*
X0087058Y0082641D01*
X0088026Y0082241D01*
X0089074Y0082241D01*
X0090042Y0082641D01*
X0090174Y0082774D01*
X0090950Y0082774D01*
X0090950Y0082238D01*
X0090616Y0082238D01*
X0090550Y0082172D01*
X0090484Y0082238D01*
X0085616Y0082238D01*
X0084678Y0081301D01*
X0084678Y0076135D01*
X0077486Y0076135D01*
X0076924Y0075574D01*
X0076650Y0075574D01*
X0076650Y0077037D01*
X0075750Y0077937D01*
X0075750Y0090811D01*
X0076650Y0091711D01*
X0076650Y0099037D01*
X0075713Y0099974D01*
X0072050Y0099974D01*
X0072050Y0109374D01*
X0094550Y0109374D01*
X0094550Y0128374D01*
X0076555Y0128374D01*
X0076555Y0133225D01*
X0076129Y0134255D01*
X0075342Y0135042D01*
X0073636Y0136748D01*
X0072607Y0137174D01*
X0072050Y0137174D01*
X0072050Y0143374D01*
X0097050Y0143374D01*
X0101050Y0144268D02*
X0115285Y0144268D01*
X0115285Y0144659D02*
X0115285Y0139396D01*
X0116222Y0138459D01*
X0116650Y0138459D01*
X0116650Y0136374D01*
X0101050Y0136374D01*
X0101050Y0144955D01*
X0106665Y0144955D01*
X0107542Y0145832D01*
X0108222Y0145152D01*
X0113878Y0145152D01*
X0114815Y0146089D01*
X0114815Y0149774D01*
X0115285Y0149774D01*
X0115285Y0146089D01*
X0116000Y0145374D01*
X0115285Y0144659D01*
X0115285Y0146267D02*
X0114815Y0146267D01*
X0114815Y0148265D02*
X0115285Y0148265D01*
X0114785Y0154261D02*
X0124450Y0154261D01*
X0124603Y0156259D02*
X0114563Y0156259D01*
X0114558Y0156306D02*
X0114558Y0156306D01*
X0114558Y0156306D01*
X0112399Y0158258D02*
X0126973Y0158258D01*
X0129127Y0158258D02*
X0132050Y0158258D01*
X0132050Y0160256D02*
X0121234Y0160256D01*
X0121878Y0162255D02*
X0132050Y0162255D01*
X0132050Y0164253D02*
X0121878Y0164253D01*
X0121878Y0166252D02*
X0132050Y0166252D01*
X0132050Y0168250D02*
X0121365Y0168250D01*
X0119579Y0170249D02*
X0132050Y0170249D01*
X0132050Y0172247D02*
X0114183Y0172247D01*
X0112705Y0174246D02*
X0132050Y0174246D01*
X0132050Y0176245D02*
X0104175Y0176245D01*
X0104193Y0178243D02*
X0132050Y0178243D01*
X0132050Y0180242D02*
X0104210Y0180242D01*
X0104229Y0182240D02*
X0132050Y0182240D01*
X0132050Y0184239D02*
X0103241Y0184239D01*
X0099899Y0184239D02*
X0003900Y0184239D01*
X0003900Y0186237D02*
X0132050Y0186237D01*
X0132050Y0188236D02*
X0003900Y0188236D01*
X0003900Y0190234D02*
X0132050Y0190234D01*
X0132050Y0192233D02*
X0003900Y0192233D01*
X0003900Y0194231D02*
X0132050Y0194231D01*
X0132050Y0196230D02*
X0003900Y0196230D01*
X0003900Y0198228D02*
X0132050Y0198228D01*
X0132050Y0200227D02*
X0003900Y0200227D01*
X0003900Y0202225D02*
X0132050Y0202225D01*
X0132050Y0204224D02*
X0003900Y0204224D01*
X0003900Y0206222D02*
X0046200Y0206222D01*
X0046200Y0206211D02*
X0047137Y0205274D01*
X0050963Y0205274D01*
X0051050Y0205361D01*
X0051137Y0205274D01*
X0054963Y0205274D01*
X0055900Y0206211D01*
X0055900Y0207274D01*
X0057920Y0207274D01*
X0059150Y0208504D01*
X0059150Y0210244D01*
X0057920Y0211474D01*
X0055900Y0211474D01*
X0055900Y0212537D01*
X0055250Y0213187D01*
X0055250Y0213636D01*
X0058006Y0216392D01*
X0059126Y0216392D01*
X0060063Y0217329D01*
X0060063Y0220230D01*
X0059126Y0221167D01*
X0055438Y0221167D01*
X0054501Y0220230D01*
X0054501Y0219110D01*
X0050850Y0215459D01*
X0050850Y0213474D01*
X0047137Y0213474D01*
X0046200Y0212537D01*
X0046200Y0212335D01*
X0046126Y0212409D01*
X0046126Y0212986D01*
X0045658Y0214117D01*
X0044793Y0214982D01*
X0044087Y0215274D01*
X0044087Y0216556D01*
X0046810Y0216556D01*
X0046974Y0216392D01*
X0050662Y0216392D01*
X0051599Y0217329D01*
X0051599Y0224458D01*
X0053050Y0224069D01*
X0054501Y0224458D01*
X0054501Y0222447D01*
X0055438Y0221510D01*
X0059126Y0221510D01*
X0059411Y0221795D01*
X0060481Y0221731D01*
X0060481Y0220892D01*
X0061419Y0219955D01*
X0066681Y0219955D01*
X0067618Y0220892D01*
X0067618Y0221760D01*
X0068269Y0221805D01*
X0068307Y0221766D01*
X0069438Y0221298D01*
X0070662Y0221298D01*
X0071793Y0221766D01*
X0072658Y0222631D01*
X0073126Y0223762D01*
X0073126Y0224986D01*
X0072658Y0226117D01*
X0072401Y0226374D01*
X0072658Y0226631D01*
X0073126Y0227762D01*
X0073126Y0228986D01*
X0072658Y0230117D01*
X0071793Y0230982D01*
X0070662Y0231450D01*
X0069438Y0231450D01*
X0068307Y0230982D01*
X0067442Y0230117D01*
X0066974Y0228986D01*
X0066974Y0227762D01*
X0067376Y0226791D01*
X0066681Y0227486D01*
X0061419Y0227486D01*
X0060481Y0226549D01*
X0060481Y0226139D01*
X0059195Y0226216D01*
X0059126Y0226285D01*
X0058439Y0226285D01*
X0058410Y0226314D01*
X0057565Y0226314D01*
X0057097Y0226342D01*
X0057249Y0226493D01*
X0057898Y0228917D01*
X0057249Y0231341D01*
X0057249Y0231341D01*
X0055474Y0233116D01*
X0053050Y0233765D01*
X0050626Y0233116D01*
X0048851Y0231341D01*
X0048202Y0228917D01*
X0048851Y0226493D01*
X0049060Y0226285D01*
X0046974Y0226285D01*
X0046786Y0226098D01*
X0039650Y0226098D01*
X0039626Y0226074D01*
X0037925Y0226074D01*
X0036987Y0225137D01*
X0036987Y0222611D01*
X0037004Y0222594D01*
X0036987Y0222578D01*
X0036987Y0220052D01*
X0037004Y0220035D01*
X0036987Y0220019D01*
X0036987Y0217493D01*
X0037004Y0217476D01*
X0036987Y0217460D01*
X0036987Y0214934D01*
X0037925Y0213997D01*
X0039406Y0213997D01*
X0040031Y0213124D01*
X0039974Y0212986D01*
X0039974Y0211762D01*
X0040442Y0210631D01*
X0041307Y0209766D01*
X0042438Y0209298D01*
X0043015Y0209298D01*
X0043850Y0208463D01*
X0045139Y0207174D01*
X0046200Y0207174D01*
X0046200Y0206211D01*
X0044092Y0208221D02*
X0003900Y0208221D01*
X0003900Y0210219D02*
X0014854Y0210219D01*
X0014442Y0210631D02*
X0015307Y0209766D01*
X0016438Y0209298D01*
X0017662Y0209298D01*
X0018793Y0209766D01*
X0019658Y0210631D01*
X0020126Y0211762D01*
X0020126Y0212986D01*
X0019708Y0213997D01*
X0020175Y0213997D01*
X0021113Y0214934D01*
X0021113Y0217460D01*
X0021096Y0217476D01*
X0021113Y0217493D01*
X0021113Y0220019D01*
X0021096Y0220035D01*
X0021113Y0220052D01*
X0021113Y0221774D01*
X0022317Y0221774D01*
X0022516Y0221691D01*
X0023584Y0221691D01*
X0024570Y0222100D01*
X0025324Y0222854D01*
X0025733Y0223840D01*
X0025733Y0224908D01*
X0025324Y0225894D01*
X0024570Y0226648D01*
X0023584Y0227057D01*
X0022516Y0227057D01*
X0021530Y0226648D01*
X0020856Y0225974D01*
X0020275Y0225974D01*
X0020175Y0226074D01*
X0014950Y0226074D01*
X0014013Y0225137D01*
X0014013Y0224057D01*
X0013516Y0224057D01*
X0012530Y0223648D01*
X0011776Y0222894D01*
X0011367Y0221908D01*
X0011367Y0221807D01*
X0010878Y0222296D01*
X0005222Y0222296D01*
X0004285Y0221359D01*
X0004285Y0216096D01*
X0005222Y0215159D01*
X0005950Y0215159D01*
X0005950Y0214504D01*
X0006367Y0214087D01*
X0006367Y0213840D01*
X0006776Y0212854D01*
X0007530Y0212100D01*
X0008516Y0211691D01*
X0009584Y0211691D01*
X0010570Y0212100D01*
X0011324Y0212854D01*
X0011733Y0213840D01*
X0011733Y0214908D01*
X0011409Y0215690D01*
X0011815Y0216096D01*
X0011815Y0216539D01*
X0014013Y0216545D01*
X0014013Y0214934D01*
X0014636Y0214311D01*
X0014442Y0214117D01*
X0013974Y0212986D01*
X0013974Y0211762D01*
X0014442Y0210631D01*
X0013974Y0212218D02*
X0010688Y0212218D01*
X0011733Y0214216D02*
X0014542Y0214216D01*
X0014013Y0216215D02*
X0011815Y0216215D01*
X0006238Y0214216D02*
X0003900Y0214216D01*
X0003900Y0212218D02*
X0007412Y0212218D01*
X0004285Y0216215D02*
X0003900Y0216215D01*
X0003900Y0218213D02*
X0004285Y0218213D01*
X0004285Y0220212D02*
X0003900Y0220212D01*
X0003900Y0222210D02*
X0005136Y0222210D01*
X0003900Y0224209D02*
X0014013Y0224209D01*
X0014950Y0226792D02*
X0020175Y0226792D01*
X0021113Y0227729D01*
X0021113Y0230255D01*
X0021096Y0230272D01*
X0021113Y0230288D01*
X0021113Y0232503D01*
X0021969Y0233298D01*
X0022662Y0233298D01*
X0023793Y0233766D01*
X0024658Y0234631D01*
X0025126Y0235762D01*
X0025126Y0236986D01*
X0024658Y0238117D01*
X0023793Y0238982D01*
X0022662Y0239450D01*
X0021438Y0239450D01*
X0020307Y0238982D01*
X0019442Y0238117D01*
X0018974Y0236986D01*
X0018974Y0236520D01*
X0016385Y0234118D01*
X0015817Y0233751D01*
X0014950Y0233751D01*
X0014013Y0232814D01*
X0014013Y0230288D01*
X0014029Y0230272D01*
X0014013Y0230255D01*
X0014013Y0227729D01*
X0014950Y0226792D01*
X0014013Y0228206D02*
X0003900Y0228206D01*
X0003900Y0230204D02*
X0014013Y0230204D01*
X0014013Y0232203D02*
X0003900Y0232203D01*
X0003900Y0234201D02*
X0016475Y0234201D01*
X0016497Y0235719D02*
X0013611Y0234524D01*
X0010489Y0234524D01*
X0007603Y0235719D01*
X0005395Y0237927D01*
X0004200Y0240813D01*
X0004200Y0243935D01*
X0005395Y0246821D01*
X0007603Y0249029D01*
X0010489Y0250224D01*
X0013611Y0250224D01*
X0016497Y0249029D01*
X0018705Y0246821D01*
X0019900Y0243935D01*
X0019900Y0240813D01*
X0018705Y0237927D01*
X0016497Y0235719D01*
X0016977Y0236200D02*
X0018628Y0236200D01*
X0018817Y0238198D02*
X0019524Y0238198D01*
X0019645Y0240197D02*
X0075200Y0240197D01*
X0075200Y0242195D02*
X0019900Y0242195D01*
X0019793Y0244194D02*
X0074923Y0244194D01*
X0074226Y0246192D02*
X0018965Y0246192D01*
X0017335Y0248191D02*
X0072739Y0248191D01*
X0069046Y0250189D02*
X0013695Y0250189D01*
X0010405Y0250189D02*
X0010054Y0250189D01*
X0006765Y0248191D02*
X0006361Y0248191D01*
X0005135Y0246192D02*
X0004874Y0246192D01*
X0004307Y0244194D02*
X0004177Y0244194D01*
X0004200Y0242195D02*
X0003900Y0242195D01*
X0003900Y0240197D02*
X0004455Y0240197D01*
X0003900Y0238198D02*
X0005283Y0238198D01*
X0003900Y0236200D02*
X0007123Y0236200D01*
X0003900Y0226207D02*
X0021089Y0226207D01*
X0021113Y0228206D02*
X0036987Y0228206D01*
X0036987Y0227729D02*
X0037925Y0226792D01*
X0043150Y0226792D01*
X0044087Y0227729D01*
X0044087Y0230255D01*
X0043150Y0231192D01*
X0037925Y0231192D01*
X0036987Y0230255D01*
X0036987Y0227729D01*
X0036987Y0230204D02*
X0021113Y0230204D01*
X0021113Y0232203D02*
X0049713Y0232203D01*
X0048851Y0231341D02*
X0048851Y0231341D01*
X0048547Y0230204D02*
X0044087Y0230204D01*
X0044087Y0228206D02*
X0048393Y0228206D01*
X0048202Y0228917D02*
X0048202Y0228917D01*
X0048851Y0226493D02*
X0048851Y0226493D01*
X0046896Y0226207D02*
X0025011Y0226207D01*
X0025733Y0224209D02*
X0036987Y0224209D01*
X0036987Y0222210D02*
X0024680Y0222210D01*
X0021113Y0220212D02*
X0036987Y0220212D01*
X0036987Y0218213D02*
X0021113Y0218213D01*
X0021113Y0216215D02*
X0036987Y0216215D01*
X0037705Y0214216D02*
X0020395Y0214216D01*
X0020126Y0212218D02*
X0039974Y0212218D01*
X0040854Y0210219D02*
X0019246Y0210219D01*
X0011493Y0222210D02*
X0010964Y0222210D01*
X0024228Y0234201D02*
X0075200Y0234201D01*
X0075200Y0232203D02*
X0056387Y0232203D01*
X0055474Y0233116D02*
X0055474Y0233116D01*
X0053050Y0233765D02*
X0053050Y0233765D01*
X0050626Y0233116D02*
X0050626Y0233116D01*
X0057553Y0230204D02*
X0067530Y0230204D01*
X0066974Y0228206D02*
X0057707Y0228206D01*
X0057249Y0226493D02*
X0057249Y0226493D01*
X0059343Y0226207D02*
X0060481Y0226207D01*
X0060063Y0220212D02*
X0061162Y0220212D01*
X0060063Y0218213D02*
X0077181Y0218213D01*
X0076470Y0219569D02*
X0076470Y0219569D01*
X0076311Y0220212D02*
X0066938Y0220212D01*
X0072237Y0222210D02*
X0075819Y0222210D01*
X0075326Y0224209D02*
X0073126Y0224209D01*
X0072567Y0226207D02*
X0075200Y0226207D01*
X0075200Y0228206D02*
X0073126Y0228206D01*
X0072570Y0230204D02*
X0075200Y0230204D01*
X0075200Y0236200D02*
X0025126Y0236200D01*
X0024576Y0238198D02*
X0075200Y0238198D01*
X0054501Y0224209D02*
X0053571Y0224209D01*
X0053050Y0224069D02*
X0053050Y0224069D01*
X0052529Y0224209D02*
X0051599Y0224209D01*
X0051599Y0222210D02*
X0054738Y0222210D01*
X0054501Y0220212D02*
X0051599Y0220212D01*
X0051599Y0218213D02*
X0053605Y0218213D01*
X0051606Y0216215D02*
X0044087Y0216215D01*
X0045558Y0214216D02*
X0050850Y0214216D01*
X0055830Y0214216D02*
X0079515Y0214216D01*
X0078230Y0216215D02*
X0057829Y0216215D01*
X0055900Y0212218D02*
X0081286Y0212218D01*
X0083439Y0210219D02*
X0059150Y0210219D01*
X0058867Y0208221D02*
X0086334Y0208221D01*
X0091205Y0206222D02*
X0055900Y0206222D01*
X0082259Y0178243D02*
X0003900Y0178243D01*
X0003900Y0176245D02*
X0080867Y0176245D01*
X0079198Y0174246D02*
X0003900Y0174246D01*
X0003900Y0172247D02*
X0078375Y0172247D01*
X0078342Y0170249D02*
X0010701Y0170249D01*
X0005399Y0170249D02*
X0003900Y0170249D01*
X0003900Y0168250D02*
X0004850Y0168250D01*
X0004850Y0166252D02*
X0003900Y0166252D01*
X0003900Y0164253D02*
X0004850Y0164253D01*
X0004850Y0162255D02*
X0003900Y0162255D01*
X0003900Y0160256D02*
X0004850Y0160256D01*
X0005641Y0158258D02*
X0003900Y0158258D01*
X0003900Y0180242D02*
X0100010Y0180242D01*
X0099993Y0178243D02*
X0099905Y0178243D01*
X0096195Y0178243D02*
X0084841Y0178243D01*
X0086233Y0176245D02*
X0095417Y0176245D01*
X0096065Y0174246D02*
X0091902Y0174246D01*
X0092683Y0172247D02*
X0094270Y0172247D01*
X0092867Y0170249D02*
X0092381Y0170249D01*
X0092340Y0168250D02*
X0092420Y0168250D01*
X0091997Y0160256D02*
X0091707Y0160256D01*
X0091997Y0158258D02*
X0089588Y0158258D01*
X0089492Y0156259D02*
X0092195Y0156259D01*
X0084608Y0156259D02*
X0080204Y0156259D01*
X0080449Y0158258D02*
X0084123Y0158258D01*
X0074012Y0158258D02*
X0059285Y0158258D01*
X0060126Y0160256D02*
X0072865Y0160256D01*
X0072222Y0162255D02*
X0060815Y0162255D01*
X0060815Y0164253D02*
X0072222Y0164253D01*
X0072222Y0166252D02*
X0060815Y0166252D01*
X0053285Y0162428D02*
X0053285Y0161896D01*
X0054038Y0161142D01*
X0053974Y0160986D01*
X0053974Y0159811D01*
X0053934Y0159850D01*
X0053571Y0160000D01*
X0053571Y0161568D01*
X0052765Y0162374D01*
X0052819Y0162428D01*
X0053285Y0162428D01*
X0053285Y0162255D02*
X0052885Y0162255D01*
X0053571Y0160256D02*
X0053974Y0160256D01*
X0060469Y0156259D02*
X0074108Y0156259D01*
X0068050Y0154261D02*
X0060469Y0154261D01*
X0060469Y0152262D02*
X0068050Y0152262D01*
X0068050Y0150264D02*
X0060469Y0150264D01*
X0074110Y0136274D02*
X0097050Y0136274D01*
X0097050Y0134276D02*
X0076108Y0134276D01*
X0076555Y0132277D02*
X0097050Y0132277D01*
X0097050Y0130279D02*
X0076555Y0130279D01*
X0094550Y0128280D02*
X0097050Y0128280D01*
X0097050Y0126282D02*
X0094550Y0126282D01*
X0094550Y0124283D02*
X0116650Y0124283D01*
X0116650Y0122285D02*
X0094550Y0122285D01*
X0094550Y0120286D02*
X0116650Y0120286D01*
X0116974Y0118288D02*
X0094550Y0118288D01*
X0094550Y0116289D02*
X0118284Y0116289D01*
X0121816Y0116289D02*
X0167800Y0116289D01*
X0167800Y0115397D02*
X0167791Y0114674D01*
X0167800Y0114652D01*
X0167800Y0114628D01*
X0168077Y0113960D01*
X0168345Y0113289D01*
X0168362Y0113272D01*
X0168371Y0113250D01*
X0168882Y0112738D01*
X0169387Y0112221D01*
X0169409Y0112212D01*
X0169426Y0112195D01*
X0170094Y0111918D01*
X0179909Y0107712D01*
X0179926Y0107695D01*
X0180594Y0107418D01*
X0181258Y0107133D01*
X0181282Y0107133D01*
X0181304Y0107124D01*
X0182027Y0107124D01*
X0182750Y0107115D01*
X0182772Y0107124D01*
X0183296Y0107124D01*
X0184674Y0107695D01*
X0184856Y0107876D01*
X0191118Y0107876D01*
X0192055Y0108814D01*
X0192055Y0113289D01*
X0191118Y0114226D01*
X0184257Y0114226D01*
X0183296Y0114624D01*
X0182820Y0114624D01*
X0179384Y0116097D01*
X0179793Y0116266D01*
X0180603Y0117077D01*
X0182181Y0117274D01*
X0183151Y0117274D01*
X0183887Y0116538D01*
X0191118Y0116538D01*
X0192055Y0117475D01*
X0192055Y0143604D01*
X0192055Y0147934D01*
X0191118Y0148872D01*
X0183887Y0148872D01*
X0182950Y0147934D01*
X0182950Y0126143D01*
X0179131Y0126143D01*
X0178793Y0126482D01*
X0177662Y0126950D01*
X0176438Y0126950D01*
X0175307Y0126482D01*
X0175300Y0126475D01*
X0175300Y0156869D01*
X0185231Y0167252D01*
X0185729Y0167750D01*
X0185746Y0167790D01*
X0185775Y0167821D01*
X0186030Y0168477D01*
X0186300Y0169128D01*
X0186300Y0169171D01*
X0186316Y0169212D01*
X0186300Y0169916D01*
X0186300Y0180431D01*
X0187150Y0180431D01*
X0188087Y0181369D01*
X0188087Y0192537D01*
X0187150Y0193474D01*
X0177950Y0193474D01*
X0177013Y0192537D01*
X0177013Y0181369D01*
X0177950Y0180431D01*
X0178800Y0180431D01*
X0178800Y0171379D01*
X0168869Y0160996D01*
X0168371Y0160498D01*
X0168354Y0160458D01*
X0168324Y0160427D01*
X0168070Y0159771D01*
X0167800Y0159120D01*
X0167800Y0159077D01*
X0167784Y0159036D01*
X0167800Y0158332D01*
X0167800Y0115397D01*
X0167940Y0114291D02*
X0094550Y0114291D01*
X0094550Y0112292D02*
X0135617Y0112292D01*
X0134974Y0110294D02*
X0094550Y0110294D01*
X0099122Y0098303D02*
X0135950Y0098303D01*
X0135950Y0100301D02*
X0072050Y0100301D01*
X0072050Y0102300D02*
X0135950Y0102300D01*
X0135950Y0104298D02*
X0072050Y0104298D01*
X0072050Y0106297D02*
X0135950Y0106297D01*
X0135778Y0108295D02*
X0072050Y0108295D01*
X0076650Y0098303D02*
X0081749Y0098303D01*
X0081749Y0096304D02*
X0076650Y0096304D01*
X0076650Y0094306D02*
X0081749Y0094306D01*
X0082240Y0092307D02*
X0076650Y0092307D01*
X0075750Y0090309D02*
X0081749Y0090309D01*
X0081749Y0088310D02*
X0075750Y0088310D01*
X0075750Y0086311D02*
X0081992Y0086311D01*
X0085932Y0084313D02*
X0075750Y0084313D01*
X0075750Y0082314D02*
X0087848Y0082314D01*
X0089252Y0082314D02*
X0090950Y0082314D01*
X0084678Y0080316D02*
X0075750Y0080316D01*
X0075750Y0078317D02*
X0084678Y0078317D01*
X0084678Y0076319D02*
X0076650Y0076319D01*
X0071350Y0077937D02*
X0070450Y0077037D01*
X0070450Y0071100D01*
X0065757Y0071100D01*
X0064820Y0070163D01*
X0064820Y0069631D01*
X0064083Y0069631D01*
X0064083Y0069769D01*
X0063146Y0070706D01*
X0062050Y0070706D01*
X0062050Y0097374D01*
X0070450Y0097374D01*
X0070450Y0091711D01*
X0071350Y0090811D01*
X0071350Y0077937D01*
X0071350Y0078317D02*
X0062050Y0078317D01*
X0062050Y0076319D02*
X0070450Y0076319D01*
X0070450Y0074320D02*
X0062050Y0074320D01*
X0062050Y0072322D02*
X0070450Y0072322D01*
X0064981Y0070323D02*
X0063529Y0070323D01*
X0059050Y0072322D02*
X0054989Y0072322D01*
X0054847Y0072180D02*
X0055784Y0073117D01*
X0055784Y0079954D01*
X0055030Y0080707D01*
X0055250Y0081237D01*
X0055250Y0082511D01*
X0054809Y0083575D01*
X0055237Y0084003D01*
X0055237Y0089265D01*
X0054299Y0090202D01*
X0047462Y0090202D01*
X0046575Y0089315D01*
X0046575Y0091433D01*
X0047462Y0090546D01*
X0050089Y0090546D01*
X0050165Y0090514D01*
X0051597Y0090514D01*
X0051673Y0090546D01*
X0054299Y0090546D01*
X0055237Y0091483D01*
X0055237Y0096469D01*
X0055602Y0096835D01*
X0056150Y0098158D01*
X0056150Y0099590D01*
X0055602Y0100913D01*
X0054589Y0101926D01*
X0053266Y0102474D01*
X0048334Y0102474D01*
X0047011Y0101926D01*
X0045998Y0100913D01*
X0045450Y0099590D01*
X0045450Y0098158D01*
X0045998Y0096835D01*
X0046525Y0096308D01*
X0046525Y0093056D01*
X0045638Y0093943D01*
X0042611Y0093943D01*
X0040593Y0095960D01*
X0039805Y0096748D01*
X0039330Y0096945D01*
X0039293Y0096982D01*
X0038162Y0097450D01*
X0036938Y0097450D01*
X0035807Y0096982D01*
X0034942Y0096117D01*
X0034666Y0095449D01*
X0034167Y0094950D01*
X0033938Y0094950D01*
X0032807Y0094482D01*
X0031942Y0093617D01*
X0031474Y0092486D01*
X0031474Y0091262D01*
X0031942Y0090131D01*
X0032807Y0089266D01*
X0033938Y0088798D01*
X0035162Y0088798D01*
X0036293Y0089266D01*
X0036450Y0089423D01*
X0036636Y0089500D01*
X0037863Y0090728D01*
X0037863Y0087743D01*
X0038801Y0086806D01*
X0040679Y0086806D01*
X0040350Y0086011D01*
X0040350Y0084737D01*
X0040837Y0083561D01*
X0041737Y0082661D01*
X0042913Y0082174D01*
X0045350Y0082174D01*
X0045350Y0081237D01*
X0045493Y0080891D01*
X0045253Y0080891D01*
X0044316Y0079954D01*
X0044316Y0073117D01*
X0045253Y0072180D01*
X0054847Y0072180D01*
X0055784Y0074320D02*
X0059050Y0074320D01*
X0059050Y0076319D02*
X0055784Y0076319D01*
X0055784Y0078317D02*
X0059050Y0078317D01*
X0059050Y0080316D02*
X0055422Y0080316D01*
X0055250Y0082314D02*
X0059050Y0082314D01*
X0059050Y0084313D02*
X0055237Y0084313D01*
X0055237Y0086311D02*
X0059050Y0086311D01*
X0059050Y0088310D02*
X0055237Y0088310D01*
X0055237Y0092307D02*
X0059050Y0092307D01*
X0059050Y0090309D02*
X0046575Y0090309D01*
X0046525Y0094306D02*
X0042248Y0094306D01*
X0040249Y0096304D02*
X0046525Y0096304D01*
X0045450Y0098303D02*
X0007650Y0098303D01*
X0007650Y0100301D02*
X0045745Y0100301D01*
X0047913Y0102300D02*
X0007650Y0102300D01*
X0007650Y0104298D02*
X0057050Y0104298D01*
X0057050Y0102300D02*
X0053687Y0102300D01*
X0055855Y0100301D02*
X0057050Y0100301D01*
X0057050Y0098303D02*
X0056150Y0098303D01*
X0055237Y0096304D02*
X0059050Y0096304D01*
X0059050Y0094306D02*
X0055237Y0094306D01*
X0062050Y0094306D02*
X0070450Y0094306D01*
X0070450Y0096304D02*
X0062050Y0096304D01*
X0062050Y0092307D02*
X0070450Y0092307D01*
X0071350Y0090309D02*
X0062050Y0090309D01*
X0062050Y0088310D02*
X0071350Y0088310D01*
X0071350Y0086311D02*
X0062050Y0086311D01*
X0062050Y0084313D02*
X0071350Y0084313D01*
X0071350Y0082314D02*
X0062050Y0082314D01*
X0062050Y0080316D02*
X0071350Y0080316D01*
X0085654Y0073132D02*
X0085654Y0070329D01*
X0085588Y0070264D01*
X0085654Y0070198D01*
X0085654Y0065329D01*
X0085588Y0065264D01*
X0085654Y0065198D01*
X0085654Y0060329D01*
X0085588Y0060264D01*
X0085654Y0060198D01*
X0085654Y0055329D01*
X0085588Y0055264D01*
X0085654Y0055198D01*
X0085654Y0050329D01*
X0085588Y0050264D01*
X0085654Y0050198D01*
X0085654Y0045329D01*
X0085588Y0045264D01*
X0085654Y0045198D01*
X0085654Y0040329D01*
X0085588Y0040264D01*
X0085654Y0040198D01*
X0085654Y0035329D01*
X0085588Y0035264D01*
X0085654Y0035198D01*
X0085654Y0030329D01*
X0085588Y0030264D01*
X0085654Y0030198D01*
X0085654Y0029864D01*
X0086420Y0029864D01*
X0087650Y0028634D01*
X0087650Y0027474D01*
X0090426Y0027474D01*
X0090558Y0027607D01*
X0091526Y0028007D01*
X0092574Y0028007D01*
X0093542Y0027607D01*
X0094283Y0026866D01*
X0094683Y0025898D01*
X0094683Y0024850D01*
X0094283Y0023882D01*
X0093542Y0023141D01*
X0092574Y0022741D01*
X0091683Y0022741D01*
X0091683Y0022350D01*
X0091283Y0021382D01*
X0090542Y0020641D01*
X0089574Y0020241D01*
X0088526Y0020241D01*
X0087558Y0020641D01*
X0087536Y0020664D01*
X0085654Y0020664D01*
X0085654Y0020329D01*
X0085588Y0020264D01*
X0085654Y0020198D01*
X0085654Y0015329D01*
X0085588Y0015264D01*
X0085654Y0015198D01*
X0085654Y0014864D01*
X0088530Y0014864D01*
X0088943Y0014450D01*
X0089162Y0014450D01*
X0090293Y0013982D01*
X0091158Y0013117D01*
X0091626Y0011986D01*
X0091626Y0010762D01*
X0091158Y0009631D01*
X0090293Y0008766D01*
X0089162Y0008298D01*
X0087938Y0008298D01*
X0086807Y0008766D01*
X0085942Y0009631D01*
X0085653Y0010329D01*
X0084717Y0009392D01*
X0077486Y0009392D01*
X0076548Y0010329D01*
X0076548Y0014903D01*
X0069920Y0008274D01*
X0069174Y0008274D01*
X0069042Y0008141D01*
X0068074Y0007741D01*
X0067026Y0007741D01*
X0066058Y0008141D01*
X0065317Y0008882D01*
X0064917Y0009850D01*
X0064917Y0010898D01*
X0065180Y0011534D01*
X0064920Y0011274D01*
X0063180Y0011274D01*
X0062594Y0011860D01*
X0062558Y0011875D01*
X0061817Y0012616D01*
X0061417Y0013584D01*
X0061417Y0014631D01*
X0061817Y0015599D01*
X0062558Y0016340D01*
X0063526Y0016741D01*
X0064430Y0016741D01*
X0065066Y0017377D01*
X0066296Y0018607D01*
X0066314Y0018607D01*
X0067180Y0019474D01*
X0070580Y0019474D01*
X0072850Y0021744D01*
X0072850Y0027624D01*
X0072181Y0026955D01*
X0066919Y0026955D01*
X0066105Y0027769D01*
X0066103Y0027769D01*
X0066103Y0026711D01*
X0065165Y0025774D01*
X0057934Y0025774D01*
X0056997Y0026711D01*
X0056997Y0033155D01*
X0057934Y0034092D01*
X0065165Y0034092D01*
X0065981Y0033276D01*
X0065981Y0033549D01*
X0066919Y0034486D01*
X0066950Y0034486D01*
X0066950Y0034623D01*
X0066942Y0034631D01*
X0066474Y0035762D01*
X0066474Y0036986D01*
X0066552Y0037174D01*
X0064072Y0037174D01*
X0062999Y0036101D01*
X0061721Y0036101D01*
X0061721Y0035373D01*
X0060784Y0034435D01*
X0055521Y0034435D01*
X0054806Y0035151D01*
X0054091Y0034435D01*
X0051733Y0034435D01*
X0052126Y0033486D01*
X0052126Y0032262D01*
X0051658Y0031131D01*
X0051050Y0030523D01*
X0051050Y0021467D01*
X0051197Y0021112D01*
X0051197Y0019927D01*
X0051050Y0019572D01*
X0051050Y0004224D01*
X0157736Y0004224D01*
X0157499Y0004322D01*
X0156486Y0005335D01*
X0155938Y0006658D01*
X0155938Y0009164D01*
X0149283Y0009164D01*
X0148731Y0009392D01*
X0146383Y0009392D01*
X0146212Y0009564D01*
X0144466Y0009564D01*
X0143766Y0009274D01*
X0134334Y0009274D01*
X0133011Y0009822D01*
X0131998Y0010835D01*
X0131450Y0012158D01*
X0131450Y0013590D01*
X0131998Y0014913D01*
X0133011Y0015926D01*
X0134334Y0016474D01*
X0143766Y0016474D01*
X0144998Y0015964D01*
X0145446Y0015964D01*
X0145446Y0020198D01*
X0145512Y0020264D01*
X0145446Y0020329D01*
X0145446Y0025198D01*
X0145512Y0025264D01*
X0145446Y0025329D01*
X0145446Y0030198D01*
X0145512Y0030264D01*
X0145446Y0030329D01*
X0145446Y0035198D01*
X0145512Y0035264D01*
X0145446Y0035329D01*
X0145446Y0040198D01*
X0145512Y0040264D01*
X0145446Y0040329D01*
X0145446Y0045198D01*
X0145512Y0045264D01*
X0145446Y0045329D01*
X0145446Y0050198D01*
X0145512Y0050264D01*
X0145446Y0050329D01*
X0145446Y0055198D01*
X0145512Y0055264D01*
X0145446Y0055329D01*
X0145446Y0060198D01*
X0145512Y0060264D01*
X0145446Y0060329D01*
X0145446Y0060564D01*
X0138249Y0060564D01*
X0133072Y0065741D01*
X0133026Y0065741D01*
X0132058Y0066141D01*
X0131317Y0066882D01*
X0130917Y0067850D01*
X0130917Y0068898D01*
X0131030Y0069172D01*
X0119062Y0069172D01*
X0111150Y0061260D01*
X0111150Y0022125D01*
X0111658Y0021617D01*
X0112126Y0020486D01*
X0112126Y0019262D01*
X0111658Y0018131D01*
X0110793Y0017266D01*
X0109662Y0016798D01*
X0108438Y0016798D01*
X0107307Y0017266D01*
X0106550Y0018023D01*
X0105793Y0017266D01*
X0104662Y0016798D01*
X0103438Y0016798D01*
X0102307Y0017266D01*
X0101442Y0018131D01*
X0100974Y0019262D01*
X0100974Y0020486D01*
X0101442Y0021617D01*
X0102307Y0022482D01*
X0103438Y0022950D01*
X0104157Y0022950D01*
X0105350Y0024144D01*
X0105350Y0063663D01*
X0106580Y0064893D01*
X0108218Y0066530D01*
X0108218Y0071140D01*
X0103542Y0071140D01*
X0102312Y0072370D01*
X0101919Y0072764D01*
X0101919Y0073132D01*
X0100616Y0073132D01*
X0100550Y0073198D01*
X0100484Y0073132D01*
X0095616Y0073132D01*
X0095550Y0073198D01*
X0095484Y0073132D01*
X0090616Y0073132D01*
X0090550Y0073198D01*
X0090484Y0073132D01*
X0085654Y0073132D01*
X0085654Y0072322D02*
X0102361Y0072322D01*
X0108218Y0070323D02*
X0085648Y0070323D01*
X0085654Y0068325D02*
X0108218Y0068325D01*
X0108014Y0066326D02*
X0085654Y0066326D01*
X0085654Y0064328D02*
X0106015Y0064328D01*
X0105350Y0062329D02*
X0085654Y0062329D01*
X0085654Y0060331D02*
X0105350Y0060331D01*
X0105350Y0058332D02*
X0085654Y0058332D01*
X0085654Y0056334D02*
X0105350Y0056334D01*
X0105350Y0054335D02*
X0085654Y0054335D01*
X0085654Y0052337D02*
X0105350Y0052337D01*
X0105350Y0050338D02*
X0085654Y0050338D01*
X0085654Y0048340D02*
X0105350Y0048340D01*
X0105350Y0046341D02*
X0085654Y0046341D01*
X0085654Y0044343D02*
X0105350Y0044343D01*
X0105350Y0042344D02*
X0085654Y0042344D01*
X0085654Y0040346D02*
X0105350Y0040346D01*
X0105350Y0038347D02*
X0085654Y0038347D01*
X0085654Y0036349D02*
X0105350Y0036349D01*
X0105350Y0034350D02*
X0085654Y0034350D01*
X0085654Y0032352D02*
X0105350Y0032352D01*
X0105350Y0030353D02*
X0085654Y0030353D01*
X0087650Y0028355D02*
X0105350Y0028355D01*
X0105350Y0026356D02*
X0094494Y0026356D01*
X0094479Y0024358D02*
X0105350Y0024358D01*
X0102184Y0022359D02*
X0091683Y0022359D01*
X0089864Y0020361D02*
X0100974Y0020361D01*
X0101346Y0018362D02*
X0085654Y0018362D01*
X0085654Y0016364D02*
X0134067Y0016364D01*
X0131771Y0014365D02*
X0089368Y0014365D01*
X0091469Y0012367D02*
X0131450Y0012367D01*
X0132465Y0010368D02*
X0091463Y0010368D01*
X0089336Y0008370D02*
X0155938Y0008370D01*
X0156057Y0006371D02*
X0051050Y0006371D01*
X0051050Y0004373D02*
X0157448Y0004373D01*
X0164599Y0004373D02*
X0196525Y0004373D01*
X0195844Y0006371D02*
X0164969Y0006371D01*
X0164969Y0008370D02*
X0176904Y0008370D01*
X0177135Y0008274D02*
X0175444Y0008974D01*
X0174150Y0010268D01*
X0173450Y0011959D01*
X0173450Y0013789D01*
X0174150Y0015480D01*
X0175444Y0016774D01*
X0177135Y0017474D01*
X0184965Y0017474D01*
X0186656Y0016774D01*
X0187950Y0015480D01*
X0188650Y0013789D01*
X0188650Y0011959D01*
X0187950Y0010268D01*
X0186656Y0008974D01*
X0184965Y0008274D01*
X0177135Y0008274D01*
X0174109Y0010368D02*
X0164606Y0010368D01*
X0164288Y0012367D02*
X0173450Y0012367D01*
X0173689Y0014365D02*
X0164288Y0014365D01*
X0164288Y0016364D02*
X0175034Y0016364D01*
X0176922Y0018362D02*
X0164288Y0018362D01*
X0175650Y0028355D02*
X0176940Y0028355D01*
X0185160Y0028355D02*
X0196041Y0028355D01*
X0196041Y0030353D02*
X0187985Y0030353D01*
X0188650Y0032352D02*
X0196041Y0032352D01*
X0196041Y0034350D02*
X0188418Y0034350D01*
X0187081Y0036349D02*
X0236850Y0036349D01*
X0236850Y0035348D02*
X0233789Y0035348D01*
X0232852Y0034411D01*
X0232852Y0025999D01*
X0233789Y0025061D01*
X0237004Y0025061D01*
X0237941Y0025999D01*
X0237941Y0033525D01*
X0245635Y0025831D01*
X0245635Y0022546D01*
X0246285Y0021896D01*
X0245635Y0021245D01*
X0245635Y0016377D01*
X0246572Y0015439D01*
X0251047Y0015439D01*
X0251985Y0016377D01*
X0251985Y0021245D01*
X0251621Y0021609D01*
X0251835Y0021609D01*
X0252550Y0022324D01*
X0253265Y0021609D01*
X0253479Y0021609D01*
X0253115Y0021245D01*
X0253115Y0016377D01*
X0254053Y0015439D01*
X0256551Y0015439D01*
X0257612Y0014378D01*
X0257817Y0013882D01*
X0258558Y0013141D01*
X0259520Y0012743D01*
X0255725Y0012743D01*
X0255725Y0012978D01*
X0254788Y0013915D01*
X0250312Y0013915D01*
X0249375Y0012978D01*
X0249375Y0011474D01*
X0248674Y0011474D01*
X0248542Y0011607D01*
X0247574Y0012007D01*
X0246526Y0012007D01*
X0245558Y0011607D01*
X0244817Y0010866D01*
X0244417Y0009898D01*
X0244417Y0008850D01*
X0244817Y0007882D01*
X0245558Y0007141D01*
X0246526Y0006741D01*
X0247574Y0006741D01*
X0248542Y0007141D01*
X0248674Y0007274D01*
X0250210Y0007274D01*
X0250312Y0007172D01*
X0254788Y0007172D01*
X0255725Y0008109D01*
X0255725Y0008343D01*
X0264961Y0008343D01*
X0266250Y0009632D01*
X0266250Y0017459D01*
X0266878Y0017459D01*
X0267815Y0018396D01*
X0267815Y0023659D01*
X0267100Y0024374D01*
X0267815Y0025089D01*
X0267815Y0028516D01*
X0270150Y0030851D01*
X0270150Y0039624D01*
X0270938Y0039298D01*
X0272162Y0039298D01*
X0273293Y0039766D01*
X0274158Y0040631D01*
X0274626Y0041762D01*
X0274626Y0042986D01*
X0274158Y0044117D01*
X0273650Y0044625D01*
X0273650Y0044724D01*
X0273765Y0044609D01*
X0274773Y0044609D01*
X0275581Y0044274D01*
X0279625Y0044274D01*
X0280237Y0043661D01*
X0281413Y0043174D01*
X0282687Y0043174D01*
X0283863Y0043661D01*
X0284763Y0044561D01*
X0285250Y0045737D01*
X0285250Y0047776D01*
X0285526Y0048052D01*
X0286150Y0049558D01*
X0286150Y0051190D01*
X0285526Y0052696D01*
X0285250Y0052972D01*
X0285250Y0055776D01*
X0285526Y0056052D01*
X0286150Y0057558D01*
X0286150Y0059190D01*
X0285526Y0060696D01*
X0284372Y0061850D01*
X0282866Y0062474D01*
X0281234Y0062474D01*
X0279728Y0061850D01*
X0279277Y0061399D01*
X0275732Y0061399D01*
X0276618Y0062286D01*
X0276618Y0063305D01*
X0277858Y0063305D01*
X0278740Y0063670D01*
X0278978Y0063908D01*
X0279542Y0064141D01*
X0280283Y0064882D01*
X0280683Y0065850D01*
X0280683Y0066898D01*
X0280283Y0067866D01*
X0279542Y0068607D01*
X0278574Y0069007D01*
X0277526Y0069007D01*
X0276618Y0068631D01*
X0276618Y0069123D01*
X0275681Y0070061D01*
X0270419Y0070061D01*
X0270163Y0069805D01*
X0262981Y0069805D01*
X0262981Y0069879D01*
X0262496Y0070364D01*
X0262496Y0072274D01*
X0262866Y0072274D01*
X0263877Y0072693D01*
X0264888Y0072274D01*
X0266519Y0072274D01*
X0267802Y0072806D01*
X0268532Y0072806D01*
X0269469Y0073743D01*
X0269469Y0074751D01*
X0269804Y0075558D01*
X0269804Y0081536D01*
X0269592Y0082047D01*
X0269804Y0082558D01*
X0269804Y0084190D01*
X0269469Y0084997D01*
X0269469Y0086005D01*
X0268532Y0086943D01*
X0267802Y0086943D01*
X0266843Y0087340D01*
X0266978Y0087396D01*
X0268142Y0087396D01*
X0269079Y0088333D01*
X0269079Y0089122D01*
X0272131Y0092174D01*
X0274187Y0092174D01*
X0275363Y0092661D01*
X0276263Y0093561D01*
X0276750Y0094737D01*
X0276750Y0096459D01*
X0280095Y0096459D01*
X0281032Y0097396D01*
X0281032Y0100314D01*
X0281057Y0100375D01*
X0281057Y0101648D01*
X0281032Y0101709D01*
X0281032Y0104627D01*
X0280095Y0105565D01*
X0266958Y0105565D01*
X0266021Y0104627D01*
X0266021Y0101709D01*
X0265996Y0101648D01*
X0265996Y0100375D01*
X0266021Y0100314D01*
X0266021Y0097396D01*
X0266958Y0096459D01*
X0267365Y0096459D01*
X0264258Y0093352D01*
X0263470Y0093352D01*
X0262656Y0092538D01*
X0261843Y0093352D01*
X0260679Y0093352D01*
X0260143Y0093574D01*
X0258870Y0093574D01*
X0258334Y0093352D01*
X0257171Y0093352D01*
X0256993Y0093174D01*
X0245993Y0093174D01*
X0245878Y0093289D01*
X0241250Y0093289D01*
X0241250Y0093674D01*
X0251961Y0093674D01*
X0253250Y0094963D01*
X0254073Y0095786D01*
X0254073Y0096459D01*
X0262772Y0096459D01*
X0263709Y0097396D01*
X0263709Y0104627D01*
X0262772Y0105565D01*
X0236643Y0105565D01*
X0235706Y0104627D01*
X0235706Y0097396D01*
X0236643Y0096459D01*
X0236850Y0096459D01*
X0236850Y0057986D01*
X0233789Y0057986D01*
X0232852Y0057049D01*
X0232852Y0048636D01*
X0233789Y0047699D01*
X0236850Y0047699D01*
X0236850Y0035348D01*
X0237941Y0032352D02*
X0239115Y0032352D01*
X0237941Y0030353D02*
X0241113Y0030353D01*
X0243112Y0028355D02*
X0237941Y0028355D01*
X0237941Y0026356D02*
X0245110Y0026356D01*
X0245635Y0024358D02*
X0188414Y0024358D01*
X0188650Y0022359D02*
X0245822Y0022359D01*
X0245635Y0020361D02*
X0187988Y0020361D01*
X0185178Y0018362D02*
X0245635Y0018362D01*
X0245648Y0016364D02*
X0187066Y0016364D01*
X0188411Y0014365D02*
X0257617Y0014365D01*
X0260205Y0018007D02*
X0259465Y0018747D01*
X0259465Y0021245D01*
X0258815Y0021896D01*
X0259465Y0022546D01*
X0259465Y0028202D01*
X0258528Y0029139D01*
X0253265Y0029139D01*
X0252550Y0028424D01*
X0251835Y0029139D01*
X0248549Y0029139D01*
X0241250Y0036439D01*
X0241250Y0072152D01*
X0245288Y0072152D01*
X0246225Y0073089D01*
X0246225Y0077564D01*
X0245850Y0077939D01*
X0245850Y0079459D01*
X0245878Y0079459D01*
X0246815Y0080396D01*
X0246815Y0085659D01*
X0246100Y0086374D01*
X0246815Y0087089D01*
X0246815Y0087574D01*
X0254950Y0087574D01*
X0254950Y0086324D01*
X0254631Y0086005D01*
X0254631Y0084997D01*
X0254296Y0084190D01*
X0254296Y0070817D01*
X0252057Y0070817D01*
X0251119Y0069879D01*
X0251119Y0060680D01*
X0252057Y0059743D01*
X0262043Y0059743D01*
X0262981Y0060680D01*
X0262981Y0061605D01*
X0263450Y0061605D01*
X0263450Y0045004D01*
X0265950Y0042504D01*
X0265950Y0032590D01*
X0264649Y0031289D01*
X0261222Y0031289D01*
X0260285Y0030352D01*
X0260285Y0025089D01*
X0261000Y0024374D01*
X0260285Y0023659D01*
X0260285Y0018396D01*
X0260744Y0017937D01*
X0260574Y0018007D01*
X0260205Y0018007D01*
X0260319Y0018362D02*
X0259850Y0018362D01*
X0259465Y0020361D02*
X0260285Y0020361D01*
X0260285Y0022359D02*
X0259278Y0022359D01*
X0259465Y0024358D02*
X0260984Y0024358D01*
X0260285Y0026356D02*
X0259465Y0026356D01*
X0259312Y0028355D02*
X0260285Y0028355D01*
X0260286Y0030353D02*
X0247336Y0030353D01*
X0245337Y0032352D02*
X0265711Y0032352D01*
X0265950Y0034350D02*
X0243339Y0034350D01*
X0241340Y0036349D02*
X0265950Y0036349D01*
X0265950Y0038347D02*
X0241250Y0038347D01*
X0241250Y0040346D02*
X0265950Y0040346D01*
X0265950Y0042344D02*
X0241250Y0042344D01*
X0241250Y0044343D02*
X0264111Y0044343D01*
X0263450Y0046341D02*
X0241250Y0046341D01*
X0241250Y0048340D02*
X0263450Y0048340D01*
X0263450Y0050338D02*
X0241250Y0050338D01*
X0241250Y0052337D02*
X0263450Y0052337D01*
X0263450Y0054335D02*
X0241250Y0054335D01*
X0241250Y0056334D02*
X0263450Y0056334D01*
X0263450Y0058332D02*
X0241250Y0058332D01*
X0241250Y0060331D02*
X0251468Y0060331D01*
X0251119Y0062329D02*
X0241250Y0062329D01*
X0241250Y0064328D02*
X0251119Y0064328D01*
X0251119Y0066326D02*
X0241250Y0066326D01*
X0241250Y0068325D02*
X0251119Y0068325D01*
X0251563Y0070323D02*
X0241250Y0070323D01*
X0236850Y0070323D02*
X0228469Y0070323D01*
X0228469Y0068325D02*
X0236850Y0068325D01*
X0236850Y0066326D02*
X0228469Y0066326D01*
X0228469Y0066505D02*
X0227600Y0067374D01*
X0228469Y0068243D01*
X0228469Y0073505D01*
X0227532Y0074443D01*
X0224663Y0074443D01*
X0224338Y0074768D01*
X0228085Y0078515D01*
X0228450Y0079397D01*
X0228450Y0084767D01*
X0228250Y0085250D01*
X0228250Y0096459D01*
X0232457Y0096459D01*
X0233394Y0097396D01*
X0233394Y0104627D01*
X0232457Y0105565D01*
X0189005Y0105565D01*
X0188068Y0104627D01*
X0188068Y0097396D01*
X0189005Y0096459D01*
X0209524Y0096459D01*
X0199173Y0086109D01*
X0198691Y0085909D01*
X0198015Y0085234D01*
X0197650Y0084351D01*
X0197650Y0081397D01*
X0198015Y0080515D01*
X0202015Y0076515D01*
X0202691Y0075839D01*
X0203573Y0075474D01*
X0205376Y0075474D01*
X0205497Y0075353D01*
X0206122Y0075353D01*
X0206122Y0073994D01*
X0202571Y0070443D01*
X0199568Y0070443D01*
X0198631Y0069505D01*
X0198631Y0064443D01*
X0193568Y0064443D01*
X0192631Y0063505D01*
X0192631Y0058243D01*
X0193568Y0057306D01*
X0196298Y0057306D01*
X0196041Y0057049D01*
X0196041Y0048636D01*
X0196978Y0047699D01*
X0200193Y0047699D01*
X0201130Y0048636D01*
X0201130Y0057049D01*
X0200193Y0057986D01*
X0199905Y0057986D01*
X0200162Y0058243D01*
X0200162Y0058474D01*
X0201650Y0058474D01*
X0201650Y0055503D01*
X0201670Y0055453D01*
X0201670Y0052259D01*
X0202608Y0051321D01*
X0202650Y0051321D01*
X0202650Y0049961D01*
X0202417Y0049398D01*
X0202417Y0048350D01*
X0202817Y0047382D01*
X0203558Y0046641D01*
X0204526Y0046241D01*
X0205574Y0046241D01*
X0206542Y0046641D01*
X0207283Y0047382D01*
X0207683Y0048350D01*
X0207683Y0049398D01*
X0207450Y0049961D01*
X0207450Y0051479D01*
X0207608Y0051321D01*
X0211492Y0051321D01*
X0212050Y0051879D01*
X0212608Y0051321D01*
X0216492Y0051321D01*
X0217050Y0051879D01*
X0217608Y0051321D01*
X0221492Y0051321D01*
X0222050Y0051879D01*
X0222608Y0051321D01*
X0226492Y0051321D01*
X0227430Y0052259D01*
X0227430Y0058702D01*
X0226950Y0059182D01*
X0226950Y0060306D01*
X0227532Y0060306D01*
X0228469Y0061243D01*
X0228469Y0066505D01*
X0228469Y0064328D02*
X0236850Y0064328D01*
X0236850Y0062329D02*
X0228469Y0062329D01*
X0227557Y0060331D02*
X0236850Y0060331D01*
X0236850Y0058332D02*
X0227430Y0058332D01*
X0227430Y0056334D02*
X0232852Y0056334D01*
X0232852Y0054335D02*
X0227430Y0054335D01*
X0227430Y0052337D02*
X0232852Y0052337D01*
X0232852Y0050338D02*
X0207450Y0050338D01*
X0207679Y0048340D02*
X0233148Y0048340D01*
X0236850Y0046341D02*
X0205817Y0046341D01*
X0204283Y0046341D02*
X0187088Y0046341D01*
X0188421Y0044343D02*
X0236850Y0044343D01*
X0236850Y0042344D02*
X0200968Y0042344D01*
X0200574Y0042507D02*
X0199526Y0042507D01*
X0198558Y0042107D01*
X0197817Y0041366D01*
X0197417Y0040398D01*
X0197417Y0039350D01*
X0197817Y0038382D01*
X0198558Y0037641D01*
X0199526Y0037241D01*
X0200574Y0037241D01*
X0201542Y0037641D01*
X0202283Y0038382D01*
X0202683Y0039350D01*
X0202683Y0040398D01*
X0202283Y0041366D01*
X0201542Y0042107D01*
X0200574Y0042507D01*
X0199132Y0042344D02*
X0188650Y0042344D01*
X0187982Y0040346D02*
X0197417Y0040346D01*
X0197853Y0038347D02*
X0185142Y0038347D01*
X0176958Y0038347D02*
X0175650Y0038347D01*
X0175650Y0048340D02*
X0176976Y0048340D01*
X0173450Y0052337D02*
X0172201Y0052337D01*
X0173676Y0054335D02*
X0170450Y0054335D01*
X0170450Y0056334D02*
X0175004Y0056334D01*
X0170450Y0058332D02*
X0192631Y0058332D01*
X0192631Y0060331D02*
X0170777Y0060331D01*
X0172775Y0062329D02*
X0192631Y0062329D01*
X0193454Y0064328D02*
X0174774Y0064328D01*
X0176772Y0066326D02*
X0198631Y0066326D01*
X0198631Y0068325D02*
X0178771Y0068325D01*
X0180769Y0070323D02*
X0199449Y0070323D01*
X0204450Y0072322D02*
X0183985Y0072322D01*
X0183534Y0071871D02*
X0183534Y0071871D01*
X0184783Y0074320D02*
X0206122Y0074320D01*
X0202211Y0076319D02*
X0184783Y0076319D01*
X0183094Y0078317D02*
X0200212Y0078317D01*
X0198214Y0080316D02*
X0172150Y0080316D01*
X0172150Y0082314D02*
X0197650Y0082314D01*
X0197650Y0084313D02*
X0171874Y0084313D01*
X0171250Y0086311D02*
X0199376Y0086311D01*
X0201375Y0088310D02*
X0171250Y0088310D01*
X0171250Y0090309D02*
X0203373Y0090309D01*
X0205372Y0092307D02*
X0171250Y0092307D01*
X0171250Y0094306D02*
X0207370Y0094306D01*
X0209369Y0096304D02*
X0171250Y0096304D01*
X0171741Y0098303D02*
X0188068Y0098303D01*
X0188068Y0100301D02*
X0172150Y0100301D01*
X0172150Y0102300D02*
X0188068Y0102300D01*
X0188068Y0104298D02*
X0172150Y0104298D01*
X0171890Y0106297D02*
X0290200Y0106297D01*
X0290200Y0108295D02*
X0191537Y0108295D01*
X0192055Y0110294D02*
X0290200Y0110294D01*
X0290200Y0104298D02*
X0281032Y0104298D01*
X0281032Y0102300D02*
X0290200Y0102300D01*
X0290200Y0100301D02*
X0281032Y0100301D01*
X0281032Y0098303D02*
X0290200Y0098303D01*
X0290200Y0096304D02*
X0276750Y0096304D01*
X0276571Y0094306D02*
X0290200Y0094306D01*
X0290200Y0092307D02*
X0274508Y0092307D01*
X0270266Y0090309D02*
X0290200Y0090309D01*
X0290200Y0088310D02*
X0269056Y0088310D01*
X0269163Y0086311D02*
X0290200Y0086311D01*
X0290200Y0084313D02*
X0269752Y0084313D01*
X0269702Y0082314D02*
X0290200Y0082314D01*
X0290200Y0080316D02*
X0269804Y0080316D01*
X0269804Y0078317D02*
X0290200Y0078317D01*
X0290200Y0076319D02*
X0269804Y0076319D01*
X0269469Y0074320D02*
X0290200Y0074320D01*
X0290200Y0072322D02*
X0266635Y0072322D01*
X0264772Y0072322D02*
X0262981Y0072322D01*
X0262537Y0070323D02*
X0290200Y0070323D01*
X0290200Y0068325D02*
X0279823Y0068325D01*
X0280683Y0066326D02*
X0290200Y0066326D01*
X0290200Y0064328D02*
X0279728Y0064328D01*
X0280885Y0062329D02*
X0276618Y0062329D01*
X0283215Y0062329D02*
X0290200Y0062329D01*
X0290200Y0060331D02*
X0285677Y0060331D01*
X0286150Y0058332D02*
X0290200Y0058332D01*
X0290200Y0056334D02*
X0285643Y0056334D01*
X0285250Y0054335D02*
X0290200Y0054335D01*
X0290200Y0052337D02*
X0285675Y0052337D01*
X0286150Y0050338D02*
X0290200Y0050338D01*
X0290200Y0048340D02*
X0285645Y0048340D01*
X0285250Y0046341D02*
X0290200Y0046341D01*
X0290200Y0044343D02*
X0284544Y0044343D01*
X0290200Y0042344D02*
X0274626Y0042344D01*
X0273932Y0044343D02*
X0275415Y0044343D01*
X0273872Y0040346D02*
X0290200Y0040346D01*
X0290200Y0038347D02*
X0270150Y0038347D01*
X0270150Y0036349D02*
X0290200Y0036349D01*
X0290200Y0034350D02*
X0270150Y0034350D01*
X0270150Y0032352D02*
X0290200Y0032352D01*
X0290200Y0030353D02*
X0269653Y0030353D01*
X0267815Y0028355D02*
X0290200Y0028355D01*
X0290200Y0026356D02*
X0267815Y0026356D01*
X0267116Y0024358D02*
X0290200Y0024358D01*
X0290200Y0022359D02*
X0267815Y0022359D01*
X0267815Y0020361D02*
X0290200Y0020361D01*
X0290200Y0018362D02*
X0287163Y0018362D01*
X0286497Y0019029D02*
X0283611Y0020224D01*
X0280489Y0020224D01*
X0277603Y0019029D01*
X0275395Y0016821D01*
X0274200Y0013935D01*
X0274200Y0010813D01*
X0275395Y0007927D01*
X0277603Y0005719D01*
X0280489Y0004524D01*
X0283611Y0004524D01*
X0286497Y0005719D01*
X0288705Y0007927D01*
X0289900Y0010813D01*
X0289900Y0013935D01*
X0288705Y0016821D01*
X0286497Y0019029D01*
X0288894Y0016364D02*
X0290200Y0016364D01*
X0290200Y0014365D02*
X0289722Y0014365D01*
X0289900Y0012367D02*
X0290199Y0012367D01*
X0289862Y0010368D02*
X0289716Y0010368D01*
X0289091Y0008370D02*
X0288888Y0008370D01*
X0287483Y0006371D02*
X0287149Y0006371D01*
X0283473Y0004373D02*
X0237575Y0004373D01*
X0238256Y0006371D02*
X0276951Y0006371D01*
X0275212Y0008370D02*
X0264988Y0008370D01*
X0266250Y0010368D02*
X0274384Y0010368D01*
X0274200Y0012367D02*
X0266250Y0012367D01*
X0266250Y0014365D02*
X0274378Y0014365D01*
X0275206Y0016364D02*
X0266250Y0016364D01*
X0267781Y0018362D02*
X0276937Y0018362D01*
X0253115Y0018362D02*
X0251985Y0018362D01*
X0251972Y0016364D02*
X0253128Y0016364D01*
X0253115Y0020361D02*
X0251985Y0020361D01*
X0249375Y0012367D02*
X0188650Y0012367D01*
X0187991Y0010368D02*
X0195895Y0010368D01*
X0195844Y0008370D02*
X0185196Y0008370D01*
X0202418Y0004373D02*
X0231682Y0004373D01*
X0231001Y0006371D02*
X0203099Y0006371D01*
X0203099Y0008370D02*
X0231001Y0008370D01*
X0231053Y0010368D02*
X0203047Y0010368D01*
X0200193Y0025061D02*
X0196978Y0025061D01*
X0196041Y0025999D01*
X0196041Y0034411D01*
X0196978Y0035348D01*
X0200193Y0035348D01*
X0201130Y0034411D01*
X0201130Y0025999D01*
X0200193Y0025061D01*
X0201130Y0026356D02*
X0232852Y0026356D01*
X0232852Y0028355D02*
X0201130Y0028355D01*
X0201130Y0030353D02*
X0232852Y0030353D01*
X0232852Y0032352D02*
X0201130Y0032352D01*
X0201130Y0034350D02*
X0232852Y0034350D01*
X0236850Y0038347D02*
X0202247Y0038347D01*
X0202683Y0040346D02*
X0236850Y0040346D01*
X0262632Y0060331D02*
X0263450Y0060331D01*
X0254296Y0072322D02*
X0245457Y0072322D01*
X0246225Y0074320D02*
X0254296Y0074320D01*
X0254296Y0076319D02*
X0246225Y0076319D01*
X0245850Y0078317D02*
X0254296Y0078317D01*
X0254296Y0080316D02*
X0246735Y0080316D01*
X0246815Y0082314D02*
X0254296Y0082314D01*
X0254348Y0084313D02*
X0246815Y0084313D01*
X0246163Y0086311D02*
X0254937Y0086311D01*
X0252593Y0094306D02*
X0265212Y0094306D01*
X0267210Y0096304D02*
X0254073Y0096304D01*
X0253250Y0094963D02*
X0253250Y0094963D01*
X0263709Y0098303D02*
X0266021Y0098303D01*
X0266021Y0100301D02*
X0263709Y0100301D01*
X0263709Y0102300D02*
X0266021Y0102300D01*
X0266021Y0104298D02*
X0263709Y0104298D01*
X0276550Y0112292D02*
X0192055Y0112292D01*
X0192055Y0118288D02*
X0276550Y0118288D01*
X0276550Y0116289D02*
X0179816Y0116289D01*
X0184101Y0114291D02*
X0276550Y0114291D01*
X0285300Y0120286D02*
X0192055Y0120286D01*
X0192055Y0122285D02*
X0285300Y0122285D01*
X0285300Y0124283D02*
X0192055Y0124283D01*
X0192055Y0126282D02*
X0285300Y0126282D01*
X0285300Y0128280D02*
X0192055Y0128280D01*
X0192055Y0130279D02*
X0285300Y0130279D01*
X0285300Y0132277D02*
X0192055Y0132277D01*
X0192055Y0134276D02*
X0285300Y0134276D01*
X0285300Y0136274D02*
X0192055Y0136274D01*
X0192055Y0138273D02*
X0277900Y0138273D01*
X0277044Y0140271D02*
X0192055Y0140271D01*
X0192055Y0142270D02*
X0277044Y0142270D01*
X0277709Y0144268D02*
X0192055Y0144268D01*
X0192055Y0146267D02*
X0285300Y0146267D01*
X0285300Y0148265D02*
X0191725Y0148265D01*
X0196730Y0152121D02*
X0197667Y0151183D01*
X0219465Y0151183D01*
X0220402Y0152121D01*
X0220402Y0159352D01*
X0219750Y0160004D01*
X0219750Y0166350D01*
X0219783Y0166382D01*
X0220183Y0167350D01*
X0220183Y0168398D01*
X0219783Y0169366D01*
X0219042Y0170107D01*
X0218074Y0170507D01*
X0217026Y0170507D01*
X0216058Y0170107D01*
X0215317Y0169366D01*
X0214917Y0168398D01*
X0214917Y0167350D01*
X0215317Y0166382D01*
X0215350Y0166350D01*
X0215350Y0160289D01*
X0215096Y0160289D01*
X0215096Y0161785D01*
X0213808Y0163074D01*
X0213221Y0163074D01*
X0212715Y0163580D01*
X0212715Y0165744D01*
X0211485Y0166974D01*
X0208985Y0166974D01*
X0208985Y0167371D01*
X0208047Y0168309D01*
X0203815Y0168309D01*
X0203815Y0169159D01*
X0203100Y0169874D01*
X0203815Y0170589D01*
X0203815Y0171020D01*
X0206375Y0171020D01*
X0206375Y0170770D01*
X0207312Y0169833D01*
X0211788Y0169833D01*
X0212725Y0170770D01*
X0212725Y0175639D01*
X0212190Y0176174D01*
X0219011Y0176174D01*
X0219597Y0176760D01*
X0222047Y0176760D01*
X0227467Y0182180D01*
X0227467Y0182191D01*
X0228084Y0182191D01*
X0229070Y0182600D01*
X0229244Y0182774D01*
X0234375Y0182774D01*
X0234375Y0180770D01*
X0235312Y0179833D01*
X0237466Y0179833D01*
X0235941Y0178309D01*
X0231572Y0178309D01*
X0230635Y0177371D01*
X0230635Y0172503D01*
X0231535Y0171602D01*
X0230635Y0170702D01*
X0230635Y0165874D01*
X0228562Y0165874D01*
X0227274Y0164585D01*
X0225762Y0163074D01*
X0225639Y0163074D01*
X0224350Y0161785D01*
X0224350Y0160289D01*
X0223651Y0160289D01*
X0222714Y0159352D01*
X0222714Y0152121D01*
X0223651Y0151183D01*
X0236788Y0151183D01*
X0237725Y0152121D01*
X0237725Y0159352D01*
X0237402Y0159674D01*
X0244690Y0159674D01*
X0244367Y0159352D01*
X0244367Y0152121D01*
X0245305Y0151183D01*
X0258441Y0151183D01*
X0259378Y0152121D01*
X0259378Y0159352D01*
X0258441Y0160289D01*
X0255076Y0160289D01*
X0255750Y0160963D01*
X0255750Y0164109D01*
X0256528Y0164109D01*
X0257465Y0165046D01*
X0257465Y0170702D01*
X0256565Y0171602D01*
X0257465Y0172503D01*
X0257465Y0175474D01*
X0262465Y0175474D01*
X0262465Y0160127D01*
X0261690Y0159352D01*
X0261690Y0152121D01*
X0262627Y0151183D01*
X0267102Y0151183D01*
X0268040Y0152121D01*
X0268040Y0159352D01*
X0267265Y0160127D01*
X0267265Y0178036D01*
X0267183Y0178233D01*
X0267183Y0178398D01*
X0266783Y0179366D01*
X0266042Y0180107D01*
X0265074Y0180507D01*
X0264026Y0180507D01*
X0263463Y0180274D01*
X0257489Y0180274D01*
X0256922Y0180509D01*
X0253463Y0180509D01*
X0253725Y0180770D01*
X0253725Y0185639D01*
X0252788Y0186576D01*
X0252750Y0186576D01*
X0252750Y0187109D01*
X0253528Y0187109D01*
X0254465Y0188046D01*
X0254465Y0193702D01*
X0253528Y0194639D01*
X0248265Y0194639D01*
X0247550Y0193924D01*
X0246873Y0194601D01*
X0247183Y0195350D01*
X0247183Y0196398D01*
X0246783Y0197366D01*
X0246042Y0198107D01*
X0245074Y0198507D01*
X0244026Y0198507D01*
X0243463Y0198274D01*
X0232637Y0198274D01*
X0232074Y0198507D01*
X0231026Y0198507D01*
X0230058Y0198107D01*
X0229317Y0197366D01*
X0228917Y0196398D01*
X0228917Y0196278D01*
X0228804Y0196005D01*
X0228804Y0194639D01*
X0228572Y0194639D01*
X0227635Y0193702D01*
X0227635Y0193074D01*
X0225639Y0193074D01*
X0224350Y0191785D01*
X0224350Y0188013D01*
X0223067Y0186731D01*
X0223067Y0184003D01*
X0220225Y0181160D01*
X0217775Y0181160D01*
X0217189Y0180574D01*
X0192639Y0180574D01*
X0191350Y0179285D01*
X0191350Y0175502D01*
X0191312Y0175502D01*
X0190375Y0174564D01*
X0190375Y0170089D01*
X0191090Y0169374D01*
X0190375Y0168659D01*
X0190375Y0164184D01*
X0191312Y0163246D01*
X0195788Y0163246D01*
X0196123Y0163582D01*
X0196738Y0163443D01*
X0197207Y0162974D01*
X0188424Y0162974D01*
X0188158Y0163617D01*
X0187293Y0164482D01*
X0186162Y0164950D01*
X0184938Y0164950D01*
X0183807Y0164482D01*
X0182942Y0163617D01*
X0182474Y0162486D01*
X0182474Y0161262D01*
X0182942Y0160131D01*
X0183807Y0159266D01*
X0184938Y0158798D01*
X0185657Y0158798D01*
X0185680Y0158774D01*
X0196730Y0158774D01*
X0196730Y0152121D01*
X0196730Y0152262D02*
X0175300Y0152262D01*
X0175300Y0150264D02*
X0285300Y0150264D01*
X0285300Y0152262D02*
X0276701Y0152262D01*
X0276701Y0152121D02*
X0276701Y0159352D01*
X0275764Y0160289D01*
X0271289Y0160289D01*
X0270352Y0159352D01*
X0270352Y0152121D01*
X0271289Y0151183D01*
X0275764Y0151183D01*
X0276701Y0152121D01*
X0276701Y0154261D02*
X0285300Y0154261D01*
X0285300Y0156259D02*
X0276701Y0156259D01*
X0276701Y0158258D02*
X0285300Y0158258D01*
X0285300Y0160256D02*
X0275796Y0160256D01*
X0271256Y0160256D02*
X0267265Y0160256D01*
X0267265Y0162255D02*
X0285300Y0162255D01*
X0285300Y0164253D02*
X0267265Y0164253D01*
X0267265Y0166252D02*
X0285300Y0166252D01*
X0285300Y0168250D02*
X0267265Y0168250D01*
X0267265Y0170249D02*
X0285300Y0170249D01*
X0285300Y0172247D02*
X0267265Y0172247D01*
X0267265Y0174246D02*
X0285300Y0174246D01*
X0285300Y0176245D02*
X0267265Y0176245D01*
X0267183Y0178243D02*
X0285300Y0178243D01*
X0285300Y0180242D02*
X0265716Y0180242D01*
X0262465Y0174246D02*
X0257465Y0174246D01*
X0257210Y0172247D02*
X0262465Y0172247D01*
X0262465Y0170249D02*
X0257465Y0170249D01*
X0257465Y0168250D02*
X0262465Y0168250D01*
X0262465Y0166252D02*
X0257465Y0166252D01*
X0256672Y0164253D02*
X0262465Y0164253D01*
X0262465Y0162255D02*
X0255750Y0162255D01*
X0258474Y0160256D02*
X0262465Y0160256D01*
X0261690Y0158258D02*
X0259378Y0158258D01*
X0259378Y0156259D02*
X0261690Y0156259D01*
X0261690Y0154261D02*
X0259378Y0154261D01*
X0259378Y0152262D02*
X0261690Y0152262D01*
X0268040Y0152262D02*
X0270352Y0152262D01*
X0270352Y0154261D02*
X0268040Y0154261D01*
X0268040Y0156259D02*
X0270352Y0156259D01*
X0270352Y0158258D02*
X0268040Y0158258D01*
X0244367Y0158258D02*
X0237725Y0158258D01*
X0237725Y0156259D02*
X0244367Y0156259D01*
X0244367Y0154261D02*
X0237725Y0154261D01*
X0237725Y0152262D02*
X0244367Y0152262D01*
X0227274Y0164585D02*
X0227274Y0164585D01*
X0226942Y0164253D02*
X0219750Y0164253D01*
X0219750Y0162255D02*
X0224820Y0162255D01*
X0223618Y0160256D02*
X0219750Y0160256D01*
X0220402Y0158258D02*
X0222714Y0158258D01*
X0222714Y0156259D02*
X0220402Y0156259D01*
X0220402Y0154261D02*
X0222714Y0154261D01*
X0222714Y0152262D02*
X0220402Y0152262D01*
X0215350Y0162255D02*
X0214627Y0162255D01*
X0215350Y0164253D02*
X0212715Y0164253D01*
X0212207Y0166252D02*
X0215350Y0166252D01*
X0214917Y0168250D02*
X0208106Y0168250D01*
X0206897Y0170249D02*
X0203475Y0170249D01*
X0212203Y0170249D02*
X0216402Y0170249D01*
X0218698Y0170249D02*
X0230635Y0170249D01*
X0230635Y0168250D02*
X0220183Y0168250D01*
X0219750Y0166252D02*
X0230635Y0166252D01*
X0230890Y0172247D02*
X0212725Y0172247D01*
X0212725Y0174246D02*
X0230635Y0174246D01*
X0230635Y0176245D02*
X0219082Y0176245D01*
X0223530Y0178243D02*
X0231507Y0178243D01*
X0234904Y0180242D02*
X0225529Y0180242D01*
X0228201Y0182240D02*
X0234375Y0182240D01*
X0224350Y0188236D02*
X0188087Y0188236D01*
X0188087Y0190234D02*
X0224350Y0190234D01*
X0224797Y0192233D02*
X0188087Y0192233D01*
X0188087Y0186237D02*
X0223067Y0186237D01*
X0223067Y0184239D02*
X0188087Y0184239D01*
X0188087Y0182240D02*
X0221305Y0182240D01*
X0228164Y0194231D02*
X0144323Y0194231D01*
X0144315Y0192233D02*
X0177013Y0192233D01*
X0177013Y0190234D02*
X0144307Y0190234D01*
X0144299Y0188236D02*
X0177013Y0188236D01*
X0177013Y0186237D02*
X0144292Y0186237D01*
X0144284Y0184239D02*
X0177013Y0184239D01*
X0177013Y0182240D02*
X0144276Y0182240D01*
X0144268Y0180242D02*
X0178800Y0180242D01*
X0178800Y0178243D02*
X0149532Y0178243D01*
X0150126Y0176245D02*
X0178800Y0176245D01*
X0178800Y0174246D02*
X0149273Y0174246D01*
X0144827Y0174246D02*
X0144245Y0174246D01*
X0144237Y0172247D02*
X0178800Y0172247D01*
X0177719Y0170249D02*
X0144229Y0170249D01*
X0144221Y0168250D02*
X0175808Y0168250D01*
X0173896Y0166252D02*
X0144214Y0166252D01*
X0144206Y0164253D02*
X0171985Y0164253D01*
X0170073Y0162255D02*
X0144684Y0162255D01*
X0145603Y0160256D02*
X0168258Y0160256D01*
X0167800Y0158258D02*
X0145603Y0158258D01*
X0145603Y0156259D02*
X0167800Y0156259D01*
X0167800Y0154261D02*
X0145198Y0154261D01*
X0145603Y0152262D02*
X0167800Y0152262D01*
X0167800Y0150264D02*
X0145603Y0150264D01*
X0145603Y0148265D02*
X0167800Y0148265D01*
X0167800Y0146267D02*
X0144136Y0146267D01*
X0144128Y0144268D02*
X0167800Y0144268D01*
X0167800Y0142270D02*
X0144120Y0142270D01*
X0144112Y0140271D02*
X0167800Y0140271D01*
X0167800Y0138273D02*
X0144104Y0138273D01*
X0144096Y0136274D02*
X0167800Y0136274D01*
X0167800Y0134276D02*
X0144089Y0134276D01*
X0144081Y0132277D02*
X0167800Y0132277D01*
X0167800Y0130279D02*
X0144073Y0130279D01*
X0144065Y0128280D02*
X0167800Y0128280D01*
X0167800Y0126282D02*
X0144057Y0126282D01*
X0140483Y0112292D02*
X0169318Y0112292D01*
X0173885Y0110294D02*
X0141126Y0110294D01*
X0140322Y0108295D02*
X0178548Y0108295D01*
X0166210Y0106297D02*
X0140150Y0106297D01*
X0140150Y0104298D02*
X0165950Y0104298D01*
X0165950Y0102300D02*
X0140150Y0102300D01*
X0140150Y0100301D02*
X0165950Y0100301D01*
X0166359Y0098303D02*
X0140150Y0098303D01*
X0140150Y0096304D02*
X0166850Y0096304D01*
X0166850Y0094306D02*
X0140150Y0094306D01*
X0140150Y0092307D02*
X0161592Y0092307D01*
X0161938Y0092450D02*
X0160807Y0091982D01*
X0159942Y0091117D01*
X0159474Y0089986D01*
X0159474Y0088762D01*
X0159942Y0087631D01*
X0160807Y0086766D01*
X0161938Y0086298D01*
X0163162Y0086298D01*
X0164293Y0086766D01*
X0165158Y0087631D01*
X0165626Y0088762D01*
X0165626Y0089986D01*
X0165158Y0091117D01*
X0164293Y0091982D01*
X0163162Y0092450D01*
X0161938Y0092450D01*
X0163508Y0092307D02*
X0166850Y0092307D01*
X0166850Y0090309D02*
X0165493Y0090309D01*
X0165439Y0088310D02*
X0166850Y0088310D01*
X0166850Y0086311D02*
X0163195Y0086311D01*
X0161905Y0086311D02*
X0140150Y0086311D01*
X0140150Y0084313D02*
X0166226Y0084313D01*
X0165950Y0082314D02*
X0140150Y0082314D01*
X0135950Y0082314D02*
X0135150Y0082314D01*
X0135150Y0084313D02*
X0135950Y0084313D01*
X0135950Y0086311D02*
X0135150Y0086311D01*
X0135150Y0088310D02*
X0135950Y0088310D01*
X0135950Y0090309D02*
X0135085Y0090309D01*
X0135950Y0092307D02*
X0133087Y0092307D01*
X0131843Y0094306D02*
X0135950Y0094306D01*
X0135950Y0096304D02*
X0099122Y0096304D01*
X0099122Y0094306D02*
X0099131Y0094306D01*
X0103969Y0094306D02*
X0104757Y0094306D01*
X0108343Y0094306D02*
X0110757Y0094306D01*
X0109917Y0092307D02*
X0109587Y0092307D01*
X0114343Y0094306D02*
X0116757Y0094306D01*
X0115917Y0092307D02*
X0115587Y0092307D01*
X0120343Y0094306D02*
X0122257Y0094306D01*
X0125843Y0094306D02*
X0128257Y0094306D01*
X0127417Y0092307D02*
X0127087Y0092307D01*
X0140150Y0090309D02*
X0159607Y0090309D01*
X0159661Y0088310D02*
X0140150Y0088310D01*
X0146422Y0080316D02*
X0165950Y0080316D01*
X0165950Y0078317D02*
X0146422Y0078317D01*
X0146422Y0076319D02*
X0153404Y0076319D01*
X0145446Y0060331D02*
X0111150Y0060331D01*
X0111150Y0058332D02*
X0145446Y0058332D01*
X0145446Y0056334D02*
X0111150Y0056334D01*
X0111150Y0054335D02*
X0145446Y0054335D01*
X0145446Y0052337D02*
X0111150Y0052337D01*
X0111150Y0050338D02*
X0145446Y0050338D01*
X0145446Y0048340D02*
X0111150Y0048340D01*
X0111150Y0046341D02*
X0145446Y0046341D01*
X0145446Y0044343D02*
X0111150Y0044343D01*
X0111150Y0042344D02*
X0145446Y0042344D01*
X0145446Y0040346D02*
X0111150Y0040346D01*
X0111150Y0038347D02*
X0145446Y0038347D01*
X0145446Y0036349D02*
X0111150Y0036349D01*
X0111150Y0034350D02*
X0145446Y0034350D01*
X0145446Y0032352D02*
X0111150Y0032352D01*
X0111150Y0030353D02*
X0145446Y0030353D01*
X0145446Y0028355D02*
X0111150Y0028355D01*
X0111150Y0026356D02*
X0145446Y0026356D01*
X0145446Y0024358D02*
X0111150Y0024358D01*
X0111150Y0022359D02*
X0145446Y0022359D01*
X0145446Y0020361D02*
X0112126Y0020361D01*
X0111754Y0018362D02*
X0145446Y0018362D01*
X0145446Y0016364D02*
X0144033Y0016364D01*
X0185124Y0048340D02*
X0196337Y0048340D01*
X0196041Y0050338D02*
X0187979Y0050338D01*
X0188650Y0052337D02*
X0196041Y0052337D01*
X0196041Y0054335D02*
X0188424Y0054335D01*
X0187096Y0056334D02*
X0196041Y0056334D01*
X0200162Y0058332D02*
X0201650Y0058332D01*
X0201650Y0056334D02*
X0201130Y0056334D01*
X0201130Y0054335D02*
X0201670Y0054335D01*
X0201670Y0052337D02*
X0201130Y0052337D01*
X0201130Y0050338D02*
X0202650Y0050338D01*
X0202421Y0048340D02*
X0200834Y0048340D01*
X0210481Y0062837D02*
X0206162Y0067156D01*
X0206162Y0067245D01*
X0209882Y0070965D01*
X0210557Y0071641D01*
X0210922Y0072523D01*
X0210922Y0075353D01*
X0211547Y0075353D01*
X0211613Y0075418D01*
X0211781Y0075013D01*
X0212456Y0074338D01*
X0214043Y0072751D01*
X0214925Y0072386D01*
X0215019Y0072386D01*
X0215019Y0069469D01*
X0213842Y0068293D01*
X0211419Y0068293D01*
X0210481Y0067356D01*
X0210481Y0062837D01*
X0210481Y0064328D02*
X0208990Y0064328D01*
X0210481Y0066326D02*
X0206992Y0066326D01*
X0207241Y0068325D02*
X0213874Y0068325D01*
X0215019Y0070323D02*
X0209240Y0070323D01*
X0210839Y0072322D02*
X0215019Y0072322D01*
X0212474Y0074320D02*
X0210922Y0074320D01*
X0211415Y0080915D02*
X0205497Y0080915D01*
X0204950Y0080368D01*
X0202450Y0082868D01*
X0202450Y0083163D01*
X0204560Y0085273D01*
X0204560Y0083770D01*
X0205497Y0082833D01*
X0211415Y0082833D01*
X0211415Y0080915D01*
X0211415Y0082314D02*
X0203004Y0082314D01*
X0203600Y0084313D02*
X0204560Y0084313D01*
X0216215Y0082826D02*
X0216215Y0080915D01*
X0220602Y0080915D01*
X0221540Y0079978D01*
X0221540Y0078758D01*
X0223650Y0080868D01*
X0223650Y0084767D01*
X0223850Y0085250D01*
X0223850Y0096459D01*
X0223750Y0096459D01*
X0223750Y0090463D01*
X0222461Y0089174D01*
X0221142Y0087855D01*
X0221540Y0087458D01*
X0221540Y0083770D01*
X0220602Y0082833D01*
X0216218Y0082833D01*
X0216215Y0082826D01*
X0216215Y0082314D02*
X0223650Y0082314D01*
X0223650Y0084313D02*
X0221540Y0084313D01*
X0221540Y0086311D02*
X0223850Y0086311D01*
X0223850Y0088310D02*
X0221597Y0088310D01*
X0223596Y0090309D02*
X0223850Y0090309D01*
X0223850Y0092307D02*
X0223750Y0092307D01*
X0223750Y0094306D02*
X0223850Y0094306D01*
X0223850Y0096304D02*
X0223750Y0096304D01*
X0228250Y0096304D02*
X0236850Y0096304D01*
X0236850Y0094306D02*
X0228250Y0094306D01*
X0228250Y0092307D02*
X0236850Y0092307D01*
X0236850Y0090309D02*
X0228250Y0090309D01*
X0228250Y0088310D02*
X0236850Y0088310D01*
X0236850Y0086311D02*
X0228250Y0086311D01*
X0228450Y0084313D02*
X0236850Y0084313D01*
X0236850Y0082314D02*
X0228450Y0082314D01*
X0228450Y0080316D02*
X0236850Y0080316D01*
X0236850Y0078317D02*
X0227888Y0078317D01*
X0225889Y0076319D02*
X0236850Y0076319D01*
X0236850Y0074320D02*
X0227654Y0074320D01*
X0228469Y0072322D02*
X0236850Y0072322D01*
X0223098Y0080316D02*
X0221201Y0080316D01*
X0233394Y0098303D02*
X0235706Y0098303D01*
X0235706Y0100301D02*
X0233394Y0100301D01*
X0233394Y0102300D02*
X0235706Y0102300D01*
X0235706Y0104298D02*
X0233394Y0104298D01*
X0182950Y0126282D02*
X0178993Y0126282D01*
X0175300Y0128280D02*
X0182950Y0128280D01*
X0182950Y0130279D02*
X0175300Y0130279D01*
X0175300Y0132277D02*
X0182950Y0132277D01*
X0182950Y0134276D02*
X0175300Y0134276D01*
X0175300Y0136274D02*
X0182950Y0136274D01*
X0182950Y0138273D02*
X0175300Y0138273D01*
X0175300Y0140271D02*
X0182950Y0140271D01*
X0182950Y0142270D02*
X0175300Y0142270D01*
X0175300Y0144268D02*
X0182950Y0144268D01*
X0182950Y0146267D02*
X0175300Y0146267D01*
X0175300Y0148265D02*
X0183281Y0148265D01*
X0175300Y0154261D02*
X0196730Y0154261D01*
X0196730Y0156259D02*
X0175300Y0156259D01*
X0176628Y0158258D02*
X0196730Y0158258D01*
X0190375Y0164253D02*
X0187521Y0164253D01*
X0190375Y0166252D02*
X0184275Y0166252D01*
X0183579Y0164253D02*
X0182363Y0164253D01*
X0182474Y0162255D02*
X0180451Y0162255D01*
X0178540Y0160256D02*
X0182890Y0160256D01*
X0185942Y0168250D02*
X0190375Y0168250D01*
X0190375Y0170249D02*
X0186300Y0170249D01*
X0186300Y0172247D02*
X0190375Y0172247D01*
X0190375Y0174246D02*
X0186300Y0174246D01*
X0186300Y0176245D02*
X0191350Y0176245D01*
X0191350Y0178243D02*
X0186300Y0178243D01*
X0186300Y0180242D02*
X0192306Y0180242D01*
X0228897Y0196230D02*
X0144331Y0196230D01*
X0144338Y0198228D02*
X0230352Y0198228D01*
X0245748Y0198228D02*
X0276546Y0198228D01*
X0278545Y0196230D02*
X0247183Y0196230D01*
X0247243Y0194231D02*
X0247857Y0194231D01*
X0253936Y0194231D02*
X0280543Y0194231D01*
X0282542Y0192233D02*
X0254465Y0192233D01*
X0254465Y0190234D02*
X0284540Y0190234D01*
X0285300Y0188236D02*
X0254465Y0188236D01*
X0253127Y0186237D02*
X0285300Y0186237D01*
X0285300Y0184239D02*
X0253725Y0184239D01*
X0253725Y0182240D02*
X0285300Y0182240D01*
X0289151Y0196230D02*
X0290200Y0196230D01*
X0290200Y0198228D02*
X0287153Y0198228D01*
X0285154Y0200227D02*
X0290200Y0200227D01*
X0290200Y0202225D02*
X0283156Y0202225D01*
X0281618Y0204224D02*
X0290200Y0204224D01*
X0290200Y0206222D02*
X0281618Y0206222D01*
X0281618Y0208221D02*
X0290200Y0208221D01*
X0290200Y0210219D02*
X0282150Y0210219D01*
X0282150Y0212218D02*
X0290200Y0212218D01*
X0290200Y0214216D02*
X0282150Y0214216D01*
X0281725Y0216215D02*
X0290200Y0216215D01*
X0290200Y0218213D02*
X0281618Y0218213D01*
X0274481Y0218213D02*
X0144417Y0218213D01*
X0144409Y0216215D02*
X0269955Y0216215D01*
X0267631Y0214216D02*
X0144401Y0214216D01*
X0144393Y0212218D02*
X0267296Y0212218D01*
X0267631Y0210219D02*
X0144385Y0210219D01*
X0144378Y0208221D02*
X0274481Y0208221D01*
X0274481Y0206222D02*
X0144370Y0206222D01*
X0144362Y0204224D02*
X0274481Y0204224D01*
X0274300Y0202225D02*
X0144354Y0202225D01*
X0144346Y0200227D02*
X0274481Y0200227D01*
X0290200Y0220212D02*
X0144424Y0220212D01*
X0144432Y0222210D02*
X0290200Y0222210D01*
X0290200Y0224209D02*
X0144440Y0224209D01*
X0144448Y0226207D02*
X0274481Y0226207D01*
X0274481Y0225648D02*
X0275419Y0224711D01*
X0280681Y0224711D01*
X0281618Y0225648D01*
X0281618Y0231108D01*
X0280681Y0232045D01*
X0275419Y0232045D01*
X0274481Y0231108D01*
X0274481Y0225648D01*
X0274481Y0228206D02*
X0144456Y0228206D01*
X0144463Y0230204D02*
X0274481Y0230204D01*
X0277603Y0235719D02*
X0280489Y0234524D01*
X0283611Y0234524D01*
X0286497Y0235719D01*
X0288705Y0237927D01*
X0289900Y0240813D01*
X0289900Y0243935D01*
X0288705Y0246821D01*
X0286497Y0249029D01*
X0283611Y0250224D01*
X0280489Y0250224D01*
X0277603Y0249029D01*
X0275395Y0246821D01*
X0274200Y0243935D01*
X0274200Y0240813D01*
X0275395Y0237927D01*
X0277603Y0235719D01*
X0277123Y0236200D02*
X0144487Y0236200D01*
X0144495Y0238198D02*
X0275283Y0238198D01*
X0274455Y0240197D02*
X0144502Y0240197D01*
X0144510Y0242195D02*
X0274200Y0242195D01*
X0274307Y0244194D02*
X0144518Y0244194D01*
X0144526Y0246192D02*
X0275135Y0246192D01*
X0276765Y0248191D02*
X0144534Y0248191D01*
X0144541Y0250189D02*
X0280405Y0250189D01*
X0283695Y0250189D02*
X0284046Y0250189D01*
X0287335Y0248191D02*
X0287739Y0248191D01*
X0288965Y0246192D02*
X0289226Y0246192D01*
X0289793Y0244194D02*
X0289923Y0244194D01*
X0289900Y0242195D02*
X0290200Y0242195D01*
X0290200Y0240197D02*
X0289645Y0240197D01*
X0290200Y0238198D02*
X0288817Y0238198D01*
X0290200Y0236200D02*
X0286977Y0236200D01*
X0290200Y0234201D02*
X0144479Y0234201D01*
X0144471Y0232203D02*
X0290200Y0232203D01*
X0290200Y0230204D02*
X0281618Y0230204D01*
X0281618Y0228206D02*
X0290200Y0228206D01*
X0290200Y0226207D02*
X0281618Y0226207D01*
X0285294Y0138273D02*
X0285300Y0138273D01*
X0167800Y0124283D02*
X0121450Y0124283D01*
X0121450Y0122285D02*
X0167800Y0122285D01*
X0167800Y0120286D02*
X0122795Y0120286D01*
X0123126Y0118288D02*
X0167800Y0118288D01*
X0132050Y0138273D02*
X0121450Y0138273D01*
X0122815Y0140271D02*
X0132050Y0140271D01*
X0132050Y0142270D02*
X0122815Y0142270D01*
X0122815Y0144268D02*
X0132050Y0144268D01*
X0132050Y0146267D02*
X0131603Y0146267D01*
X0131603Y0148265D02*
X0132050Y0148265D01*
X0132050Y0150264D02*
X0131603Y0150264D01*
X0131603Y0152262D02*
X0132050Y0152262D01*
X0132050Y0154261D02*
X0130919Y0154261D01*
X0131013Y0156259D02*
X0132050Y0156259D01*
X0128050Y0155374D02*
X0127050Y0155374D01*
X0127050Y0149114D01*
X0122497Y0152262D02*
X0121905Y0152262D01*
X0118141Y0160256D02*
X0117297Y0160256D01*
X0108917Y0172247D02*
X0104140Y0172247D01*
X0104158Y0174246D02*
X0110395Y0174246D01*
X0099064Y0182240D02*
X0003900Y0182240D01*
X0050143Y0168250D02*
X0072735Y0168250D01*
X0101050Y0142270D02*
X0115285Y0142270D01*
X0115285Y0140271D02*
X0101050Y0140271D01*
X0101050Y0138273D02*
X0116650Y0138273D01*
X0144260Y0178243D02*
X0144568Y0178243D01*
X0132050Y0206222D02*
X0102895Y0206222D01*
X0107279Y0207885D02*
X0107279Y0207885D01*
X0107766Y0208221D02*
X0132050Y0208221D01*
X0132050Y0210219D02*
X0110661Y0210219D01*
X0111646Y0210899D02*
X0111646Y0210899D01*
X0112814Y0212218D02*
X0132050Y0212218D01*
X0132050Y0214216D02*
X0114584Y0214216D01*
X0115164Y0214871D02*
X0115164Y0214871D01*
X0115870Y0216215D02*
X0132050Y0216215D01*
X0132050Y0218213D02*
X0116919Y0218213D01*
X0117630Y0219569D02*
X0117630Y0219569D01*
X0117789Y0220212D02*
X0132050Y0220212D01*
X0132050Y0222210D02*
X0118281Y0222210D01*
X0118774Y0224209D02*
X0132050Y0224209D01*
X0132050Y0226207D02*
X0118900Y0226207D01*
X0118900Y0228206D02*
X0132050Y0228206D01*
X0132050Y0230204D02*
X0118900Y0230204D01*
X0118900Y0232203D02*
X0132050Y0232203D01*
X0132050Y0234201D02*
X0118900Y0234201D01*
X0118900Y0236200D02*
X0132050Y0236200D01*
X0132050Y0238198D02*
X0118900Y0238198D01*
X0118900Y0240197D02*
X0132050Y0240197D01*
X0132050Y0242195D02*
X0118900Y0242195D01*
X0119177Y0244194D02*
X0132050Y0244194D01*
X0132050Y0246192D02*
X0119874Y0246192D01*
X0121361Y0248191D02*
X0132050Y0248191D01*
X0132050Y0250189D02*
X0125054Y0250189D01*
X0097050Y0205364D02*
X0097050Y0205364D01*
X0091783Y0206003D02*
X0091783Y0206003D01*
X0026723Y0120286D02*
X0003900Y0120286D01*
X0007650Y0114291D02*
X0018283Y0114291D01*
X0021817Y0114291D02*
X0022283Y0114291D01*
X0025817Y0114291D02*
X0025978Y0114291D01*
X0007650Y0112292D02*
X0046050Y0112292D01*
X0046050Y0110294D02*
X0007650Y0110294D01*
X0007650Y0108295D02*
X0046050Y0108295D01*
X0057050Y0106297D02*
X0007650Y0106297D01*
X0007650Y0096304D02*
X0035129Y0096304D01*
X0032631Y0094306D02*
X0020602Y0094306D01*
X0021159Y0092307D02*
X0031474Y0092307D01*
X0031869Y0090309D02*
X0021953Y0090309D01*
X0014050Y0084374D02*
X0009050Y0087374D01*
X0014050Y0084374D02*
X0014418Y0080299D01*
X0003900Y0070323D02*
X0029135Y0070323D01*
X0029135Y0068325D02*
X0003900Y0068325D01*
X0018224Y0054160D02*
X0022665Y0054160D01*
X0023603Y0055097D01*
X0023603Y0059851D01*
X0024180Y0059274D01*
X0031950Y0059274D01*
X0031950Y0054504D01*
X0032296Y0054158D01*
X0033527Y0052928D01*
X0035285Y0052928D01*
X0035285Y0052396D01*
X0036222Y0051459D01*
X0039958Y0051459D01*
X0036494Y0047995D01*
X0031566Y0047995D01*
X0031515Y0047974D01*
X0025533Y0047974D01*
X0024577Y0047578D01*
X0024473Y0047474D01*
X0023693Y0047474D01*
X0023196Y0047971D01*
X0023196Y0048585D01*
X0022770Y0049614D01*
X0018224Y0054160D01*
X0020047Y0052337D02*
X0035344Y0052337D01*
X0032119Y0054335D02*
X0022841Y0054335D01*
X0023603Y0056334D02*
X0031950Y0056334D01*
X0031950Y0058332D02*
X0023603Y0058332D01*
X0022046Y0050338D02*
X0038837Y0050338D01*
X0036839Y0048340D02*
X0023196Y0048340D01*
X0026737Y0042344D02*
X0031560Y0042344D01*
X0031560Y0040346D02*
X0025102Y0040346D01*
X0025932Y0038347D02*
X0046050Y0038347D01*
X0051768Y0034350D02*
X0066783Y0034350D01*
X0066474Y0036349D02*
X0063247Y0036349D01*
X0066091Y0041574D02*
X0066091Y0046871D01*
X0065154Y0047809D01*
X0061466Y0047809D01*
X0060529Y0046871D01*
X0060529Y0041966D01*
X0058078Y0041966D01*
X0058571Y0042459D01*
X0058571Y0047722D01*
X0057919Y0048374D01*
X0062050Y0048374D01*
X0062050Y0048939D01*
X0065154Y0048939D01*
X0066091Y0049877D01*
X0066091Y0055927D01*
X0065410Y0056608D01*
X0065410Y0057618D01*
X0065757Y0057270D01*
X0068184Y0057270D01*
X0068417Y0057038D01*
X0068417Y0056850D01*
X0068568Y0056485D01*
X0068009Y0055927D01*
X0068009Y0049877D01*
X0068946Y0048939D01*
X0072607Y0048939D01*
X0072942Y0048131D01*
X0073513Y0047561D01*
X0073317Y0047366D01*
X0073247Y0047196D01*
X0072634Y0047809D01*
X0068946Y0047809D01*
X0068009Y0046871D01*
X0068009Y0041574D01*
X0066091Y0041574D01*
X0066091Y0042344D02*
X0068009Y0042344D01*
X0068009Y0044343D02*
X0066091Y0044343D01*
X0066091Y0046341D02*
X0068009Y0046341D01*
X0068009Y0050338D02*
X0066091Y0050338D01*
X0066091Y0052337D02*
X0068009Y0052337D01*
X0068009Y0054335D02*
X0066091Y0054335D01*
X0065684Y0056334D02*
X0068416Y0056334D01*
X0072856Y0048340D02*
X0057953Y0048340D01*
X0058571Y0046341D02*
X0060529Y0046341D01*
X0060529Y0044343D02*
X0058571Y0044343D01*
X0058456Y0042344D02*
X0060529Y0042344D01*
X0069550Y0036374D02*
X0069550Y0030720D01*
X0061550Y0029933D01*
X0056997Y0030353D02*
X0051050Y0030353D01*
X0051050Y0028355D02*
X0056997Y0028355D01*
X0057352Y0026356D02*
X0051050Y0026356D01*
X0051050Y0024358D02*
X0072850Y0024358D01*
X0072850Y0026356D02*
X0065748Y0026356D01*
X0072850Y0022359D02*
X0051050Y0022359D01*
X0051197Y0020361D02*
X0071467Y0020361D01*
X0066051Y0018362D02*
X0051050Y0018362D01*
X0051050Y0016364D02*
X0062615Y0016364D01*
X0061417Y0014365D02*
X0051050Y0014365D01*
X0051050Y0012367D02*
X0062067Y0012367D01*
X0064917Y0010368D02*
X0051050Y0010368D01*
X0051050Y0008370D02*
X0065830Y0008370D01*
X0070015Y0008370D02*
X0087764Y0008370D01*
X0076548Y0010368D02*
X0072014Y0010368D01*
X0074012Y0012367D02*
X0076548Y0012367D01*
X0076548Y0014365D02*
X0076011Y0014365D01*
X0085654Y0020361D02*
X0088236Y0020361D01*
X0056997Y0032352D02*
X0052126Y0032352D01*
X0037571Y0045395D02*
X0045550Y0053374D01*
X0050050Y0053374D01*
X0050050Y0059213D01*
X0044316Y0058332D02*
X0042142Y0058332D01*
X0042815Y0056334D02*
X0044316Y0056334D01*
X0042834Y0054335D02*
X0042815Y0054335D01*
X0042815Y0060331D02*
X0044316Y0060331D01*
X0044069Y0062329D02*
X0042815Y0062329D01*
X0042815Y0064328D02*
X0042850Y0064328D01*
X0043188Y0066326D02*
X0037414Y0066326D01*
X0036272Y0068325D02*
X0056552Y0068325D01*
X0056552Y0066326D02*
X0052912Y0066326D01*
X0053250Y0064328D02*
X0056731Y0064328D01*
X0056552Y0062329D02*
X0055784Y0062329D01*
X0055784Y0060331D02*
X0056552Y0060331D01*
X0057107Y0070323D02*
X0036272Y0070323D01*
X0036815Y0076319D02*
X0044316Y0076319D01*
X0044316Y0078317D02*
X0036815Y0078317D01*
X0036815Y0080316D02*
X0044678Y0080316D01*
X0042574Y0082314D02*
X0036815Y0082314D01*
X0036815Y0084313D02*
X0040526Y0084313D01*
X0040475Y0086311D02*
X0036815Y0086311D01*
X0037863Y0088310D02*
X0032572Y0088310D01*
X0037444Y0090309D02*
X0037863Y0090309D01*
X0044316Y0074320D02*
X0029350Y0074320D01*
X0028079Y0072322D02*
X0045111Y0072322D01*
X0011125Y0094452D02*
X0011125Y0094452D01*
X0010978Y0094306D02*
X0007650Y0094306D01*
X0003900Y0042344D02*
X0016828Y0042344D01*
X0019038Y0040346D02*
X0003900Y0040346D01*
X0003900Y0038347D02*
X0019868Y0038347D01*
X0020698Y0036349D02*
X0003900Y0036349D01*
X0003900Y0034350D02*
X0021528Y0034350D01*
X0021812Y0032352D02*
X0003900Y0032352D01*
X0003900Y0030353D02*
X0021989Y0030353D01*
X0025618Y0028355D02*
X0003900Y0028355D01*
X0003900Y0026356D02*
X0027795Y0026356D01*
X0029972Y0024358D02*
X0003900Y0024358D01*
X0003900Y0022359D02*
X0029509Y0022359D01*
X0028903Y0020361D02*
X0003900Y0020361D01*
X0003900Y0018362D02*
X0006937Y0018362D01*
X0005206Y0016364D02*
X0003900Y0016364D01*
X0003900Y0014365D02*
X0004378Y0014365D01*
X0004200Y0012367D02*
X0003901Y0012367D01*
X0004238Y0010368D02*
X0004384Y0010368D01*
X0005009Y0008370D02*
X0005212Y0008370D01*
X0017163Y0018362D02*
X0029827Y0018362D01*
X0029545Y0032352D02*
X0031560Y0032352D01*
X0031560Y0034350D02*
X0028817Y0034350D01*
X0026762Y0036349D02*
X0031931Y0036349D01*
X0112219Y0062329D02*
X0136483Y0062329D01*
X0134485Y0064328D02*
X0114218Y0064328D01*
X0116216Y0066326D02*
X0131873Y0066326D01*
X0130917Y0068325D02*
X0118215Y0068325D01*
X0187073Y0026356D02*
X0196041Y0026356D01*
X0238205Y0010368D02*
X0244611Y0010368D01*
X0244616Y0008370D02*
X0238256Y0008370D01*
D68*
X0136550Y0050874D03*
X0122550Y0063374D03*
X0100896Y0068886D03*
X0063369Y0077217D03*
X0038550Y0074374D03*
X0028050Y0050874D03*
X0024050Y0050874D03*
X0029050Y0040374D03*
X0026050Y0024874D03*
X0005050Y0069374D03*
X0063050Y0103374D03*
X0076050Y0139374D03*
X0064050Y0145374D03*
X0035050Y0138374D03*
X0045050Y0173374D03*
X0110050Y0136374D03*
X0115050Y0122374D03*
X0123550Y0122374D03*
X0131050Y0136374D03*
X0156050Y0138374D03*
X0160050Y0138374D03*
X0164050Y0138374D03*
X0162050Y0157874D03*
X0157550Y0157874D03*
X0153050Y0157874D03*
D69*
X0114050Y0169374D03*
X0101550Y0182374D03*
X0090562Y0096339D03*
X0073239Y0067598D03*
X0056977Y0056503D03*
X0067259Y0048512D03*
X0051192Y0043583D03*
X0219550Y0176874D03*
X0231550Y0078874D03*
X0234050Y0078874D03*
X0242550Y0059874D03*
X0245050Y0059874D03*
D70*
X0243050Y0075327D02*
X0243050Y0083028D01*
X0243050Y0089720D02*
X0243704Y0090374D01*
X0259507Y0090374D01*
X0281597Y0115382D02*
X0286042Y0115382D01*
X0286050Y0115374D01*
X0187503Y0111051D02*
X0182227Y0111051D01*
X0182050Y0110874D01*
X0079050Y0105862D02*
X0075050Y0103374D01*
X0063050Y0103374D01*
X0052050Y0103374D01*
X0042219Y0090374D02*
X0038219Y0094374D01*
X0037550Y0094374D01*
X0035050Y0091874D01*
X0034550Y0091874D01*
X0015050Y0062374D02*
X0010030Y0062374D01*
X0009719Y0062063D01*
X0015050Y0062374D02*
X0015050Y0053374D01*
X0020396Y0048028D01*
X0020396Y0044874D01*
X0020396Y0044374D01*
X0025381Y0032374D01*
X0033550Y0024874D01*
X0061050Y0122886D02*
X0061050Y0127728D01*
X0062196Y0128874D01*
X0067904Y0128874D02*
X0069050Y0127728D01*
X0069050Y0122886D01*
X0068987Y0122949D01*
X0073263Y0124374D02*
X0073263Y0126168D01*
X0073756Y0126660D01*
X0073756Y0132669D01*
X0072050Y0134374D01*
X0047050Y0134374D01*
X0061050Y0122886D02*
X0061113Y0122949D01*
D71*
X0063790Y0139374D02*
X0076050Y0139374D01*
X0052575Y0157655D02*
X0052575Y0157815D01*
X0052575Y0157655D02*
X0048050Y0153130D01*
X0048050Y0146831D02*
X0047822Y0146602D01*
X0016146Y0090175D02*
X0021694Y0084628D01*
X0016146Y0090175D02*
X0015790Y0090175D01*
X0014418Y0080299D02*
X0018050Y0076374D01*
X0035522Y0034134D02*
X0037491Y0034134D01*
X0037491Y0021504D01*
X0040050Y0021504D02*
X0040050Y0034134D01*
X0044578Y0034134D01*
X0034932Y0024874D02*
X0033550Y0024874D01*
X0034932Y0024874D02*
X0034932Y0021504D01*
X0119050Y0119874D02*
X0119050Y0142028D01*
X0140050Y0139705D02*
X0141050Y0140705D01*
X0141050Y0150634D01*
X0141050Y0158114D02*
X0141050Y0164374D01*
X0119050Y0119874D02*
X0119052Y0119814D01*
X0119057Y0119753D01*
X0119066Y0119694D01*
X0119079Y0119635D01*
X0119095Y0119576D01*
X0119115Y0119519D01*
X0119138Y0119464D01*
X0119165Y0119409D01*
X0119194Y0119357D01*
X0119227Y0119306D01*
X0119263Y0119257D01*
X0119301Y0119211D01*
X0119343Y0119167D01*
X0119387Y0119125D01*
X0119433Y0119087D01*
X0119482Y0119051D01*
X0119533Y0119018D01*
X0119585Y0118989D01*
X0119640Y0118962D01*
X0119695Y0118939D01*
X0119752Y0118919D01*
X0119811Y0118903D01*
X0119870Y0118890D01*
X0119929Y0118881D01*
X0119990Y0118876D01*
X0120050Y0118874D01*
X0196396Y0060874D02*
X0203050Y0060874D01*
X0204050Y0059874D01*
X0204050Y0055980D01*
X0204550Y0055480D01*
X0205050Y0054980D01*
X0205050Y0048874D01*
X0209550Y0055480D02*
X0209050Y0055980D01*
X0209050Y0060874D01*
X0203050Y0066874D01*
X0202396Y0066874D01*
X0208522Y0073000D01*
X0208522Y0078134D01*
X0208263Y0077874D01*
X0204050Y0077874D01*
X0200050Y0081874D01*
X0200050Y0083874D01*
X0208522Y0085614D02*
X0213727Y0090819D01*
X0213727Y0090874D01*
X0214050Y0085874D02*
X0217318Y0085874D01*
X0217578Y0085614D01*
X0218058Y0086094D01*
X0214050Y0085874D02*
X0214050Y0083870D01*
X0213815Y0083635D01*
X0213815Y0076373D01*
X0215402Y0074786D01*
X0216598Y0074786D01*
X0217419Y0073966D01*
X0217419Y0068475D01*
X0214050Y0065107D01*
X0214050Y0064528D01*
X0214550Y0064028D01*
X0214550Y0055480D01*
X0224550Y0055480D02*
X0224550Y0063720D01*
X0224704Y0063874D01*
X0224704Y0070874D01*
X0224704Y0071008D01*
X0220944Y0074768D01*
X0226050Y0079874D01*
X0226050Y0084290D01*
X0217578Y0078134D02*
X0220944Y0074768D01*
X0269310Y0057043D02*
X0269704Y0056650D01*
X0273050Y0065705D02*
X0277381Y0065705D01*
X0278050Y0066374D01*
X0264865Y0155736D02*
X0264865Y0177559D01*
X0264550Y0177874D01*
X0256680Y0177874D01*
X0256445Y0178109D01*
X0252135Y0178109D01*
X0251901Y0177874D01*
X0247550Y0177874D01*
X0246810Y0174937D01*
X0246617Y0174937D01*
X0243445Y0178109D01*
X0239135Y0178109D01*
X0235964Y0174937D01*
X0233810Y0174937D01*
X0234204Y0167874D01*
X0240896Y0167874D02*
X0241290Y0174937D01*
X0246810Y0174937D02*
X0246849Y0174935D01*
X0246887Y0174929D01*
X0246924Y0174920D01*
X0246961Y0174907D01*
X0246996Y0174890D01*
X0247029Y0174871D01*
X0247060Y0174848D01*
X0247089Y0174822D01*
X0247115Y0174793D01*
X0247138Y0174762D01*
X0247157Y0174729D01*
X0247174Y0174694D01*
X0247187Y0174657D01*
X0247196Y0174620D01*
X0247202Y0174582D01*
X0247204Y0174543D01*
X0247204Y0167874D01*
X0253896Y0167874D02*
X0254290Y0174937D01*
X0244204Y0190874D02*
X0244204Y0195528D01*
X0243857Y0195874D01*
X0231550Y0195874D01*
X0231204Y0195528D01*
X0231204Y0190874D01*
X0244204Y0195528D02*
X0244550Y0195874D01*
X0264550Y0156051D02*
X0264865Y0155736D01*
X0169896Y0048374D02*
X0169896Y0042374D01*
X0169896Y0034374D01*
X0169896Y0025874D01*
X0169896Y0048374D02*
X0169550Y0048374D01*
D72*
X0169550Y0048374D03*
X0143550Y0066874D03*
X0140550Y0070874D03*
X0162550Y0089374D03*
X0138050Y0110374D03*
X0120050Y0118874D03*
X0131550Y0131374D03*
X0128050Y0155374D03*
X0141050Y0164374D03*
X0147050Y0176374D03*
X0185550Y0161874D03*
X0177050Y0123874D03*
X0178050Y0118874D03*
X0101550Y0092374D03*
X0081050Y0124374D03*
X0077050Y0124374D03*
X0073050Y0124374D03*
X0052050Y0123374D03*
X0048550Y0123374D03*
X0052550Y0131098D03*
X0047050Y0134374D03*
X0024050Y0116874D03*
X0020050Y0116874D03*
X0037550Y0094374D03*
X0034550Y0091874D03*
X0043550Y0085374D03*
X0048550Y0081874D03*
X0052050Y0081874D03*
X0052550Y0098874D03*
X0049050Y0098874D03*
X0046050Y0064874D03*
X0075550Y0049874D03*
X0069550Y0036374D03*
X0049050Y0032874D03*
X0034050Y0029874D03*
X0088550Y0011374D03*
X0104050Y0019874D03*
X0109050Y0019874D03*
X0135050Y0012874D03*
X0139050Y0012874D03*
X0143050Y0012874D03*
X0271550Y0042374D03*
X0282050Y0046374D03*
X0282050Y0050374D03*
X0282050Y0054374D03*
X0282050Y0058374D03*
X0078050Y0148374D03*
X0057050Y0160374D03*
X0030050Y0166374D03*
X0008050Y0164374D03*
X0008050Y0160374D03*
X0008050Y0168374D03*
X0017050Y0212374D03*
X0022050Y0236374D03*
X0043050Y0212374D03*
X0070050Y0224374D03*
X0070050Y0228374D03*
D73*
X0008050Y0168374D02*
X0008050Y0164374D01*
X0008050Y0160374D01*
X0013310Y0160374D01*
X0014050Y0161114D01*
X0015310Y0161374D02*
X0021294Y0161374D01*
X0027593Y0161374D02*
X0027593Y0156343D01*
X0027822Y0156114D01*
X0078050Y0148374D02*
X0086310Y0148374D01*
X0087050Y0149114D01*
X0095050Y0148720D01*
X0050881Y0086634D02*
X0049921Y0085674D01*
X0046976Y0085674D01*
X0046676Y0085374D01*
X0043550Y0085374D01*
X0048550Y0081874D02*
X0050050Y0081874D01*
X0050050Y0076535D01*
X0048550Y0081874D02*
X0052050Y0081874D01*
X0050050Y0064874D02*
X0046050Y0064874D01*
X0050050Y0064874D02*
X0050050Y0059213D01*
X0143050Y0012874D02*
X0143052Y0012855D01*
X0143057Y0012836D01*
X0143065Y0012819D01*
X0143076Y0012803D01*
X0143089Y0012790D01*
X0143105Y0012779D01*
X0143122Y0012771D01*
X0143141Y0012766D01*
X0143160Y0012764D01*
X0149999Y0012764D01*
X0259050Y0087374D02*
X0259050Y0089917D01*
X0259507Y0090374D01*
X0265806Y0090374D02*
X0270806Y0095374D01*
X0273550Y0095374D01*
X0273550Y0100988D01*
X0273526Y0101012D01*
X0269196Y0101012D01*
X0273526Y0101012D02*
X0277857Y0101012D01*
X0282050Y0058374D02*
X0282050Y0054374D01*
X0282050Y0050374D01*
X0282050Y0046374D01*
X0278050Y0208720D02*
X0278050Y0210374D01*
X0278050Y0214374D02*
X0278050Y0216370D01*
D74*
X0056310Y0139374D02*
X0047050Y0139374D01*
X0047822Y0140146D01*
X0047822Y0146602D01*
X0047050Y0139374D02*
X0047050Y0134374D01*
X0048550Y0123374D02*
X0051050Y0123374D01*
X0051050Y0116886D01*
X0052050Y0123374D02*
X0048550Y0123374D01*
X0049050Y0098874D02*
X0051050Y0098874D01*
X0050881Y0098874D01*
X0050881Y0094114D01*
X0051050Y0098874D02*
X0052550Y0098874D01*
X0036050Y0156114D02*
X0027822Y0156114D01*
X0015310Y0161374D02*
X0014050Y0161114D01*
X0159538Y0015874D02*
X0159538Y0012764D01*
X0149999Y0012764D01*
X0143050Y0012874D02*
X0139050Y0012874D01*
X0135050Y0012874D01*
X0159538Y0012764D02*
X0159538Y0007374D01*
X0161204Y0007374D01*
D75*
X0257050Y0065280D02*
X0258396Y0066008D01*
X0258396Y0076374D01*
X0258396Y0083374D01*
X0259050Y0084028D01*
X0259050Y0086374D01*
X0262050Y0083374D01*
X0262050Y0079720D01*
X0264377Y0082047D01*
X0265704Y0080720D01*
X0265704Y0076374D01*
X0262050Y0076374D02*
X0262050Y0079720D01*
X0264377Y0082047D02*
X0265704Y0083374D01*
X0259050Y0086374D02*
X0259050Y0087374D01*
X0258093Y0065705D02*
X0257050Y0065280D01*
X0258093Y0065705D02*
X0265550Y0065705D01*
X0273050Y0065705D01*
X0276790Y0057043D02*
X0280719Y0057043D01*
X0282050Y0058374D01*
X0278050Y0055783D02*
X0278050Y0051374D01*
X0280050Y0049374D01*
X0280050Y0048374D01*
X0282050Y0050374D01*
X0280050Y0048374D02*
X0276396Y0048374D01*
X0278050Y0055783D02*
X0276790Y0057043D01*
X0278050Y0210374D02*
X0278050Y0212374D01*
X0271396Y0212374D01*
X0278050Y0212374D02*
X0278050Y0214374D01*
D76*
X0091550Y0126374D02*
X0091550Y0113374D01*
X0072050Y0113374D01*
X0071117Y0114307D01*
X0071117Y0120974D01*
X0071050Y0121041D01*
X0071050Y0121089D01*
X0071313Y0121353D01*
X0071313Y0122319D01*
X0071321Y0122327D01*
X0071321Y0123445D01*
X0071313Y0123453D01*
X0071313Y0124419D01*
X0071100Y0124632D01*
X0071100Y0126374D01*
X0091550Y0126374D01*
X0091550Y0126005D02*
X0071100Y0126005D01*
X0071100Y0125506D02*
X0091550Y0125506D01*
X0091550Y0125008D02*
X0071100Y0125008D01*
X0071223Y0124509D02*
X0091550Y0124509D01*
X0091550Y0124011D02*
X0071313Y0124011D01*
X0071313Y0123512D02*
X0091550Y0123512D01*
X0091550Y0123014D02*
X0071321Y0123014D01*
X0071321Y0122515D02*
X0091550Y0122515D01*
X0091550Y0122017D02*
X0071313Y0122017D01*
X0071313Y0121518D02*
X0091550Y0121518D01*
X0091550Y0121020D02*
X0071071Y0121020D01*
X0071117Y0120521D02*
X0091550Y0120521D01*
X0091550Y0120023D02*
X0071117Y0120023D01*
X0071117Y0119524D02*
X0091550Y0119524D01*
X0091550Y0119026D02*
X0071117Y0119026D01*
X0071117Y0118527D02*
X0091550Y0118527D01*
X0091550Y0118029D02*
X0071117Y0118029D01*
X0071117Y0117530D02*
X0091550Y0117530D01*
X0091550Y0117032D02*
X0071117Y0117032D01*
X0071117Y0116533D02*
X0091550Y0116533D01*
X0091550Y0116035D02*
X0071117Y0116035D01*
X0071117Y0115536D02*
X0091550Y0115536D01*
X0091550Y0115038D02*
X0071117Y0115038D01*
X0071117Y0114539D02*
X0091550Y0114539D01*
X0091550Y0114041D02*
X0071383Y0114041D01*
X0071882Y0113542D02*
X0091550Y0113542D01*
X0066050Y0112374D02*
X0066050Y0108374D01*
X0060050Y0108374D01*
X0059050Y0109374D01*
X0058050Y0109374D01*
X0057050Y0110374D01*
X0056050Y0110374D01*
X0055050Y0111374D01*
X0048050Y0111374D01*
X0048050Y0120374D01*
X0058050Y0120374D01*
X0058050Y0112374D01*
X0058787Y0112374D01*
X0058787Y0110329D01*
X0059285Y0109831D01*
X0060973Y0109831D01*
X0061471Y0110329D01*
X0061471Y0112374D01*
X0066050Y0112374D01*
X0066050Y0112047D02*
X0061471Y0112047D01*
X0061471Y0111548D02*
X0066050Y0111548D01*
X0066050Y0111049D02*
X0061471Y0111049D01*
X0061471Y0110551D02*
X0066050Y0110551D01*
X0066050Y0110052D02*
X0061194Y0110052D01*
X0059867Y0108557D02*
X0066050Y0108557D01*
X0066050Y0109055D02*
X0059369Y0109055D01*
X0059063Y0110052D02*
X0057372Y0110052D01*
X0057870Y0109554D02*
X0066050Y0109554D01*
X0058787Y0110551D02*
X0055873Y0110551D01*
X0055375Y0111049D02*
X0058787Y0111049D01*
X0058787Y0111548D02*
X0048050Y0111548D01*
X0048050Y0112047D02*
X0058787Y0112047D01*
X0058050Y0112545D02*
X0048050Y0112545D01*
X0048050Y0113044D02*
X0058050Y0113044D01*
X0058050Y0113542D02*
X0048050Y0113542D01*
X0048050Y0114041D02*
X0058050Y0114041D01*
X0058050Y0114539D02*
X0048050Y0114539D01*
X0048050Y0115038D02*
X0058050Y0115038D01*
X0058050Y0115536D02*
X0048050Y0115536D01*
X0048050Y0116035D02*
X0058050Y0116035D01*
X0058050Y0116533D02*
X0048050Y0116533D01*
X0048050Y0117032D02*
X0058050Y0117032D01*
X0058050Y0117530D02*
X0048050Y0117530D01*
X0048050Y0118029D02*
X0058050Y0118029D01*
X0058050Y0118527D02*
X0048050Y0118527D01*
X0048050Y0119026D02*
X0058050Y0119026D01*
X0058050Y0119524D02*
X0048050Y0119524D01*
X0048050Y0120023D02*
X0058050Y0120023D01*
D77*
X0171550Y0115374D02*
X0182050Y0110874D01*
X0182550Y0110874D01*
X0171550Y0115374D02*
X0171550Y0158374D01*
X0182550Y0169874D01*
X0182550Y0186953D01*
X0278050Y0202028D02*
X0289050Y0191028D01*
X0289050Y0115374D01*
X0286050Y0115374D01*
D78*
X0243550Y0184874D03*
X0227550Y0184874D03*
X0117050Y0169344D03*
X0095550Y0169874D03*
X0087550Y0168768D03*
X0086550Y0173374D03*
X0083550Y0175874D03*
X0087050Y0157374D03*
X0076550Y0157374D03*
X0009050Y0214374D03*
X0014050Y0221374D03*
X0023050Y0224374D03*
M02*
