G75*
%MOIN*%
%OFA0B0*%
%FSLAX25Y25*%
%IPPOS*%
%LPD*%
%AMOC8*
5,1,8,0,0,1.08239X$1,22.5*
%
%ADD10C,0.06000*%
%ADD11C,0.02067*%
%ADD12C,0.01476*%
%ADD13C,0.01181*%
%ADD14C,0.03248*%
%ADD15C,0.01772*%
%ADD16C,0.02953*%
%ADD17C,0.01200*%
%ADD18C,0.02000*%
%ADD19C,0.01000*%
%ADD20C,0.03200*%
D10*
X0181050Y0012874D03*
X0181050Y0022874D03*
X0181050Y0032874D03*
X0181050Y0042874D03*
X0181050Y0052874D03*
X0181050Y0062874D03*
D11*
X0180550Y0074874D03*
X0177050Y0074874D03*
X0173550Y0074874D03*
X0170050Y0074874D03*
X0166050Y0074874D03*
X0162550Y0074874D03*
X0159050Y0074874D03*
X0155550Y0074741D03*
X0133550Y0068374D03*
X0130050Y0092374D03*
X0124050Y0092374D03*
X0118550Y0092374D03*
X0112550Y0092374D03*
X0106550Y0092374D03*
X0097050Y0084874D03*
X0088550Y0084874D03*
X0073310Y0062610D03*
X0071050Y0057374D03*
X0075550Y0045874D03*
X0073550Y0039374D03*
X0089050Y0022874D03*
X0092050Y0025374D03*
X0068050Y0014374D03*
X0067550Y0010374D03*
X0064050Y0014107D03*
X0047550Y0046374D03*
X0047550Y0049874D03*
X0095550Y0155874D03*
X0105050Y0169374D03*
X0108550Y0169374D03*
X0111550Y0171874D03*
X0098050Y0176374D03*
X0090050Y0172374D03*
X0081050Y0172374D03*
X0204050Y0081874D03*
X0213727Y0090874D03*
X0222050Y0081874D03*
X0209050Y0067874D03*
X0205050Y0048874D03*
X0200050Y0039874D03*
X0247050Y0009374D03*
X0260050Y0015374D03*
X0278050Y0066374D03*
X0254235Y0108689D03*
X0250298Y0108689D03*
X0250298Y0112626D03*
X0246361Y0112626D03*
X0242424Y0112626D03*
X0242424Y0116563D03*
X0246361Y0116563D03*
X0250298Y0116563D03*
X0250298Y0120500D03*
X0246361Y0120500D03*
X0242424Y0120500D03*
X0242424Y0124437D03*
X0246361Y0124437D03*
X0250298Y0124437D03*
X0250298Y0128374D03*
X0246361Y0128374D03*
X0242424Y0128374D03*
X0242424Y0132311D03*
X0246361Y0132311D03*
X0250298Y0132311D03*
X0250298Y0136248D03*
X0246361Y0136248D03*
X0242424Y0136248D03*
X0238487Y0136248D03*
X0234550Y0136248D03*
X0230613Y0136248D03*
X0230613Y0132311D03*
X0230613Y0128374D03*
X0234550Y0128374D03*
X0238487Y0128374D03*
X0238487Y0132311D03*
X0234550Y0132311D03*
X0234550Y0124437D03*
X0234550Y0120500D03*
X0230613Y0120500D03*
X0230613Y0124437D03*
X0226676Y0124437D03*
X0226676Y0120500D03*
X0222739Y0120500D03*
X0222739Y0124437D03*
X0218802Y0124437D03*
X0218802Y0120500D03*
X0218802Y0116563D03*
X0222739Y0116563D03*
X0226676Y0116563D03*
X0226676Y0112626D03*
X0222739Y0112626D03*
X0218802Y0112626D03*
X0218802Y0108689D03*
X0214865Y0108689D03*
X0214865Y0112626D03*
X0214865Y0116563D03*
X0210928Y0116563D03*
X0210928Y0112626D03*
X0206991Y0112626D03*
X0206991Y0116563D03*
X0206991Y0120500D03*
X0210928Y0120500D03*
X0214865Y0120500D03*
X0214865Y0124437D03*
X0210928Y0124437D03*
X0206991Y0124437D03*
X0206991Y0128374D03*
X0210928Y0128374D03*
X0214865Y0128374D03*
X0214865Y0132311D03*
X0210928Y0132311D03*
X0206991Y0132311D03*
X0206991Y0136248D03*
X0210928Y0136248D03*
X0214865Y0136248D03*
X0218802Y0136248D03*
X0222739Y0136248D03*
X0226676Y0136248D03*
X0226676Y0132311D03*
X0226676Y0128374D03*
X0222739Y0128374D03*
X0222739Y0132311D03*
X0218802Y0132311D03*
X0218802Y0128374D03*
X0218802Y0140185D03*
X0222739Y0140185D03*
X0226676Y0140185D03*
X0226676Y0144122D03*
X0222739Y0144122D03*
X0218802Y0144122D03*
X0214865Y0144122D03*
X0214865Y0140185D03*
X0210928Y0140185D03*
X0210928Y0144122D03*
X0206991Y0144122D03*
X0206991Y0140185D03*
X0214865Y0148059D03*
X0218802Y0148059D03*
X0226676Y0148059D03*
X0230613Y0148059D03*
X0234550Y0148059D03*
X0238487Y0148059D03*
X0238487Y0144122D03*
X0238487Y0140185D03*
X0234550Y0140185D03*
X0230613Y0140185D03*
X0230613Y0144122D03*
X0234550Y0144122D03*
X0242424Y0144122D03*
X0242424Y0140185D03*
X0246361Y0140185D03*
X0250298Y0140185D03*
X0250298Y0144122D03*
X0246361Y0144122D03*
X0242424Y0148059D03*
X0250298Y0148059D03*
X0254235Y0148059D03*
X0254235Y0144122D03*
X0254235Y0140185D03*
X0258172Y0140185D03*
X0258172Y0144122D03*
X0262109Y0144122D03*
X0262109Y0140185D03*
X0262109Y0136248D03*
X0258172Y0136248D03*
X0254235Y0136248D03*
X0254235Y0132311D03*
X0254235Y0128374D03*
X0258172Y0128374D03*
X0258172Y0132311D03*
X0262109Y0132311D03*
X0262109Y0128374D03*
X0262109Y0124437D03*
X0258172Y0124437D03*
X0254235Y0124437D03*
X0254235Y0120500D03*
X0258172Y0120500D03*
X0262109Y0120500D03*
X0262109Y0116563D03*
X0258172Y0116563D03*
X0254235Y0116563D03*
X0254235Y0112626D03*
X0258172Y0112626D03*
X0262109Y0112626D03*
X0242424Y0108689D03*
X0238487Y0108689D03*
X0234550Y0108689D03*
X0230613Y0108689D03*
X0230613Y0112626D03*
X0230613Y0116563D03*
X0234550Y0116563D03*
X0238487Y0116563D03*
X0238487Y0112626D03*
X0234550Y0112626D03*
X0238487Y0120500D03*
X0238487Y0124437D03*
X0226676Y0108689D03*
X0217550Y0167874D03*
X0227550Y0184874D03*
X0231550Y0195874D03*
X0243550Y0184874D03*
X0244550Y0195874D03*
X0264550Y0177874D03*
D12*
X0068987Y0119343D03*
X0065050Y0119343D03*
X0065050Y0115406D03*
X0068987Y0115406D03*
X0061113Y0115406D03*
X0061113Y0119343D03*
D13*
X0025790Y0069374D03*
X0022050Y0069374D03*
X0018310Y0069374D03*
X0115944Y0040913D03*
X0118700Y0043669D03*
X0121456Y0040913D03*
X0124211Y0043669D03*
X0126967Y0040913D03*
X0124211Y0038157D03*
X0121456Y0035402D03*
X0124211Y0032646D03*
X0126967Y0035402D03*
X0118700Y0038157D03*
X0115944Y0035402D03*
X0118700Y0032646D03*
D14*
X0136550Y0050874D03*
X0122550Y0063374D03*
X0100896Y0068886D03*
X0063369Y0077217D03*
X0038550Y0074374D03*
X0028050Y0050874D03*
X0024050Y0050874D03*
X0029050Y0040374D03*
X0026050Y0024874D03*
X0005050Y0069374D03*
X0063050Y0103374D03*
X0076050Y0139374D03*
X0064050Y0145374D03*
X0035050Y0138374D03*
X0045050Y0173374D03*
X0110050Y0136374D03*
X0115050Y0122374D03*
X0123550Y0122374D03*
X0131050Y0136374D03*
X0156050Y0138374D03*
X0160050Y0138374D03*
X0164050Y0138374D03*
X0162050Y0157874D03*
X0157550Y0157874D03*
X0153050Y0157874D03*
D15*
X0117050Y0169344D03*
X0114050Y0169374D03*
X0101550Y0182374D03*
X0095550Y0169874D03*
X0087550Y0168768D03*
X0086550Y0173374D03*
X0083550Y0175874D03*
X0087050Y0157374D03*
X0076550Y0157374D03*
X0009050Y0214374D03*
X0014050Y0221374D03*
X0023050Y0224374D03*
X0090562Y0096339D03*
X0073239Y0067598D03*
X0056977Y0056503D03*
X0067259Y0048512D03*
X0051192Y0043583D03*
X0219550Y0176874D03*
X0231550Y0078874D03*
X0234050Y0078874D03*
X0242550Y0059874D03*
X0245050Y0059874D03*
D16*
X0271550Y0042374D03*
X0282050Y0046374D03*
X0282050Y0050374D03*
X0282050Y0054374D03*
X0282050Y0058374D03*
X0178050Y0118874D03*
X0177050Y0123874D03*
X0162550Y0089374D03*
X0140550Y0070874D03*
X0143550Y0066874D03*
X0169550Y0048374D03*
X0143050Y0012874D03*
X0139050Y0012874D03*
X0135050Y0012874D03*
X0109050Y0019874D03*
X0104050Y0019874D03*
X0088550Y0011374D03*
X0069550Y0036374D03*
X0075550Y0049874D03*
X0049050Y0032874D03*
X0034050Y0029874D03*
X0046050Y0064874D03*
X0048550Y0081874D03*
X0052050Y0081874D03*
X0043550Y0085374D03*
X0034550Y0091874D03*
X0037550Y0094374D03*
X0049050Y0098874D03*
X0052550Y0098874D03*
X0024050Y0116874D03*
X0020050Y0116874D03*
X0047050Y0134374D03*
X0052550Y0131098D03*
X0052050Y0123374D03*
X0048550Y0123374D03*
X0073050Y0124374D03*
X0077050Y0124374D03*
X0081050Y0124374D03*
X0078050Y0148374D03*
X0057050Y0160374D03*
X0030050Y0166374D03*
X0008050Y0164374D03*
X0008050Y0160374D03*
X0008050Y0168374D03*
X0017050Y0212374D03*
X0022050Y0236374D03*
X0043050Y0212374D03*
X0070050Y0224374D03*
X0070050Y0228374D03*
X0141050Y0164374D03*
X0128050Y0155374D03*
X0131550Y0131374D03*
X0120050Y0118874D03*
X0138050Y0110374D03*
X0101550Y0092374D03*
X0185550Y0161874D03*
X0147050Y0176374D03*
D17*
X0244550Y0195874D02*
X0260317Y0180107D01*
X0265475Y0180107D01*
X0266783Y0178799D01*
X0266783Y0176949D01*
X0266550Y0176715D01*
X0266550Y0090374D01*
X0278050Y0078874D01*
X0278050Y0066374D01*
X0264550Y0019374D02*
X0260550Y0015374D01*
X0260050Y0015374D01*
X0264550Y0019374D02*
X0264550Y0177874D01*
X0047050Y0134374D02*
X0021726Y0159698D01*
X0021726Y0166483D01*
X0021050Y0167159D01*
X0021050Y0208374D01*
X0017050Y0212374D01*
D18*
X0004788Y0008674D02*
X0006287Y0006611D01*
X0008350Y0005112D01*
X0010775Y0004324D01*
X0012050Y0004224D01*
X0046050Y0004224D01*
X0046050Y0018478D01*
X0045695Y0018833D01*
X0045241Y0019927D01*
X0045241Y0021112D01*
X0045695Y0022207D01*
X0046050Y0022562D01*
X0046050Y0027774D01*
X0036301Y0027774D01*
X0035793Y0027266D01*
X0034662Y0026798D01*
X0033438Y0026798D01*
X0032307Y0027266D01*
X0031442Y0028131D01*
X0030974Y0029262D01*
X0030974Y0030486D01*
X0031442Y0031617D01*
X0032307Y0032482D01*
X0033438Y0032950D01*
X0034662Y0032950D01*
X0035793Y0032482D01*
X0036301Y0031974D01*
X0046050Y0031974D01*
X0046050Y0032078D01*
X0045974Y0032262D01*
X0045974Y0033486D01*
X0046050Y0033670D01*
X0046050Y0044150D01*
X0045317Y0044882D01*
X0044917Y0045850D01*
X0044917Y0046898D01*
X0045317Y0047866D01*
X0045576Y0048124D01*
X0045317Y0048382D01*
X0044917Y0049350D01*
X0044917Y0050398D01*
X0045317Y0051366D01*
X0046050Y0052098D01*
X0046050Y0052374D01*
X0046704Y0052374D01*
X0047026Y0052507D01*
X0048074Y0052507D01*
X0048396Y0052374D01*
X0053080Y0052374D01*
X0055335Y0054629D01*
X0054869Y0055095D01*
X0054491Y0056008D01*
X0054491Y0056997D01*
X0054869Y0057911D01*
X0055568Y0058610D01*
X0056482Y0058988D01*
X0057050Y0058988D01*
X0057050Y0095904D01*
X0046750Y0085604D01*
X0046750Y0084425D01*
X0046807Y0084482D01*
X0047938Y0084950D01*
X0049162Y0084950D01*
X0050293Y0084482D01*
X0050300Y0084475D01*
X0050307Y0084482D01*
X0051438Y0084950D01*
X0052662Y0084950D01*
X0053793Y0084482D01*
X0054658Y0083617D01*
X0055126Y0082486D01*
X0055126Y0081262D01*
X0054658Y0080131D01*
X0053793Y0079266D01*
X0052662Y0078798D01*
X0051438Y0078798D01*
X0050307Y0079266D01*
X0050300Y0079273D01*
X0050293Y0079266D01*
X0049162Y0078798D01*
X0048152Y0078798D01*
X0048763Y0078187D01*
X0049250Y0077011D01*
X0049250Y0064237D01*
X0048763Y0063061D01*
X0047863Y0062161D01*
X0046687Y0061674D01*
X0045413Y0061674D01*
X0044237Y0062161D01*
X0043337Y0063061D01*
X0042850Y0064237D01*
X0042850Y0073200D01*
X0041743Y0073659D01*
X0041283Y0072548D01*
X0040376Y0071641D01*
X0039191Y0071150D01*
X0037909Y0071150D01*
X0036724Y0071641D01*
X0035817Y0072548D01*
X0035326Y0073733D01*
X0035326Y0075015D01*
X0035817Y0076200D01*
X0036724Y0077107D01*
X0037909Y0077598D01*
X0039191Y0077598D01*
X0040350Y0077118D01*
X0040350Y0086011D01*
X0040837Y0087187D01*
X0041737Y0088087D01*
X0042913Y0088574D01*
X0043780Y0088574D01*
X0051277Y0096071D01*
X0050807Y0096266D01*
X0050800Y0096273D01*
X0050793Y0096266D01*
X0049662Y0095798D01*
X0048438Y0095798D01*
X0047307Y0096266D01*
X0046442Y0097131D01*
X0045974Y0098262D01*
X0045974Y0099486D01*
X0046442Y0100617D01*
X0047307Y0101482D01*
X0048438Y0101950D01*
X0049662Y0101950D01*
X0050793Y0101482D01*
X0050800Y0101475D01*
X0050807Y0101482D01*
X0051938Y0101950D01*
X0053162Y0101950D01*
X0053350Y0101872D01*
X0053350Y0120583D01*
X0052662Y0120298D01*
X0051438Y0120298D01*
X0050307Y0120766D01*
X0050300Y0120773D01*
X0050293Y0120766D01*
X0049162Y0120298D01*
X0047938Y0120298D01*
X0046807Y0120766D01*
X0045942Y0121631D01*
X0045474Y0122762D01*
X0045474Y0123986D01*
X0045942Y0125117D01*
X0046807Y0125982D01*
X0047938Y0126450D01*
X0049162Y0126450D01*
X0050293Y0125982D01*
X0050300Y0125975D01*
X0050307Y0125982D01*
X0050403Y0126021D01*
X0045050Y0131374D01*
X0003900Y0131374D01*
X0003900Y0072387D01*
X0004409Y0072598D01*
X0005691Y0072598D01*
X0006876Y0072107D01*
X0007783Y0071200D01*
X0008274Y0070015D01*
X0008274Y0068733D01*
X0007783Y0067548D01*
X0006876Y0066641D01*
X0005691Y0066150D01*
X0004409Y0066150D01*
X0003900Y0066361D01*
X0003900Y0012374D01*
X0004000Y0011099D01*
X0004788Y0008674D01*
X0005009Y0008370D02*
X0005212Y0008370D01*
X0005395Y0007927D02*
X0007603Y0005719D01*
X0010489Y0004524D01*
X0013611Y0004524D01*
X0016497Y0005719D01*
X0018705Y0007927D01*
X0019900Y0010813D01*
X0019900Y0013935D01*
X0018705Y0016821D01*
X0016497Y0019029D01*
X0013611Y0020224D01*
X0010489Y0020224D01*
X0007603Y0019029D01*
X0005395Y0016821D01*
X0004200Y0013935D01*
X0004200Y0010813D01*
X0005395Y0007927D01*
X0006617Y0006371D02*
X0006951Y0006371D01*
X0010627Y0004373D02*
X0046050Y0004373D01*
X0046050Y0006371D02*
X0017149Y0006371D01*
X0018888Y0008370D02*
X0046050Y0008370D01*
X0046050Y0010368D02*
X0019716Y0010368D01*
X0019900Y0012367D02*
X0046050Y0012367D01*
X0046050Y0014365D02*
X0019722Y0014365D01*
X0018894Y0016364D02*
X0046050Y0016364D01*
X0046050Y0018362D02*
X0033935Y0018362D01*
X0033568Y0017995D02*
X0034405Y0018833D01*
X0034859Y0019927D01*
X0034859Y0021112D01*
X0034405Y0022207D01*
X0033568Y0023044D01*
X0032473Y0023498D01*
X0031288Y0023498D01*
X0030194Y0023044D01*
X0029356Y0022207D01*
X0028903Y0021112D01*
X0028903Y0019927D01*
X0029356Y0018833D01*
X0030194Y0017995D01*
X0031288Y0017542D01*
X0032473Y0017542D01*
X0033568Y0017995D01*
X0034859Y0020361D02*
X0045241Y0020361D01*
X0045847Y0022359D02*
X0034253Y0022359D01*
X0029509Y0022359D02*
X0028095Y0022359D01*
X0027876Y0022141D02*
X0028783Y0023048D01*
X0029274Y0024233D01*
X0029274Y0025515D01*
X0028783Y0026700D01*
X0027876Y0027607D01*
X0026691Y0028098D01*
X0025409Y0028098D01*
X0024224Y0027607D01*
X0023317Y0026700D01*
X0022826Y0025515D01*
X0022826Y0024233D01*
X0023317Y0023048D01*
X0024224Y0022141D01*
X0025409Y0021650D01*
X0026691Y0021650D01*
X0027876Y0022141D01*
X0028903Y0020361D02*
X0003900Y0020361D01*
X0003900Y0022359D02*
X0024005Y0022359D01*
X0022826Y0024358D02*
X0003900Y0024358D01*
X0003900Y0026356D02*
X0023174Y0026356D01*
X0028926Y0026356D02*
X0046050Y0026356D01*
X0046050Y0024358D02*
X0029274Y0024358D01*
X0031349Y0028355D02*
X0003900Y0028355D01*
X0003900Y0030353D02*
X0030974Y0030353D01*
X0032177Y0032352D02*
X0003900Y0032352D01*
X0003900Y0034350D02*
X0046050Y0034350D01*
X0046050Y0036349D02*
X0003900Y0036349D01*
X0003900Y0038347D02*
X0026517Y0038347D01*
X0026317Y0038548D02*
X0027224Y0037641D01*
X0028409Y0037150D01*
X0029691Y0037150D01*
X0030876Y0037641D01*
X0031783Y0038548D01*
X0032274Y0039733D01*
X0032274Y0041015D01*
X0031783Y0042200D01*
X0030876Y0043107D01*
X0029691Y0043598D01*
X0028409Y0043598D01*
X0027224Y0043107D01*
X0026317Y0042200D01*
X0025826Y0041015D01*
X0025826Y0039733D01*
X0026317Y0038548D01*
X0025826Y0040346D02*
X0003900Y0040346D01*
X0003900Y0042344D02*
X0026461Y0042344D01*
X0031639Y0042344D02*
X0046050Y0042344D01*
X0046050Y0040346D02*
X0032274Y0040346D01*
X0031583Y0038347D02*
X0046050Y0038347D01*
X0045857Y0044343D02*
X0003900Y0044343D01*
X0003900Y0046341D02*
X0044917Y0046341D01*
X0045360Y0048340D02*
X0030075Y0048340D01*
X0029876Y0048141D02*
X0030783Y0049048D01*
X0031274Y0050233D01*
X0031274Y0051515D01*
X0030783Y0052700D01*
X0029876Y0053607D01*
X0028691Y0054098D01*
X0027409Y0054098D01*
X0026224Y0053607D01*
X0026050Y0053433D01*
X0025876Y0053607D01*
X0024691Y0054098D01*
X0023409Y0054098D01*
X0022224Y0053607D01*
X0021317Y0052700D01*
X0020826Y0051515D01*
X0020826Y0050233D01*
X0021317Y0049048D01*
X0022224Y0048141D01*
X0023409Y0047650D01*
X0024691Y0047650D01*
X0025876Y0048141D01*
X0026050Y0048315D01*
X0026224Y0048141D01*
X0027409Y0047650D01*
X0028691Y0047650D01*
X0029876Y0048141D01*
X0031274Y0050338D02*
X0044917Y0050338D01*
X0046050Y0052337D02*
X0030934Y0052337D01*
X0022025Y0048340D02*
X0003900Y0048340D01*
X0003900Y0050338D02*
X0020826Y0050338D01*
X0021166Y0052337D02*
X0003900Y0052337D01*
X0003900Y0054335D02*
X0055041Y0054335D01*
X0054491Y0056334D02*
X0003900Y0056334D01*
X0003900Y0058332D02*
X0055291Y0058332D01*
X0057050Y0060331D02*
X0003900Y0060331D01*
X0003900Y0062329D02*
X0044069Y0062329D01*
X0042850Y0064328D02*
X0003900Y0064328D01*
X0003900Y0066326D02*
X0003983Y0066326D01*
X0006117Y0066326D02*
X0042850Y0066326D01*
X0042850Y0068325D02*
X0027839Y0068325D01*
X0027981Y0068467D02*
X0027981Y0070281D01*
X0026698Y0071565D01*
X0024883Y0071565D01*
X0023920Y0070602D01*
X0022957Y0071565D01*
X0021143Y0071565D01*
X0020180Y0070602D01*
X0019217Y0071565D01*
X0017402Y0071565D01*
X0016119Y0070281D01*
X0016119Y0068467D01*
X0017402Y0067183D01*
X0019217Y0067183D01*
X0020180Y0068146D01*
X0021143Y0067183D01*
X0022957Y0067183D01*
X0023920Y0068146D01*
X0024883Y0067183D01*
X0026698Y0067183D01*
X0027981Y0068467D01*
X0027939Y0070323D02*
X0042850Y0070323D01*
X0042850Y0072322D02*
X0041057Y0072322D01*
X0036043Y0072322D02*
X0006358Y0072322D01*
X0008146Y0070323D02*
X0016161Y0070323D01*
X0016261Y0068325D02*
X0008105Y0068325D01*
X0003900Y0074320D02*
X0035326Y0074320D01*
X0035935Y0076319D02*
X0003900Y0076319D01*
X0003900Y0078317D02*
X0040350Y0078317D01*
X0040350Y0080316D02*
X0003900Y0080316D01*
X0003900Y0082314D02*
X0040350Y0082314D01*
X0040350Y0084313D02*
X0003900Y0084313D01*
X0003900Y0086311D02*
X0040475Y0086311D01*
X0042276Y0088310D02*
X0003900Y0088310D01*
X0003900Y0090309D02*
X0045515Y0090309D01*
X0047513Y0092307D02*
X0003900Y0092307D01*
X0003900Y0094306D02*
X0049512Y0094306D01*
X0047269Y0096304D02*
X0003900Y0096304D01*
X0003900Y0098303D02*
X0045974Y0098303D01*
X0046311Y0100301D02*
X0003900Y0100301D01*
X0003900Y0102300D02*
X0053350Y0102300D01*
X0053350Y0104298D02*
X0003900Y0104298D01*
X0003900Y0106297D02*
X0053350Y0106297D01*
X0053350Y0108295D02*
X0003900Y0108295D01*
X0003900Y0110294D02*
X0053350Y0110294D01*
X0053350Y0112292D02*
X0003900Y0112292D01*
X0003900Y0114291D02*
X0053350Y0114291D01*
X0053350Y0116289D02*
X0003900Y0116289D01*
X0003900Y0118288D02*
X0053350Y0118288D01*
X0053350Y0120286D02*
X0003900Y0120286D01*
X0003900Y0122285D02*
X0045671Y0122285D01*
X0045597Y0124283D02*
X0003900Y0124283D01*
X0003900Y0126282D02*
X0047531Y0126282D01*
X0049569Y0126282D02*
X0050142Y0126282D01*
X0048144Y0128280D02*
X0003900Y0128280D01*
X0003900Y0130279D02*
X0046145Y0130279D01*
X0043939Y0134374D02*
X0003900Y0134374D01*
X0003900Y0242374D01*
X0004000Y0243649D01*
X0004788Y0246074D01*
X0006287Y0248137D01*
X0008350Y0249636D01*
X0010775Y0250424D01*
X0012050Y0250524D01*
X0067050Y0250524D01*
X0068325Y0250424D01*
X0070750Y0249636D01*
X0072813Y0248137D01*
X0074312Y0246074D01*
X0075100Y0243649D01*
X0075200Y0242374D01*
X0075200Y0224721D01*
X0076470Y0219569D01*
X0078936Y0214871D01*
X0078936Y0214871D01*
X0082454Y0210899D01*
X0082454Y0210899D01*
X0082454Y0210899D01*
X0086821Y0207885D01*
X0086821Y0207885D01*
X0091783Y0206003D01*
X0097050Y0205364D01*
X0102317Y0206003D01*
X0102317Y0206003D01*
X0107279Y0207885D01*
X0111646Y0210899D01*
X0115164Y0214871D01*
X0117630Y0219569D01*
X0118900Y0224721D01*
X0118900Y0242374D01*
X0119000Y0243649D01*
X0119788Y0246074D01*
X0121287Y0248137D01*
X0123350Y0249636D01*
X0125775Y0250424D01*
X0127050Y0250524D01*
X0132050Y0250524D01*
X0132050Y0139449D01*
X0131691Y0139598D01*
X0130409Y0139598D01*
X0129224Y0139107D01*
X0128317Y0138200D01*
X0128288Y0138131D01*
X0113215Y0137159D01*
X0112783Y0138200D01*
X0111876Y0139107D01*
X0110691Y0139598D01*
X0109409Y0139598D01*
X0108224Y0139107D01*
X0107950Y0138833D01*
X0107950Y0156804D01*
X0117930Y0166784D01*
X0118355Y0166965D01*
X0118469Y0167248D01*
X0119157Y0167936D01*
X0119536Y0168850D01*
X0119536Y0169839D01*
X0119157Y0170752D01*
X0118458Y0171451D01*
X0117544Y0171830D01*
X0116556Y0171830D01*
X0115642Y0171451D01*
X0115565Y0171375D01*
X0115458Y0171481D01*
X0114544Y0171860D01*
X0114183Y0171860D01*
X0114183Y0172398D01*
X0113783Y0173366D01*
X0113042Y0174107D01*
X0112074Y0174507D01*
X0111026Y0174507D01*
X0110058Y0174107D01*
X0109317Y0173366D01*
X0108917Y0172398D01*
X0108917Y0172210D01*
X0108714Y0172007D01*
X0108026Y0172007D01*
X0107058Y0171607D01*
X0106800Y0171348D01*
X0106542Y0171607D01*
X0105574Y0172007D01*
X0104526Y0172007D01*
X0103558Y0171607D01*
X0103426Y0171474D01*
X0101550Y0171474D01*
X0101550Y0171581D01*
X0100550Y0172581D01*
X0100550Y0175528D01*
X0100683Y0175850D01*
X0100683Y0176898D01*
X0100283Y0177866D01*
X0099542Y0178607D01*
X0098574Y0179007D01*
X0097526Y0179007D01*
X0096558Y0178607D01*
X0095817Y0177866D01*
X0095417Y0176898D01*
X0095417Y0175850D01*
X0095817Y0174882D01*
X0096350Y0174350D01*
X0096350Y0172233D01*
X0096044Y0172360D01*
X0095056Y0172360D01*
X0094142Y0171981D01*
X0093443Y0171282D01*
X0093064Y0170368D01*
X0093064Y0169380D01*
X0093443Y0168466D01*
X0093950Y0167959D01*
X0093950Y0158004D01*
X0093953Y0158001D01*
X0093317Y0157366D01*
X0092917Y0156398D01*
X0092917Y0155350D01*
X0093317Y0154382D01*
X0093326Y0154374D01*
X0092736Y0154374D01*
X0092736Y0159729D01*
X0092150Y0160315D01*
X0092150Y0170750D01*
X0092283Y0170882D01*
X0092683Y0171850D01*
X0092683Y0172898D01*
X0092283Y0173866D01*
X0091542Y0174607D01*
X0090574Y0175007D01*
X0089526Y0175007D01*
X0088705Y0174667D01*
X0088657Y0174782D01*
X0087958Y0175481D01*
X0087044Y0175860D01*
X0086056Y0175860D01*
X0086036Y0175852D01*
X0086036Y0176368D01*
X0085657Y0177282D01*
X0084958Y0177981D01*
X0084044Y0178360D01*
X0083056Y0178360D01*
X0082142Y0177981D01*
X0081443Y0177282D01*
X0081064Y0176368D01*
X0081064Y0175380D01*
X0081218Y0175007D01*
X0080526Y0175007D01*
X0079558Y0174607D01*
X0078817Y0173866D01*
X0078417Y0172898D01*
X0078417Y0171850D01*
X0078817Y0170882D01*
X0078950Y0170750D01*
X0078950Y0158076D01*
X0078657Y0158782D01*
X0077958Y0159481D01*
X0077044Y0159860D01*
X0076056Y0159860D01*
X0075142Y0159481D01*
X0074443Y0158782D01*
X0074064Y0157868D01*
X0074064Y0156880D01*
X0074443Y0155966D01*
X0074450Y0155959D01*
X0074450Y0154374D01*
X0068050Y0154374D01*
X0068050Y0134374D01*
X0059150Y0134374D01*
X0059150Y0158123D01*
X0059658Y0158631D01*
X0060126Y0159762D01*
X0060126Y0160986D01*
X0059658Y0162117D01*
X0058793Y0162982D01*
X0057662Y0163450D01*
X0056438Y0163450D01*
X0055307Y0162982D01*
X0054442Y0162117D01*
X0053974Y0160986D01*
X0053974Y0159762D01*
X0054442Y0158631D01*
X0054950Y0158123D01*
X0054950Y0134374D01*
X0054020Y0134374D01*
X0053920Y0134474D01*
X0052180Y0134474D01*
X0052080Y0134374D01*
X0050126Y0134374D01*
X0050126Y0134986D01*
X0049658Y0136117D01*
X0048793Y0136982D01*
X0047662Y0137450D01*
X0047085Y0137450D01*
X0023926Y0160609D01*
X0023926Y0167394D01*
X0023250Y0168070D01*
X0023250Y0209285D01*
X0021961Y0210574D01*
X0020126Y0212409D01*
X0020126Y0212986D01*
X0019658Y0214117D01*
X0018793Y0214982D01*
X0017662Y0215450D01*
X0016438Y0215450D01*
X0015307Y0214982D01*
X0014442Y0214117D01*
X0013974Y0212986D01*
X0013974Y0211762D01*
X0014442Y0210631D01*
X0015307Y0209766D01*
X0016438Y0209298D01*
X0017015Y0209298D01*
X0018850Y0207463D01*
X0018850Y0166248D01*
X0019526Y0165571D01*
X0019526Y0158786D01*
X0020815Y0157498D01*
X0043939Y0134374D01*
X0042038Y0136274D02*
X0037510Y0136274D01*
X0037783Y0136548D02*
X0038274Y0137733D01*
X0038274Y0139015D01*
X0037783Y0140200D01*
X0036876Y0141107D01*
X0035691Y0141598D01*
X0034409Y0141598D01*
X0033224Y0141107D01*
X0032317Y0140200D01*
X0031826Y0139015D01*
X0031826Y0137733D01*
X0032317Y0136548D01*
X0033224Y0135641D01*
X0034409Y0135150D01*
X0035691Y0135150D01*
X0036876Y0135641D01*
X0037783Y0136548D01*
X0038274Y0138273D02*
X0040040Y0138273D01*
X0038041Y0140271D02*
X0037712Y0140271D01*
X0036043Y0142270D02*
X0003900Y0142270D01*
X0003900Y0144268D02*
X0034044Y0144268D01*
X0032046Y0146267D02*
X0003900Y0146267D01*
X0003900Y0148265D02*
X0030047Y0148265D01*
X0028049Y0150264D02*
X0003900Y0150264D01*
X0003900Y0152262D02*
X0026050Y0152262D01*
X0024052Y0154261D02*
X0003900Y0154261D01*
X0003900Y0156259D02*
X0022053Y0156259D01*
X0020055Y0158258D02*
X0010285Y0158258D01*
X0010658Y0158631D02*
X0011126Y0159762D01*
X0011126Y0160986D01*
X0010658Y0162117D01*
X0010401Y0162374D01*
X0010658Y0162631D01*
X0011126Y0163762D01*
X0011126Y0164986D01*
X0010658Y0166117D01*
X0010401Y0166374D01*
X0010658Y0166631D01*
X0011126Y0167762D01*
X0011126Y0168986D01*
X0010658Y0170117D01*
X0009793Y0170982D01*
X0008662Y0171450D01*
X0007438Y0171450D01*
X0006307Y0170982D01*
X0005442Y0170117D01*
X0004974Y0168986D01*
X0004974Y0167762D01*
X0005442Y0166631D01*
X0005699Y0166374D01*
X0005442Y0166117D01*
X0004974Y0164986D01*
X0004974Y0163762D01*
X0005442Y0162631D01*
X0005699Y0162374D01*
X0005442Y0162117D01*
X0004974Y0160986D01*
X0004974Y0159762D01*
X0005442Y0158631D01*
X0006307Y0157766D01*
X0007438Y0157298D01*
X0008662Y0157298D01*
X0009793Y0157766D01*
X0010658Y0158631D01*
X0011126Y0160256D02*
X0019526Y0160256D01*
X0019526Y0162255D02*
X0010520Y0162255D01*
X0011126Y0164253D02*
X0019526Y0164253D01*
X0018850Y0166252D02*
X0010523Y0166252D01*
X0011126Y0168250D02*
X0018850Y0168250D01*
X0018850Y0170249D02*
X0010526Y0170249D01*
X0005574Y0170249D02*
X0003900Y0170249D01*
X0003900Y0172247D02*
X0018850Y0172247D01*
X0018850Y0174246D02*
X0003900Y0174246D01*
X0003900Y0176245D02*
X0018850Y0176245D01*
X0018850Y0178243D02*
X0003900Y0178243D01*
X0003900Y0180242D02*
X0018850Y0180242D01*
X0018850Y0182240D02*
X0003900Y0182240D01*
X0003900Y0184239D02*
X0018850Y0184239D01*
X0018850Y0186237D02*
X0003900Y0186237D01*
X0003900Y0188236D02*
X0018850Y0188236D01*
X0018850Y0190234D02*
X0003900Y0190234D01*
X0003900Y0192233D02*
X0018850Y0192233D01*
X0018850Y0194231D02*
X0003900Y0194231D01*
X0003900Y0196230D02*
X0018850Y0196230D01*
X0018850Y0198228D02*
X0003900Y0198228D01*
X0003900Y0200227D02*
X0018850Y0200227D01*
X0018850Y0202225D02*
X0003900Y0202225D01*
X0003900Y0204224D02*
X0018850Y0204224D01*
X0018850Y0206222D02*
X0003900Y0206222D01*
X0003900Y0208221D02*
X0018092Y0208221D01*
X0014854Y0210219D02*
X0003900Y0210219D01*
X0003900Y0212218D02*
X0007760Y0212218D01*
X0007642Y0212267D02*
X0008556Y0211888D01*
X0009544Y0211888D01*
X0010458Y0212267D01*
X0011157Y0212966D01*
X0011536Y0213880D01*
X0011536Y0214868D01*
X0011157Y0215782D01*
X0010458Y0216481D01*
X0009544Y0216860D01*
X0008556Y0216860D01*
X0007642Y0216481D01*
X0006943Y0215782D01*
X0006564Y0214868D01*
X0006564Y0213880D01*
X0006943Y0212966D01*
X0007642Y0212267D01*
X0006564Y0214216D02*
X0003900Y0214216D01*
X0003900Y0216215D02*
X0007375Y0216215D01*
X0010725Y0216215D02*
X0078230Y0216215D01*
X0077181Y0218213D02*
X0003900Y0218213D01*
X0003900Y0220212D02*
X0011841Y0220212D01*
X0011943Y0219966D02*
X0012642Y0219267D01*
X0013556Y0218888D01*
X0014544Y0218888D01*
X0015458Y0219267D01*
X0016157Y0219966D01*
X0016536Y0220880D01*
X0016536Y0221868D01*
X0016157Y0222782D01*
X0015458Y0223481D01*
X0014544Y0223860D01*
X0013556Y0223860D01*
X0012642Y0223481D01*
X0011943Y0222782D01*
X0011564Y0221868D01*
X0011564Y0220880D01*
X0011943Y0219966D01*
X0011706Y0222210D02*
X0003900Y0222210D01*
X0003900Y0224209D02*
X0020564Y0224209D01*
X0020564Y0223880D02*
X0020943Y0222966D01*
X0021642Y0222267D01*
X0022556Y0221888D01*
X0023544Y0221888D01*
X0024458Y0222267D01*
X0025157Y0222966D01*
X0025536Y0223880D01*
X0025536Y0224868D01*
X0025157Y0225782D01*
X0024458Y0226481D01*
X0023544Y0226860D01*
X0022556Y0226860D01*
X0021642Y0226481D01*
X0020943Y0225782D01*
X0020564Y0224868D01*
X0020564Y0223880D01*
X0021778Y0222210D02*
X0016394Y0222210D01*
X0016259Y0220212D02*
X0076311Y0220212D01*
X0076470Y0219569D02*
X0076470Y0219569D01*
X0075819Y0222210D02*
X0072237Y0222210D01*
X0072658Y0222631D02*
X0073126Y0223762D01*
X0073126Y0224986D01*
X0072658Y0226117D01*
X0072401Y0226374D01*
X0072658Y0226631D01*
X0073126Y0227762D01*
X0073126Y0228986D01*
X0072658Y0230117D01*
X0071793Y0230982D01*
X0070662Y0231450D01*
X0069438Y0231450D01*
X0068307Y0230982D01*
X0067442Y0230117D01*
X0066974Y0228986D01*
X0066974Y0227762D01*
X0067442Y0226631D01*
X0067699Y0226374D01*
X0067442Y0226117D01*
X0066974Y0224986D01*
X0066974Y0223762D01*
X0067442Y0222631D01*
X0068307Y0221766D01*
X0069438Y0221298D01*
X0070662Y0221298D01*
X0071793Y0221766D01*
X0072658Y0222631D01*
X0073126Y0224209D02*
X0075326Y0224209D01*
X0075200Y0226207D02*
X0072567Y0226207D01*
X0073126Y0228206D02*
X0075200Y0228206D01*
X0075200Y0230204D02*
X0072570Y0230204D01*
X0075200Y0232203D02*
X0003900Y0232203D01*
X0003900Y0234201D02*
X0019872Y0234201D01*
X0019442Y0234631D02*
X0020307Y0233766D01*
X0021438Y0233298D01*
X0022662Y0233298D01*
X0023793Y0233766D01*
X0024658Y0234631D01*
X0025126Y0235762D01*
X0025126Y0236986D01*
X0024658Y0238117D01*
X0023793Y0238982D01*
X0022662Y0239450D01*
X0021438Y0239450D01*
X0020307Y0238982D01*
X0019442Y0238117D01*
X0018974Y0236986D01*
X0018974Y0235762D01*
X0019442Y0234631D01*
X0018974Y0236200D02*
X0016977Y0236200D01*
X0016497Y0235719D02*
X0018705Y0237927D01*
X0019900Y0240813D01*
X0019900Y0243935D01*
X0018705Y0246821D01*
X0016497Y0249029D01*
X0013611Y0250224D01*
X0010489Y0250224D01*
X0007603Y0249029D01*
X0005395Y0246821D01*
X0004200Y0243935D01*
X0004200Y0240813D01*
X0005395Y0237927D01*
X0007603Y0235719D01*
X0010489Y0234524D01*
X0013611Y0234524D01*
X0016497Y0235719D01*
X0018817Y0238198D02*
X0019524Y0238198D01*
X0019645Y0240197D02*
X0075200Y0240197D01*
X0075200Y0242195D02*
X0019900Y0242195D01*
X0019793Y0244194D02*
X0074923Y0244194D01*
X0074226Y0246192D02*
X0018965Y0246192D01*
X0017335Y0248191D02*
X0072739Y0248191D01*
X0069046Y0250189D02*
X0013695Y0250189D01*
X0010405Y0250189D02*
X0010054Y0250189D01*
X0006765Y0248191D02*
X0006361Y0248191D01*
X0005135Y0246192D02*
X0004874Y0246192D01*
X0004307Y0244194D02*
X0004177Y0244194D01*
X0004200Y0242195D02*
X0003900Y0242195D01*
X0003900Y0240197D02*
X0004455Y0240197D01*
X0003900Y0238198D02*
X0005283Y0238198D01*
X0003900Y0236200D02*
X0007123Y0236200D01*
X0003900Y0230204D02*
X0050786Y0230204D01*
X0050859Y0230381D02*
X0050466Y0229431D01*
X0050466Y0228403D01*
X0050859Y0227453D01*
X0051586Y0226727D01*
X0052536Y0226333D01*
X0053564Y0226333D01*
X0054514Y0226727D01*
X0055241Y0227453D01*
X0055634Y0228403D01*
X0055634Y0229431D01*
X0055241Y0230381D01*
X0054514Y0231108D01*
X0053564Y0231502D01*
X0052536Y0231502D01*
X0051586Y0231108D01*
X0050859Y0230381D01*
X0050548Y0228206D02*
X0003900Y0228206D01*
X0003900Y0226207D02*
X0021368Y0226207D01*
X0024732Y0226207D02*
X0067533Y0226207D01*
X0066974Y0224209D02*
X0025536Y0224209D01*
X0024322Y0222210D02*
X0067863Y0222210D01*
X0066974Y0228206D02*
X0055552Y0228206D01*
X0055314Y0230204D02*
X0067530Y0230204D01*
X0075200Y0234201D02*
X0024228Y0234201D01*
X0025126Y0236200D02*
X0075200Y0236200D01*
X0075200Y0238198D02*
X0024576Y0238198D01*
X0019558Y0214216D02*
X0040542Y0214216D01*
X0040442Y0214117D02*
X0039974Y0212986D01*
X0039974Y0211762D01*
X0040442Y0210631D01*
X0041307Y0209766D01*
X0042438Y0209298D01*
X0043662Y0209298D01*
X0044793Y0209766D01*
X0045658Y0210631D01*
X0046126Y0211762D01*
X0046126Y0212986D01*
X0045658Y0214117D01*
X0044793Y0214982D01*
X0043662Y0215450D01*
X0042438Y0215450D01*
X0041307Y0214982D01*
X0040442Y0214117D01*
X0039974Y0212218D02*
X0020318Y0212218D01*
X0022316Y0210219D02*
X0040854Y0210219D01*
X0045246Y0210219D02*
X0083439Y0210219D01*
X0081286Y0212218D02*
X0046126Y0212218D01*
X0045558Y0214216D02*
X0079515Y0214216D01*
X0086334Y0208221D02*
X0023250Y0208221D01*
X0023250Y0206222D02*
X0091205Y0206222D01*
X0091783Y0206003D02*
X0091783Y0206003D01*
X0097050Y0205364D02*
X0097050Y0205364D01*
X0102895Y0206222D02*
X0132050Y0206222D01*
X0132050Y0204224D02*
X0023250Y0204224D01*
X0023250Y0202225D02*
X0132050Y0202225D01*
X0132050Y0200227D02*
X0023250Y0200227D01*
X0023250Y0198228D02*
X0132050Y0198228D01*
X0132050Y0196230D02*
X0023250Y0196230D01*
X0023250Y0194231D02*
X0132050Y0194231D01*
X0132050Y0192233D02*
X0023250Y0192233D01*
X0023250Y0190234D02*
X0132050Y0190234D01*
X0132050Y0188236D02*
X0023250Y0188236D01*
X0023250Y0186237D02*
X0132050Y0186237D01*
X0132050Y0184239D02*
X0023250Y0184239D01*
X0023250Y0182240D02*
X0132050Y0182240D01*
X0132050Y0180242D02*
X0023250Y0180242D01*
X0023250Y0178243D02*
X0082774Y0178243D01*
X0084326Y0178243D02*
X0096195Y0178243D01*
X0095417Y0176245D02*
X0086036Y0176245D01*
X0081064Y0176245D02*
X0046545Y0176245D01*
X0046876Y0176107D02*
X0045691Y0176598D01*
X0044409Y0176598D01*
X0043224Y0176107D01*
X0042317Y0175200D01*
X0041826Y0174015D01*
X0041826Y0172733D01*
X0042317Y0171548D01*
X0043224Y0170641D01*
X0044409Y0170150D01*
X0045691Y0170150D01*
X0046876Y0170641D01*
X0047783Y0171548D01*
X0048274Y0172733D01*
X0048274Y0174015D01*
X0047783Y0175200D01*
X0046876Y0176107D01*
X0048178Y0174246D02*
X0079198Y0174246D01*
X0078417Y0172247D02*
X0048073Y0172247D01*
X0045930Y0170249D02*
X0078950Y0170249D01*
X0078950Y0168250D02*
X0023250Y0168250D01*
X0023250Y0170249D02*
X0044170Y0170249D01*
X0042027Y0172247D02*
X0023250Y0172247D01*
X0023250Y0174246D02*
X0041922Y0174246D01*
X0043555Y0176245D02*
X0023250Y0176245D01*
X0023926Y0166252D02*
X0078950Y0166252D01*
X0078950Y0164253D02*
X0023926Y0164253D01*
X0023926Y0162255D02*
X0054580Y0162255D01*
X0053974Y0160256D02*
X0024279Y0160256D01*
X0026277Y0158258D02*
X0054815Y0158258D01*
X0054950Y0156259D02*
X0028276Y0156259D01*
X0030274Y0154261D02*
X0054950Y0154261D01*
X0054950Y0152262D02*
X0032273Y0152262D01*
X0034271Y0150264D02*
X0054950Y0150264D01*
X0054950Y0148265D02*
X0036270Y0148265D01*
X0038268Y0146267D02*
X0054950Y0146267D01*
X0054950Y0144268D02*
X0040267Y0144268D01*
X0042265Y0142270D02*
X0054950Y0142270D01*
X0054950Y0140271D02*
X0044264Y0140271D01*
X0046262Y0138273D02*
X0054950Y0138273D01*
X0054950Y0136274D02*
X0049500Y0136274D01*
X0059150Y0136274D02*
X0068050Y0136274D01*
X0068050Y0138273D02*
X0059150Y0138273D01*
X0059150Y0140271D02*
X0068050Y0140271D01*
X0068050Y0142270D02*
X0064981Y0142270D01*
X0064691Y0142150D02*
X0065876Y0142641D01*
X0066783Y0143548D01*
X0067274Y0144733D01*
X0067274Y0146015D01*
X0066783Y0147200D01*
X0065876Y0148107D01*
X0064691Y0148598D01*
X0063409Y0148598D01*
X0062224Y0148107D01*
X0061317Y0147200D01*
X0060826Y0146015D01*
X0060826Y0144733D01*
X0061317Y0143548D01*
X0062224Y0142641D01*
X0063409Y0142150D01*
X0064691Y0142150D01*
X0063119Y0142270D02*
X0059150Y0142270D01*
X0059150Y0144268D02*
X0061018Y0144268D01*
X0060930Y0146267D02*
X0059150Y0146267D01*
X0059150Y0148265D02*
X0062606Y0148265D01*
X0065494Y0148265D02*
X0068050Y0148265D01*
X0068050Y0146267D02*
X0067170Y0146267D01*
X0067082Y0144268D02*
X0068050Y0144268D01*
X0068050Y0150264D02*
X0059150Y0150264D01*
X0059150Y0152262D02*
X0068050Y0152262D01*
X0068050Y0154261D02*
X0059150Y0154261D01*
X0059150Y0156259D02*
X0074321Y0156259D01*
X0074225Y0158258D02*
X0059285Y0158258D01*
X0060126Y0160256D02*
X0078950Y0160256D01*
X0078950Y0158258D02*
X0078875Y0158258D01*
X0078950Y0162255D02*
X0059520Y0162255D01*
X0032388Y0140271D02*
X0003900Y0140271D01*
X0003900Y0138273D02*
X0031826Y0138273D01*
X0032590Y0136274D02*
X0003900Y0136274D01*
X0003900Y0158258D02*
X0005815Y0158258D01*
X0004974Y0160256D02*
X0003900Y0160256D01*
X0003900Y0162255D02*
X0005580Y0162255D01*
X0004974Y0164253D02*
X0003900Y0164253D01*
X0003900Y0166252D02*
X0005577Y0166252D01*
X0004974Y0168250D02*
X0003900Y0168250D01*
X0010340Y0212218D02*
X0013974Y0212218D01*
X0014542Y0214216D02*
X0011536Y0214216D01*
X0091902Y0174246D02*
X0096350Y0174246D01*
X0096316Y0172247D02*
X0096350Y0172247D01*
X0094784Y0172247D02*
X0092683Y0172247D01*
X0093064Y0170249D02*
X0092150Y0170249D01*
X0092150Y0168250D02*
X0093658Y0168250D01*
X0093950Y0166252D02*
X0092150Y0166252D01*
X0092150Y0164253D02*
X0093950Y0164253D01*
X0093950Y0162255D02*
X0092150Y0162255D01*
X0092209Y0160256D02*
X0093950Y0160256D01*
X0093950Y0158258D02*
X0092736Y0158258D01*
X0092736Y0156259D02*
X0092917Y0156259D01*
X0107950Y0156259D02*
X0125087Y0156259D01*
X0124974Y0155986D02*
X0124974Y0154762D01*
X0125442Y0153631D01*
X0126307Y0152766D01*
X0127438Y0152298D01*
X0128662Y0152298D01*
X0129793Y0152766D01*
X0130658Y0153631D01*
X0131126Y0154762D01*
X0131126Y0155986D01*
X0130658Y0157117D01*
X0129793Y0157982D01*
X0128662Y0158450D01*
X0127438Y0158450D01*
X0126307Y0157982D01*
X0125442Y0157117D01*
X0124974Y0155986D01*
X0125181Y0154261D02*
X0107950Y0154261D01*
X0107950Y0152262D02*
X0132050Y0152262D01*
X0132050Y0150264D02*
X0107950Y0150264D01*
X0107950Y0148265D02*
X0132050Y0148265D01*
X0132050Y0146267D02*
X0107950Y0146267D01*
X0107950Y0144268D02*
X0132050Y0144268D01*
X0132050Y0142270D02*
X0107950Y0142270D01*
X0107950Y0140271D02*
X0132050Y0140271D01*
X0128389Y0138273D02*
X0112711Y0138273D01*
X0130919Y0154261D02*
X0132050Y0154261D01*
X0132050Y0156259D02*
X0131013Y0156259D01*
X0132050Y0158258D02*
X0129127Y0158258D01*
X0126973Y0158258D02*
X0109404Y0158258D01*
X0111402Y0160256D02*
X0132050Y0160256D01*
X0132050Y0162255D02*
X0113401Y0162255D01*
X0115399Y0164253D02*
X0132050Y0164253D01*
X0132050Y0166252D02*
X0117398Y0166252D01*
X0119288Y0168250D02*
X0132050Y0168250D01*
X0132050Y0170249D02*
X0119366Y0170249D01*
X0114183Y0172247D02*
X0132050Y0172247D01*
X0132050Y0174246D02*
X0112705Y0174246D01*
X0110395Y0174246D02*
X0100550Y0174246D01*
X0100683Y0176245D02*
X0132050Y0176245D01*
X0132050Y0178243D02*
X0099905Y0178243D01*
X0100884Y0172247D02*
X0108917Y0172247D01*
X0107279Y0207885D02*
X0107279Y0207885D01*
X0107766Y0208221D02*
X0132050Y0208221D01*
X0132050Y0210219D02*
X0110661Y0210219D01*
X0111646Y0210899D02*
X0111646Y0210899D01*
X0112814Y0212218D02*
X0132050Y0212218D01*
X0132050Y0214216D02*
X0114584Y0214216D01*
X0115164Y0214871D02*
X0115164Y0214871D01*
X0115870Y0216215D02*
X0132050Y0216215D01*
X0132050Y0218213D02*
X0116919Y0218213D01*
X0117630Y0219569D02*
X0117630Y0219569D01*
X0117789Y0220212D02*
X0132050Y0220212D01*
X0132050Y0222210D02*
X0118281Y0222210D01*
X0118774Y0224209D02*
X0132050Y0224209D01*
X0132050Y0226207D02*
X0118900Y0226207D01*
X0118900Y0228206D02*
X0132050Y0228206D01*
X0132050Y0230204D02*
X0118900Y0230204D01*
X0118900Y0232203D02*
X0132050Y0232203D01*
X0132050Y0234201D02*
X0118900Y0234201D01*
X0118900Y0236200D02*
X0132050Y0236200D01*
X0132050Y0238198D02*
X0118900Y0238198D01*
X0118900Y0240197D02*
X0132050Y0240197D01*
X0132050Y0242195D02*
X0118900Y0242195D01*
X0119177Y0244194D02*
X0132050Y0244194D01*
X0132050Y0246192D02*
X0119874Y0246192D01*
X0121361Y0248191D02*
X0132050Y0248191D01*
X0132050Y0250189D02*
X0125054Y0250189D01*
X0057050Y0094306D02*
X0055451Y0094306D01*
X0057050Y0092307D02*
X0053453Y0092307D01*
X0051454Y0090309D02*
X0057050Y0090309D01*
X0057050Y0088310D02*
X0049456Y0088310D01*
X0047457Y0086311D02*
X0057050Y0086311D01*
X0057050Y0084313D02*
X0053962Y0084313D01*
X0055126Y0082314D02*
X0057050Y0082314D01*
X0057050Y0080316D02*
X0054734Y0080316D01*
X0057050Y0078317D02*
X0048632Y0078317D01*
X0049250Y0076319D02*
X0057050Y0076319D01*
X0057050Y0074320D02*
X0049250Y0074320D01*
X0049250Y0072322D02*
X0057050Y0072322D01*
X0057050Y0070323D02*
X0049250Y0070323D01*
X0049250Y0068325D02*
X0057050Y0068325D01*
X0057050Y0066326D02*
X0049250Y0066326D01*
X0049250Y0064328D02*
X0057050Y0064328D01*
X0057050Y0062329D02*
X0048031Y0062329D01*
X0045974Y0032352D02*
X0035923Y0032352D01*
X0029827Y0018362D02*
X0017163Y0018362D01*
X0006937Y0018362D02*
X0003900Y0018362D01*
X0003900Y0016364D02*
X0005206Y0016364D01*
X0004378Y0014365D02*
X0003900Y0014365D01*
X0003901Y0012367D02*
X0004200Y0012367D01*
X0004238Y0010368D02*
X0004384Y0010368D01*
D19*
X0034050Y0029874D02*
X0082813Y0029874D01*
X0103213Y0050274D01*
X0122213Y0050274D01*
X0138813Y0066874D01*
X0143550Y0066874D01*
X0140550Y0070874D02*
X0121550Y0051874D01*
X0102550Y0051874D01*
X0083550Y0032874D01*
X0049050Y0032874D01*
X0047550Y0046374D02*
X0048917Y0047741D01*
X0053679Y0047741D01*
X0068813Y0062874D01*
X0068813Y0071105D01*
X0069767Y0072059D01*
X0078235Y0072059D01*
X0088917Y0082741D01*
X0089434Y0082741D01*
X0091567Y0084874D01*
X0097050Y0084874D01*
X0088550Y0084874D02*
X0078822Y0075146D01*
X0078822Y0074908D01*
X0070353Y0074908D01*
X0067213Y0071768D01*
X0067213Y0063537D01*
X0053550Y0049874D01*
X0047550Y0049874D01*
X0068813Y0062874D02*
X0069050Y0062874D01*
X0043550Y0085374D02*
X0055450Y0097274D01*
X0055450Y0129874D01*
X0053050Y0132274D01*
X0053050Y0131598D01*
X0052550Y0131098D01*
X0053050Y0132274D02*
X0053050Y0132374D01*
X0057050Y0119874D02*
X0059680Y0117244D01*
X0061874Y0117244D01*
X0062951Y0116167D01*
X0062951Y0113973D01*
X0074550Y0102374D01*
X0094287Y0102374D01*
X0101550Y0095111D01*
X0101550Y0092374D01*
X0106550Y0092374D02*
X0085050Y0113874D01*
X0085050Y0131374D01*
X0078774Y0137650D01*
X0078774Y0144006D01*
X0075474Y0147307D01*
X0075474Y0149441D01*
X0076550Y0150518D01*
X0076550Y0157374D01*
X0084564Y0157051D02*
X0084564Y0169388D01*
X0086550Y0171374D01*
X0086550Y0173374D01*
X0090050Y0172374D02*
X0090050Y0159445D01*
X0090636Y0158859D01*
X0090636Y0139365D01*
X0094650Y0135350D01*
X0094650Y0117850D01*
X0109626Y0102874D01*
X0124830Y0102874D01*
X0152830Y0074874D01*
X0155550Y0074874D01*
X0155550Y0074741D01*
X0153093Y0076874D02*
X0159050Y0076874D01*
X0159050Y0074874D01*
X0162550Y0075637D02*
X0159713Y0078474D01*
X0153950Y0078474D01*
X0126350Y0106074D01*
X0110952Y0106074D01*
X0097850Y0119176D01*
X0097850Y0157074D01*
X0096050Y0158874D01*
X0096050Y0169374D01*
X0095550Y0169874D01*
X0096479Y0169874D01*
X0098450Y0171711D02*
X0098450Y0175974D01*
X0098050Y0176374D01*
X0098450Y0171711D02*
X0099450Y0170711D01*
X0099450Y0119839D01*
X0111615Y0107674D01*
X0127013Y0107674D01*
X0154613Y0080074D01*
X0160375Y0080074D01*
X0165575Y0074874D01*
X0166050Y0074874D01*
X0169067Y0074874D02*
X0162267Y0081674D01*
X0155275Y0081674D01*
X0127675Y0109274D01*
X0112277Y0109274D01*
X0101050Y0120501D01*
X0101050Y0169374D01*
X0105050Y0169374D01*
X0105517Y0167241D02*
X0105934Y0167241D01*
X0108067Y0169374D01*
X0108550Y0169374D01*
X0109050Y0169374D01*
X0108250Y0168574D01*
X0110683Y0168490D02*
X0110683Y0171007D01*
X0111550Y0171874D01*
X0110683Y0168490D02*
X0104250Y0162057D01*
X0104250Y0121827D01*
X0113603Y0112474D01*
X0129001Y0112474D01*
X0156601Y0084874D01*
X0166567Y0084874D01*
X0176567Y0074874D01*
X0177050Y0074874D01*
X0176696Y0077007D02*
X0167230Y0086474D01*
X0157264Y0086474D01*
X0129664Y0114074D01*
X0114266Y0114074D01*
X0105850Y0122490D01*
X0105850Y0157674D01*
X0116733Y0168557D01*
X0117050Y0169344D01*
X0105517Y0167241D02*
X0102650Y0164374D01*
X0102650Y0121164D01*
X0112940Y0110874D01*
X0128338Y0110874D01*
X0155938Y0083274D01*
X0164667Y0083274D01*
X0173067Y0074874D01*
X0173550Y0074874D01*
X0170050Y0074874D02*
X0169067Y0074874D01*
X0162550Y0074874D02*
X0162550Y0075637D01*
X0153093Y0076874D02*
X0125493Y0104474D01*
X0110289Y0104474D01*
X0096250Y0118513D01*
X0096250Y0155174D01*
X0095550Y0155874D01*
X0089036Y0156551D02*
X0089036Y0158197D01*
X0087550Y0159682D01*
X0087550Y0168768D01*
X0083550Y0170637D02*
X0083550Y0175874D01*
X0081050Y0172374D02*
X0081050Y0137637D01*
X0086650Y0132037D01*
X0086650Y0114537D01*
X0106313Y0094874D01*
X0110050Y0094874D01*
X0112550Y0092374D01*
X0114450Y0096474D02*
X0106975Y0096474D01*
X0088250Y0115200D01*
X0088250Y0132700D01*
X0082964Y0137985D01*
X0082964Y0170051D01*
X0083550Y0170637D01*
X0084564Y0157051D02*
X0085450Y0156166D01*
X0085450Y0137762D01*
X0089850Y0133362D01*
X0089850Y0115862D01*
X0107638Y0098074D01*
X0118350Y0098074D01*
X0124050Y0092374D01*
X0118550Y0092374D02*
X0114450Y0096474D01*
X0108301Y0099674D02*
X0122750Y0099674D01*
X0130050Y0092374D01*
X0132183Y0093258D02*
X0132183Y0069741D01*
X0133550Y0068374D01*
X0132183Y0093258D02*
X0124167Y0101274D01*
X0108964Y0101274D01*
X0093050Y0117188D01*
X0093050Y0134688D01*
X0088650Y0139088D01*
X0088650Y0156166D01*
X0089036Y0156551D01*
X0087050Y0157374D02*
X0087050Y0138425D01*
X0091450Y0134025D01*
X0091450Y0116525D01*
X0108301Y0099674D01*
X0138050Y0110374D02*
X0138050Y0124874D01*
X0131550Y0131374D01*
X0173050Y0110374D02*
X0173050Y0099874D01*
X0162550Y0089374D01*
X0176696Y0077007D02*
X0177934Y0077007D01*
X0180067Y0074874D01*
X0180550Y0074874D01*
X0182050Y0076391D02*
X0182050Y0087874D01*
X0193550Y0099374D01*
X0193550Y0175391D01*
X0196533Y0178374D01*
X0217050Y0178374D01*
X0223550Y0184874D01*
X0227550Y0184874D01*
X0230567Y0184874D02*
X0243550Y0184874D01*
X0230567Y0184874D02*
X0220581Y0174888D01*
X0195550Y0174888D01*
X0195550Y0097874D01*
X0185550Y0087874D01*
X0185550Y0084874D01*
X0185050Y0084374D01*
X0185050Y0075654D01*
X0186750Y0073954D01*
X0186750Y0032776D01*
X0181050Y0027076D01*
X0181050Y0022874D01*
X0089050Y0022874D01*
X0092050Y0025374D02*
X0093650Y0025374D01*
X0094550Y0024474D01*
X0172650Y0024474D01*
X0181050Y0032874D01*
X0185150Y0036974D01*
X0185150Y0073291D01*
X0182050Y0076391D01*
X0173050Y0110374D02*
X0178050Y0118874D01*
X0200050Y0151874D02*
X0217550Y0167874D01*
X0200050Y0151874D02*
X0200050Y0039874D01*
X0267048Y0004968D02*
X0269050Y0006971D01*
X0269050Y0013374D01*
X0269704Y0014028D01*
X0269704Y0040028D01*
X0271550Y0041874D01*
X0271550Y0042374D01*
X0267048Y0004968D02*
X0126051Y0004446D01*
X0125979Y0004374D01*
X0095050Y0004374D01*
X0088550Y0010874D01*
X0088550Y0011374D01*
X0057050Y0119874D02*
X0057050Y0160374D01*
X0195310Y0174888D02*
X0195550Y0174888D01*
D20*
X0046050Y0076374D02*
X0046050Y0064874D01*
X0046050Y0076374D02*
X0043550Y0076374D01*
X0043550Y0085374D01*
M02*
