%
M48
M72
T01C0.00787
T02C0.00984
T03C0.01181
T04C0.01378
T05C0.01969
T06C0.02165
T07C0.02756
T08C0.04000
T09C0.12500
%
T01
X18310Y69374
X22050Y69374
X25790Y69374
X115944Y40913
X118700Y43669
X121456Y40913
X124211Y43669
X126967Y40913
X124211Y38157
X121456Y35402
X124211Y32646
X126967Y35402
X118700Y38157
X115944Y35402
X118700Y32646
T02
X68987Y115406
X68987Y119343
X65050Y119343
X65050Y115406
X61113Y115406
X61113Y119343
T03
X90562Y96339
X73239Y67598
X56977Y56503
X67259Y48512
X51192Y43583
X76550Y157374
X87050Y157374
X87550Y168768
X86550Y173374
X83550Y175874
X95550Y169874
X101550Y182374
X114050Y169374
X117050Y169344
X23050Y224374
X14050Y221374
X9050Y214374
X219550Y176874
X231550Y78874
X234050Y78874
X242550Y59874
X245050Y59874
T04
X222050Y81874
X213727Y90874
X204050Y81874
X209050Y67874
X205050Y48874
X200050Y39874
X180550Y74874
X177050Y74874
X173550Y74874
X170050Y74874
X166050Y74874
X162550Y74874
X159050Y74874
X155550Y74741
X133550Y68374
X130050Y92374
X124050Y92374
X118550Y92374
X112550Y92374
X106550Y92374
X97050Y84874
X88550Y84874
X73310Y62610
X71050Y57374
X75550Y45874
X73550Y39374
X89050Y22874
X92050Y25374
X68050Y14374
X67550Y10374
X64050Y14107
X47550Y46374
X47550Y49874
X95550Y155874
X105050Y169374
X108550Y169374
X111550Y171874
X98050Y176374
X90050Y172374
X81050Y172374
X206991Y144122
X206991Y140185
X210928Y140185
X214865Y140185
X214865Y144122
X210928Y144122
X214865Y148059
X218802Y148059
X218802Y144122
X218802Y140185
X222739Y140185
X226676Y140185
X226676Y144122
X222739Y144122
X226676Y148059
X230613Y148059
X234550Y148059
X238487Y148059
X238487Y144122
X238487Y140185
X234550Y140185
X230613Y140185
X230613Y144122
X234550Y144122
X234550Y136248
X230613Y136248
X230613Y132311
X230613Y128374
X234550Y128374
X238487Y128374
X238487Y132311
X234550Y132311
X238487Y136248
X242424Y136248
X246361Y136248
X250298Y136248
X250298Y132311
X246361Y132311
X246361Y128374
X242424Y128374
X242424Y132311
X250298Y128374
X250298Y124437
X246361Y124437
X242424Y124437
X242424Y120500
X246361Y120500
X250298Y120500
X250298Y116563
X246361Y116563
X242424Y116563
X242424Y112626
X246361Y112626
X250298Y112626
X250298Y108689
X254235Y108689
X254235Y112626
X254235Y116563
X258172Y116563
X258172Y112626
X262109Y112626
X262109Y116563
X262109Y120500
X258172Y120500
X254235Y120500
X254235Y124437
X258172Y124437
X262109Y124437
X262109Y128374
X258172Y128374
X254235Y128374
X254235Y132311
X258172Y132311
X262109Y132311
X262109Y136248
X258172Y136248
X254235Y136248
X254235Y140185
X254235Y144122
X258172Y144122
X258172Y140185
X262109Y140185
X262109Y144122
X254235Y148059
X250298Y148059
X250298Y144122
X250298Y140185
X246361Y140185
X242424Y140185
X242424Y144122
X246361Y144122
X242424Y148059
X226676Y136248
X222739Y136248
X218802Y136248
X218802Y132311
X222739Y132311
X222739Y128374
X226676Y128374
X226676Y132311
X218802Y128374
X218802Y124437
X222739Y124437
X226676Y124437
X226676Y120500
X222739Y120500
X218802Y120500
X218802Y116563
X222739Y116563
X226676Y116563
X226676Y112626
X222739Y112626
X218802Y112626
X218802Y108689
X214865Y108689
X214865Y112626
X214865Y116563
X210928Y116563
X210928Y112626
X206991Y112626
X206991Y116563
X206991Y120500
X210928Y120500
X214865Y120500
X214865Y124437
X210928Y124437
X206991Y124437
X206991Y128374
X210928Y128374
X214865Y128374
X214865Y132311
X210928Y132311
X206991Y132311
X206991Y136248
X210928Y136248
X214865Y136248
X230613Y124437
X230613Y120500
X234550Y120500
X234550Y124437
X238487Y124437
X238487Y120500
X238487Y116563
X234550Y116563
X230613Y116563
X230613Y112626
X234550Y112626
X238487Y112626
X238487Y108689
X234550Y108689
X230613Y108689
X226676Y108689
X242424Y108689
X278050Y66374
X260050Y15374
X247050Y9374
X217550Y167874
X227550Y184874
X231550Y195874
X243550Y184874
X244550Y195874
X264550Y177874
T05
X185550Y161874
X147050Y176374
X141050Y164374
X128050Y155374
X131550Y131374
X120050Y118874
X138050Y110374
X162550Y89374
X140550Y70874
X143550Y66874
X169550Y48374
X143050Y12874
X139050Y12874
X135050Y12874
X109050Y19874
X104050Y19874
X88550Y11374
X69550Y36374
X75550Y49874
X49050Y32874
X34050Y29874
X46050Y64874
X48550Y81874
X52050Y81874
X43550Y85374
X34550Y91874
X37550Y94374
X49050Y98874
X52550Y98874
X24050Y116874
X20050Y116874
X47050Y134374
X52550Y131098
X52050Y123374
X48550Y123374
X73050Y124374
X77050Y124374
X81050Y124374
X78050Y148374
X57050Y160374
X30050Y166374
X8050Y164374
X8050Y160374
X8050Y168374
X17050Y212374
X22050Y236374
X43050Y212374
X53050Y228917
X70050Y228374
X70050Y224374
X177050Y123874
X178050Y118874
X101550Y92374
X271550Y42374
X282050Y46374
X282050Y50374
X282050Y54374
X282050Y58374
T06
X164050Y138374
X160050Y138374
X156050Y138374
X157550Y157874
X153050Y157874
X162050Y157874
X131050Y136374
X123550Y122374
X115050Y122374
X110050Y136374
X76050Y139374
X64050Y145374
X35050Y138374
X45050Y173374
X63050Y103374
X63369Y77217
X38550Y74374
X28050Y50874
X24050Y50874
X29050Y40374
X26050Y24874
X5050Y69374
X100896Y68886
X122550Y63374
X136550Y50874
T07
X48219Y20520
X31881Y20520
T08
X181050Y22874
X181050Y12874
X181050Y32874
X181050Y42874
X181050Y52874
X181050Y62874
T09
X12050Y12374
X12050Y242374
X282050Y242374
X282050Y12374
M30
