G75*
%MOIN*%
%OFA0B0*%
%FSLAX25Y25*%
%IPPOS*%
%LPD*%
%AMOC8*
5,1,8,0,0,1.08239X$1,22.5*
%
%ADD10C,0.00000*%
%ADD11C,0.00500*%
%ADD12C,0.00400*%
%ADD13C,0.00300*%
%ADD14C,0.00200*%
%ADD15C,0.00600*%
%ADD16R,0.05709X0.02953*%
%ADD17R,0.02953X0.05709*%
%ADD18R,0.01600X0.03400*%
%ADD19R,0.00787X0.00591*%
%ADD20R,0.00197X0.00197*%
%ADD21R,0.00197X0.01476*%
%ADD22R,0.00787X0.01181*%
%ADD23R,0.03543X0.00886*%
%ADD24R,0.00787X0.01969*%
%ADD25R,0.02165X0.00886*%
%ADD26R,0.00394X0.00394*%
%ADD27R,0.00984X0.00984*%
%ADD28C,0.00800*%
%ADD29C,0.00100*%
%ADD30C,0.00787*%
%ADD31R,0.02953X0.06693*%
%ADD32R,0.01969X0.03740*%
%ADD33R,0.03740X0.01969*%
%ADD34R,0.03300X0.00800*%
%ADD35R,0.03400X0.01600*%
%ADD36R,0.02000X0.02000*%
%ADD37R,0.01800X0.02300*%
%ADD38R,0.05512X0.02559*%
%ADD39C,0.00010*%
%ADD40R,0.01378X0.01673*%
%ADD41C,0.02362*%
%ADD42C,0.00040*%
%ADD43C,0.00020*%
%ADD44C,0.00276*%
%ADD45R,0.01575X0.00787*%
%ADD46R,0.00787X0.01575*%
%ADD47R,0.06693X0.02953*%
%ADD48R,0.01673X0.01378*%
%ADD49R,0.01772X0.01575*%
%ADD50R,0.01476X0.04528*%
%ADD51R,0.02300X0.01800*%
%ADD52C,0.02362*%
D10*
X0005800Y0012374D02*
X0005802Y0012532D01*
X0005808Y0012689D01*
X0005818Y0012847D01*
X0005832Y0013004D01*
X0005850Y0013160D01*
X0005871Y0013317D01*
X0005897Y0013472D01*
X0005927Y0013627D01*
X0005960Y0013781D01*
X0005998Y0013934D01*
X0006039Y0014087D01*
X0006084Y0014238D01*
X0006133Y0014388D01*
X0006186Y0014536D01*
X0006242Y0014684D01*
X0006303Y0014829D01*
X0006366Y0014974D01*
X0006434Y0015116D01*
X0006505Y0015257D01*
X0006579Y0015396D01*
X0006657Y0015533D01*
X0006739Y0015668D01*
X0006823Y0015801D01*
X0006912Y0015932D01*
X0007003Y0016060D01*
X0007098Y0016187D01*
X0007195Y0016310D01*
X0007296Y0016432D01*
X0007400Y0016550D01*
X0007507Y0016666D01*
X0007617Y0016779D01*
X0007729Y0016890D01*
X0007845Y0016997D01*
X0007963Y0017102D01*
X0008083Y0017204D01*
X0008206Y0017302D01*
X0008332Y0017398D01*
X0008460Y0017490D01*
X0008590Y0017579D01*
X0008722Y0017665D01*
X0008857Y0017747D01*
X0008994Y0017826D01*
X0009132Y0017901D01*
X0009272Y0017973D01*
X0009415Y0018041D01*
X0009558Y0018106D01*
X0009704Y0018167D01*
X0009851Y0018224D01*
X0009999Y0018278D01*
X0010149Y0018328D01*
X0010299Y0018374D01*
X0010451Y0018416D01*
X0010604Y0018455D01*
X0010758Y0018489D01*
X0010913Y0018520D01*
X0011068Y0018546D01*
X0011224Y0018569D01*
X0011381Y0018588D01*
X0011538Y0018603D01*
X0011695Y0018614D01*
X0011853Y0018621D01*
X0012011Y0018624D01*
X0012168Y0018623D01*
X0012326Y0018618D01*
X0012483Y0018609D01*
X0012641Y0018596D01*
X0012797Y0018579D01*
X0012954Y0018558D01*
X0013109Y0018534D01*
X0013264Y0018505D01*
X0013419Y0018472D01*
X0013572Y0018436D01*
X0013725Y0018395D01*
X0013876Y0018351D01*
X0014026Y0018303D01*
X0014175Y0018252D01*
X0014323Y0018196D01*
X0014469Y0018137D01*
X0014614Y0018074D01*
X0014757Y0018007D01*
X0014898Y0017937D01*
X0015037Y0017864D01*
X0015175Y0017787D01*
X0015311Y0017706D01*
X0015444Y0017622D01*
X0015575Y0017535D01*
X0015704Y0017444D01*
X0015831Y0017350D01*
X0015956Y0017253D01*
X0016077Y0017153D01*
X0016197Y0017050D01*
X0016313Y0016944D01*
X0016427Y0016835D01*
X0016539Y0016723D01*
X0016647Y0016609D01*
X0016752Y0016491D01*
X0016855Y0016371D01*
X0016954Y0016249D01*
X0017050Y0016124D01*
X0017143Y0015996D01*
X0017233Y0015867D01*
X0017319Y0015735D01*
X0017403Y0015601D01*
X0017482Y0015465D01*
X0017559Y0015327D01*
X0017631Y0015187D01*
X0017700Y0015045D01*
X0017766Y0014902D01*
X0017828Y0014757D01*
X0017886Y0014610D01*
X0017941Y0014462D01*
X0017992Y0014313D01*
X0018039Y0014162D01*
X0018082Y0014011D01*
X0018121Y0013858D01*
X0018157Y0013704D01*
X0018188Y0013550D01*
X0018216Y0013395D01*
X0018240Y0013239D01*
X0018260Y0013082D01*
X0018276Y0012925D01*
X0018288Y0012768D01*
X0018296Y0012611D01*
X0018300Y0012453D01*
X0018300Y0012295D01*
X0018296Y0012137D01*
X0018288Y0011980D01*
X0018276Y0011823D01*
X0018260Y0011666D01*
X0018240Y0011509D01*
X0018216Y0011353D01*
X0018188Y0011198D01*
X0018157Y0011044D01*
X0018121Y0010890D01*
X0018082Y0010737D01*
X0018039Y0010586D01*
X0017992Y0010435D01*
X0017941Y0010286D01*
X0017886Y0010138D01*
X0017828Y0009991D01*
X0017766Y0009846D01*
X0017700Y0009703D01*
X0017631Y0009561D01*
X0017559Y0009421D01*
X0017482Y0009283D01*
X0017403Y0009147D01*
X0017319Y0009013D01*
X0017233Y0008881D01*
X0017143Y0008752D01*
X0017050Y0008624D01*
X0016954Y0008499D01*
X0016855Y0008377D01*
X0016752Y0008257D01*
X0016647Y0008139D01*
X0016539Y0008025D01*
X0016427Y0007913D01*
X0016313Y0007804D01*
X0016197Y0007698D01*
X0016077Y0007595D01*
X0015956Y0007495D01*
X0015831Y0007398D01*
X0015704Y0007304D01*
X0015575Y0007213D01*
X0015444Y0007126D01*
X0015311Y0007042D01*
X0015175Y0006961D01*
X0015037Y0006884D01*
X0014898Y0006811D01*
X0014757Y0006741D01*
X0014614Y0006674D01*
X0014469Y0006611D01*
X0014323Y0006552D01*
X0014175Y0006496D01*
X0014026Y0006445D01*
X0013876Y0006397D01*
X0013725Y0006353D01*
X0013572Y0006312D01*
X0013419Y0006276D01*
X0013264Y0006243D01*
X0013109Y0006214D01*
X0012954Y0006190D01*
X0012797Y0006169D01*
X0012641Y0006152D01*
X0012483Y0006139D01*
X0012326Y0006130D01*
X0012168Y0006125D01*
X0012011Y0006124D01*
X0011853Y0006127D01*
X0011695Y0006134D01*
X0011538Y0006145D01*
X0011381Y0006160D01*
X0011224Y0006179D01*
X0011068Y0006202D01*
X0010913Y0006228D01*
X0010758Y0006259D01*
X0010604Y0006293D01*
X0010451Y0006332D01*
X0010299Y0006374D01*
X0010149Y0006420D01*
X0009999Y0006470D01*
X0009851Y0006524D01*
X0009704Y0006581D01*
X0009558Y0006642D01*
X0009415Y0006707D01*
X0009272Y0006775D01*
X0009132Y0006847D01*
X0008994Y0006922D01*
X0008857Y0007001D01*
X0008722Y0007083D01*
X0008590Y0007169D01*
X0008460Y0007258D01*
X0008332Y0007350D01*
X0008206Y0007446D01*
X0008083Y0007544D01*
X0007963Y0007646D01*
X0007845Y0007751D01*
X0007729Y0007858D01*
X0007617Y0007969D01*
X0007507Y0008082D01*
X0007400Y0008198D01*
X0007296Y0008316D01*
X0007195Y0008438D01*
X0007098Y0008561D01*
X0007003Y0008688D01*
X0006912Y0008816D01*
X0006823Y0008947D01*
X0006739Y0009080D01*
X0006657Y0009215D01*
X0006579Y0009352D01*
X0006505Y0009491D01*
X0006434Y0009632D01*
X0006366Y0009774D01*
X0006303Y0009919D01*
X0006242Y0010064D01*
X0006186Y0010212D01*
X0006133Y0010360D01*
X0006084Y0010510D01*
X0006039Y0010661D01*
X0005998Y0010814D01*
X0005960Y0010967D01*
X0005927Y0011121D01*
X0005897Y0011276D01*
X0005871Y0011431D01*
X0005850Y0011588D01*
X0005832Y0011744D01*
X0005818Y0011901D01*
X0005808Y0012059D01*
X0005802Y0012216D01*
X0005800Y0012374D01*
X0030503Y0020520D02*
X0030505Y0020594D01*
X0030511Y0020668D01*
X0030521Y0020741D01*
X0030535Y0020814D01*
X0030552Y0020886D01*
X0030574Y0020956D01*
X0030599Y0021026D01*
X0030628Y0021094D01*
X0030661Y0021160D01*
X0030697Y0021225D01*
X0030737Y0021287D01*
X0030779Y0021348D01*
X0030825Y0021406D01*
X0030874Y0021461D01*
X0030926Y0021514D01*
X0030981Y0021564D01*
X0031038Y0021610D01*
X0031098Y0021654D01*
X0031160Y0021694D01*
X0031224Y0021731D01*
X0031290Y0021765D01*
X0031358Y0021795D01*
X0031427Y0021821D01*
X0031498Y0021844D01*
X0031569Y0021862D01*
X0031642Y0021877D01*
X0031715Y0021888D01*
X0031789Y0021895D01*
X0031863Y0021898D01*
X0031936Y0021897D01*
X0032010Y0021892D01*
X0032084Y0021883D01*
X0032157Y0021870D01*
X0032229Y0021853D01*
X0032300Y0021833D01*
X0032370Y0021808D01*
X0032438Y0021780D01*
X0032505Y0021749D01*
X0032570Y0021713D01*
X0032633Y0021675D01*
X0032694Y0021633D01*
X0032753Y0021587D01*
X0032809Y0021539D01*
X0032862Y0021488D01*
X0032912Y0021434D01*
X0032960Y0021377D01*
X0033004Y0021318D01*
X0033046Y0021256D01*
X0033084Y0021193D01*
X0033118Y0021127D01*
X0033149Y0021060D01*
X0033176Y0020991D01*
X0033199Y0020921D01*
X0033219Y0020850D01*
X0033235Y0020777D01*
X0033247Y0020704D01*
X0033255Y0020631D01*
X0033259Y0020557D01*
X0033259Y0020483D01*
X0033255Y0020409D01*
X0033247Y0020336D01*
X0033235Y0020263D01*
X0033219Y0020190D01*
X0033199Y0020119D01*
X0033176Y0020049D01*
X0033149Y0019980D01*
X0033118Y0019913D01*
X0033084Y0019847D01*
X0033046Y0019784D01*
X0033004Y0019722D01*
X0032960Y0019663D01*
X0032912Y0019606D01*
X0032862Y0019552D01*
X0032809Y0019501D01*
X0032753Y0019453D01*
X0032694Y0019407D01*
X0032633Y0019365D01*
X0032570Y0019327D01*
X0032505Y0019291D01*
X0032438Y0019260D01*
X0032370Y0019232D01*
X0032300Y0019207D01*
X0032229Y0019187D01*
X0032157Y0019170D01*
X0032084Y0019157D01*
X0032010Y0019148D01*
X0031936Y0019143D01*
X0031863Y0019142D01*
X0031789Y0019145D01*
X0031715Y0019152D01*
X0031642Y0019163D01*
X0031569Y0019178D01*
X0031498Y0019196D01*
X0031427Y0019219D01*
X0031358Y0019245D01*
X0031290Y0019275D01*
X0031224Y0019309D01*
X0031160Y0019346D01*
X0031098Y0019386D01*
X0031038Y0019430D01*
X0030981Y0019476D01*
X0030926Y0019526D01*
X0030874Y0019579D01*
X0030825Y0019634D01*
X0030779Y0019692D01*
X0030737Y0019753D01*
X0030697Y0019815D01*
X0030661Y0019880D01*
X0030628Y0019946D01*
X0030599Y0020014D01*
X0030574Y0020084D01*
X0030552Y0020154D01*
X0030535Y0020226D01*
X0030521Y0020299D01*
X0030511Y0020372D01*
X0030505Y0020446D01*
X0030503Y0020520D01*
X0046841Y0020520D02*
X0046843Y0020594D01*
X0046849Y0020668D01*
X0046859Y0020741D01*
X0046873Y0020814D01*
X0046890Y0020886D01*
X0046912Y0020956D01*
X0046937Y0021026D01*
X0046966Y0021094D01*
X0046999Y0021160D01*
X0047035Y0021225D01*
X0047075Y0021287D01*
X0047117Y0021348D01*
X0047163Y0021406D01*
X0047212Y0021461D01*
X0047264Y0021514D01*
X0047319Y0021564D01*
X0047376Y0021610D01*
X0047436Y0021654D01*
X0047498Y0021694D01*
X0047562Y0021731D01*
X0047628Y0021765D01*
X0047696Y0021795D01*
X0047765Y0021821D01*
X0047836Y0021844D01*
X0047907Y0021862D01*
X0047980Y0021877D01*
X0048053Y0021888D01*
X0048127Y0021895D01*
X0048201Y0021898D01*
X0048274Y0021897D01*
X0048348Y0021892D01*
X0048422Y0021883D01*
X0048495Y0021870D01*
X0048567Y0021853D01*
X0048638Y0021833D01*
X0048708Y0021808D01*
X0048776Y0021780D01*
X0048843Y0021749D01*
X0048908Y0021713D01*
X0048971Y0021675D01*
X0049032Y0021633D01*
X0049091Y0021587D01*
X0049147Y0021539D01*
X0049200Y0021488D01*
X0049250Y0021434D01*
X0049298Y0021377D01*
X0049342Y0021318D01*
X0049384Y0021256D01*
X0049422Y0021193D01*
X0049456Y0021127D01*
X0049487Y0021060D01*
X0049514Y0020991D01*
X0049537Y0020921D01*
X0049557Y0020850D01*
X0049573Y0020777D01*
X0049585Y0020704D01*
X0049593Y0020631D01*
X0049597Y0020557D01*
X0049597Y0020483D01*
X0049593Y0020409D01*
X0049585Y0020336D01*
X0049573Y0020263D01*
X0049557Y0020190D01*
X0049537Y0020119D01*
X0049514Y0020049D01*
X0049487Y0019980D01*
X0049456Y0019913D01*
X0049422Y0019847D01*
X0049384Y0019784D01*
X0049342Y0019722D01*
X0049298Y0019663D01*
X0049250Y0019606D01*
X0049200Y0019552D01*
X0049147Y0019501D01*
X0049091Y0019453D01*
X0049032Y0019407D01*
X0048971Y0019365D01*
X0048908Y0019327D01*
X0048843Y0019291D01*
X0048776Y0019260D01*
X0048708Y0019232D01*
X0048638Y0019207D01*
X0048567Y0019187D01*
X0048495Y0019170D01*
X0048422Y0019157D01*
X0048348Y0019148D01*
X0048274Y0019143D01*
X0048201Y0019142D01*
X0048127Y0019145D01*
X0048053Y0019152D01*
X0047980Y0019163D01*
X0047907Y0019178D01*
X0047836Y0019196D01*
X0047765Y0019219D01*
X0047696Y0019245D01*
X0047628Y0019275D01*
X0047562Y0019309D01*
X0047498Y0019346D01*
X0047436Y0019386D01*
X0047376Y0019430D01*
X0047319Y0019476D01*
X0047264Y0019526D01*
X0047212Y0019579D01*
X0047163Y0019634D01*
X0047117Y0019692D01*
X0047075Y0019753D01*
X0047035Y0019815D01*
X0046999Y0019880D01*
X0046966Y0019946D01*
X0046937Y0020014D01*
X0046912Y0020084D01*
X0046890Y0020154D01*
X0046873Y0020226D01*
X0046859Y0020299D01*
X0046849Y0020372D01*
X0046843Y0020446D01*
X0046841Y0020520D01*
X0275800Y0012374D02*
X0275802Y0012532D01*
X0275808Y0012689D01*
X0275818Y0012847D01*
X0275832Y0013004D01*
X0275850Y0013160D01*
X0275871Y0013317D01*
X0275897Y0013472D01*
X0275927Y0013627D01*
X0275960Y0013781D01*
X0275998Y0013934D01*
X0276039Y0014087D01*
X0276084Y0014238D01*
X0276133Y0014388D01*
X0276186Y0014536D01*
X0276242Y0014684D01*
X0276303Y0014829D01*
X0276366Y0014974D01*
X0276434Y0015116D01*
X0276505Y0015257D01*
X0276579Y0015396D01*
X0276657Y0015533D01*
X0276739Y0015668D01*
X0276823Y0015801D01*
X0276912Y0015932D01*
X0277003Y0016060D01*
X0277098Y0016187D01*
X0277195Y0016310D01*
X0277296Y0016432D01*
X0277400Y0016550D01*
X0277507Y0016666D01*
X0277617Y0016779D01*
X0277729Y0016890D01*
X0277845Y0016997D01*
X0277963Y0017102D01*
X0278083Y0017204D01*
X0278206Y0017302D01*
X0278332Y0017398D01*
X0278460Y0017490D01*
X0278590Y0017579D01*
X0278722Y0017665D01*
X0278857Y0017747D01*
X0278994Y0017826D01*
X0279132Y0017901D01*
X0279272Y0017973D01*
X0279415Y0018041D01*
X0279558Y0018106D01*
X0279704Y0018167D01*
X0279851Y0018224D01*
X0279999Y0018278D01*
X0280149Y0018328D01*
X0280299Y0018374D01*
X0280451Y0018416D01*
X0280604Y0018455D01*
X0280758Y0018489D01*
X0280913Y0018520D01*
X0281068Y0018546D01*
X0281224Y0018569D01*
X0281381Y0018588D01*
X0281538Y0018603D01*
X0281695Y0018614D01*
X0281853Y0018621D01*
X0282011Y0018624D01*
X0282168Y0018623D01*
X0282326Y0018618D01*
X0282483Y0018609D01*
X0282641Y0018596D01*
X0282797Y0018579D01*
X0282954Y0018558D01*
X0283109Y0018534D01*
X0283264Y0018505D01*
X0283419Y0018472D01*
X0283572Y0018436D01*
X0283725Y0018395D01*
X0283876Y0018351D01*
X0284026Y0018303D01*
X0284175Y0018252D01*
X0284323Y0018196D01*
X0284469Y0018137D01*
X0284614Y0018074D01*
X0284757Y0018007D01*
X0284898Y0017937D01*
X0285037Y0017864D01*
X0285175Y0017787D01*
X0285311Y0017706D01*
X0285444Y0017622D01*
X0285575Y0017535D01*
X0285704Y0017444D01*
X0285831Y0017350D01*
X0285956Y0017253D01*
X0286077Y0017153D01*
X0286197Y0017050D01*
X0286313Y0016944D01*
X0286427Y0016835D01*
X0286539Y0016723D01*
X0286647Y0016609D01*
X0286752Y0016491D01*
X0286855Y0016371D01*
X0286954Y0016249D01*
X0287050Y0016124D01*
X0287143Y0015996D01*
X0287233Y0015867D01*
X0287319Y0015735D01*
X0287403Y0015601D01*
X0287482Y0015465D01*
X0287559Y0015327D01*
X0287631Y0015187D01*
X0287700Y0015045D01*
X0287766Y0014902D01*
X0287828Y0014757D01*
X0287886Y0014610D01*
X0287941Y0014462D01*
X0287992Y0014313D01*
X0288039Y0014162D01*
X0288082Y0014011D01*
X0288121Y0013858D01*
X0288157Y0013704D01*
X0288188Y0013550D01*
X0288216Y0013395D01*
X0288240Y0013239D01*
X0288260Y0013082D01*
X0288276Y0012925D01*
X0288288Y0012768D01*
X0288296Y0012611D01*
X0288300Y0012453D01*
X0288300Y0012295D01*
X0288296Y0012137D01*
X0288288Y0011980D01*
X0288276Y0011823D01*
X0288260Y0011666D01*
X0288240Y0011509D01*
X0288216Y0011353D01*
X0288188Y0011198D01*
X0288157Y0011044D01*
X0288121Y0010890D01*
X0288082Y0010737D01*
X0288039Y0010586D01*
X0287992Y0010435D01*
X0287941Y0010286D01*
X0287886Y0010138D01*
X0287828Y0009991D01*
X0287766Y0009846D01*
X0287700Y0009703D01*
X0287631Y0009561D01*
X0287559Y0009421D01*
X0287482Y0009283D01*
X0287403Y0009147D01*
X0287319Y0009013D01*
X0287233Y0008881D01*
X0287143Y0008752D01*
X0287050Y0008624D01*
X0286954Y0008499D01*
X0286855Y0008377D01*
X0286752Y0008257D01*
X0286647Y0008139D01*
X0286539Y0008025D01*
X0286427Y0007913D01*
X0286313Y0007804D01*
X0286197Y0007698D01*
X0286077Y0007595D01*
X0285956Y0007495D01*
X0285831Y0007398D01*
X0285704Y0007304D01*
X0285575Y0007213D01*
X0285444Y0007126D01*
X0285311Y0007042D01*
X0285175Y0006961D01*
X0285037Y0006884D01*
X0284898Y0006811D01*
X0284757Y0006741D01*
X0284614Y0006674D01*
X0284469Y0006611D01*
X0284323Y0006552D01*
X0284175Y0006496D01*
X0284026Y0006445D01*
X0283876Y0006397D01*
X0283725Y0006353D01*
X0283572Y0006312D01*
X0283419Y0006276D01*
X0283264Y0006243D01*
X0283109Y0006214D01*
X0282954Y0006190D01*
X0282797Y0006169D01*
X0282641Y0006152D01*
X0282483Y0006139D01*
X0282326Y0006130D01*
X0282168Y0006125D01*
X0282011Y0006124D01*
X0281853Y0006127D01*
X0281695Y0006134D01*
X0281538Y0006145D01*
X0281381Y0006160D01*
X0281224Y0006179D01*
X0281068Y0006202D01*
X0280913Y0006228D01*
X0280758Y0006259D01*
X0280604Y0006293D01*
X0280451Y0006332D01*
X0280299Y0006374D01*
X0280149Y0006420D01*
X0279999Y0006470D01*
X0279851Y0006524D01*
X0279704Y0006581D01*
X0279558Y0006642D01*
X0279415Y0006707D01*
X0279272Y0006775D01*
X0279132Y0006847D01*
X0278994Y0006922D01*
X0278857Y0007001D01*
X0278722Y0007083D01*
X0278590Y0007169D01*
X0278460Y0007258D01*
X0278332Y0007350D01*
X0278206Y0007446D01*
X0278083Y0007544D01*
X0277963Y0007646D01*
X0277845Y0007751D01*
X0277729Y0007858D01*
X0277617Y0007969D01*
X0277507Y0008082D01*
X0277400Y0008198D01*
X0277296Y0008316D01*
X0277195Y0008438D01*
X0277098Y0008561D01*
X0277003Y0008688D01*
X0276912Y0008816D01*
X0276823Y0008947D01*
X0276739Y0009080D01*
X0276657Y0009215D01*
X0276579Y0009352D01*
X0276505Y0009491D01*
X0276434Y0009632D01*
X0276366Y0009774D01*
X0276303Y0009919D01*
X0276242Y0010064D01*
X0276186Y0010212D01*
X0276133Y0010360D01*
X0276084Y0010510D01*
X0276039Y0010661D01*
X0275998Y0010814D01*
X0275960Y0010967D01*
X0275927Y0011121D01*
X0275897Y0011276D01*
X0275871Y0011431D01*
X0275850Y0011588D01*
X0275832Y0011744D01*
X0275818Y0011901D01*
X0275808Y0012059D01*
X0275802Y0012216D01*
X0275800Y0012374D01*
X0052066Y0228917D02*
X0052068Y0228979D01*
X0052074Y0229042D01*
X0052084Y0229103D01*
X0052098Y0229164D01*
X0052115Y0229224D01*
X0052136Y0229283D01*
X0052162Y0229340D01*
X0052190Y0229395D01*
X0052222Y0229449D01*
X0052258Y0229500D01*
X0052296Y0229550D01*
X0052338Y0229596D01*
X0052382Y0229640D01*
X0052430Y0229681D01*
X0052479Y0229719D01*
X0052531Y0229753D01*
X0052585Y0229784D01*
X0052641Y0229812D01*
X0052699Y0229836D01*
X0052758Y0229857D01*
X0052818Y0229873D01*
X0052879Y0229886D01*
X0052941Y0229895D01*
X0053003Y0229900D01*
X0053066Y0229901D01*
X0053128Y0229898D01*
X0053190Y0229891D01*
X0053252Y0229880D01*
X0053312Y0229865D01*
X0053372Y0229847D01*
X0053430Y0229825D01*
X0053487Y0229799D01*
X0053542Y0229769D01*
X0053595Y0229736D01*
X0053646Y0229700D01*
X0053694Y0229661D01*
X0053740Y0229618D01*
X0053783Y0229573D01*
X0053823Y0229525D01*
X0053860Y0229475D01*
X0053894Y0229422D01*
X0053925Y0229368D01*
X0053951Y0229312D01*
X0053975Y0229254D01*
X0053994Y0229194D01*
X0054010Y0229134D01*
X0054022Y0229072D01*
X0054030Y0229011D01*
X0054034Y0228948D01*
X0054034Y0228886D01*
X0054030Y0228823D01*
X0054022Y0228762D01*
X0054010Y0228700D01*
X0053994Y0228640D01*
X0053975Y0228580D01*
X0053951Y0228522D01*
X0053925Y0228466D01*
X0053894Y0228412D01*
X0053860Y0228359D01*
X0053823Y0228309D01*
X0053783Y0228261D01*
X0053740Y0228216D01*
X0053694Y0228173D01*
X0053646Y0228134D01*
X0053595Y0228098D01*
X0053542Y0228065D01*
X0053487Y0228035D01*
X0053430Y0228009D01*
X0053372Y0227987D01*
X0053312Y0227969D01*
X0053252Y0227954D01*
X0053190Y0227943D01*
X0053128Y0227936D01*
X0053066Y0227933D01*
X0053003Y0227934D01*
X0052941Y0227939D01*
X0052879Y0227948D01*
X0052818Y0227961D01*
X0052758Y0227977D01*
X0052699Y0227998D01*
X0052641Y0228022D01*
X0052585Y0228050D01*
X0052531Y0228081D01*
X0052479Y0228115D01*
X0052430Y0228153D01*
X0052382Y0228194D01*
X0052338Y0228238D01*
X0052296Y0228284D01*
X0052258Y0228334D01*
X0052222Y0228385D01*
X0052190Y0228439D01*
X0052162Y0228494D01*
X0052136Y0228551D01*
X0052115Y0228610D01*
X0052098Y0228670D01*
X0052084Y0228731D01*
X0052074Y0228792D01*
X0052068Y0228855D01*
X0052066Y0228917D01*
X0005800Y0242374D02*
X0005802Y0242532D01*
X0005808Y0242689D01*
X0005818Y0242847D01*
X0005832Y0243004D01*
X0005850Y0243160D01*
X0005871Y0243317D01*
X0005897Y0243472D01*
X0005927Y0243627D01*
X0005960Y0243781D01*
X0005998Y0243934D01*
X0006039Y0244087D01*
X0006084Y0244238D01*
X0006133Y0244388D01*
X0006186Y0244536D01*
X0006242Y0244684D01*
X0006303Y0244829D01*
X0006366Y0244974D01*
X0006434Y0245116D01*
X0006505Y0245257D01*
X0006579Y0245396D01*
X0006657Y0245533D01*
X0006739Y0245668D01*
X0006823Y0245801D01*
X0006912Y0245932D01*
X0007003Y0246060D01*
X0007098Y0246187D01*
X0007195Y0246310D01*
X0007296Y0246432D01*
X0007400Y0246550D01*
X0007507Y0246666D01*
X0007617Y0246779D01*
X0007729Y0246890D01*
X0007845Y0246997D01*
X0007963Y0247102D01*
X0008083Y0247204D01*
X0008206Y0247302D01*
X0008332Y0247398D01*
X0008460Y0247490D01*
X0008590Y0247579D01*
X0008722Y0247665D01*
X0008857Y0247747D01*
X0008994Y0247826D01*
X0009132Y0247901D01*
X0009272Y0247973D01*
X0009415Y0248041D01*
X0009558Y0248106D01*
X0009704Y0248167D01*
X0009851Y0248224D01*
X0009999Y0248278D01*
X0010149Y0248328D01*
X0010299Y0248374D01*
X0010451Y0248416D01*
X0010604Y0248455D01*
X0010758Y0248489D01*
X0010913Y0248520D01*
X0011068Y0248546D01*
X0011224Y0248569D01*
X0011381Y0248588D01*
X0011538Y0248603D01*
X0011695Y0248614D01*
X0011853Y0248621D01*
X0012011Y0248624D01*
X0012168Y0248623D01*
X0012326Y0248618D01*
X0012483Y0248609D01*
X0012641Y0248596D01*
X0012797Y0248579D01*
X0012954Y0248558D01*
X0013109Y0248534D01*
X0013264Y0248505D01*
X0013419Y0248472D01*
X0013572Y0248436D01*
X0013725Y0248395D01*
X0013876Y0248351D01*
X0014026Y0248303D01*
X0014175Y0248252D01*
X0014323Y0248196D01*
X0014469Y0248137D01*
X0014614Y0248074D01*
X0014757Y0248007D01*
X0014898Y0247937D01*
X0015037Y0247864D01*
X0015175Y0247787D01*
X0015311Y0247706D01*
X0015444Y0247622D01*
X0015575Y0247535D01*
X0015704Y0247444D01*
X0015831Y0247350D01*
X0015956Y0247253D01*
X0016077Y0247153D01*
X0016197Y0247050D01*
X0016313Y0246944D01*
X0016427Y0246835D01*
X0016539Y0246723D01*
X0016647Y0246609D01*
X0016752Y0246491D01*
X0016855Y0246371D01*
X0016954Y0246249D01*
X0017050Y0246124D01*
X0017143Y0245996D01*
X0017233Y0245867D01*
X0017319Y0245735D01*
X0017403Y0245601D01*
X0017482Y0245465D01*
X0017559Y0245327D01*
X0017631Y0245187D01*
X0017700Y0245045D01*
X0017766Y0244902D01*
X0017828Y0244757D01*
X0017886Y0244610D01*
X0017941Y0244462D01*
X0017992Y0244313D01*
X0018039Y0244162D01*
X0018082Y0244011D01*
X0018121Y0243858D01*
X0018157Y0243704D01*
X0018188Y0243550D01*
X0018216Y0243395D01*
X0018240Y0243239D01*
X0018260Y0243082D01*
X0018276Y0242925D01*
X0018288Y0242768D01*
X0018296Y0242611D01*
X0018300Y0242453D01*
X0018300Y0242295D01*
X0018296Y0242137D01*
X0018288Y0241980D01*
X0018276Y0241823D01*
X0018260Y0241666D01*
X0018240Y0241509D01*
X0018216Y0241353D01*
X0018188Y0241198D01*
X0018157Y0241044D01*
X0018121Y0240890D01*
X0018082Y0240737D01*
X0018039Y0240586D01*
X0017992Y0240435D01*
X0017941Y0240286D01*
X0017886Y0240138D01*
X0017828Y0239991D01*
X0017766Y0239846D01*
X0017700Y0239703D01*
X0017631Y0239561D01*
X0017559Y0239421D01*
X0017482Y0239283D01*
X0017403Y0239147D01*
X0017319Y0239013D01*
X0017233Y0238881D01*
X0017143Y0238752D01*
X0017050Y0238624D01*
X0016954Y0238499D01*
X0016855Y0238377D01*
X0016752Y0238257D01*
X0016647Y0238139D01*
X0016539Y0238025D01*
X0016427Y0237913D01*
X0016313Y0237804D01*
X0016197Y0237698D01*
X0016077Y0237595D01*
X0015956Y0237495D01*
X0015831Y0237398D01*
X0015704Y0237304D01*
X0015575Y0237213D01*
X0015444Y0237126D01*
X0015311Y0237042D01*
X0015175Y0236961D01*
X0015037Y0236884D01*
X0014898Y0236811D01*
X0014757Y0236741D01*
X0014614Y0236674D01*
X0014469Y0236611D01*
X0014323Y0236552D01*
X0014175Y0236496D01*
X0014026Y0236445D01*
X0013876Y0236397D01*
X0013725Y0236353D01*
X0013572Y0236312D01*
X0013419Y0236276D01*
X0013264Y0236243D01*
X0013109Y0236214D01*
X0012954Y0236190D01*
X0012797Y0236169D01*
X0012641Y0236152D01*
X0012483Y0236139D01*
X0012326Y0236130D01*
X0012168Y0236125D01*
X0012011Y0236124D01*
X0011853Y0236127D01*
X0011695Y0236134D01*
X0011538Y0236145D01*
X0011381Y0236160D01*
X0011224Y0236179D01*
X0011068Y0236202D01*
X0010913Y0236228D01*
X0010758Y0236259D01*
X0010604Y0236293D01*
X0010451Y0236332D01*
X0010299Y0236374D01*
X0010149Y0236420D01*
X0009999Y0236470D01*
X0009851Y0236524D01*
X0009704Y0236581D01*
X0009558Y0236642D01*
X0009415Y0236707D01*
X0009272Y0236775D01*
X0009132Y0236847D01*
X0008994Y0236922D01*
X0008857Y0237001D01*
X0008722Y0237083D01*
X0008590Y0237169D01*
X0008460Y0237258D01*
X0008332Y0237350D01*
X0008206Y0237446D01*
X0008083Y0237544D01*
X0007963Y0237646D01*
X0007845Y0237751D01*
X0007729Y0237858D01*
X0007617Y0237969D01*
X0007507Y0238082D01*
X0007400Y0238198D01*
X0007296Y0238316D01*
X0007195Y0238438D01*
X0007098Y0238561D01*
X0007003Y0238688D01*
X0006912Y0238816D01*
X0006823Y0238947D01*
X0006739Y0239080D01*
X0006657Y0239215D01*
X0006579Y0239352D01*
X0006505Y0239491D01*
X0006434Y0239632D01*
X0006366Y0239774D01*
X0006303Y0239919D01*
X0006242Y0240064D01*
X0006186Y0240212D01*
X0006133Y0240360D01*
X0006084Y0240510D01*
X0006039Y0240661D01*
X0005998Y0240814D01*
X0005960Y0240967D01*
X0005927Y0241121D01*
X0005897Y0241276D01*
X0005871Y0241431D01*
X0005850Y0241588D01*
X0005832Y0241744D01*
X0005818Y0241901D01*
X0005808Y0242059D01*
X0005802Y0242216D01*
X0005800Y0242374D01*
X0275800Y0242374D02*
X0275802Y0242532D01*
X0275808Y0242689D01*
X0275818Y0242847D01*
X0275832Y0243004D01*
X0275850Y0243160D01*
X0275871Y0243317D01*
X0275897Y0243472D01*
X0275927Y0243627D01*
X0275960Y0243781D01*
X0275998Y0243934D01*
X0276039Y0244087D01*
X0276084Y0244238D01*
X0276133Y0244388D01*
X0276186Y0244536D01*
X0276242Y0244684D01*
X0276303Y0244829D01*
X0276366Y0244974D01*
X0276434Y0245116D01*
X0276505Y0245257D01*
X0276579Y0245396D01*
X0276657Y0245533D01*
X0276739Y0245668D01*
X0276823Y0245801D01*
X0276912Y0245932D01*
X0277003Y0246060D01*
X0277098Y0246187D01*
X0277195Y0246310D01*
X0277296Y0246432D01*
X0277400Y0246550D01*
X0277507Y0246666D01*
X0277617Y0246779D01*
X0277729Y0246890D01*
X0277845Y0246997D01*
X0277963Y0247102D01*
X0278083Y0247204D01*
X0278206Y0247302D01*
X0278332Y0247398D01*
X0278460Y0247490D01*
X0278590Y0247579D01*
X0278722Y0247665D01*
X0278857Y0247747D01*
X0278994Y0247826D01*
X0279132Y0247901D01*
X0279272Y0247973D01*
X0279415Y0248041D01*
X0279558Y0248106D01*
X0279704Y0248167D01*
X0279851Y0248224D01*
X0279999Y0248278D01*
X0280149Y0248328D01*
X0280299Y0248374D01*
X0280451Y0248416D01*
X0280604Y0248455D01*
X0280758Y0248489D01*
X0280913Y0248520D01*
X0281068Y0248546D01*
X0281224Y0248569D01*
X0281381Y0248588D01*
X0281538Y0248603D01*
X0281695Y0248614D01*
X0281853Y0248621D01*
X0282011Y0248624D01*
X0282168Y0248623D01*
X0282326Y0248618D01*
X0282483Y0248609D01*
X0282641Y0248596D01*
X0282797Y0248579D01*
X0282954Y0248558D01*
X0283109Y0248534D01*
X0283264Y0248505D01*
X0283419Y0248472D01*
X0283572Y0248436D01*
X0283725Y0248395D01*
X0283876Y0248351D01*
X0284026Y0248303D01*
X0284175Y0248252D01*
X0284323Y0248196D01*
X0284469Y0248137D01*
X0284614Y0248074D01*
X0284757Y0248007D01*
X0284898Y0247937D01*
X0285037Y0247864D01*
X0285175Y0247787D01*
X0285311Y0247706D01*
X0285444Y0247622D01*
X0285575Y0247535D01*
X0285704Y0247444D01*
X0285831Y0247350D01*
X0285956Y0247253D01*
X0286077Y0247153D01*
X0286197Y0247050D01*
X0286313Y0246944D01*
X0286427Y0246835D01*
X0286539Y0246723D01*
X0286647Y0246609D01*
X0286752Y0246491D01*
X0286855Y0246371D01*
X0286954Y0246249D01*
X0287050Y0246124D01*
X0287143Y0245996D01*
X0287233Y0245867D01*
X0287319Y0245735D01*
X0287403Y0245601D01*
X0287482Y0245465D01*
X0287559Y0245327D01*
X0287631Y0245187D01*
X0287700Y0245045D01*
X0287766Y0244902D01*
X0287828Y0244757D01*
X0287886Y0244610D01*
X0287941Y0244462D01*
X0287992Y0244313D01*
X0288039Y0244162D01*
X0288082Y0244011D01*
X0288121Y0243858D01*
X0288157Y0243704D01*
X0288188Y0243550D01*
X0288216Y0243395D01*
X0288240Y0243239D01*
X0288260Y0243082D01*
X0288276Y0242925D01*
X0288288Y0242768D01*
X0288296Y0242611D01*
X0288300Y0242453D01*
X0288300Y0242295D01*
X0288296Y0242137D01*
X0288288Y0241980D01*
X0288276Y0241823D01*
X0288260Y0241666D01*
X0288240Y0241509D01*
X0288216Y0241353D01*
X0288188Y0241198D01*
X0288157Y0241044D01*
X0288121Y0240890D01*
X0288082Y0240737D01*
X0288039Y0240586D01*
X0287992Y0240435D01*
X0287941Y0240286D01*
X0287886Y0240138D01*
X0287828Y0239991D01*
X0287766Y0239846D01*
X0287700Y0239703D01*
X0287631Y0239561D01*
X0287559Y0239421D01*
X0287482Y0239283D01*
X0287403Y0239147D01*
X0287319Y0239013D01*
X0287233Y0238881D01*
X0287143Y0238752D01*
X0287050Y0238624D01*
X0286954Y0238499D01*
X0286855Y0238377D01*
X0286752Y0238257D01*
X0286647Y0238139D01*
X0286539Y0238025D01*
X0286427Y0237913D01*
X0286313Y0237804D01*
X0286197Y0237698D01*
X0286077Y0237595D01*
X0285956Y0237495D01*
X0285831Y0237398D01*
X0285704Y0237304D01*
X0285575Y0237213D01*
X0285444Y0237126D01*
X0285311Y0237042D01*
X0285175Y0236961D01*
X0285037Y0236884D01*
X0284898Y0236811D01*
X0284757Y0236741D01*
X0284614Y0236674D01*
X0284469Y0236611D01*
X0284323Y0236552D01*
X0284175Y0236496D01*
X0284026Y0236445D01*
X0283876Y0236397D01*
X0283725Y0236353D01*
X0283572Y0236312D01*
X0283419Y0236276D01*
X0283264Y0236243D01*
X0283109Y0236214D01*
X0282954Y0236190D01*
X0282797Y0236169D01*
X0282641Y0236152D01*
X0282483Y0236139D01*
X0282326Y0236130D01*
X0282168Y0236125D01*
X0282011Y0236124D01*
X0281853Y0236127D01*
X0281695Y0236134D01*
X0281538Y0236145D01*
X0281381Y0236160D01*
X0281224Y0236179D01*
X0281068Y0236202D01*
X0280913Y0236228D01*
X0280758Y0236259D01*
X0280604Y0236293D01*
X0280451Y0236332D01*
X0280299Y0236374D01*
X0280149Y0236420D01*
X0279999Y0236470D01*
X0279851Y0236524D01*
X0279704Y0236581D01*
X0279558Y0236642D01*
X0279415Y0236707D01*
X0279272Y0236775D01*
X0279132Y0236847D01*
X0278994Y0236922D01*
X0278857Y0237001D01*
X0278722Y0237083D01*
X0278590Y0237169D01*
X0278460Y0237258D01*
X0278332Y0237350D01*
X0278206Y0237446D01*
X0278083Y0237544D01*
X0277963Y0237646D01*
X0277845Y0237751D01*
X0277729Y0237858D01*
X0277617Y0237969D01*
X0277507Y0238082D01*
X0277400Y0238198D01*
X0277296Y0238316D01*
X0277195Y0238438D01*
X0277098Y0238561D01*
X0277003Y0238688D01*
X0276912Y0238816D01*
X0276823Y0238947D01*
X0276739Y0239080D01*
X0276657Y0239215D01*
X0276579Y0239352D01*
X0276505Y0239491D01*
X0276434Y0239632D01*
X0276366Y0239774D01*
X0276303Y0239919D01*
X0276242Y0240064D01*
X0276186Y0240212D01*
X0276133Y0240360D01*
X0276084Y0240510D01*
X0276039Y0240661D01*
X0275998Y0240814D01*
X0275960Y0240967D01*
X0275927Y0241121D01*
X0275897Y0241276D01*
X0275871Y0241431D01*
X0275850Y0241588D01*
X0275832Y0241744D01*
X0275818Y0241901D01*
X0275808Y0242059D01*
X0275802Y0242216D01*
X0275800Y0242374D01*
D11*
X0282050Y0002374D02*
X0012050Y0002374D01*
X0011808Y0002377D01*
X0011567Y0002386D01*
X0011326Y0002400D01*
X0011085Y0002421D01*
X0010845Y0002447D01*
X0010605Y0002479D01*
X0010366Y0002517D01*
X0010129Y0002560D01*
X0009892Y0002610D01*
X0009657Y0002665D01*
X0009423Y0002725D01*
X0009191Y0002792D01*
X0008960Y0002863D01*
X0008731Y0002941D01*
X0008504Y0003024D01*
X0008279Y0003112D01*
X0008056Y0003206D01*
X0007836Y0003305D01*
X0007618Y0003410D01*
X0007403Y0003519D01*
X0007190Y0003634D01*
X0006980Y0003754D01*
X0006774Y0003879D01*
X0006570Y0004009D01*
X0006369Y0004144D01*
X0006172Y0004284D01*
X0005978Y0004428D01*
X0005788Y0004577D01*
X0005602Y0004731D01*
X0005419Y0004889D01*
X0005240Y0005051D01*
X0005065Y0005218D01*
X0004894Y0005389D01*
X0004727Y0005564D01*
X0004565Y0005743D01*
X0004407Y0005926D01*
X0004253Y0006112D01*
X0004104Y0006302D01*
X0003960Y0006496D01*
X0003820Y0006693D01*
X0003685Y0006894D01*
X0003555Y0007098D01*
X0003430Y0007304D01*
X0003310Y0007514D01*
X0003195Y0007727D01*
X0003086Y0007942D01*
X0002981Y0008160D01*
X0002882Y0008380D01*
X0002788Y0008603D01*
X0002700Y0008828D01*
X0002617Y0009055D01*
X0002539Y0009284D01*
X0002468Y0009515D01*
X0002401Y0009747D01*
X0002341Y0009981D01*
X0002286Y0010216D01*
X0002236Y0010453D01*
X0002193Y0010690D01*
X0002155Y0010929D01*
X0002123Y0011169D01*
X0002097Y0011409D01*
X0002076Y0011650D01*
X0002062Y0011891D01*
X0002053Y0012132D01*
X0002050Y0012374D01*
X0002050Y0242374D01*
X0002053Y0242616D01*
X0002062Y0242857D01*
X0002076Y0243098D01*
X0002097Y0243339D01*
X0002123Y0243579D01*
X0002155Y0243819D01*
X0002193Y0244058D01*
X0002236Y0244295D01*
X0002286Y0244532D01*
X0002341Y0244767D01*
X0002401Y0245001D01*
X0002468Y0245233D01*
X0002539Y0245464D01*
X0002617Y0245693D01*
X0002700Y0245920D01*
X0002788Y0246145D01*
X0002882Y0246368D01*
X0002981Y0246588D01*
X0003086Y0246806D01*
X0003195Y0247021D01*
X0003310Y0247234D01*
X0003430Y0247444D01*
X0003555Y0247650D01*
X0003685Y0247854D01*
X0003820Y0248055D01*
X0003960Y0248252D01*
X0004104Y0248446D01*
X0004253Y0248636D01*
X0004407Y0248822D01*
X0004565Y0249005D01*
X0004727Y0249184D01*
X0004894Y0249359D01*
X0005065Y0249530D01*
X0005240Y0249697D01*
X0005419Y0249859D01*
X0005602Y0250017D01*
X0005788Y0250171D01*
X0005978Y0250320D01*
X0006172Y0250464D01*
X0006369Y0250604D01*
X0006570Y0250739D01*
X0006774Y0250869D01*
X0006980Y0250994D01*
X0007190Y0251114D01*
X0007403Y0251229D01*
X0007618Y0251338D01*
X0007836Y0251443D01*
X0008056Y0251542D01*
X0008279Y0251636D01*
X0008504Y0251724D01*
X0008731Y0251807D01*
X0008960Y0251885D01*
X0009191Y0251956D01*
X0009423Y0252023D01*
X0009657Y0252083D01*
X0009892Y0252138D01*
X0010129Y0252188D01*
X0010366Y0252231D01*
X0010605Y0252269D01*
X0010845Y0252301D01*
X0011085Y0252327D01*
X0011326Y0252348D01*
X0011567Y0252362D01*
X0011808Y0252371D01*
X0012050Y0252374D01*
X0067050Y0252374D01*
X0067292Y0252371D01*
X0067533Y0252362D01*
X0067774Y0252348D01*
X0068015Y0252327D01*
X0068255Y0252301D01*
X0068495Y0252269D01*
X0068734Y0252231D01*
X0068971Y0252188D01*
X0069208Y0252138D01*
X0069443Y0252083D01*
X0069677Y0252023D01*
X0069909Y0251956D01*
X0070140Y0251885D01*
X0070369Y0251807D01*
X0070596Y0251724D01*
X0070821Y0251636D01*
X0071044Y0251542D01*
X0071264Y0251443D01*
X0071482Y0251338D01*
X0071697Y0251229D01*
X0071910Y0251114D01*
X0072120Y0250994D01*
X0072326Y0250869D01*
X0072530Y0250739D01*
X0072731Y0250604D01*
X0072928Y0250464D01*
X0073122Y0250320D01*
X0073312Y0250171D01*
X0073498Y0250017D01*
X0073681Y0249859D01*
X0073860Y0249697D01*
X0074035Y0249530D01*
X0074206Y0249359D01*
X0074373Y0249184D01*
X0074535Y0249005D01*
X0074693Y0248822D01*
X0074847Y0248636D01*
X0074996Y0248446D01*
X0075140Y0248252D01*
X0075280Y0248055D01*
X0075415Y0247854D01*
X0075545Y0247650D01*
X0075670Y0247444D01*
X0075790Y0247234D01*
X0075905Y0247021D01*
X0076014Y0246806D01*
X0076119Y0246588D01*
X0076218Y0246368D01*
X0076312Y0246145D01*
X0076400Y0245920D01*
X0076483Y0245693D01*
X0076561Y0245464D01*
X0076632Y0245233D01*
X0076699Y0245001D01*
X0076759Y0244767D01*
X0076814Y0244532D01*
X0076864Y0244295D01*
X0076907Y0244058D01*
X0076945Y0243819D01*
X0076977Y0243579D01*
X0077003Y0243339D01*
X0077024Y0243098D01*
X0077038Y0242857D01*
X0077047Y0242616D01*
X0077050Y0242374D01*
X0077050Y0227374D01*
X0058956Y0233248D02*
X0058956Y0217500D01*
X0047144Y0217500D01*
X0047144Y0233248D01*
X0058956Y0233248D01*
X0058956Y0217500D01*
X0047144Y0217500D01*
X0047144Y0233248D01*
X0058956Y0233248D01*
X0045300Y0211997D02*
X0045300Y0210729D01*
X0045300Y0211363D02*
X0043398Y0211363D01*
X0044032Y0210729D01*
X0043398Y0209787D02*
X0043398Y0209153D01*
X0043398Y0209470D02*
X0044983Y0209470D01*
X0045300Y0209153D01*
X0045300Y0208836D01*
X0044983Y0208519D01*
X0044983Y0207577D02*
X0045300Y0207260D01*
X0045300Y0206626D01*
X0044983Y0206309D01*
X0044349Y0206626D02*
X0044349Y0207260D01*
X0044666Y0207577D01*
X0044983Y0207577D01*
X0044349Y0206626D02*
X0044032Y0206309D01*
X0043715Y0206309D01*
X0043398Y0206626D01*
X0043398Y0207260D01*
X0043715Y0207577D01*
X0027593Y0161374D02*
X0021294Y0161374D01*
X0048050Y0153130D02*
X0048050Y0146831D01*
X0014816Y0111200D02*
X0014816Y0109932D01*
X0014816Y0110566D02*
X0012914Y0110566D01*
X0013548Y0109932D01*
X0012914Y0108990D02*
X0012914Y0108356D01*
X0012914Y0108673D02*
X0014499Y0108673D01*
X0014816Y0108356D01*
X0014816Y0108039D01*
X0014499Y0107722D01*
X0044144Y0074764D02*
X0044144Y0060984D01*
X0044145Y0060984D02*
X0044147Y0060922D01*
X0044153Y0060861D01*
X0044162Y0060800D01*
X0044176Y0060739D01*
X0044193Y0060680D01*
X0044214Y0060622D01*
X0044239Y0060565D01*
X0044267Y0060510D01*
X0044298Y0060457D01*
X0044333Y0060406D01*
X0044371Y0060357D01*
X0044412Y0060310D01*
X0044455Y0060267D01*
X0044502Y0060226D01*
X0044551Y0060188D01*
X0044602Y0060153D01*
X0044655Y0060122D01*
X0044710Y0060094D01*
X0044767Y0060069D01*
X0044825Y0060048D01*
X0044884Y0060031D01*
X0044945Y0060017D01*
X0045006Y0060008D01*
X0045067Y0060002D01*
X0045129Y0060000D01*
X0054971Y0060000D02*
X0055033Y0060002D01*
X0055094Y0060008D01*
X0055155Y0060017D01*
X0055216Y0060031D01*
X0055275Y0060048D01*
X0055333Y0060069D01*
X0055390Y0060094D01*
X0055445Y0060122D01*
X0055498Y0060153D01*
X0055549Y0060188D01*
X0055598Y0060226D01*
X0055645Y0060267D01*
X0055688Y0060310D01*
X0055729Y0060357D01*
X0055767Y0060406D01*
X0055802Y0060457D01*
X0055833Y0060510D01*
X0055861Y0060565D01*
X0055886Y0060622D01*
X0055907Y0060680D01*
X0055924Y0060739D01*
X0055938Y0060800D01*
X0055947Y0060861D01*
X0055953Y0060922D01*
X0055955Y0060984D01*
X0055956Y0060984D02*
X0055956Y0074764D01*
X0055955Y0074764D02*
X0055953Y0074826D01*
X0055947Y0074887D01*
X0055938Y0074948D01*
X0055924Y0075009D01*
X0055907Y0075068D01*
X0055886Y0075126D01*
X0055861Y0075183D01*
X0055833Y0075238D01*
X0055802Y0075291D01*
X0055767Y0075342D01*
X0055729Y0075391D01*
X0055688Y0075438D01*
X0055645Y0075481D01*
X0055598Y0075522D01*
X0055549Y0075560D01*
X0055498Y0075595D01*
X0055445Y0075626D01*
X0055390Y0075654D01*
X0055333Y0075679D01*
X0055275Y0075700D01*
X0055216Y0075717D01*
X0055155Y0075731D01*
X0055094Y0075740D01*
X0055033Y0075746D01*
X0054971Y0075748D01*
X0054983Y0082414D02*
X0055300Y0082731D01*
X0055300Y0083365D01*
X0054983Y0083682D01*
X0054666Y0083682D01*
X0054349Y0083365D01*
X0054349Y0082731D01*
X0054032Y0082414D01*
X0053715Y0082414D01*
X0053398Y0082731D01*
X0053398Y0083365D01*
X0053715Y0083682D01*
X0054032Y0084624D02*
X0053398Y0085258D01*
X0055300Y0085258D01*
X0055300Y0084624D02*
X0055300Y0085892D01*
X0061050Y0091874D02*
X0064298Y0091874D01*
X0066089Y0092878D01*
X0066956Y0091874D02*
X0070440Y0091874D01*
X0080117Y0078669D02*
X0085019Y0078669D01*
X0080117Y0078669D02*
X0080117Y0075795D01*
X0080117Y0078669D02*
X0150983Y0078669D01*
X0150983Y0075795D01*
X0150983Y0078669D02*
X0146081Y0078669D01*
X0150983Y0078669D02*
X0150983Y0003079D01*
X0080117Y0003079D01*
X0080117Y0004732D01*
X0080117Y0003079D02*
X0080117Y0078669D01*
X0045129Y0075748D02*
X0045067Y0075746D01*
X0045006Y0075740D01*
X0044945Y0075731D01*
X0044884Y0075717D01*
X0044825Y0075700D01*
X0044767Y0075679D01*
X0044710Y0075654D01*
X0044655Y0075626D01*
X0044602Y0075595D01*
X0044551Y0075560D01*
X0044502Y0075522D01*
X0044455Y0075481D01*
X0044412Y0075438D01*
X0044371Y0075391D01*
X0044333Y0075342D01*
X0044298Y0075291D01*
X0044267Y0075238D01*
X0044239Y0075183D01*
X0044214Y0075126D01*
X0044193Y0075068D01*
X0044176Y0075009D01*
X0044162Y0074948D01*
X0044153Y0074887D01*
X0044147Y0074826D01*
X0044145Y0074764D01*
X0028349Y0073705D02*
X0028349Y0065043D01*
X0015751Y0065043D01*
X0015751Y0073705D01*
X0028349Y0073705D01*
X0028349Y0065043D01*
X0015751Y0065043D02*
X0015751Y0073705D01*
X0026270Y0022094D02*
X0026270Y0015795D01*
X0026270Y0022094D02*
X0032176Y0022094D01*
X0047924Y0022094D02*
X0053830Y0022094D01*
X0053830Y0014811D01*
X0053830Y0005953D02*
X0053830Y0002409D01*
X0026270Y0002409D01*
X0026270Y0005953D01*
X0080117Y0003079D02*
X0150983Y0003079D01*
X0150983Y0004732D01*
X0183592Y0005375D02*
X0184343Y0004624D01*
X0185093Y0004624D01*
X0185844Y0005375D01*
X0185844Y0009128D01*
X0185093Y0009128D02*
X0186595Y0009128D01*
X0188196Y0009128D02*
X0191199Y0009128D01*
X0191199Y0008377D01*
X0188196Y0005375D01*
X0188196Y0004624D01*
X0189297Y0010624D02*
X0187796Y0012125D01*
X0192300Y0012125D01*
X0192300Y0010624D02*
X0192300Y0013627D01*
X0214696Y0013958D02*
X0215013Y0013641D01*
X0215330Y0013641D01*
X0215647Y0013958D01*
X0215647Y0015543D01*
X0215330Y0015543D02*
X0215964Y0015543D01*
X0216906Y0014592D02*
X0217857Y0014592D01*
X0218174Y0014275D01*
X0218174Y0013958D01*
X0217857Y0013641D01*
X0217223Y0013641D01*
X0216906Y0013958D01*
X0216906Y0014592D01*
X0217540Y0015226D01*
X0218174Y0015543D01*
X0194356Y0055724D02*
X0193722Y0055724D01*
X0193405Y0056041D01*
X0194039Y0056675D02*
X0194356Y0056675D01*
X0194673Y0056358D01*
X0194673Y0056041D01*
X0194356Y0055724D01*
X0194356Y0056675D02*
X0194673Y0056992D01*
X0194673Y0057309D01*
X0194356Y0057626D01*
X0193722Y0057626D01*
X0193405Y0057309D01*
X0192463Y0057309D02*
X0192146Y0057626D01*
X0191512Y0057626D01*
X0191195Y0057309D01*
X0190253Y0057309D02*
X0189936Y0057626D01*
X0189302Y0057626D01*
X0188985Y0057309D01*
X0188985Y0056041D01*
X0189302Y0055724D01*
X0189936Y0055724D01*
X0190253Y0056041D01*
X0191195Y0055724D02*
X0192463Y0056992D01*
X0192463Y0057309D01*
X0192463Y0055724D02*
X0191195Y0055724D01*
X0191483Y0064809D02*
X0190215Y0064809D01*
X0189898Y0065126D01*
X0189898Y0065760D01*
X0190215Y0066077D01*
X0190215Y0067019D02*
X0189898Y0067336D01*
X0189898Y0067970D01*
X0190215Y0068287D01*
X0190532Y0068287D01*
X0191800Y0067019D01*
X0191800Y0068287D01*
X0191800Y0069229D02*
X0190532Y0070497D01*
X0190215Y0070497D01*
X0189898Y0070180D01*
X0189898Y0069546D01*
X0190215Y0069229D01*
X0191800Y0069229D02*
X0191800Y0070497D01*
X0191483Y0066077D02*
X0191800Y0065760D01*
X0191800Y0065126D01*
X0191483Y0064809D01*
X0174300Y0062876D02*
X0173549Y0063627D01*
X0172799Y0063627D01*
X0172048Y0062876D01*
X0172048Y0060624D01*
X0173549Y0060624D01*
X0174300Y0061375D01*
X0174300Y0062876D01*
X0172048Y0060624D02*
X0170547Y0062125D01*
X0169796Y0063627D01*
X0166550Y0083874D02*
X0163302Y0083874D01*
X0161511Y0082870D01*
X0160644Y0083874D02*
X0157160Y0083874D01*
X0172298Y0089731D02*
X0172615Y0089414D01*
X0172932Y0089414D01*
X0173249Y0089731D01*
X0173249Y0090365D01*
X0173566Y0090682D01*
X0173883Y0090682D01*
X0174200Y0090365D01*
X0174200Y0089731D01*
X0173883Y0089414D01*
X0172298Y0089731D02*
X0172298Y0090365D01*
X0172615Y0090682D01*
X0172615Y0091624D02*
X0172298Y0091941D01*
X0172298Y0092575D01*
X0172615Y0092892D01*
X0172932Y0092892D01*
X0174200Y0091624D01*
X0174200Y0092892D01*
X0183369Y0096878D02*
X0183369Y0103886D01*
X0183369Y0096878D02*
X0188408Y0096878D01*
X0183369Y0096878D02*
X0183369Y0159870D01*
X0183369Y0152862D01*
X0183369Y0159870D02*
X0188408Y0159870D01*
X0183369Y0159870D02*
X0285731Y0159870D01*
X0280692Y0159870D01*
X0285731Y0159870D02*
X0285731Y0152862D01*
X0285731Y0159870D02*
X0285731Y0096878D01*
X0280692Y0096878D01*
X0285731Y0096878D02*
X0285731Y0103886D01*
X0285731Y0096878D02*
X0183369Y0096878D01*
X0211800Y0074497D02*
X0211800Y0073229D01*
X0211800Y0073863D02*
X0209898Y0073863D01*
X0210532Y0073229D01*
X0210532Y0072287D02*
X0210215Y0072287D01*
X0209898Y0071970D01*
X0209898Y0071336D01*
X0210215Y0071019D01*
X0210215Y0070077D02*
X0209898Y0069760D01*
X0209898Y0069126D01*
X0210215Y0068809D01*
X0211483Y0068809D01*
X0211800Y0069126D01*
X0211800Y0069760D01*
X0211483Y0070077D01*
X0211800Y0071019D02*
X0210532Y0072287D01*
X0211800Y0072287D02*
X0211800Y0071019D01*
X0234298Y0070653D02*
X0236200Y0070653D01*
X0236200Y0070019D02*
X0236200Y0071287D01*
X0236200Y0072229D02*
X0236200Y0073497D01*
X0236200Y0072863D02*
X0234298Y0072863D01*
X0234932Y0072229D01*
X0234298Y0070653D02*
X0234932Y0070019D01*
X0234615Y0069077D02*
X0234298Y0068760D01*
X0234298Y0068126D01*
X0234615Y0067809D01*
X0235883Y0067809D01*
X0236200Y0068126D01*
X0236200Y0068760D01*
X0235883Y0069077D01*
X0235249Y0066497D02*
X0235249Y0065229D01*
X0234298Y0066180D01*
X0236200Y0066180D01*
X0236200Y0064287D02*
X0236200Y0063019D01*
X0234932Y0064287D01*
X0234615Y0064287D01*
X0234298Y0063970D01*
X0234298Y0063336D01*
X0234615Y0063019D01*
X0234615Y0062077D02*
X0234298Y0061760D01*
X0234298Y0061126D01*
X0234615Y0060809D01*
X0235883Y0060809D01*
X0236200Y0061126D01*
X0236200Y0061760D01*
X0235883Y0062077D01*
X0251985Y0071541D02*
X0252302Y0071224D01*
X0252936Y0071224D01*
X0253253Y0071541D01*
X0254195Y0071541D02*
X0254512Y0071224D01*
X0255146Y0071224D01*
X0255463Y0071541D01*
X0255463Y0071858D01*
X0255146Y0072175D01*
X0254829Y0072175D01*
X0255146Y0072175D02*
X0255463Y0072492D01*
X0255463Y0072809D01*
X0255146Y0073126D01*
X0254512Y0073126D01*
X0254195Y0072809D01*
X0253253Y0072809D02*
X0252936Y0073126D01*
X0252302Y0073126D01*
X0251985Y0072809D01*
X0251985Y0071541D01*
X0256405Y0071541D02*
X0256722Y0071224D01*
X0257356Y0071224D01*
X0257673Y0071541D01*
X0257673Y0072809D01*
X0256405Y0071541D01*
X0256405Y0072809D01*
X0256722Y0073126D01*
X0257356Y0073126D01*
X0257673Y0072809D01*
X0265985Y0072809D02*
X0265985Y0071541D01*
X0266302Y0071224D01*
X0266936Y0071224D01*
X0267253Y0071541D01*
X0268195Y0071224D02*
X0269463Y0072492D01*
X0269463Y0072809D01*
X0269146Y0073126D01*
X0268512Y0073126D01*
X0268195Y0072809D01*
X0267253Y0072809D02*
X0266936Y0073126D01*
X0266302Y0073126D01*
X0265985Y0072809D01*
X0268195Y0071224D02*
X0269463Y0071224D01*
X0270405Y0071541D02*
X0270722Y0071224D01*
X0271356Y0071224D01*
X0271673Y0071541D01*
X0271673Y0072809D01*
X0271356Y0073126D01*
X0270722Y0073126D01*
X0270405Y0072809D01*
X0270405Y0072492D01*
X0270722Y0072175D01*
X0271673Y0072175D01*
X0271356Y0086624D02*
X0270722Y0086624D01*
X0270405Y0086941D01*
X0270405Y0087575D01*
X0271356Y0087575D01*
X0271673Y0087258D01*
X0271673Y0086941D01*
X0271356Y0086624D01*
X0270405Y0087575D02*
X0271039Y0088209D01*
X0271673Y0088526D01*
X0269463Y0088209D02*
X0269146Y0088526D01*
X0268512Y0088526D01*
X0268195Y0088209D01*
X0267253Y0088209D02*
X0266936Y0088526D01*
X0266302Y0088526D01*
X0265985Y0088209D01*
X0265985Y0086941D01*
X0266302Y0086624D01*
X0266936Y0086624D01*
X0267253Y0086941D01*
X0268195Y0086624D02*
X0269463Y0087892D01*
X0269463Y0088209D01*
X0269463Y0086624D02*
X0268195Y0086624D01*
X0265806Y0090374D02*
X0259507Y0090374D01*
X0257356Y0088526D02*
X0256722Y0088526D01*
X0256405Y0088209D01*
X0257356Y0088526D02*
X0257673Y0088209D01*
X0257673Y0087892D01*
X0256405Y0086624D01*
X0257673Y0086624D01*
X0255463Y0086624D02*
X0254195Y0086624D01*
X0254829Y0086624D02*
X0254829Y0088526D01*
X0254195Y0087892D01*
X0253253Y0088209D02*
X0252936Y0088526D01*
X0252302Y0088526D01*
X0251985Y0088209D01*
X0251985Y0086941D01*
X0252302Y0086624D01*
X0252936Y0086624D01*
X0253253Y0086941D01*
X0292050Y0012374D02*
X0292047Y0012132D01*
X0292038Y0011891D01*
X0292024Y0011650D01*
X0292003Y0011409D01*
X0291977Y0011169D01*
X0291945Y0010929D01*
X0291907Y0010690D01*
X0291864Y0010453D01*
X0291814Y0010216D01*
X0291759Y0009981D01*
X0291699Y0009747D01*
X0291632Y0009515D01*
X0291561Y0009284D01*
X0291483Y0009055D01*
X0291400Y0008828D01*
X0291312Y0008603D01*
X0291218Y0008380D01*
X0291119Y0008160D01*
X0291014Y0007942D01*
X0290905Y0007727D01*
X0290790Y0007514D01*
X0290670Y0007304D01*
X0290545Y0007098D01*
X0290415Y0006894D01*
X0290280Y0006693D01*
X0290140Y0006496D01*
X0289996Y0006302D01*
X0289847Y0006112D01*
X0289693Y0005926D01*
X0289535Y0005743D01*
X0289373Y0005564D01*
X0289206Y0005389D01*
X0289035Y0005218D01*
X0288860Y0005051D01*
X0288681Y0004889D01*
X0288498Y0004731D01*
X0288312Y0004577D01*
X0288122Y0004428D01*
X0287928Y0004284D01*
X0287731Y0004144D01*
X0287530Y0004009D01*
X0287326Y0003879D01*
X0287120Y0003754D01*
X0286910Y0003634D01*
X0286697Y0003519D01*
X0286482Y0003410D01*
X0286264Y0003305D01*
X0286044Y0003206D01*
X0285821Y0003112D01*
X0285596Y0003024D01*
X0285369Y0002941D01*
X0285140Y0002863D01*
X0284909Y0002792D01*
X0284677Y0002725D01*
X0284443Y0002665D01*
X0284208Y0002610D01*
X0283971Y0002560D01*
X0283734Y0002517D01*
X0283495Y0002479D01*
X0283255Y0002447D01*
X0283015Y0002421D01*
X0282774Y0002400D01*
X0282533Y0002386D01*
X0282292Y0002377D01*
X0282050Y0002374D01*
X0292050Y0012374D02*
X0292050Y0242374D01*
X0292047Y0242616D01*
X0292038Y0242857D01*
X0292024Y0243098D01*
X0292003Y0243339D01*
X0291977Y0243579D01*
X0291945Y0243819D01*
X0291907Y0244058D01*
X0291864Y0244295D01*
X0291814Y0244532D01*
X0291759Y0244767D01*
X0291699Y0245001D01*
X0291632Y0245233D01*
X0291561Y0245464D01*
X0291483Y0245693D01*
X0291400Y0245920D01*
X0291312Y0246145D01*
X0291218Y0246368D01*
X0291119Y0246588D01*
X0291014Y0246806D01*
X0290905Y0247021D01*
X0290790Y0247234D01*
X0290670Y0247444D01*
X0290545Y0247650D01*
X0290415Y0247854D01*
X0290280Y0248055D01*
X0290140Y0248252D01*
X0289996Y0248446D01*
X0289847Y0248636D01*
X0289693Y0248822D01*
X0289535Y0249005D01*
X0289373Y0249184D01*
X0289206Y0249359D01*
X0289035Y0249530D01*
X0288860Y0249697D01*
X0288681Y0249859D01*
X0288498Y0250017D01*
X0288312Y0250171D01*
X0288122Y0250320D01*
X0287928Y0250464D01*
X0287731Y0250604D01*
X0287530Y0250739D01*
X0287326Y0250869D01*
X0287120Y0250994D01*
X0286910Y0251114D01*
X0286697Y0251229D01*
X0286482Y0251338D01*
X0286264Y0251443D01*
X0286044Y0251542D01*
X0285821Y0251636D01*
X0285596Y0251724D01*
X0285369Y0251807D01*
X0285140Y0251885D01*
X0284909Y0251956D01*
X0284677Y0252023D01*
X0284443Y0252083D01*
X0284208Y0252138D01*
X0283971Y0252188D01*
X0283734Y0252231D01*
X0283495Y0252269D01*
X0283255Y0252301D01*
X0283015Y0252327D01*
X0282774Y0252348D01*
X0282533Y0252362D01*
X0282292Y0252371D01*
X0282050Y0252374D01*
X0127050Y0252374D01*
X0126808Y0252371D01*
X0126567Y0252362D01*
X0126326Y0252348D01*
X0126085Y0252327D01*
X0125845Y0252301D01*
X0125605Y0252269D01*
X0125366Y0252231D01*
X0125129Y0252188D01*
X0124892Y0252138D01*
X0124657Y0252083D01*
X0124423Y0252023D01*
X0124191Y0251956D01*
X0123960Y0251885D01*
X0123731Y0251807D01*
X0123504Y0251724D01*
X0123279Y0251636D01*
X0123056Y0251542D01*
X0122836Y0251443D01*
X0122618Y0251338D01*
X0122403Y0251229D01*
X0122190Y0251114D01*
X0121980Y0250994D01*
X0121774Y0250869D01*
X0121570Y0250739D01*
X0121369Y0250604D01*
X0121172Y0250464D01*
X0120978Y0250320D01*
X0120788Y0250171D01*
X0120602Y0250017D01*
X0120419Y0249859D01*
X0120240Y0249697D01*
X0120065Y0249530D01*
X0119894Y0249359D01*
X0119727Y0249184D01*
X0119565Y0249005D01*
X0119407Y0248822D01*
X0119253Y0248636D01*
X0119104Y0248446D01*
X0118960Y0248252D01*
X0118820Y0248055D01*
X0118685Y0247854D01*
X0118555Y0247650D01*
X0118430Y0247444D01*
X0118310Y0247234D01*
X0118195Y0247021D01*
X0118086Y0246806D01*
X0117981Y0246588D01*
X0117882Y0246368D01*
X0117788Y0246145D01*
X0117700Y0245920D01*
X0117617Y0245693D01*
X0117539Y0245464D01*
X0117468Y0245233D01*
X0117401Y0245001D01*
X0117341Y0244767D01*
X0117286Y0244532D01*
X0117236Y0244295D01*
X0117193Y0244058D01*
X0117155Y0243819D01*
X0117123Y0243579D01*
X0117097Y0243339D01*
X0117076Y0243098D01*
X0117062Y0242857D01*
X0117053Y0242616D01*
X0117050Y0242374D01*
X0117050Y0227374D01*
X0117044Y0226887D01*
X0117026Y0226400D01*
X0116997Y0225914D01*
X0116955Y0225429D01*
X0116902Y0224945D01*
X0116837Y0224462D01*
X0116760Y0223981D01*
X0116672Y0223502D01*
X0116572Y0223025D01*
X0116460Y0222551D01*
X0116337Y0222080D01*
X0116202Y0221612D01*
X0116056Y0221147D01*
X0115899Y0220686D01*
X0115730Y0220229D01*
X0115551Y0219777D01*
X0115360Y0219328D01*
X0115159Y0218885D01*
X0114947Y0218446D01*
X0114724Y0218013D01*
X0114491Y0217586D01*
X0114247Y0217164D01*
X0113994Y0216748D01*
X0113730Y0216339D01*
X0113456Y0215936D01*
X0113173Y0215540D01*
X0112880Y0215151D01*
X0112578Y0214769D01*
X0112266Y0214394D01*
X0111945Y0214028D01*
X0111616Y0213669D01*
X0111278Y0213318D01*
X0110931Y0212976D01*
X0110577Y0212642D01*
X0110214Y0212317D01*
X0109843Y0212001D01*
X0109465Y0211694D01*
X0109080Y0211396D01*
X0108687Y0211108D01*
X0108288Y0210830D01*
X0107881Y0210561D01*
X0107469Y0210302D01*
X0107050Y0210053D01*
X0106625Y0209815D01*
X0106195Y0209587D01*
X0105759Y0209370D01*
X0105318Y0209163D01*
X0104872Y0208967D01*
X0104422Y0208782D01*
X0103967Y0208608D01*
X0103508Y0208445D01*
X0103045Y0208294D01*
X0102578Y0208153D01*
X0102109Y0208024D01*
X0101636Y0207907D01*
X0101161Y0207801D01*
X0100683Y0207707D01*
X0100203Y0207624D01*
X0099721Y0207553D01*
X0099237Y0207494D01*
X0098753Y0207447D01*
X0098267Y0207411D01*
X0097780Y0207387D01*
X0097294Y0207375D01*
X0096806Y0207375D01*
X0096320Y0207387D01*
X0095833Y0207411D01*
X0095347Y0207447D01*
X0094863Y0207494D01*
X0094379Y0207553D01*
X0093897Y0207624D01*
X0093417Y0207707D01*
X0092939Y0207801D01*
X0092464Y0207907D01*
X0091991Y0208024D01*
X0091522Y0208153D01*
X0091055Y0208294D01*
X0090592Y0208445D01*
X0090133Y0208608D01*
X0089678Y0208782D01*
X0089228Y0208967D01*
X0088782Y0209163D01*
X0088341Y0209370D01*
X0087905Y0209587D01*
X0087475Y0209815D01*
X0087050Y0210053D01*
X0086631Y0210302D01*
X0086219Y0210561D01*
X0085812Y0210830D01*
X0085413Y0211108D01*
X0085020Y0211396D01*
X0084635Y0211694D01*
X0084257Y0212001D01*
X0083886Y0212317D01*
X0083523Y0212642D01*
X0083169Y0212976D01*
X0082822Y0213318D01*
X0082484Y0213669D01*
X0082155Y0214028D01*
X0081834Y0214394D01*
X0081522Y0214769D01*
X0081220Y0215151D01*
X0080927Y0215540D01*
X0080644Y0215936D01*
X0080370Y0216339D01*
X0080106Y0216748D01*
X0079853Y0217164D01*
X0079609Y0217586D01*
X0079376Y0218013D01*
X0079153Y0218446D01*
X0078941Y0218885D01*
X0078740Y0219328D01*
X0078549Y0219777D01*
X0078370Y0220229D01*
X0078201Y0220686D01*
X0078044Y0221147D01*
X0077898Y0221612D01*
X0077763Y0222080D01*
X0077640Y0222551D01*
X0077528Y0223025D01*
X0077428Y0223502D01*
X0077340Y0223981D01*
X0077263Y0224462D01*
X0077198Y0224945D01*
X0077145Y0225429D01*
X0077103Y0225914D01*
X0077074Y0226400D01*
X0077056Y0226887D01*
X0077050Y0227374D01*
X0147117Y0252307D02*
X0147117Y0181441D01*
X0217983Y0181441D01*
X0217983Y0252307D01*
X0147117Y0252307D01*
X0259898Y0213575D02*
X0259898Y0212941D01*
X0260215Y0212624D01*
X0259898Y0213575D02*
X0260215Y0213892D01*
X0260532Y0213892D01*
X0261800Y0212624D01*
X0261800Y0213892D01*
X0261800Y0211682D02*
X0261800Y0210414D01*
X0259898Y0210414D01*
X0270176Y0216469D02*
X0270176Y0217256D01*
X0275294Y0217256D01*
X0275294Y0216469D01*
X0270176Y0216469D01*
X0270176Y0216862D02*
X0275294Y0216862D01*
X0270176Y0217256D02*
X0270176Y0227492D01*
X0275294Y0227492D01*
X0280806Y0227492D02*
X0285924Y0227492D01*
X0285924Y0217256D01*
X0285924Y0216469D01*
X0280806Y0216469D01*
X0280806Y0217256D01*
X0285924Y0217256D01*
X0285924Y0216862D02*
X0280806Y0216862D01*
X0288298Y0223838D02*
X0288298Y0224472D01*
X0288298Y0224155D02*
X0289883Y0224155D01*
X0290200Y0223838D01*
X0290200Y0223521D01*
X0289883Y0223204D01*
X0289249Y0225414D02*
X0288298Y0226365D01*
X0290200Y0226365D01*
X0289249Y0226682D02*
X0289249Y0225414D01*
X0274483Y0202997D02*
X0273849Y0202997D01*
X0273532Y0202680D01*
X0273532Y0202363D01*
X0273849Y0201729D01*
X0272898Y0201729D01*
X0272898Y0202997D01*
X0274483Y0202997D02*
X0274800Y0202680D01*
X0274800Y0202046D01*
X0274483Y0201729D01*
X0274800Y0200787D02*
X0274800Y0199519D01*
X0273532Y0200787D01*
X0273215Y0200787D01*
X0272898Y0200470D01*
X0272898Y0199836D01*
X0273215Y0199519D01*
X0273215Y0198577D02*
X0272898Y0198260D01*
X0272898Y0197626D01*
X0273215Y0197309D01*
X0274483Y0197309D01*
X0274800Y0197626D01*
X0274800Y0198260D01*
X0274483Y0198577D01*
D12*
X0276349Y0203972D02*
X0276349Y0206776D01*
X0279700Y0206776D02*
X0279700Y0203972D01*
X0269452Y0210724D02*
X0266648Y0210724D01*
X0266648Y0214075D02*
X0269452Y0214075D01*
X0270828Y0164835D02*
X0270828Y0160992D01*
X0270059Y0160224D01*
X0268522Y0160224D01*
X0267754Y0160992D01*
X0267754Y0164835D01*
X0272364Y0164835D02*
X0275438Y0164835D01*
X0275438Y0164066D01*
X0272364Y0160992D01*
X0272364Y0160224D01*
X0195125Y0167898D02*
X0195125Y0170752D01*
X0191975Y0170752D02*
X0191975Y0167996D01*
X0190198Y0193381D02*
X0187129Y0193381D01*
X0188663Y0193381D02*
X0188663Y0197985D01*
X0187129Y0196450D01*
X0185594Y0197985D02*
X0182525Y0197985D01*
X0184059Y0197985D02*
X0184059Y0193381D01*
X0180990Y0193381D02*
X0180990Y0197985D01*
X0177921Y0197985D02*
X0180990Y0193381D01*
X0177921Y0193381D02*
X0177921Y0197985D01*
X0176386Y0196450D02*
X0176386Y0193381D01*
X0176386Y0195683D02*
X0173317Y0195683D01*
X0173317Y0196450D02*
X0173317Y0193381D01*
X0173317Y0196450D02*
X0174852Y0197985D01*
X0176386Y0196450D01*
X0129648Y0146874D02*
X0129648Y0143874D01*
X0124452Y0143874D02*
X0124452Y0146776D01*
X0105648Y0146874D02*
X0105648Y0143874D01*
X0100452Y0143874D02*
X0100452Y0146776D01*
X0096751Y0146776D02*
X0096751Y0143972D01*
X0093400Y0143972D02*
X0093400Y0146776D01*
X0089648Y0146874D02*
X0089648Y0143874D01*
X0084452Y0143874D02*
X0084452Y0146776D01*
X0069381Y0132417D02*
X0060719Y0132417D01*
X0061550Y0136776D02*
X0058648Y0136776D01*
X0058550Y0141972D02*
X0061550Y0141972D01*
X0061550Y0150776D02*
X0058648Y0150776D01*
X0058550Y0155972D02*
X0061550Y0155972D01*
X0038648Y0153874D02*
X0038648Y0150874D01*
X0033452Y0150874D02*
X0033452Y0153776D01*
X0033452Y0167874D02*
X0033452Y0170874D01*
X0038648Y0170874D02*
X0038648Y0167972D01*
X0016648Y0158874D02*
X0016648Y0155874D01*
X0011452Y0155874D02*
X0011452Y0158776D01*
X0057176Y0123280D02*
X0057176Y0121311D01*
X0057176Y0123280D02*
X0059144Y0123280D01*
X0060719Y0125331D02*
X0069381Y0125331D01*
X0070956Y0123280D02*
X0072924Y0123280D01*
X0072924Y0121311D01*
X0071810Y0123673D02*
X0071812Y0123740D01*
X0071818Y0123806D01*
X0071828Y0123872D01*
X0071842Y0123937D01*
X0071859Y0124001D01*
X0071881Y0124064D01*
X0071906Y0124126D01*
X0071935Y0124186D01*
X0071968Y0124244D01*
X0072004Y0124301D01*
X0072043Y0124354D01*
X0072085Y0124406D01*
X0072130Y0124455D01*
X0072179Y0124501D01*
X0072229Y0124544D01*
X0072283Y0124584D01*
X0072338Y0124621D01*
X0072396Y0124654D01*
X0072456Y0124684D01*
X0072517Y0124710D01*
X0072580Y0124732D01*
X0072644Y0124751D01*
X0072709Y0124766D01*
X0072774Y0124777D01*
X0072841Y0124784D01*
X0072907Y0124787D01*
X0072974Y0124786D01*
X0073040Y0124781D01*
X0073106Y0124772D01*
X0073172Y0124759D01*
X0073236Y0124742D01*
X0073300Y0124722D01*
X0073362Y0124697D01*
X0073422Y0124669D01*
X0073481Y0124638D01*
X0073538Y0124603D01*
X0073592Y0124564D01*
X0073644Y0124523D01*
X0073694Y0124478D01*
X0073741Y0124431D01*
X0073784Y0124381D01*
X0073825Y0124328D01*
X0073863Y0124273D01*
X0073897Y0124216D01*
X0073928Y0124156D01*
X0073955Y0124095D01*
X0073978Y0124033D01*
X0073998Y0123969D01*
X0074014Y0123905D01*
X0074026Y0123839D01*
X0074034Y0123773D01*
X0074038Y0123706D01*
X0074038Y0123640D01*
X0074034Y0123573D01*
X0074026Y0123507D01*
X0074014Y0123441D01*
X0073998Y0123377D01*
X0073978Y0123313D01*
X0073955Y0123251D01*
X0073928Y0123190D01*
X0073897Y0123130D01*
X0073863Y0123073D01*
X0073825Y0123018D01*
X0073784Y0122965D01*
X0073741Y0122915D01*
X0073694Y0122868D01*
X0073644Y0122823D01*
X0073592Y0122782D01*
X0073538Y0122743D01*
X0073481Y0122708D01*
X0073422Y0122677D01*
X0073362Y0122649D01*
X0073300Y0122624D01*
X0073236Y0122604D01*
X0073172Y0122587D01*
X0073106Y0122574D01*
X0073040Y0122565D01*
X0072974Y0122560D01*
X0072907Y0122559D01*
X0072841Y0122562D01*
X0072774Y0122569D01*
X0072709Y0122580D01*
X0072644Y0122595D01*
X0072580Y0122614D01*
X0072517Y0122636D01*
X0072456Y0122662D01*
X0072396Y0122692D01*
X0072338Y0122725D01*
X0072283Y0122762D01*
X0072229Y0122802D01*
X0072179Y0122845D01*
X0072130Y0122891D01*
X0072085Y0122940D01*
X0072043Y0122992D01*
X0072004Y0123045D01*
X0071968Y0123102D01*
X0071935Y0123160D01*
X0071906Y0123220D01*
X0071881Y0123282D01*
X0071859Y0123345D01*
X0071842Y0123409D01*
X0071828Y0123474D01*
X0071818Y0123540D01*
X0071812Y0123606D01*
X0071810Y0123673D01*
X0075952Y0115173D02*
X0075952Y0107575D01*
X0072924Y0111469D02*
X0070956Y0111469D01*
X0072924Y0111469D02*
X0072924Y0113437D01*
X0082148Y0115173D02*
X0082148Y0107575D01*
X0084452Y0107575D02*
X0084452Y0115173D01*
X0090648Y0115173D02*
X0090648Y0107575D01*
X0059144Y0111469D02*
X0057176Y0111469D01*
X0057176Y0113437D01*
X0054148Y0115173D02*
X0054148Y0107575D01*
X0047952Y0107575D02*
X0047952Y0115173D01*
X0023269Y0083053D02*
X0023269Y0080199D01*
X0022876Y0078526D02*
X0022868Y0078593D01*
X0022856Y0078660D01*
X0022841Y0078726D01*
X0022822Y0078791D01*
X0022799Y0078854D01*
X0022772Y0078917D01*
X0022742Y0078977D01*
X0022709Y0079036D01*
X0022673Y0079093D01*
X0022633Y0079148D01*
X0022590Y0079200D01*
X0022544Y0079250D01*
X0022495Y0079297D01*
X0022444Y0079342D01*
X0022391Y0079383D01*
X0022335Y0079421D01*
X0022277Y0079456D01*
X0022217Y0079487D01*
X0022155Y0079516D01*
X0022092Y0079540D01*
X0022028Y0079561D01*
X0021962Y0079578D01*
X0021896Y0079592D01*
X0021829Y0079601D01*
X0021762Y0079607D01*
X0021694Y0079609D01*
X0021626Y0079607D01*
X0021559Y0079601D01*
X0021492Y0079592D01*
X0021426Y0079578D01*
X0021360Y0079561D01*
X0021296Y0079540D01*
X0021233Y0079516D01*
X0021171Y0079487D01*
X0021111Y0079456D01*
X0021053Y0079421D01*
X0020997Y0079383D01*
X0020944Y0079342D01*
X0020893Y0079297D01*
X0020844Y0079250D01*
X0020798Y0079200D01*
X0020755Y0079148D01*
X0020715Y0079093D01*
X0020679Y0079036D01*
X0020646Y0078977D01*
X0020616Y0078917D01*
X0020589Y0078854D01*
X0020566Y0078791D01*
X0020547Y0078726D01*
X0020532Y0078660D01*
X0020520Y0078593D01*
X0020512Y0078526D01*
X0020119Y0080297D02*
X0020119Y0083053D01*
X0012080Y0082898D02*
X0009178Y0082898D01*
X0009178Y0077701D02*
X0012178Y0077701D01*
X0012318Y0059823D02*
X0012318Y0056823D01*
X0007121Y0056823D02*
X0007121Y0059724D01*
X0058952Y0027594D02*
X0058952Y0024693D01*
X0064148Y0024693D02*
X0064148Y0027693D01*
X0067900Y0028776D02*
X0067900Y0025972D01*
X0071251Y0025972D02*
X0071251Y0028776D01*
X0095928Y0009339D02*
X0095928Y0005503D01*
X0096695Y0004735D01*
X0098230Y0004735D01*
X0098997Y0005503D01*
X0098997Y0009339D01*
X0100532Y0008572D02*
X0101299Y0009339D01*
X0102834Y0009339D01*
X0103601Y0008572D01*
X0103601Y0007805D01*
X0100532Y0004735D01*
X0103601Y0004735D01*
X0161251Y0012776D02*
X0168849Y0012776D01*
X0165952Y0009075D02*
X0163148Y0009075D01*
X0163148Y0005724D02*
X0165952Y0005724D01*
X0168849Y0018972D02*
X0161251Y0018972D01*
X0191648Y0059173D02*
X0194452Y0059173D01*
X0194452Y0062524D02*
X0191648Y0062524D01*
X0197648Y0065173D02*
X0200452Y0065173D01*
X0200452Y0068524D02*
X0197648Y0068524D01*
X0186027Y0069341D02*
X0186027Y0072411D01*
X0185260Y0073178D01*
X0182958Y0073178D01*
X0182958Y0068574D01*
X0185260Y0068574D01*
X0186027Y0069341D01*
X0181423Y0068574D02*
X0181423Y0073178D01*
X0178354Y0073178D02*
X0181423Y0068574D01*
X0178354Y0068574D02*
X0178354Y0073178D01*
X0176819Y0072411D02*
X0176052Y0073178D01*
X0174517Y0073178D01*
X0173750Y0072411D01*
X0173750Y0069341D01*
X0174517Y0068574D01*
X0176052Y0068574D01*
X0176819Y0069341D01*
X0176819Y0070876D01*
X0175285Y0070876D01*
X0212349Y0069276D02*
X0212349Y0066472D01*
X0215700Y0066472D02*
X0215700Y0069276D01*
X0226648Y0069224D02*
X0229452Y0069224D01*
X0229452Y0072575D02*
X0226648Y0072575D01*
X0226648Y0065575D02*
X0229452Y0065575D01*
X0229452Y0062224D02*
X0226648Y0062224D01*
X0241475Y0070996D02*
X0241475Y0073752D01*
X0244625Y0073752D02*
X0244625Y0070898D01*
X0253648Y0074673D02*
X0256452Y0074673D01*
X0256452Y0078024D02*
X0253648Y0078024D01*
X0253648Y0081673D02*
X0256452Y0081673D01*
X0256452Y0085024D02*
X0253648Y0085024D01*
X0267648Y0085075D02*
X0270452Y0085075D01*
X0270452Y0081724D02*
X0267648Y0081724D01*
X0267648Y0078075D02*
X0270452Y0078075D01*
X0270452Y0074724D02*
X0267648Y0074724D01*
X0065751Y0218972D02*
X0065751Y0221776D01*
X0062400Y0221776D02*
X0062400Y0218972D01*
X0031169Y0228275D02*
X0030568Y0227674D01*
X0029367Y0227674D01*
X0028767Y0228275D01*
X0028767Y0229476D02*
X0029968Y0230076D01*
X0030568Y0230076D01*
X0031169Y0229476D01*
X0031169Y0228275D01*
X0028767Y0229476D02*
X0028767Y0231277D01*
X0031169Y0231277D01*
X0027486Y0231277D02*
X0027486Y0228275D01*
X0026885Y0227674D01*
X0025684Y0227674D01*
X0025084Y0228275D01*
X0025084Y0231277D01*
D13*
X0051773Y0222433D02*
X0052259Y0221460D01*
X0053232Y0220487D01*
X0053232Y0221947D01*
X0053718Y0222433D01*
X0054205Y0222433D01*
X0054691Y0221947D01*
X0054691Y0220974D01*
X0054205Y0220487D01*
X0053232Y0220487D01*
X0054205Y0219472D02*
X0051773Y0219472D01*
X0051773Y0217526D02*
X0054205Y0217526D01*
X0054691Y0218012D01*
X0054691Y0218985D01*
X0054205Y0219472D01*
X0088337Y0188975D02*
X0089305Y0188975D01*
X0088821Y0188975D02*
X0088821Y0186556D01*
X0088337Y0186072D01*
X0087854Y0186072D01*
X0087370Y0186556D01*
X0090316Y0186556D02*
X0090800Y0186072D01*
X0091768Y0186072D01*
X0092251Y0186556D01*
X0092251Y0187040D01*
X0091768Y0187523D01*
X0091284Y0187523D01*
X0091768Y0187523D02*
X0092251Y0188007D01*
X0092251Y0188491D01*
X0091768Y0188975D01*
X0090800Y0188975D01*
X0090316Y0188491D01*
X0067522Y0168453D02*
X0067522Y0165500D01*
X0073428Y0165500D01*
X0061814Y0175343D02*
X0061814Y0181248D01*
X0132286Y0181248D01*
X0132286Y0175343D01*
X0126578Y0168453D02*
X0126578Y0165500D01*
X0120672Y0165500D01*
X0139165Y0167008D02*
X0139649Y0166524D01*
X0140616Y0166524D01*
X0141100Y0167008D01*
X0141100Y0167975D01*
X0140616Y0168459D01*
X0139649Y0168459D01*
X0139165Y0167975D01*
X0139165Y0167008D01*
X0139165Y0169471D02*
X0139165Y0170922D01*
X0139649Y0171406D01*
X0140616Y0171406D01*
X0141100Y0170922D01*
X0141100Y0169471D01*
X0142067Y0169471D02*
X0139165Y0169471D01*
X0139649Y0172417D02*
X0139165Y0172901D01*
X0139165Y0173868D01*
X0139649Y0174352D01*
X0140133Y0174352D01*
X0140133Y0172417D01*
X0140616Y0172417D02*
X0139649Y0172417D01*
X0140616Y0172417D02*
X0141100Y0172901D01*
X0141100Y0173868D01*
X0141100Y0175364D02*
X0139165Y0175364D01*
X0139165Y0176815D01*
X0139649Y0177299D01*
X0141100Y0177299D01*
X0142998Y0180274D02*
X0142998Y0181242D01*
X0142998Y0180758D02*
X0145900Y0180758D01*
X0145900Y0180274D02*
X0145900Y0181242D01*
X0145416Y0182239D02*
X0145900Y0182723D01*
X0145900Y0183690D01*
X0145416Y0184174D01*
X0143481Y0184174D01*
X0142998Y0183690D01*
X0142998Y0182723D01*
X0143481Y0182239D01*
X0145416Y0182239D01*
X0145900Y0185185D02*
X0143965Y0187120D01*
X0143481Y0187120D01*
X0142998Y0186637D01*
X0142998Y0185669D01*
X0143481Y0185185D01*
X0145900Y0185185D02*
X0145900Y0187120D01*
X0145900Y0188132D02*
X0143965Y0190067D01*
X0143481Y0190067D01*
X0142998Y0189583D01*
X0142998Y0188616D01*
X0143481Y0188132D01*
X0141100Y0188117D02*
X0141100Y0187150D01*
X0141100Y0187633D02*
X0138198Y0187633D01*
X0138198Y0187150D01*
X0139649Y0186138D02*
X0139165Y0185654D01*
X0139165Y0184687D01*
X0139649Y0184203D01*
X0140616Y0184203D01*
X0141100Y0184687D01*
X0141100Y0185654D01*
X0140616Y0186138D01*
X0139649Y0186138D01*
X0141100Y0189114D02*
X0141100Y0190081D01*
X0141100Y0189598D02*
X0138198Y0189598D01*
X0138198Y0189114D01*
X0139649Y0191078D02*
X0139165Y0191562D01*
X0139165Y0192530D01*
X0139649Y0193013D01*
X0140133Y0193013D01*
X0140133Y0191078D01*
X0140616Y0191078D02*
X0139649Y0191078D01*
X0140616Y0191078D02*
X0141100Y0191562D01*
X0141100Y0192530D01*
X0140616Y0194025D02*
X0141100Y0194509D01*
X0141100Y0195960D01*
X0140616Y0197455D02*
X0141100Y0197939D01*
X0140616Y0197455D02*
X0138681Y0197455D01*
X0139165Y0196971D02*
X0139165Y0197939D01*
X0139649Y0198936D02*
X0140616Y0198936D01*
X0141100Y0199419D01*
X0141100Y0200387D01*
X0140616Y0200871D01*
X0139649Y0200871D01*
X0139165Y0200387D01*
X0139165Y0199419D01*
X0139649Y0198936D01*
X0140133Y0201882D02*
X0139165Y0202850D01*
X0139165Y0203333D01*
X0139165Y0201882D02*
X0141100Y0201882D01*
X0139165Y0195960D02*
X0139165Y0194509D01*
X0139649Y0194025D01*
X0140616Y0194025D01*
X0142998Y0191078D02*
X0143965Y0192046D01*
X0144933Y0192046D01*
X0145900Y0191078D01*
X0145900Y0190067D02*
X0145900Y0188132D01*
X0141100Y0183192D02*
X0141100Y0181740D01*
X0140616Y0181257D01*
X0139649Y0181257D01*
X0139165Y0181740D01*
X0139165Y0183192D01*
X0144449Y0176316D02*
X0144449Y0174381D01*
X0144449Y0170423D02*
X0144449Y0169456D01*
X0144449Y0170423D02*
X0145416Y0170423D01*
X0145900Y0169940D01*
X0145900Y0168972D01*
X0145416Y0168488D01*
X0143481Y0168488D01*
X0142998Y0168972D01*
X0142998Y0169940D01*
X0143481Y0170423D01*
X0142998Y0167491D02*
X0143965Y0166524D01*
X0144933Y0166524D01*
X0145900Y0167491D01*
X0136581Y0141926D02*
X0134647Y0141926D01*
X0133635Y0141443D02*
X0133635Y0139508D01*
X0133151Y0139024D01*
X0132184Y0139024D01*
X0131700Y0139508D01*
X0131700Y0141443D01*
X0132184Y0141926D01*
X0133151Y0141926D01*
X0133635Y0141443D01*
X0132667Y0139991D02*
X0133635Y0139024D01*
X0134647Y0139024D02*
X0134647Y0139508D01*
X0136581Y0141443D01*
X0136581Y0141926D01*
X0053800Y0157804D02*
X0050664Y0160940D01*
X0050664Y0159372D02*
X0053800Y0159372D01*
X0053800Y0160940D02*
X0050664Y0157804D01*
X0052232Y0157804D02*
X0052232Y0160940D01*
X0188931Y0036176D02*
X0191400Y0033707D01*
X0191400Y0032493D02*
X0190166Y0031258D01*
X0190166Y0031876D02*
X0190166Y0030024D01*
X0191400Y0030024D02*
X0187697Y0030024D01*
X0187697Y0031876D01*
X0188314Y0032493D01*
X0189548Y0032493D01*
X0190166Y0031876D01*
X0188931Y0033707D02*
X0191400Y0036176D01*
X0191400Y0026176D02*
X0188931Y0023707D01*
X0187697Y0022493D02*
X0187697Y0020024D01*
X0187697Y0021258D02*
X0191400Y0021258D01*
X0191400Y0023707D02*
X0188931Y0026176D01*
X0248657Y0066974D02*
X0251125Y0066974D01*
X0249891Y0068208D02*
X0249891Y0065740D01*
X0261649Y0066974D02*
X0264118Y0066974D01*
X0262883Y0068208D02*
X0262883Y0065740D01*
X0070188Y0018743D02*
X0070188Y0018259D01*
X0069705Y0017775D01*
X0068737Y0017775D01*
X0068253Y0018259D01*
X0068253Y0018743D01*
X0068737Y0019226D01*
X0069705Y0019226D01*
X0070188Y0018743D01*
X0069705Y0017775D02*
X0070188Y0017291D01*
X0070188Y0016808D01*
X0069705Y0016324D01*
X0068737Y0016324D01*
X0068253Y0016808D01*
X0068253Y0017291D01*
X0068737Y0017775D01*
X0067242Y0016808D02*
X0066758Y0016324D01*
X0065791Y0016324D01*
X0065307Y0016808D01*
X0065307Y0018743D01*
X0065791Y0019226D01*
X0066758Y0019226D01*
X0067242Y0018743D01*
X0064188Y0017562D02*
X0064188Y0017078D01*
X0063705Y0016594D01*
X0062737Y0016594D01*
X0062253Y0017078D01*
X0062253Y0017562D01*
X0062737Y0018045D01*
X0063705Y0018045D01*
X0064188Y0017562D01*
X0063705Y0016594D02*
X0064188Y0016110D01*
X0064188Y0015627D01*
X0063705Y0015143D01*
X0062737Y0015143D01*
X0062253Y0015627D01*
X0062253Y0016110D01*
X0062737Y0016594D01*
X0061242Y0017078D02*
X0059307Y0015143D01*
X0061242Y0015143D01*
X0061242Y0017078D02*
X0061242Y0017562D01*
X0060758Y0018045D01*
X0059791Y0018045D01*
X0059307Y0017562D01*
X0058295Y0017562D02*
X0057812Y0018045D01*
X0056844Y0018045D01*
X0056360Y0017562D01*
X0056360Y0015627D01*
X0056844Y0015143D01*
X0057812Y0015143D01*
X0058295Y0015627D01*
X0037207Y0005569D02*
X0037207Y0005085D01*
X0035273Y0003150D01*
X0037207Y0003150D01*
X0037207Y0005569D02*
X0036724Y0006052D01*
X0035756Y0006052D01*
X0035273Y0005569D01*
X0034261Y0006052D02*
X0033293Y0006052D01*
X0033777Y0006052D02*
X0033777Y0003634D01*
X0033293Y0003150D01*
X0032810Y0003150D01*
X0032326Y0003634D01*
D14*
X0024084Y0027003D02*
X0024084Y0029205D01*
X0022983Y0028104D01*
X0024451Y0028104D01*
X0022241Y0027737D02*
X0022241Y0027370D01*
X0021874Y0027003D01*
X0021140Y0027003D01*
X0020774Y0027370D01*
X0021140Y0028104D02*
X0021874Y0028104D01*
X0022241Y0027737D01*
X0022241Y0028838D02*
X0021874Y0029205D01*
X0021140Y0029205D01*
X0020774Y0028838D01*
X0020774Y0028471D01*
X0021140Y0028104D01*
X0020032Y0027737D02*
X0020032Y0029205D01*
X0020032Y0027737D02*
X0019298Y0027003D01*
X0018564Y0027737D01*
X0018564Y0029205D01*
X0017822Y0029205D02*
X0016354Y0029205D01*
X0017088Y0029205D02*
X0017088Y0027003D01*
X0016730Y0039074D02*
X0018198Y0040542D01*
X0018198Y0040909D01*
X0017831Y0041276D01*
X0017097Y0041276D01*
X0016730Y0040909D01*
X0015988Y0040909D02*
X0015988Y0040175D01*
X0015621Y0039808D01*
X0014520Y0039808D01*
X0014520Y0039074D02*
X0014520Y0041276D01*
X0015621Y0041276D01*
X0015988Y0040909D01*
X0015254Y0039808D02*
X0015988Y0039074D01*
X0016730Y0039074D02*
X0018198Y0039074D01*
X0018940Y0039441D02*
X0019307Y0039074D01*
X0020041Y0039074D01*
X0020408Y0039441D01*
X0020408Y0039808D01*
X0020041Y0040175D01*
X0019674Y0040175D01*
X0020041Y0040175D02*
X0020408Y0040542D01*
X0020408Y0040909D01*
X0020041Y0041276D01*
X0019307Y0041276D01*
X0018940Y0040909D01*
X0030199Y0052014D02*
X0030199Y0053115D01*
X0030566Y0053482D01*
X0031300Y0053482D01*
X0031667Y0053115D01*
X0031667Y0052014D01*
X0031667Y0052748D02*
X0032401Y0053482D01*
X0032401Y0054224D02*
X0030933Y0055691D01*
X0030566Y0055691D01*
X0030199Y0055324D01*
X0030199Y0054591D01*
X0030566Y0054224D01*
X0032401Y0054224D02*
X0032401Y0055691D01*
X0032034Y0056433D02*
X0031667Y0056433D01*
X0031300Y0056800D01*
X0031300Y0057534D01*
X0031667Y0057901D01*
X0032034Y0057901D01*
X0032401Y0057534D01*
X0032401Y0056800D01*
X0032034Y0056433D01*
X0031300Y0056800D02*
X0030933Y0056433D01*
X0030566Y0056433D01*
X0030199Y0056800D01*
X0030199Y0057534D01*
X0030566Y0057901D01*
X0030933Y0057901D01*
X0031300Y0057534D01*
X0034248Y0057075D02*
X0034248Y0055974D01*
X0036450Y0055974D01*
X0035716Y0055974D02*
X0035716Y0057075D01*
X0035349Y0057442D01*
X0034615Y0057442D01*
X0034248Y0057075D01*
X0034615Y0058184D02*
X0034248Y0058551D01*
X0034248Y0059285D01*
X0034615Y0059652D01*
X0034982Y0059652D01*
X0036450Y0058184D01*
X0036450Y0059652D01*
X0036083Y0060394D02*
X0036450Y0060761D01*
X0036450Y0061495D01*
X0036083Y0061862D01*
X0035716Y0061862D01*
X0035349Y0061495D01*
X0035349Y0060394D01*
X0036083Y0060394D01*
X0035349Y0060394D02*
X0034615Y0061128D01*
X0034248Y0061862D01*
X0036450Y0057442D02*
X0035716Y0056708D01*
X0032401Y0052014D02*
X0030199Y0052014D01*
X0039118Y0043669D02*
X0039118Y0042935D01*
X0039485Y0042568D01*
X0039485Y0041826D02*
X0039118Y0041459D01*
X0039118Y0040725D01*
X0039485Y0040358D01*
X0039852Y0040358D01*
X0040219Y0040725D01*
X0040219Y0041459D01*
X0040586Y0041826D01*
X0040953Y0041826D01*
X0041320Y0041459D01*
X0041320Y0040725D01*
X0040953Y0040358D01*
X0040586Y0039616D02*
X0039118Y0039616D01*
X0039118Y0038148D02*
X0040586Y0038148D01*
X0041320Y0038882D01*
X0040586Y0039616D01*
X0039118Y0037406D02*
X0039118Y0035939D01*
X0039118Y0036673D02*
X0041320Y0036673D01*
X0041320Y0042568D02*
X0039852Y0044036D01*
X0039485Y0044036D01*
X0039118Y0043669D01*
X0041320Y0044036D02*
X0041320Y0042568D01*
X0050004Y0046037D02*
X0050004Y0047138D01*
X0050371Y0047505D01*
X0051105Y0047505D01*
X0051472Y0047138D01*
X0051472Y0046037D01*
X0052206Y0046037D02*
X0050004Y0046037D01*
X0051472Y0046771D02*
X0052206Y0047505D01*
X0052206Y0048247D02*
X0050738Y0049715D01*
X0050371Y0049715D01*
X0050004Y0049348D01*
X0050004Y0048614D01*
X0050371Y0048247D01*
X0052206Y0048247D02*
X0052206Y0049715D01*
X0052206Y0050457D02*
X0052206Y0051925D01*
X0052206Y0051191D02*
X0050004Y0051191D01*
X0050738Y0050457D01*
X0055107Y0055448D02*
X0055107Y0057650D01*
X0056208Y0057650D01*
X0056575Y0057283D01*
X0056575Y0056549D01*
X0056208Y0056182D01*
X0055107Y0056182D01*
X0055841Y0056182D02*
X0056575Y0055448D01*
X0057317Y0055448D02*
X0058785Y0055448D01*
X0058051Y0055448D02*
X0058051Y0057650D01*
X0057317Y0056916D01*
X0059527Y0056916D02*
X0059894Y0056549D01*
X0060995Y0056549D01*
X0060995Y0057283D02*
X0060628Y0057650D01*
X0059894Y0057650D01*
X0059527Y0057283D01*
X0059527Y0056916D01*
X0059527Y0055815D02*
X0059894Y0055448D01*
X0060628Y0055448D01*
X0060995Y0055815D01*
X0060995Y0057283D01*
X0061599Y0049558D02*
X0063067Y0049558D01*
X0062333Y0049558D02*
X0062333Y0047356D01*
X0063809Y0048090D02*
X0064543Y0047356D01*
X0065277Y0048090D01*
X0065277Y0049558D01*
X0066019Y0049191D02*
X0066019Y0048824D01*
X0066386Y0048457D01*
X0067120Y0048457D01*
X0067486Y0048090D01*
X0067486Y0047723D01*
X0067120Y0047356D01*
X0066386Y0047356D01*
X0066019Y0047723D01*
X0066019Y0049191D02*
X0066386Y0049558D01*
X0067120Y0049558D01*
X0067486Y0049191D01*
X0068228Y0049191D02*
X0068595Y0049558D01*
X0069329Y0049558D01*
X0069696Y0049191D01*
X0069696Y0048824D01*
X0069329Y0048457D01*
X0069696Y0048090D01*
X0069696Y0047723D01*
X0069329Y0047356D01*
X0068595Y0047356D01*
X0068228Y0047723D01*
X0068962Y0048457D02*
X0069329Y0048457D01*
X0063809Y0048090D02*
X0063809Y0049558D01*
X0062782Y0040452D02*
X0061314Y0040452D01*
X0062782Y0038985D01*
X0063149Y0039352D01*
X0063149Y0040086D01*
X0062782Y0040452D01*
X0062782Y0038985D02*
X0061314Y0038985D01*
X0060947Y0039352D01*
X0060947Y0040086D01*
X0061314Y0040452D01*
X0061314Y0038243D02*
X0060947Y0037876D01*
X0060947Y0037142D01*
X0061314Y0036775D01*
X0061314Y0036033D02*
X0062048Y0036033D01*
X0062415Y0035666D01*
X0062415Y0034565D01*
X0062415Y0035299D02*
X0063149Y0036033D01*
X0063149Y0036775D02*
X0061681Y0038243D01*
X0061314Y0038243D01*
X0063149Y0038243D02*
X0063149Y0036775D01*
X0061314Y0036033D02*
X0060947Y0035666D01*
X0060947Y0034565D01*
X0063149Y0034565D01*
X0051922Y0063364D02*
X0050454Y0063364D01*
X0051188Y0063364D02*
X0051188Y0065566D01*
X0050454Y0064832D01*
X0049712Y0065199D02*
X0049345Y0065566D01*
X0048244Y0065566D01*
X0048244Y0063364D01*
X0049345Y0063364D01*
X0049712Y0063731D01*
X0049712Y0065199D01*
X0037538Y0072341D02*
X0037171Y0071974D01*
X0036437Y0071974D01*
X0036070Y0072341D01*
X0035328Y0071974D02*
X0033860Y0071974D01*
X0034594Y0071974D02*
X0034594Y0074176D01*
X0033860Y0073442D01*
X0033118Y0073809D02*
X0033118Y0073075D01*
X0032751Y0072708D01*
X0031650Y0072708D01*
X0032384Y0072708D02*
X0033118Y0071974D01*
X0031650Y0071974D02*
X0031650Y0074176D01*
X0032751Y0074176D01*
X0033118Y0073809D01*
X0036070Y0073809D02*
X0036437Y0074176D01*
X0037171Y0074176D01*
X0037538Y0073809D01*
X0037538Y0073442D01*
X0037171Y0073075D01*
X0037538Y0072708D01*
X0037538Y0072341D01*
X0037171Y0073075D02*
X0036804Y0073075D01*
X0025994Y0076436D02*
X0025994Y0077904D01*
X0025994Y0078646D02*
X0025994Y0080113D01*
X0025994Y0080855D02*
X0025994Y0081956D01*
X0025627Y0082323D01*
X0024159Y0082323D01*
X0023792Y0081956D01*
X0023792Y0080855D01*
X0025994Y0080855D01*
X0024893Y0079379D02*
X0024893Y0078646D01*
X0023792Y0078646D02*
X0025994Y0078646D01*
X0023792Y0078646D02*
X0023792Y0080113D01*
X0022777Y0079215D02*
X0022779Y0079249D01*
X0022785Y0079283D01*
X0022795Y0079316D01*
X0022808Y0079347D01*
X0022826Y0079377D01*
X0022846Y0079405D01*
X0022870Y0079430D01*
X0022896Y0079452D01*
X0022924Y0079470D01*
X0022955Y0079486D01*
X0022987Y0079498D01*
X0023021Y0079506D01*
X0023055Y0079510D01*
X0023089Y0079510D01*
X0023123Y0079506D01*
X0023157Y0079498D01*
X0023189Y0079486D01*
X0023219Y0079470D01*
X0023248Y0079452D01*
X0023274Y0079430D01*
X0023298Y0079405D01*
X0023318Y0079377D01*
X0023336Y0079347D01*
X0023349Y0079316D01*
X0023359Y0079283D01*
X0023365Y0079249D01*
X0023367Y0079215D01*
X0023365Y0079181D01*
X0023359Y0079147D01*
X0023349Y0079114D01*
X0023336Y0079083D01*
X0023318Y0079053D01*
X0023298Y0079025D01*
X0023274Y0079000D01*
X0023248Y0078978D01*
X0023220Y0078960D01*
X0023189Y0078944D01*
X0023157Y0078932D01*
X0023123Y0078924D01*
X0023089Y0078920D01*
X0023055Y0078920D01*
X0023021Y0078924D01*
X0022987Y0078932D01*
X0022955Y0078944D01*
X0022924Y0078960D01*
X0022896Y0078978D01*
X0022870Y0079000D01*
X0022846Y0079025D01*
X0022826Y0079053D01*
X0022808Y0079083D01*
X0022795Y0079114D01*
X0022785Y0079147D01*
X0022779Y0079181D01*
X0022777Y0079215D01*
X0024526Y0083065D02*
X0023792Y0083799D01*
X0025994Y0083799D01*
X0025994Y0083065D02*
X0025994Y0084533D01*
X0022777Y0084923D02*
X0022775Y0084859D01*
X0022769Y0084795D01*
X0022760Y0084731D01*
X0022747Y0084669D01*
X0022730Y0084607D01*
X0022709Y0084546D01*
X0022685Y0084486D01*
X0022657Y0084428D01*
X0022627Y0084372D01*
X0022592Y0084318D01*
X0022555Y0084266D01*
X0022514Y0084216D01*
X0022471Y0084169D01*
X0022425Y0084124D01*
X0022376Y0084082D01*
X0022325Y0084043D01*
X0022272Y0084007D01*
X0022217Y0083975D01*
X0022160Y0083945D01*
X0022101Y0083919D01*
X0022041Y0083897D01*
X0021979Y0083878D01*
X0021917Y0083863D01*
X0021854Y0083852D01*
X0021790Y0083844D01*
X0021726Y0083840D01*
X0021662Y0083840D01*
X0021598Y0083844D01*
X0021534Y0083852D01*
X0021471Y0083863D01*
X0021409Y0083878D01*
X0021347Y0083897D01*
X0021287Y0083919D01*
X0021228Y0083945D01*
X0021171Y0083975D01*
X0021116Y0084007D01*
X0021063Y0084043D01*
X0021012Y0084082D01*
X0020963Y0084124D01*
X0020917Y0084169D01*
X0020874Y0084216D01*
X0020833Y0084266D01*
X0020796Y0084318D01*
X0020761Y0084372D01*
X0020731Y0084428D01*
X0020703Y0084486D01*
X0020679Y0084546D01*
X0020658Y0084607D01*
X0020641Y0084669D01*
X0020628Y0084731D01*
X0020619Y0084795D01*
X0020613Y0084859D01*
X0020611Y0084923D01*
X0020549Y0086738D02*
X0018347Y0086738D01*
X0018347Y0087839D01*
X0018714Y0088206D01*
X0019448Y0088206D01*
X0019815Y0087839D01*
X0019815Y0086738D01*
X0019815Y0087472D02*
X0020549Y0088206D01*
X0020549Y0088948D02*
X0019081Y0090416D01*
X0018714Y0090416D01*
X0018347Y0090049D01*
X0018347Y0089315D01*
X0018714Y0088948D01*
X0020549Y0088948D02*
X0020549Y0090416D01*
X0020549Y0091158D02*
X0020182Y0091158D01*
X0018714Y0092626D01*
X0018347Y0092626D01*
X0018347Y0091158D01*
X0030650Y0090176D02*
X0030650Y0087974D01*
X0030650Y0088708D02*
X0031751Y0088708D01*
X0032118Y0089075D01*
X0032118Y0089809D01*
X0031751Y0090176D01*
X0030650Y0090176D01*
X0031384Y0088708D02*
X0032118Y0087974D01*
X0032860Y0087974D02*
X0034328Y0087974D01*
X0033594Y0087974D02*
X0033594Y0090176D01*
X0032860Y0089442D01*
X0035070Y0089075D02*
X0036538Y0089075D01*
X0036171Y0087974D02*
X0036171Y0090176D01*
X0035070Y0089075D01*
X0038730Y0086909D02*
X0038730Y0085441D01*
X0039097Y0085074D01*
X0039831Y0085074D01*
X0040198Y0085441D01*
X0040198Y0086909D01*
X0039831Y0087276D01*
X0039097Y0087276D01*
X0038730Y0086909D01*
X0039464Y0085808D02*
X0040198Y0085074D01*
X0040940Y0085441D02*
X0041307Y0085074D01*
X0042041Y0085074D01*
X0042408Y0085441D01*
X0042408Y0085808D01*
X0042041Y0086175D01*
X0040940Y0086175D01*
X0040940Y0085441D01*
X0040940Y0086175D02*
X0041674Y0086909D01*
X0042408Y0087276D01*
X0057228Y0083904D02*
X0059430Y0083904D01*
X0059430Y0083170D02*
X0059430Y0084638D01*
X0057962Y0083170D02*
X0057228Y0083904D01*
X0058329Y0082428D02*
X0059430Y0082428D01*
X0058329Y0082428D02*
X0057962Y0082061D01*
X0057962Y0080960D01*
X0059430Y0080960D01*
X0059430Y0080221D02*
X0059430Y0079487D01*
X0059430Y0079854D02*
X0057962Y0079854D01*
X0057962Y0079487D01*
X0057228Y0079854D02*
X0056861Y0079854D01*
X0058329Y0078745D02*
X0059063Y0078745D01*
X0059430Y0078378D01*
X0059430Y0077277D01*
X0060164Y0077277D02*
X0057962Y0077277D01*
X0057962Y0078378D01*
X0058329Y0078745D01*
X0065398Y0072530D02*
X0065398Y0070328D01*
X0065398Y0071062D02*
X0066499Y0071062D01*
X0066866Y0071429D01*
X0066866Y0072163D01*
X0066499Y0072530D01*
X0065398Y0072530D01*
X0066132Y0071062D02*
X0066866Y0070328D01*
X0067608Y0070328D02*
X0069076Y0070328D01*
X0068342Y0070328D02*
X0068342Y0072530D01*
X0067608Y0071796D01*
X0069818Y0071796D02*
X0069818Y0072163D01*
X0070185Y0072530D01*
X0070919Y0072530D01*
X0071286Y0072163D01*
X0071286Y0071796D01*
X0070919Y0071429D01*
X0070185Y0071429D01*
X0069818Y0071796D01*
X0070185Y0071429D02*
X0069818Y0071062D01*
X0069818Y0070695D01*
X0070185Y0070328D01*
X0070919Y0070328D01*
X0071286Y0070695D01*
X0071286Y0071062D01*
X0070919Y0071429D01*
X0080713Y0086982D02*
X0080713Y0088083D01*
X0081080Y0088450D01*
X0081814Y0088450D01*
X0082181Y0088083D01*
X0082181Y0086982D01*
X0082915Y0086982D02*
X0080713Y0086982D01*
X0082181Y0087716D02*
X0082915Y0088450D01*
X0082915Y0089192D02*
X0082915Y0090660D01*
X0082915Y0089926D02*
X0080713Y0089926D01*
X0081447Y0089192D01*
X0081814Y0091402D02*
X0081814Y0092503D01*
X0082181Y0092870D01*
X0082548Y0092870D01*
X0082915Y0092503D01*
X0082915Y0091769D01*
X0082548Y0091402D01*
X0081814Y0091402D01*
X0081080Y0092136D01*
X0080713Y0092870D01*
X0098349Y0092439D02*
X0098349Y0093540D01*
X0098716Y0093907D01*
X0099450Y0093907D01*
X0099817Y0093540D01*
X0099817Y0092439D01*
X0100551Y0092439D02*
X0098349Y0092439D01*
X0099817Y0093173D02*
X0100551Y0093907D01*
X0100551Y0094649D02*
X0100551Y0096117D01*
X0100551Y0095383D02*
X0098349Y0095383D01*
X0099083Y0094649D01*
X0098349Y0096859D02*
X0098349Y0098327D01*
X0098716Y0098327D01*
X0100184Y0096859D01*
X0100551Y0096859D01*
X0076799Y0118933D02*
X0076799Y0119667D01*
X0076432Y0120034D01*
X0074597Y0120034D01*
X0074964Y0120776D02*
X0074597Y0121143D01*
X0074597Y0121877D01*
X0074964Y0122244D01*
X0075331Y0122244D01*
X0075698Y0121877D01*
X0076065Y0122244D01*
X0076432Y0122244D01*
X0076799Y0121877D01*
X0076799Y0121143D01*
X0076432Y0120776D01*
X0076150Y0120841D02*
X0076517Y0120474D01*
X0077251Y0120474D01*
X0077618Y0120841D01*
X0078360Y0120474D02*
X0079828Y0120474D01*
X0079094Y0120474D02*
X0079094Y0122676D01*
X0078360Y0121942D01*
X0077618Y0122309D02*
X0077251Y0122676D01*
X0076517Y0122676D01*
X0076150Y0122309D01*
X0076150Y0120841D01*
X0075698Y0121510D02*
X0075698Y0121877D01*
X0076799Y0118933D02*
X0076432Y0118566D01*
X0074597Y0118566D01*
X0080570Y0121575D02*
X0081671Y0122676D01*
X0081671Y0120474D01*
X0082038Y0121575D02*
X0080570Y0121575D01*
X0085650Y0122309D02*
X0085650Y0120841D01*
X0086017Y0120474D01*
X0086751Y0120474D01*
X0087118Y0120841D01*
X0087860Y0120474D02*
X0089328Y0120474D01*
X0088594Y0120474D02*
X0088594Y0122676D01*
X0087860Y0121942D01*
X0087118Y0122309D02*
X0086751Y0122676D01*
X0086017Y0122676D01*
X0085650Y0122309D01*
X0090070Y0122676D02*
X0090070Y0121575D01*
X0090804Y0121942D01*
X0091171Y0121942D01*
X0091538Y0121575D01*
X0091538Y0120841D01*
X0091171Y0120474D01*
X0090437Y0120474D01*
X0090070Y0120841D01*
X0090070Y0122676D02*
X0091538Y0122676D01*
X0094097Y0135074D02*
X0094831Y0135074D01*
X0095198Y0135441D01*
X0095940Y0135441D02*
X0096307Y0135074D01*
X0097041Y0135074D01*
X0097408Y0135441D01*
X0097408Y0136909D01*
X0097041Y0137276D01*
X0096307Y0137276D01*
X0095940Y0136909D01*
X0095940Y0136542D01*
X0096307Y0136175D01*
X0097408Y0136175D01*
X0095198Y0136909D02*
X0094831Y0137276D01*
X0094097Y0137276D01*
X0093730Y0136909D01*
X0093730Y0135441D01*
X0094097Y0135074D01*
X0100730Y0135441D02*
X0101097Y0135074D01*
X0101831Y0135074D01*
X0102198Y0135441D01*
X0102940Y0135441D02*
X0103307Y0135074D01*
X0104041Y0135074D01*
X0104408Y0135441D01*
X0104408Y0135808D01*
X0104041Y0136175D01*
X0102940Y0136175D01*
X0102940Y0135441D01*
X0102940Y0136175D02*
X0103674Y0136909D01*
X0104408Y0137276D01*
X0102198Y0136909D02*
X0101831Y0137276D01*
X0101097Y0137276D01*
X0100730Y0136909D01*
X0100730Y0135441D01*
X0111230Y0135074D02*
X0111230Y0137276D01*
X0112331Y0137276D01*
X0112698Y0136909D01*
X0112698Y0136175D01*
X0112331Y0135808D01*
X0111230Y0135808D01*
X0111964Y0135808D02*
X0112698Y0135074D01*
X0113440Y0136175D02*
X0114908Y0136175D01*
X0114541Y0135074D02*
X0114541Y0137276D01*
X0113440Y0136175D01*
X0117230Y0135808D02*
X0118331Y0135808D01*
X0118698Y0136175D01*
X0118698Y0136909D01*
X0118331Y0137276D01*
X0117230Y0137276D01*
X0117230Y0135074D01*
X0117964Y0135808D02*
X0118698Y0135074D01*
X0119440Y0135441D02*
X0119807Y0135074D01*
X0120541Y0135074D01*
X0120908Y0135441D01*
X0120908Y0135808D01*
X0120541Y0136175D01*
X0120174Y0136175D01*
X0120541Y0136175D02*
X0120908Y0136542D01*
X0120908Y0136909D01*
X0120541Y0137276D01*
X0119807Y0137276D01*
X0119440Y0136909D01*
X0131148Y0145211D02*
X0131148Y0145945D01*
X0131515Y0146312D01*
X0131882Y0147054D02*
X0131148Y0147788D01*
X0133350Y0147788D01*
X0133350Y0147054D02*
X0133350Y0148522D01*
X0132983Y0149264D02*
X0133350Y0149631D01*
X0133350Y0150365D01*
X0132983Y0150732D01*
X0131515Y0150732D01*
X0131148Y0150365D01*
X0131148Y0149631D01*
X0131515Y0149264D01*
X0131882Y0149264D01*
X0132249Y0149631D01*
X0132249Y0150732D01*
X0132983Y0146312D02*
X0133350Y0145945D01*
X0133350Y0145211D01*
X0132983Y0144844D01*
X0131515Y0144844D01*
X0131148Y0145211D01*
X0137020Y0144808D02*
X0138121Y0144808D01*
X0138488Y0145175D01*
X0138488Y0145909D01*
X0138121Y0146276D01*
X0137020Y0146276D01*
X0137020Y0144074D01*
X0137754Y0144808D02*
X0138488Y0144074D01*
X0139230Y0144074D02*
X0140698Y0145542D01*
X0140698Y0145909D01*
X0140331Y0146276D01*
X0139597Y0146276D01*
X0139230Y0145909D01*
X0139230Y0144074D02*
X0140698Y0144074D01*
X0141440Y0144441D02*
X0141807Y0144074D01*
X0142541Y0144074D01*
X0142908Y0144441D01*
X0142908Y0145909D01*
X0142541Y0146276D01*
X0141807Y0146276D01*
X0141440Y0145909D01*
X0141440Y0145542D01*
X0141807Y0145175D01*
X0142908Y0145175D01*
X0187748Y0166474D02*
X0189950Y0166474D01*
X0189950Y0167942D01*
X0189950Y0168684D02*
X0187748Y0168684D01*
X0187748Y0170152D01*
X0187748Y0170894D02*
X0187748Y0171995D01*
X0188115Y0172362D01*
X0189583Y0172362D01*
X0189950Y0171995D01*
X0189950Y0170894D01*
X0187748Y0170894D01*
X0188849Y0169418D02*
X0188849Y0168684D01*
X0189950Y0168684D02*
X0189950Y0170152D01*
X0189583Y0173104D02*
X0189950Y0173471D01*
X0189950Y0174205D01*
X0189583Y0174572D01*
X0189216Y0174572D01*
X0188849Y0174205D01*
X0188849Y0173838D01*
X0188849Y0174205D02*
X0188482Y0174572D01*
X0188115Y0174572D01*
X0187748Y0174205D01*
X0187748Y0173471D01*
X0188115Y0173104D01*
X0194633Y0166913D02*
X0194635Y0166947D01*
X0194641Y0166981D01*
X0194651Y0167014D01*
X0194664Y0167045D01*
X0194682Y0167075D01*
X0194702Y0167103D01*
X0194726Y0167128D01*
X0194752Y0167150D01*
X0194780Y0167168D01*
X0194811Y0167184D01*
X0194843Y0167196D01*
X0194877Y0167204D01*
X0194911Y0167208D01*
X0194945Y0167208D01*
X0194979Y0167204D01*
X0195013Y0167196D01*
X0195045Y0167184D01*
X0195075Y0167168D01*
X0195104Y0167150D01*
X0195130Y0167128D01*
X0195154Y0167103D01*
X0195174Y0167075D01*
X0195192Y0167045D01*
X0195205Y0167014D01*
X0195215Y0166981D01*
X0195221Y0166947D01*
X0195223Y0166913D01*
X0195221Y0166879D01*
X0195215Y0166845D01*
X0195205Y0166812D01*
X0195192Y0166781D01*
X0195174Y0166751D01*
X0195154Y0166723D01*
X0195130Y0166698D01*
X0195104Y0166676D01*
X0195076Y0166658D01*
X0195045Y0166642D01*
X0195013Y0166630D01*
X0194979Y0166622D01*
X0194945Y0166618D01*
X0194911Y0166618D01*
X0194877Y0166622D01*
X0194843Y0166630D01*
X0194811Y0166642D01*
X0194780Y0166658D01*
X0194752Y0166676D01*
X0194726Y0166698D01*
X0194702Y0166723D01*
X0194682Y0166751D01*
X0194664Y0166781D01*
X0194651Y0166812D01*
X0194641Y0166845D01*
X0194635Y0166879D01*
X0194633Y0166913D01*
X0196020Y0164276D02*
X0197121Y0164276D01*
X0197488Y0163909D01*
X0197488Y0163175D01*
X0197121Y0162808D01*
X0196020Y0162808D01*
X0196020Y0162074D02*
X0196020Y0164276D01*
X0196754Y0162808D02*
X0197488Y0162074D01*
X0198230Y0162074D02*
X0199698Y0163542D01*
X0199698Y0163909D01*
X0199331Y0164276D01*
X0198597Y0164276D01*
X0198230Y0163909D01*
X0198230Y0162074D02*
X0199698Y0162074D01*
X0200440Y0162441D02*
X0200807Y0162074D01*
X0201541Y0162074D01*
X0201908Y0162441D01*
X0201908Y0163175D01*
X0201541Y0163542D01*
X0201174Y0163542D01*
X0200440Y0163175D01*
X0200440Y0164276D01*
X0201908Y0164276D01*
X0212400Y0173341D02*
X0212767Y0172974D01*
X0213501Y0172974D01*
X0213868Y0173341D01*
X0213868Y0174809D01*
X0213501Y0175176D01*
X0212767Y0175176D01*
X0212400Y0174809D01*
X0212400Y0173341D01*
X0213134Y0173708D02*
X0213868Y0172974D01*
X0214610Y0173341D02*
X0214977Y0172974D01*
X0215711Y0172974D01*
X0216078Y0173341D01*
X0216078Y0173708D01*
X0215711Y0174075D01*
X0215344Y0174075D01*
X0215711Y0174075D02*
X0216078Y0174442D01*
X0216078Y0174809D01*
X0215711Y0175176D01*
X0214977Y0175176D01*
X0214610Y0174809D01*
X0235150Y0194474D02*
X0235150Y0196676D01*
X0236251Y0196676D01*
X0236618Y0196309D01*
X0236618Y0195575D01*
X0236251Y0195208D01*
X0235150Y0195208D01*
X0235884Y0195208D02*
X0236618Y0194474D01*
X0237360Y0194841D02*
X0237727Y0194474D01*
X0238461Y0194474D01*
X0238828Y0194841D01*
X0238828Y0196309D01*
X0238461Y0196676D01*
X0237727Y0196676D01*
X0237360Y0196309D01*
X0237360Y0195942D01*
X0237727Y0195575D01*
X0238828Y0195575D01*
X0254148Y0191732D02*
X0254148Y0190264D01*
X0254515Y0189522D02*
X0255249Y0189522D01*
X0255616Y0189155D01*
X0255616Y0188054D01*
X0256350Y0188054D02*
X0254148Y0188054D01*
X0254148Y0189155D01*
X0254515Y0189522D01*
X0255616Y0188788D02*
X0256350Y0189522D01*
X0256350Y0190264D02*
X0255983Y0190264D01*
X0254515Y0191732D01*
X0254148Y0191732D01*
X0253831Y0165276D02*
X0252730Y0165276D01*
X0252730Y0163074D01*
X0252730Y0163808D02*
X0253831Y0163808D01*
X0254198Y0164175D01*
X0254198Y0164909D01*
X0253831Y0165276D01*
X0253464Y0163808D02*
X0254198Y0163074D01*
X0254940Y0163441D02*
X0255307Y0163074D01*
X0256041Y0163074D01*
X0256408Y0163441D01*
X0256408Y0163808D01*
X0256041Y0164175D01*
X0254940Y0164175D01*
X0254940Y0163441D01*
X0254940Y0164175D02*
X0255674Y0164909D01*
X0256408Y0165276D01*
X0242408Y0164909D02*
X0242408Y0164542D01*
X0242041Y0164175D01*
X0241307Y0164175D01*
X0240940Y0164542D01*
X0240940Y0164909D01*
X0241307Y0165276D01*
X0242041Y0165276D01*
X0242408Y0164909D01*
X0242041Y0164175D02*
X0242408Y0163808D01*
X0242408Y0163441D01*
X0242041Y0163074D01*
X0241307Y0163074D01*
X0240940Y0163441D01*
X0240940Y0163808D01*
X0241307Y0164175D01*
X0240198Y0164175D02*
X0239831Y0163808D01*
X0238730Y0163808D01*
X0238730Y0163074D02*
X0238730Y0165276D01*
X0239831Y0165276D01*
X0240198Y0164909D01*
X0240198Y0164175D01*
X0239464Y0163808D02*
X0240198Y0163074D01*
X0169704Y0097795D02*
X0169704Y0096327D01*
X0169704Y0097061D02*
X0167502Y0097061D01*
X0168236Y0096327D01*
X0168603Y0095585D02*
X0169704Y0095585D01*
X0168603Y0095585D02*
X0168236Y0095218D01*
X0168236Y0094117D01*
X0169704Y0094117D01*
X0169704Y0093378D02*
X0169704Y0092644D01*
X0169704Y0093011D02*
X0168236Y0093011D01*
X0168236Y0092644D01*
X0167502Y0093011D02*
X0167135Y0093011D01*
X0168603Y0091902D02*
X0168236Y0091535D01*
X0168236Y0090434D01*
X0170438Y0090434D01*
X0169704Y0090434D02*
X0169704Y0091535D01*
X0169337Y0091902D01*
X0168603Y0091902D01*
X0211953Y0085428D02*
X0214155Y0085428D01*
X0214155Y0084694D02*
X0214155Y0086162D01*
X0212687Y0084694D02*
X0211953Y0085428D01*
X0212320Y0083952D02*
X0211953Y0083585D01*
X0211953Y0082851D01*
X0212320Y0082484D01*
X0212687Y0082484D01*
X0213054Y0082851D01*
X0213054Y0083585D01*
X0213421Y0083952D01*
X0213788Y0083952D01*
X0214155Y0083585D01*
X0214155Y0082851D01*
X0213788Y0082484D01*
X0213421Y0081742D02*
X0211953Y0081742D01*
X0211953Y0080274D02*
X0213421Y0080274D01*
X0214155Y0081008D01*
X0213421Y0081742D01*
X0211953Y0079532D02*
X0211953Y0078065D01*
X0211953Y0078799D02*
X0214155Y0078799D01*
X0238248Y0080974D02*
X0238248Y0082075D01*
X0238615Y0082442D01*
X0239349Y0082442D01*
X0239716Y0082075D01*
X0239716Y0080974D01*
X0239716Y0081708D02*
X0240450Y0082442D01*
X0240450Y0083184D02*
X0238982Y0084652D01*
X0238615Y0084652D01*
X0238248Y0084285D01*
X0238248Y0083551D01*
X0238615Y0083184D01*
X0240450Y0083184D02*
X0240450Y0084652D01*
X0239349Y0085394D02*
X0239349Y0086862D01*
X0238248Y0086495D02*
X0239349Y0085394D01*
X0240450Y0086495D02*
X0238248Y0086495D01*
X0238248Y0080974D02*
X0240450Y0080974D01*
X0244133Y0069913D02*
X0244135Y0069947D01*
X0244141Y0069981D01*
X0244151Y0070014D01*
X0244164Y0070045D01*
X0244182Y0070075D01*
X0244202Y0070103D01*
X0244226Y0070128D01*
X0244252Y0070150D01*
X0244280Y0070168D01*
X0244311Y0070184D01*
X0244343Y0070196D01*
X0244377Y0070204D01*
X0244411Y0070208D01*
X0244445Y0070208D01*
X0244479Y0070204D01*
X0244513Y0070196D01*
X0244545Y0070184D01*
X0244575Y0070168D01*
X0244604Y0070150D01*
X0244630Y0070128D01*
X0244654Y0070103D01*
X0244674Y0070075D01*
X0244692Y0070045D01*
X0244705Y0070014D01*
X0244715Y0069981D01*
X0244721Y0069947D01*
X0244723Y0069913D01*
X0244721Y0069879D01*
X0244715Y0069845D01*
X0244705Y0069812D01*
X0244692Y0069781D01*
X0244674Y0069751D01*
X0244654Y0069723D01*
X0244630Y0069698D01*
X0244604Y0069676D01*
X0244576Y0069658D01*
X0244545Y0069642D01*
X0244513Y0069630D01*
X0244479Y0069622D01*
X0244445Y0069618D01*
X0244411Y0069618D01*
X0244377Y0069622D01*
X0244343Y0069630D01*
X0244311Y0069642D01*
X0244280Y0069658D01*
X0244252Y0069676D01*
X0244226Y0069698D01*
X0244202Y0069723D01*
X0244182Y0069751D01*
X0244164Y0069781D01*
X0244151Y0069812D01*
X0244141Y0069845D01*
X0244135Y0069879D01*
X0244133Y0069913D01*
X0244331Y0065276D02*
X0243230Y0065276D01*
X0243230Y0063074D01*
X0244331Y0063074D01*
X0244698Y0063441D01*
X0244698Y0064909D01*
X0244331Y0065276D01*
X0245440Y0064909D02*
X0245807Y0065276D01*
X0246541Y0065276D01*
X0246908Y0064909D01*
X0246908Y0064542D01*
X0245440Y0063074D01*
X0246908Y0063074D01*
X0242488Y0063074D02*
X0241020Y0063074D01*
X0241020Y0065276D01*
X0242488Y0065276D01*
X0241754Y0064175D02*
X0241020Y0064175D01*
X0240278Y0063074D02*
X0238810Y0063074D01*
X0238810Y0065276D01*
X0256890Y0047854D02*
X0256890Y0046386D01*
X0257257Y0046019D01*
X0257991Y0046019D01*
X0258358Y0046386D01*
X0259100Y0046019D02*
X0260568Y0047487D01*
X0260568Y0047854D01*
X0260201Y0048221D01*
X0259467Y0048221D01*
X0259100Y0047854D01*
X0258358Y0047854D02*
X0257991Y0048221D01*
X0257257Y0048221D01*
X0256890Y0047854D01*
X0259100Y0046019D02*
X0260568Y0046019D01*
X0261310Y0046019D02*
X0261310Y0046386D01*
X0262778Y0047854D01*
X0262778Y0048221D01*
X0261310Y0048221D01*
X0273020Y0044776D02*
X0273020Y0042574D01*
X0273020Y0043308D02*
X0274121Y0043308D01*
X0274488Y0043675D01*
X0274488Y0044409D01*
X0274121Y0044776D01*
X0273020Y0044776D01*
X0273754Y0043308D02*
X0274488Y0042574D01*
X0275230Y0042574D02*
X0276698Y0042574D01*
X0275964Y0042574D02*
X0275964Y0044776D01*
X0275230Y0044042D01*
X0277440Y0044409D02*
X0277807Y0044776D01*
X0278541Y0044776D01*
X0278908Y0044409D01*
X0278908Y0044042D01*
X0277440Y0042574D01*
X0278908Y0042574D01*
X0261450Y0027862D02*
X0261450Y0026394D01*
X0261450Y0027128D02*
X0259248Y0027128D01*
X0259982Y0026394D01*
X0261450Y0025652D02*
X0261450Y0024184D01*
X0261450Y0024918D02*
X0259248Y0024918D01*
X0259982Y0024184D01*
X0259615Y0023442D02*
X0260349Y0023442D01*
X0260716Y0023075D01*
X0260716Y0021974D01*
X0260716Y0022708D02*
X0261450Y0023442D01*
X0261450Y0021974D02*
X0259248Y0021974D01*
X0259248Y0023075D01*
X0259615Y0023442D01*
X0256671Y0028474D02*
X0255937Y0028474D01*
X0255570Y0028841D01*
X0257038Y0030309D01*
X0257038Y0028841D01*
X0256671Y0028474D01*
X0255570Y0028841D02*
X0255570Y0030309D01*
X0255937Y0030676D01*
X0256671Y0030676D01*
X0257038Y0030309D01*
X0254828Y0028474D02*
X0253360Y0028474D01*
X0254094Y0028474D02*
X0254094Y0030676D01*
X0253360Y0029942D01*
X0252618Y0030309D02*
X0252251Y0030676D01*
X0251150Y0030676D01*
X0251150Y0028474D01*
X0251150Y0029208D02*
X0252251Y0029208D01*
X0252618Y0029575D01*
X0252618Y0030309D01*
X0251884Y0029208D02*
X0252618Y0028474D01*
X0267017Y0064974D02*
X0266650Y0065341D01*
X0266650Y0066809D01*
X0267017Y0067176D01*
X0267751Y0067176D01*
X0268118Y0066809D01*
X0268118Y0065341D01*
X0267751Y0064974D01*
X0267017Y0064974D01*
X0267384Y0065708D02*
X0268118Y0064974D01*
X0268860Y0065341D02*
X0269227Y0064974D01*
X0269961Y0064974D01*
X0270328Y0065341D01*
X0270328Y0066075D01*
X0269961Y0066442D01*
X0269594Y0066442D01*
X0268860Y0066075D01*
X0268860Y0067176D01*
X0270328Y0067176D01*
X0262696Y0092883D02*
X0261962Y0092883D01*
X0261595Y0093250D01*
X0260853Y0093250D02*
X0260486Y0092883D01*
X0259385Y0092883D01*
X0259385Y0095085D01*
X0260486Y0095085D01*
X0260853Y0094718D01*
X0260853Y0094351D01*
X0260486Y0093984D01*
X0259385Y0093984D01*
X0260486Y0093984D02*
X0260853Y0093617D01*
X0260853Y0093250D01*
X0261595Y0094718D02*
X0261962Y0095085D01*
X0262696Y0095085D01*
X0263063Y0094718D01*
X0263063Y0094351D01*
X0262696Y0093984D01*
X0263063Y0093617D01*
X0263063Y0093250D01*
X0262696Y0092883D01*
X0262696Y0093984D02*
X0262329Y0093984D01*
X0258644Y0095085D02*
X0257176Y0095085D01*
X0257176Y0092883D01*
X0257176Y0093984D02*
X0257910Y0093984D01*
X0173038Y0022176D02*
X0172304Y0021809D01*
X0171570Y0021075D01*
X0172671Y0021075D01*
X0173038Y0020708D01*
X0173038Y0020341D01*
X0172671Y0019974D01*
X0171937Y0019974D01*
X0171570Y0020341D01*
X0171570Y0021075D01*
X0170828Y0019974D02*
X0169360Y0019974D01*
X0170094Y0019974D02*
X0170094Y0022176D01*
X0169360Y0021442D01*
X0168618Y0021809D02*
X0168251Y0022176D01*
X0167517Y0022176D01*
X0167150Y0021809D01*
X0167150Y0020341D01*
X0167517Y0019974D01*
X0168251Y0019974D01*
X0168618Y0020341D01*
X0159950Y0024974D02*
X0157748Y0024974D01*
X0157748Y0026075D01*
X0158115Y0026442D01*
X0158849Y0026442D01*
X0159216Y0026075D01*
X0159216Y0024974D01*
X0159216Y0025708D02*
X0159950Y0026442D01*
X0159950Y0027184D02*
X0158482Y0028652D01*
X0158115Y0028652D01*
X0157748Y0028285D01*
X0157748Y0027551D01*
X0158115Y0027184D01*
X0159950Y0027184D02*
X0159950Y0028652D01*
X0159950Y0029394D02*
X0158482Y0030862D01*
X0158115Y0030862D01*
X0157748Y0030495D01*
X0157748Y0029761D01*
X0158115Y0029394D01*
X0159950Y0029394D02*
X0159950Y0030862D01*
X0159716Y0032974D02*
X0159716Y0034075D01*
X0159349Y0034442D01*
X0158615Y0034442D01*
X0158248Y0034075D01*
X0158248Y0032974D01*
X0160450Y0032974D01*
X0159716Y0033708D02*
X0160450Y0034442D01*
X0160450Y0035184D02*
X0160450Y0036652D01*
X0160450Y0035918D02*
X0158248Y0035918D01*
X0158982Y0035184D01*
X0158248Y0040974D02*
X0158248Y0042075D01*
X0158615Y0042442D01*
X0159349Y0042442D01*
X0159716Y0042075D01*
X0159716Y0040974D01*
X0159716Y0041708D02*
X0160450Y0042442D01*
X0160450Y0043184D02*
X0158982Y0044652D01*
X0158615Y0044652D01*
X0158248Y0044285D01*
X0158248Y0043551D01*
X0158615Y0043184D01*
X0160450Y0043184D02*
X0160450Y0044652D01*
X0160450Y0040974D02*
X0158248Y0040974D01*
X0155828Y0005676D02*
X0155828Y0005309D01*
X0154360Y0003841D01*
X0154360Y0003474D01*
X0153618Y0003841D02*
X0153251Y0003474D01*
X0152517Y0003474D01*
X0152150Y0003841D01*
X0152150Y0005309D01*
X0152517Y0005676D01*
X0153251Y0005676D01*
X0153618Y0005309D01*
X0154360Y0005676D02*
X0155828Y0005676D01*
X0058350Y0102211D02*
X0057983Y0101844D01*
X0056515Y0101844D01*
X0056148Y0102211D01*
X0056148Y0102945D01*
X0056515Y0103312D01*
X0056882Y0104054D02*
X0056148Y0104788D01*
X0058350Y0104788D01*
X0058350Y0104054D02*
X0058350Y0105522D01*
X0057983Y0106264D02*
X0058350Y0106631D01*
X0058350Y0107365D01*
X0057983Y0107732D01*
X0057616Y0107732D01*
X0057249Y0107365D01*
X0057249Y0106998D01*
X0057249Y0107365D02*
X0056882Y0107732D01*
X0056515Y0107732D01*
X0056148Y0107365D01*
X0056148Y0106631D01*
X0056515Y0106264D01*
X0057983Y0103312D02*
X0058350Y0102945D01*
X0058350Y0102211D01*
X0025994Y0076436D02*
X0023792Y0076436D01*
X0015076Y0072278D02*
X0015076Y0070810D01*
X0015076Y0071544D02*
X0012874Y0071544D01*
X0013608Y0070810D01*
X0012874Y0070068D02*
X0014709Y0070068D01*
X0015076Y0069701D01*
X0015076Y0068967D01*
X0014709Y0068600D01*
X0012874Y0068600D01*
X0010616Y0074202D02*
X0009882Y0074202D01*
X0009515Y0074569D01*
X0009515Y0074936D01*
X0009882Y0075303D01*
X0010616Y0075303D01*
X0010983Y0074936D01*
X0010983Y0074569D01*
X0010616Y0074202D01*
X0010616Y0075303D02*
X0010983Y0075670D01*
X0010983Y0076037D01*
X0010616Y0076404D01*
X0009882Y0076404D01*
X0009515Y0076037D01*
X0009515Y0075670D01*
X0009882Y0075303D01*
X0008773Y0074202D02*
X0007305Y0074202D01*
X0008039Y0074202D02*
X0008039Y0076404D01*
X0007305Y0075670D01*
X0006563Y0076037D02*
X0006196Y0076404D01*
X0005462Y0076404D01*
X0005095Y0076037D01*
X0005095Y0074569D01*
X0005462Y0074202D01*
X0006196Y0074202D01*
X0006563Y0074569D01*
X0003534Y0066061D02*
X0005002Y0064593D01*
X0005369Y0064593D01*
X0005369Y0063851D02*
X0005369Y0062383D01*
X0005369Y0063117D02*
X0003167Y0063117D01*
X0003901Y0062383D01*
X0003534Y0061641D02*
X0003167Y0061274D01*
X0003167Y0060540D01*
X0003534Y0060173D01*
X0005002Y0060173D01*
X0005369Y0060540D01*
X0005369Y0061274D01*
X0005002Y0061641D01*
X0003167Y0064593D02*
X0003167Y0066061D01*
X0003534Y0066061D01*
X0068515Y0136054D02*
X0069983Y0136054D01*
X0070350Y0136421D01*
X0070350Y0137155D01*
X0069983Y0137522D01*
X0070350Y0138264D02*
X0070350Y0139732D01*
X0070350Y0138998D02*
X0068148Y0138998D01*
X0068882Y0138264D01*
X0068515Y0137522D02*
X0068148Y0137155D01*
X0068148Y0136421D01*
X0068515Y0136054D01*
X0080748Y0146841D02*
X0081115Y0146474D01*
X0082583Y0146474D01*
X0082950Y0146841D01*
X0082950Y0147575D01*
X0082583Y0147942D01*
X0082950Y0148684D02*
X0081482Y0150152D01*
X0081115Y0150152D01*
X0080748Y0149785D01*
X0080748Y0149051D01*
X0081115Y0148684D01*
X0081115Y0147942D02*
X0080748Y0147575D01*
X0080748Y0146841D01*
X0082950Y0148684D02*
X0082950Y0150152D01*
X0082583Y0150894D02*
X0081115Y0152362D01*
X0082583Y0152362D01*
X0082950Y0151995D01*
X0082950Y0151261D01*
X0082583Y0150894D01*
X0081115Y0150894D01*
X0080748Y0151261D01*
X0080748Y0151995D01*
X0081115Y0152362D01*
X0070350Y0153421D02*
X0070350Y0154155D01*
X0069983Y0154522D01*
X0070350Y0155264D02*
X0068882Y0156732D01*
X0068515Y0156732D01*
X0068148Y0156365D01*
X0068148Y0155631D01*
X0068515Y0155264D01*
X0068515Y0154522D02*
X0068148Y0154155D01*
X0068148Y0153421D01*
X0068515Y0153054D01*
X0069983Y0153054D01*
X0070350Y0153421D01*
X0070350Y0155264D02*
X0070350Y0156732D01*
X0052350Y0148982D02*
X0052350Y0147514D01*
X0052350Y0148248D02*
X0050148Y0148248D01*
X0050882Y0147514D01*
X0050882Y0146772D02*
X0051249Y0146405D01*
X0051249Y0145304D01*
X0050148Y0145304D02*
X0050148Y0146405D01*
X0050515Y0146772D01*
X0050882Y0146772D01*
X0051249Y0146405D02*
X0051616Y0146772D01*
X0051983Y0146772D01*
X0052350Y0146405D01*
X0052350Y0145304D01*
X0050148Y0145304D01*
X0050148Y0144562D02*
X0050148Y0143094D01*
X0052350Y0143094D01*
X0051249Y0143094D02*
X0051249Y0143828D01*
X0031950Y0146841D02*
X0031950Y0147575D01*
X0031583Y0147942D01*
X0031583Y0148684D02*
X0031950Y0149051D01*
X0031950Y0149785D01*
X0031583Y0150152D01*
X0031216Y0150152D01*
X0030849Y0149785D01*
X0030849Y0149418D01*
X0030849Y0149785D02*
X0030482Y0150152D01*
X0030115Y0150152D01*
X0029748Y0149785D01*
X0029748Y0149051D01*
X0030115Y0148684D01*
X0030115Y0147942D02*
X0029748Y0147575D01*
X0029748Y0146841D01*
X0030115Y0146474D01*
X0031583Y0146474D01*
X0031950Y0146841D01*
X0024658Y0164074D02*
X0023190Y0164074D01*
X0024658Y0165542D01*
X0024658Y0165909D01*
X0024291Y0166276D01*
X0023557Y0166276D01*
X0023190Y0165909D01*
X0022448Y0165909D02*
X0022448Y0165542D01*
X0022081Y0165175D01*
X0020980Y0165175D01*
X0020980Y0164074D02*
X0020980Y0166276D01*
X0022081Y0166276D01*
X0022448Y0165909D01*
X0022081Y0165175D02*
X0022448Y0164808D01*
X0022448Y0164441D01*
X0022081Y0164074D01*
X0020980Y0164074D01*
X0019504Y0165175D02*
X0018770Y0165175D01*
X0018770Y0164074D02*
X0018770Y0166276D01*
X0020238Y0166276D01*
X0016828Y0166575D02*
X0016828Y0165841D01*
X0016461Y0165474D01*
X0015727Y0165474D01*
X0015360Y0165841D01*
X0015360Y0166575D02*
X0016094Y0166942D01*
X0016461Y0166942D01*
X0016828Y0166575D01*
X0016828Y0167676D02*
X0015360Y0167676D01*
X0015360Y0166575D01*
X0014618Y0167309D02*
X0014251Y0167676D01*
X0013517Y0167676D01*
X0013150Y0167309D01*
X0013150Y0165841D01*
X0013517Y0165474D01*
X0014251Y0165474D01*
X0014618Y0165841D01*
X0040148Y0170421D02*
X0040515Y0170054D01*
X0041983Y0170054D01*
X0042350Y0170421D01*
X0042350Y0171155D01*
X0041983Y0171522D01*
X0041249Y0172264D02*
X0041249Y0173732D01*
X0042350Y0173365D02*
X0040148Y0173365D01*
X0041249Y0172264D01*
X0040515Y0171522D02*
X0040148Y0171155D01*
X0040148Y0170421D01*
X0055150Y0173974D02*
X0055150Y0176176D01*
X0056251Y0176176D01*
X0056618Y0175809D01*
X0056618Y0175075D01*
X0056251Y0174708D01*
X0055150Y0174708D01*
X0055884Y0174708D02*
X0056618Y0173974D01*
X0057360Y0173974D02*
X0058828Y0173974D01*
X0058094Y0173974D02*
X0058094Y0176176D01*
X0057360Y0175442D01*
X0059570Y0175075D02*
X0059570Y0176176D01*
X0061038Y0176176D01*
X0060671Y0175442D02*
X0061038Y0175075D01*
X0061038Y0174341D01*
X0060671Y0173974D01*
X0059937Y0173974D01*
X0059570Y0174341D01*
X0059570Y0175075D02*
X0060304Y0175442D01*
X0060671Y0175442D01*
X0068515Y0211844D02*
X0069983Y0211844D01*
X0070350Y0212211D01*
X0070350Y0212945D01*
X0069983Y0213312D01*
X0070350Y0214054D02*
X0070350Y0215522D01*
X0070350Y0214788D02*
X0068148Y0214788D01*
X0068882Y0214054D01*
X0068515Y0213312D02*
X0068148Y0212945D01*
X0068148Y0212211D01*
X0068515Y0211844D01*
X0068515Y0216264D02*
X0068148Y0216631D01*
X0068148Y0217365D01*
X0068515Y0217732D01*
X0069983Y0216264D01*
X0070350Y0216631D01*
X0070350Y0217365D01*
X0069983Y0217732D01*
X0068515Y0217732D01*
X0068515Y0216264D02*
X0069983Y0216264D01*
X0037137Y0214874D02*
X0020963Y0214874D01*
X0020963Y0232874D01*
X0037137Y0232874D01*
X0037137Y0214874D01*
X0004950Y0216674D02*
X0002748Y0216674D01*
X0002748Y0217775D01*
X0003115Y0218142D01*
X0003849Y0218142D01*
X0004216Y0217775D01*
X0004216Y0216674D01*
X0004216Y0217408D02*
X0004950Y0218142D01*
X0004583Y0218884D02*
X0004950Y0219251D01*
X0004950Y0219985D01*
X0004583Y0220352D01*
X0003849Y0220352D01*
X0003482Y0219985D01*
X0003482Y0219618D01*
X0003849Y0218884D01*
X0002748Y0218884D01*
X0002748Y0220352D01*
D15*
X0006648Y0220373D02*
X0006648Y0223775D01*
X0009452Y0223775D02*
X0009452Y0220373D01*
X0020063Y0213974D02*
X0038037Y0213974D01*
X0038037Y0233774D01*
X0020063Y0233774D01*
X0020063Y0213974D01*
X0032050Y0217474D02*
X0032052Y0217558D01*
X0032058Y0217643D01*
X0032068Y0217726D01*
X0032082Y0217810D01*
X0032099Y0217892D01*
X0032121Y0217974D01*
X0032146Y0218054D01*
X0032175Y0218133D01*
X0032208Y0218211D01*
X0032244Y0218287D01*
X0032284Y0218362D01*
X0032328Y0218434D01*
X0032374Y0218505D01*
X0032424Y0218573D01*
X0032477Y0218638D01*
X0032533Y0218701D01*
X0032592Y0218762D01*
X0032654Y0218819D01*
X0032718Y0218874D01*
X0032785Y0218925D01*
X0032854Y0218974D01*
X0032926Y0219019D01*
X0032999Y0219060D01*
X0033074Y0219098D01*
X0033151Y0219133D01*
X0033230Y0219164D01*
X0033310Y0219191D01*
X0033391Y0219214D01*
X0033473Y0219234D01*
X0033556Y0219250D01*
X0033639Y0219262D01*
X0033724Y0219270D01*
X0033808Y0219274D01*
X0033892Y0219274D01*
X0033976Y0219270D01*
X0034061Y0219262D01*
X0034144Y0219250D01*
X0034227Y0219234D01*
X0034309Y0219214D01*
X0034390Y0219191D01*
X0034470Y0219164D01*
X0034549Y0219133D01*
X0034626Y0219098D01*
X0034701Y0219060D01*
X0034774Y0219019D01*
X0034846Y0218974D01*
X0034915Y0218925D01*
X0034982Y0218874D01*
X0035046Y0218819D01*
X0035108Y0218762D01*
X0035167Y0218701D01*
X0035223Y0218638D01*
X0035276Y0218573D01*
X0035326Y0218505D01*
X0035372Y0218434D01*
X0035416Y0218362D01*
X0035456Y0218287D01*
X0035492Y0218211D01*
X0035525Y0218133D01*
X0035554Y0218054D01*
X0035579Y0217974D01*
X0035601Y0217892D01*
X0035618Y0217810D01*
X0035632Y0217726D01*
X0035642Y0217643D01*
X0035648Y0217558D01*
X0035650Y0217474D01*
X0035648Y0217390D01*
X0035642Y0217305D01*
X0035632Y0217222D01*
X0035618Y0217138D01*
X0035601Y0217056D01*
X0035579Y0216974D01*
X0035554Y0216894D01*
X0035525Y0216815D01*
X0035492Y0216737D01*
X0035456Y0216661D01*
X0035416Y0216586D01*
X0035372Y0216514D01*
X0035326Y0216443D01*
X0035276Y0216375D01*
X0035223Y0216310D01*
X0035167Y0216247D01*
X0035108Y0216186D01*
X0035046Y0216129D01*
X0034982Y0216074D01*
X0034915Y0216023D01*
X0034846Y0215974D01*
X0034774Y0215929D01*
X0034701Y0215888D01*
X0034626Y0215850D01*
X0034549Y0215815D01*
X0034470Y0215784D01*
X0034390Y0215757D01*
X0034309Y0215734D01*
X0034227Y0215714D01*
X0034144Y0215698D01*
X0034061Y0215686D01*
X0033976Y0215678D01*
X0033892Y0215674D01*
X0033808Y0215674D01*
X0033724Y0215678D01*
X0033639Y0215686D01*
X0033556Y0215698D01*
X0033473Y0215714D01*
X0033391Y0215734D01*
X0033310Y0215757D01*
X0033230Y0215784D01*
X0033151Y0215815D01*
X0033074Y0215850D01*
X0032999Y0215888D01*
X0032926Y0215929D01*
X0032854Y0215974D01*
X0032785Y0216023D01*
X0032718Y0216074D01*
X0032654Y0216129D01*
X0032592Y0216186D01*
X0032533Y0216247D01*
X0032477Y0216310D01*
X0032424Y0216375D01*
X0032374Y0216443D01*
X0032328Y0216514D01*
X0032284Y0216586D01*
X0032244Y0216661D01*
X0032208Y0216737D01*
X0032175Y0216815D01*
X0032146Y0216894D01*
X0032121Y0216974D01*
X0032099Y0217056D01*
X0032082Y0217138D01*
X0032068Y0217222D01*
X0032058Y0217305D01*
X0032052Y0217390D01*
X0032050Y0217474D01*
X0046250Y0211574D02*
X0046250Y0207174D01*
X0046252Y0207091D01*
X0046258Y0207008D01*
X0046267Y0206925D01*
X0046281Y0206843D01*
X0046298Y0206762D01*
X0046319Y0206681D01*
X0046343Y0206602D01*
X0046372Y0206524D01*
X0046403Y0206447D01*
X0046439Y0206372D01*
X0046477Y0206298D01*
X0046520Y0206226D01*
X0046565Y0206157D01*
X0046614Y0206089D01*
X0046665Y0206024D01*
X0046720Y0205961D01*
X0046777Y0205901D01*
X0046837Y0205844D01*
X0046900Y0205789D01*
X0046965Y0205738D01*
X0047033Y0205689D01*
X0047102Y0205644D01*
X0047174Y0205601D01*
X0047248Y0205563D01*
X0047323Y0205527D01*
X0047400Y0205496D01*
X0047478Y0205467D01*
X0047557Y0205443D01*
X0047638Y0205422D01*
X0047719Y0205405D01*
X0047801Y0205391D01*
X0047884Y0205382D01*
X0047967Y0205376D01*
X0048050Y0205374D01*
X0058050Y0205374D01*
X0058133Y0205376D01*
X0058216Y0205382D01*
X0058299Y0205391D01*
X0058381Y0205405D01*
X0058462Y0205422D01*
X0058543Y0205443D01*
X0058622Y0205467D01*
X0058700Y0205496D01*
X0058777Y0205527D01*
X0058852Y0205563D01*
X0058926Y0205601D01*
X0058998Y0205644D01*
X0059067Y0205689D01*
X0059135Y0205738D01*
X0059200Y0205789D01*
X0059263Y0205844D01*
X0059323Y0205901D01*
X0059380Y0205961D01*
X0059435Y0206024D01*
X0059486Y0206089D01*
X0059535Y0206157D01*
X0059580Y0206226D01*
X0059623Y0206298D01*
X0059661Y0206372D01*
X0059697Y0206447D01*
X0059728Y0206524D01*
X0059757Y0206602D01*
X0059781Y0206681D01*
X0059802Y0206762D01*
X0059819Y0206843D01*
X0059833Y0206925D01*
X0059842Y0207008D01*
X0059848Y0207091D01*
X0059850Y0207174D01*
X0059850Y0211574D01*
X0059848Y0211657D01*
X0059842Y0211740D01*
X0059833Y0211823D01*
X0059819Y0211905D01*
X0059802Y0211986D01*
X0059781Y0212067D01*
X0059757Y0212146D01*
X0059728Y0212224D01*
X0059697Y0212301D01*
X0059661Y0212376D01*
X0059623Y0212450D01*
X0059580Y0212522D01*
X0059535Y0212591D01*
X0059486Y0212659D01*
X0059435Y0212724D01*
X0059380Y0212787D01*
X0059323Y0212847D01*
X0059263Y0212904D01*
X0059200Y0212959D01*
X0059135Y0213010D01*
X0059067Y0213059D01*
X0058998Y0213104D01*
X0058926Y0213147D01*
X0058852Y0213185D01*
X0058777Y0213221D01*
X0058700Y0213252D01*
X0058622Y0213281D01*
X0058543Y0213305D01*
X0058462Y0213326D01*
X0058381Y0213343D01*
X0058299Y0213357D01*
X0058216Y0213366D01*
X0058133Y0213372D01*
X0058050Y0213374D01*
X0048050Y0213374D01*
X0047967Y0213372D01*
X0047884Y0213366D01*
X0047801Y0213357D01*
X0047719Y0213343D01*
X0047638Y0213326D01*
X0047557Y0213305D01*
X0047478Y0213281D01*
X0047400Y0213252D01*
X0047323Y0213221D01*
X0047248Y0213185D01*
X0047174Y0213147D01*
X0047102Y0213104D01*
X0047033Y0213059D01*
X0046965Y0213010D01*
X0046900Y0212959D01*
X0046837Y0212904D01*
X0046777Y0212847D01*
X0046720Y0212787D01*
X0046665Y0212724D01*
X0046614Y0212659D01*
X0046565Y0212591D01*
X0046520Y0212522D01*
X0046477Y0212450D01*
X0046439Y0212376D01*
X0046403Y0212301D01*
X0046372Y0212224D01*
X0046343Y0212146D01*
X0046319Y0212067D01*
X0046298Y0211986D01*
X0046281Y0211905D01*
X0046267Y0211823D01*
X0046258Y0211740D01*
X0046252Y0211657D01*
X0046250Y0211574D01*
X0055648Y0169575D02*
X0055648Y0166173D01*
X0058452Y0166173D02*
X0058452Y0169575D01*
X0050250Y0165574D02*
X0050250Y0159174D01*
X0043850Y0159174D01*
X0043850Y0165574D01*
X0050250Y0165574D01*
X0050250Y0164974D02*
X0050250Y0163774D01*
X0050250Y0164174D02*
X0045250Y0159174D01*
X0043850Y0159774D02*
X0043850Y0160974D01*
X0043850Y0161774D02*
X0043850Y0162974D01*
X0043850Y0163774D02*
X0043750Y0164974D01*
X0050250Y0162974D02*
X0050250Y0161774D01*
X0050250Y0160974D02*
X0050350Y0159774D01*
X0050869Y0158280D02*
X0050871Y0158336D01*
X0050877Y0158391D01*
X0050887Y0158445D01*
X0050900Y0158499D01*
X0050918Y0158552D01*
X0050939Y0158603D01*
X0050963Y0158653D01*
X0050991Y0158701D01*
X0051023Y0158747D01*
X0051057Y0158791D01*
X0051095Y0158832D01*
X0051135Y0158870D01*
X0051178Y0158905D01*
X0051223Y0158937D01*
X0051271Y0158966D01*
X0051320Y0158992D01*
X0051371Y0159014D01*
X0051423Y0159032D01*
X0051477Y0159046D01*
X0051532Y0159057D01*
X0051587Y0159064D01*
X0051642Y0159067D01*
X0051698Y0159066D01*
X0051753Y0159061D01*
X0051808Y0159052D01*
X0051862Y0159040D01*
X0051915Y0159023D01*
X0051967Y0159003D01*
X0052017Y0158979D01*
X0052065Y0158952D01*
X0052112Y0158922D01*
X0052156Y0158888D01*
X0052198Y0158851D01*
X0052236Y0158811D01*
X0052273Y0158769D01*
X0052306Y0158724D01*
X0052335Y0158678D01*
X0052362Y0158629D01*
X0052384Y0158578D01*
X0052404Y0158526D01*
X0052419Y0158472D01*
X0052431Y0158418D01*
X0052439Y0158363D01*
X0052443Y0158308D01*
X0052443Y0158252D01*
X0052439Y0158197D01*
X0052431Y0158142D01*
X0052419Y0158088D01*
X0052404Y0158034D01*
X0052384Y0157982D01*
X0052362Y0157931D01*
X0052335Y0157882D01*
X0052306Y0157836D01*
X0052273Y0157791D01*
X0052236Y0157749D01*
X0052198Y0157709D01*
X0052156Y0157672D01*
X0052112Y0157638D01*
X0052065Y0157608D01*
X0052017Y0157581D01*
X0051967Y0157557D01*
X0051915Y0157537D01*
X0051862Y0157520D01*
X0051808Y0157508D01*
X0051753Y0157499D01*
X0051698Y0157494D01*
X0051642Y0157493D01*
X0051587Y0157496D01*
X0051532Y0157503D01*
X0051477Y0157514D01*
X0051423Y0157528D01*
X0051371Y0157546D01*
X0051320Y0157568D01*
X0051271Y0157594D01*
X0051223Y0157623D01*
X0051178Y0157655D01*
X0051135Y0157690D01*
X0051095Y0157728D01*
X0051057Y0157769D01*
X0051023Y0157813D01*
X0050991Y0157859D01*
X0050963Y0157907D01*
X0050939Y0157957D01*
X0050918Y0158008D01*
X0050900Y0158061D01*
X0050887Y0158115D01*
X0050877Y0158169D01*
X0050871Y0158224D01*
X0050869Y0158280D01*
X0109648Y0147075D02*
X0109648Y0143673D01*
X0112452Y0143673D02*
X0112452Y0147075D01*
X0117648Y0147075D02*
X0117648Y0143673D01*
X0120452Y0143673D02*
X0120452Y0147075D01*
X0134452Y0137972D02*
X0134452Y0132776D01*
X0145648Y0132776D01*
X0145648Y0137972D01*
X0134452Y0137972D01*
X0138550Y0152760D02*
X0138550Y0155988D01*
X0143550Y0155988D02*
X0143550Y0152760D01*
X0198648Y0168173D02*
X0198648Y0171575D01*
X0201452Y0171575D02*
X0201452Y0168173D01*
X0203950Y0166274D02*
X0203950Y0171474D01*
X0215150Y0171474D01*
X0215150Y0166274D01*
X0203950Y0166274D01*
X0231950Y0176274D02*
X0231950Y0181474D01*
X0243150Y0181474D01*
X0243150Y0176274D01*
X0231950Y0176274D01*
X0235849Y0169276D02*
X0239251Y0169276D01*
X0239251Y0166472D02*
X0235849Y0166472D01*
X0248849Y0166472D02*
X0252251Y0166472D01*
X0252251Y0169276D02*
X0248849Y0169276D01*
X0244950Y0176274D02*
X0244950Y0181474D01*
X0256150Y0181474D01*
X0256150Y0176274D01*
X0244950Y0176274D01*
X0245849Y0189472D02*
X0249251Y0189472D01*
X0249251Y0192276D02*
X0245849Y0192276D01*
X0236251Y0192276D02*
X0232849Y0192276D01*
X0232849Y0189472D02*
X0236251Y0189472D01*
X0241648Y0088075D02*
X0241648Y0084673D01*
X0244452Y0084673D02*
X0244452Y0088075D01*
X0253050Y0066374D02*
X0261050Y0066374D01*
X0267452Y0063972D02*
X0278648Y0063972D01*
X0278648Y0058776D01*
X0267452Y0058776D01*
X0267452Y0063972D01*
X0261050Y0052374D02*
X0253050Y0052374D01*
X0271349Y0049776D02*
X0274751Y0049776D01*
X0274751Y0046972D02*
X0271349Y0046972D01*
X0265452Y0026075D02*
X0265452Y0022673D01*
X0262648Y0022673D02*
X0262648Y0026075D01*
X0254251Y0026776D02*
X0250849Y0026776D01*
X0250849Y0023972D02*
X0254251Y0023972D01*
X0258150Y0017474D02*
X0246950Y0017474D01*
X0246950Y0012274D01*
X0258150Y0012274D01*
X0258150Y0017474D01*
X0186050Y0015374D02*
X0186050Y0010374D01*
X0183550Y0007874D01*
X0178550Y0007874D01*
X0176050Y0010374D01*
X0176050Y0015374D01*
X0178550Y0017874D01*
X0176050Y0020374D01*
X0176050Y0025374D01*
X0178550Y0027874D01*
X0176050Y0030374D01*
X0176050Y0035374D01*
X0178550Y0037874D01*
X0176050Y0040374D01*
X0176050Y0045374D01*
X0178550Y0047874D01*
X0176050Y0050374D01*
X0176050Y0055374D01*
X0178550Y0057874D01*
X0176050Y0060374D01*
X0176050Y0065374D01*
X0178550Y0067874D01*
X0183550Y0067874D01*
X0186050Y0065374D01*
X0186050Y0060374D01*
X0183550Y0057874D01*
X0186050Y0055374D01*
X0186050Y0050374D01*
X0183550Y0047874D01*
X0186050Y0045374D01*
X0186050Y0040374D01*
X0183550Y0037874D01*
X0186050Y0035374D01*
X0186050Y0030374D01*
X0183550Y0027874D01*
X0186050Y0025374D01*
X0186050Y0020374D01*
X0183550Y0017874D01*
X0186050Y0015374D01*
X0168251Y0024472D02*
X0164849Y0024472D01*
X0164849Y0027276D02*
X0168251Y0027276D01*
X0168251Y0032972D02*
X0164849Y0032972D01*
X0164849Y0035776D02*
X0168251Y0035776D01*
X0168251Y0040972D02*
X0164849Y0040972D01*
X0164849Y0043776D02*
X0168251Y0043776D01*
X0096759Y0090831D02*
X0096759Y0094232D01*
X0093956Y0094232D02*
X0093956Y0090831D01*
X0086916Y0090831D02*
X0086916Y0094232D01*
X0084113Y0094232D02*
X0084113Y0090831D01*
X0069987Y0065886D02*
X0069987Y0062484D01*
X0067184Y0062484D02*
X0067184Y0065886D01*
X0061719Y0065492D02*
X0061719Y0062091D01*
X0058916Y0062091D02*
X0058916Y0065492D01*
X0056207Y0050138D02*
X0056207Y0046736D01*
X0053404Y0046736D02*
X0053404Y0050138D01*
X0053105Y0039602D02*
X0056507Y0039602D01*
X0056507Y0036799D02*
X0053105Y0036799D01*
X0040452Y0056673D02*
X0040452Y0060075D01*
X0037648Y0060075D02*
X0037648Y0056673D01*
X0037751Y0066972D02*
X0034349Y0066972D01*
X0034349Y0069776D02*
X0037751Y0069776D01*
X0034452Y0079673D02*
X0034452Y0083075D01*
X0031648Y0083075D02*
X0031648Y0079673D01*
X0043952Y0084776D02*
X0043952Y0095972D01*
X0049148Y0095972D01*
X0049148Y0084776D01*
X0043952Y0084776D01*
X0014144Y0088774D02*
X0010743Y0088774D01*
X0010743Y0091577D02*
X0014144Y0091577D01*
X0021680Y0059327D02*
X0025081Y0059327D01*
X0025081Y0056524D02*
X0021680Y0056524D01*
X0018751Y0045776D02*
X0015349Y0045776D01*
X0015349Y0042972D02*
X0018751Y0042972D01*
D16*
X0009724Y0055446D03*
X0009724Y0061146D03*
X0061555Y0029016D03*
X0061555Y0023316D03*
X0087055Y0142497D03*
X0087055Y0148197D03*
X0103055Y0148197D03*
X0103055Y0142497D03*
X0127055Y0142497D03*
X0127055Y0148197D03*
X0036055Y0149497D03*
X0036055Y0155197D03*
X0036045Y0166551D03*
X0036045Y0172251D03*
X0014055Y0160197D03*
X0014055Y0154497D03*
D17*
X0057227Y0153379D03*
X0062927Y0153379D03*
X0062927Y0139379D03*
X0057227Y0139379D03*
X0013501Y0080295D03*
X0007801Y0080295D03*
D18*
X0009944Y0090175D03*
X0014944Y0090175D03*
X0033550Y0068374D03*
X0038550Y0068374D03*
X0025881Y0057925D03*
X0020881Y0057925D03*
X0019550Y0044374D03*
X0014550Y0044374D03*
X0052306Y0038201D03*
X0057306Y0038201D03*
X0164050Y0034374D03*
X0169050Y0034374D03*
X0169050Y0042374D03*
X0164050Y0042374D03*
X0164050Y0025874D03*
X0169050Y0025874D03*
X0250050Y0025374D03*
X0255050Y0025374D03*
X0270550Y0048374D03*
X0275550Y0048374D03*
X0253050Y0167874D03*
X0248050Y0167874D03*
X0240050Y0167874D03*
X0235050Y0167874D03*
X0237050Y0190874D03*
X0232050Y0190874D03*
X0245050Y0190874D03*
X0250050Y0190874D03*
D19*
X0194928Y0166323D03*
X0244428Y0069323D03*
X0023072Y0078624D03*
D20*
X0022678Y0079411D03*
X0194534Y0167110D03*
X0244034Y0070110D03*
D21*
X0244723Y0070258D03*
X0195223Y0167258D03*
X0023367Y0079559D03*
D22*
X0020316Y0078919D03*
X0192172Y0166618D03*
X0241672Y0069618D03*
D23*
X0243050Y0070553D03*
X0193550Y0167553D03*
X0021694Y0079854D03*
D24*
X0023072Y0084037D03*
X0020316Y0084037D03*
X0192172Y0171736D03*
X0194928Y0171736D03*
X0241672Y0074736D03*
X0244428Y0074736D03*
D25*
X0243050Y0074195D03*
X0193550Y0171195D03*
X0021694Y0083496D03*
D26*
X0022580Y0084037D03*
X0020808Y0084037D03*
X0192664Y0171736D03*
X0194436Y0171736D03*
X0242164Y0074736D03*
X0243936Y0074736D03*
D27*
X0243050Y0071882D03*
X0193550Y0168882D03*
X0021694Y0081183D03*
D28*
X0026003Y0097224D02*
X0039782Y0097224D01*
X0039782Y0100374D01*
X0029940Y0100374D01*
X0029940Y0105098D01*
X0029940Y0120846D02*
X0029940Y0125571D01*
X0039782Y0125571D01*
X0039782Y0128720D01*
X0026003Y0128720D01*
X0010255Y0120846D02*
X0010255Y0105098D01*
X0056050Y0090437D02*
X0056050Y0078311D01*
X0059987Y0074374D01*
X0061050Y0074374D02*
X0070932Y0074374D01*
X0072113Y0074374D02*
X0076050Y0078311D01*
X0076050Y0090437D01*
X0072113Y0094374D01*
X0070932Y0094374D02*
X0061168Y0094374D01*
X0059987Y0094374D02*
X0056050Y0090437D01*
X0061050Y0084374D02*
X0061052Y0084515D01*
X0061058Y0084656D01*
X0061068Y0084796D01*
X0061082Y0084936D01*
X0061100Y0085076D01*
X0061121Y0085215D01*
X0061147Y0085354D01*
X0061176Y0085492D01*
X0061210Y0085628D01*
X0061247Y0085764D01*
X0061288Y0085899D01*
X0061333Y0086033D01*
X0061382Y0086165D01*
X0061434Y0086296D01*
X0061490Y0086425D01*
X0061550Y0086552D01*
X0061613Y0086678D01*
X0061679Y0086802D01*
X0061750Y0086925D01*
X0061823Y0087045D01*
X0061900Y0087163D01*
X0061980Y0087279D01*
X0062064Y0087392D01*
X0062150Y0087503D01*
X0062240Y0087612D01*
X0062333Y0087718D01*
X0062428Y0087821D01*
X0062527Y0087922D01*
X0062628Y0088020D01*
X0062732Y0088115D01*
X0062839Y0088207D01*
X0062948Y0088296D01*
X0063060Y0088381D01*
X0063174Y0088464D01*
X0063290Y0088544D01*
X0063409Y0088620D01*
X0063530Y0088692D01*
X0063652Y0088762D01*
X0063777Y0088827D01*
X0063903Y0088890D01*
X0064031Y0088948D01*
X0064161Y0089003D01*
X0064292Y0089055D01*
X0064425Y0089102D01*
X0064559Y0089146D01*
X0064694Y0089187D01*
X0064830Y0089223D01*
X0064967Y0089255D01*
X0065105Y0089284D01*
X0065243Y0089309D01*
X0065383Y0089329D01*
X0065523Y0089346D01*
X0065663Y0089359D01*
X0065804Y0089368D01*
X0065944Y0089373D01*
X0066085Y0089374D01*
X0066226Y0089371D01*
X0066367Y0089364D01*
X0066507Y0089353D01*
X0066647Y0089338D01*
X0066787Y0089319D01*
X0066926Y0089297D01*
X0067064Y0089270D01*
X0067202Y0089240D01*
X0067338Y0089205D01*
X0067474Y0089167D01*
X0067608Y0089125D01*
X0067742Y0089079D01*
X0067874Y0089030D01*
X0068004Y0088976D01*
X0068133Y0088919D01*
X0068260Y0088859D01*
X0068386Y0088795D01*
X0068509Y0088727D01*
X0068631Y0088656D01*
X0068751Y0088582D01*
X0068868Y0088504D01*
X0068983Y0088423D01*
X0069096Y0088339D01*
X0069207Y0088252D01*
X0069315Y0088161D01*
X0069420Y0088068D01*
X0069523Y0087971D01*
X0069623Y0087872D01*
X0069720Y0087770D01*
X0069814Y0087665D01*
X0069905Y0087558D01*
X0069993Y0087448D01*
X0070078Y0087336D01*
X0070160Y0087221D01*
X0070239Y0087104D01*
X0070314Y0086985D01*
X0070386Y0086864D01*
X0070454Y0086741D01*
X0070519Y0086616D01*
X0070581Y0086489D01*
X0070638Y0086360D01*
X0070693Y0086230D01*
X0070743Y0086099D01*
X0070790Y0085966D01*
X0070833Y0085832D01*
X0070872Y0085696D01*
X0070907Y0085560D01*
X0070939Y0085423D01*
X0070966Y0085285D01*
X0070990Y0085146D01*
X0071010Y0085006D01*
X0071026Y0084866D01*
X0071038Y0084726D01*
X0071046Y0084585D01*
X0071050Y0084444D01*
X0071050Y0084304D01*
X0071046Y0084163D01*
X0071038Y0084022D01*
X0071026Y0083882D01*
X0071010Y0083742D01*
X0070990Y0083602D01*
X0070966Y0083463D01*
X0070939Y0083325D01*
X0070907Y0083188D01*
X0070872Y0083052D01*
X0070833Y0082916D01*
X0070790Y0082782D01*
X0070743Y0082649D01*
X0070693Y0082518D01*
X0070638Y0082388D01*
X0070581Y0082259D01*
X0070519Y0082132D01*
X0070454Y0082007D01*
X0070386Y0081884D01*
X0070314Y0081763D01*
X0070239Y0081644D01*
X0070160Y0081527D01*
X0070078Y0081412D01*
X0069993Y0081300D01*
X0069905Y0081190D01*
X0069814Y0081083D01*
X0069720Y0080978D01*
X0069623Y0080876D01*
X0069523Y0080777D01*
X0069420Y0080680D01*
X0069315Y0080587D01*
X0069207Y0080496D01*
X0069096Y0080409D01*
X0068983Y0080325D01*
X0068868Y0080244D01*
X0068751Y0080166D01*
X0068631Y0080092D01*
X0068509Y0080021D01*
X0068386Y0079953D01*
X0068260Y0079889D01*
X0068133Y0079829D01*
X0068004Y0079772D01*
X0067874Y0079718D01*
X0067742Y0079669D01*
X0067608Y0079623D01*
X0067474Y0079581D01*
X0067338Y0079543D01*
X0067202Y0079508D01*
X0067064Y0079478D01*
X0066926Y0079451D01*
X0066787Y0079429D01*
X0066647Y0079410D01*
X0066507Y0079395D01*
X0066367Y0079384D01*
X0066226Y0079377D01*
X0066085Y0079374D01*
X0065944Y0079375D01*
X0065804Y0079380D01*
X0065663Y0079389D01*
X0065523Y0079402D01*
X0065383Y0079419D01*
X0065243Y0079439D01*
X0065105Y0079464D01*
X0064967Y0079493D01*
X0064830Y0079525D01*
X0064694Y0079561D01*
X0064559Y0079602D01*
X0064425Y0079646D01*
X0064292Y0079693D01*
X0064161Y0079745D01*
X0064031Y0079800D01*
X0063903Y0079858D01*
X0063777Y0079921D01*
X0063652Y0079986D01*
X0063530Y0080056D01*
X0063409Y0080128D01*
X0063290Y0080204D01*
X0063174Y0080284D01*
X0063060Y0080367D01*
X0062948Y0080452D01*
X0062839Y0080541D01*
X0062732Y0080633D01*
X0062628Y0080728D01*
X0062527Y0080826D01*
X0062428Y0080927D01*
X0062333Y0081030D01*
X0062240Y0081136D01*
X0062150Y0081245D01*
X0062064Y0081356D01*
X0061980Y0081469D01*
X0061900Y0081585D01*
X0061823Y0081703D01*
X0061750Y0081823D01*
X0061679Y0081946D01*
X0061613Y0082070D01*
X0061550Y0082196D01*
X0061490Y0082323D01*
X0061434Y0082452D01*
X0061382Y0082583D01*
X0061333Y0082715D01*
X0061288Y0082849D01*
X0061247Y0082984D01*
X0061210Y0083120D01*
X0061176Y0083256D01*
X0061147Y0083394D01*
X0061121Y0083533D01*
X0061100Y0083672D01*
X0061082Y0083812D01*
X0061068Y0083952D01*
X0061058Y0084092D01*
X0061052Y0084233D01*
X0061050Y0084374D01*
X0060798Y0051967D02*
X0061284Y0051967D01*
X0060798Y0051967D02*
X0060798Y0044781D01*
X0061284Y0044781D01*
X0072816Y0044781D02*
X0073302Y0044781D01*
X0073302Y0051967D01*
X0072816Y0051967D01*
X0043643Y0044126D02*
X0043643Y0043640D01*
X0043643Y0044126D02*
X0036457Y0044126D01*
X0036457Y0043640D01*
X0024200Y0034638D02*
X0024200Y0030110D01*
X0017900Y0030110D01*
X0017900Y0034638D01*
X0024200Y0034638D01*
X0036457Y0032108D02*
X0036457Y0031622D01*
X0043643Y0031622D01*
X0043643Y0032108D01*
X0151550Y0085311D02*
X0151550Y0097437D01*
X0155487Y0101374D01*
X0156668Y0101374D02*
X0166550Y0101374D01*
X0167613Y0101374D02*
X0171550Y0097437D01*
X0171550Y0085311D01*
X0167613Y0081374D01*
X0166432Y0081374D02*
X0156668Y0081374D01*
X0155487Y0081374D02*
X0151550Y0085311D01*
X0156550Y0091374D02*
X0156552Y0091515D01*
X0156558Y0091656D01*
X0156568Y0091796D01*
X0156582Y0091936D01*
X0156600Y0092076D01*
X0156621Y0092215D01*
X0156647Y0092354D01*
X0156676Y0092492D01*
X0156710Y0092628D01*
X0156747Y0092764D01*
X0156788Y0092899D01*
X0156833Y0093033D01*
X0156882Y0093165D01*
X0156934Y0093296D01*
X0156990Y0093425D01*
X0157050Y0093552D01*
X0157113Y0093678D01*
X0157179Y0093802D01*
X0157250Y0093925D01*
X0157323Y0094045D01*
X0157400Y0094163D01*
X0157480Y0094279D01*
X0157564Y0094392D01*
X0157650Y0094503D01*
X0157740Y0094612D01*
X0157833Y0094718D01*
X0157928Y0094821D01*
X0158027Y0094922D01*
X0158128Y0095020D01*
X0158232Y0095115D01*
X0158339Y0095207D01*
X0158448Y0095296D01*
X0158560Y0095381D01*
X0158674Y0095464D01*
X0158790Y0095544D01*
X0158909Y0095620D01*
X0159030Y0095692D01*
X0159152Y0095762D01*
X0159277Y0095827D01*
X0159403Y0095890D01*
X0159531Y0095948D01*
X0159661Y0096003D01*
X0159792Y0096055D01*
X0159925Y0096102D01*
X0160059Y0096146D01*
X0160194Y0096187D01*
X0160330Y0096223D01*
X0160467Y0096255D01*
X0160605Y0096284D01*
X0160743Y0096309D01*
X0160883Y0096329D01*
X0161023Y0096346D01*
X0161163Y0096359D01*
X0161304Y0096368D01*
X0161444Y0096373D01*
X0161585Y0096374D01*
X0161726Y0096371D01*
X0161867Y0096364D01*
X0162007Y0096353D01*
X0162147Y0096338D01*
X0162287Y0096319D01*
X0162426Y0096297D01*
X0162564Y0096270D01*
X0162702Y0096240D01*
X0162838Y0096205D01*
X0162974Y0096167D01*
X0163108Y0096125D01*
X0163242Y0096079D01*
X0163374Y0096030D01*
X0163504Y0095976D01*
X0163633Y0095919D01*
X0163760Y0095859D01*
X0163886Y0095795D01*
X0164009Y0095727D01*
X0164131Y0095656D01*
X0164251Y0095582D01*
X0164368Y0095504D01*
X0164483Y0095423D01*
X0164596Y0095339D01*
X0164707Y0095252D01*
X0164815Y0095161D01*
X0164920Y0095068D01*
X0165023Y0094971D01*
X0165123Y0094872D01*
X0165220Y0094770D01*
X0165314Y0094665D01*
X0165405Y0094558D01*
X0165493Y0094448D01*
X0165578Y0094336D01*
X0165660Y0094221D01*
X0165739Y0094104D01*
X0165814Y0093985D01*
X0165886Y0093864D01*
X0165954Y0093741D01*
X0166019Y0093616D01*
X0166081Y0093489D01*
X0166138Y0093360D01*
X0166193Y0093230D01*
X0166243Y0093099D01*
X0166290Y0092966D01*
X0166333Y0092832D01*
X0166372Y0092696D01*
X0166407Y0092560D01*
X0166439Y0092423D01*
X0166466Y0092285D01*
X0166490Y0092146D01*
X0166510Y0092006D01*
X0166526Y0091866D01*
X0166538Y0091726D01*
X0166546Y0091585D01*
X0166550Y0091444D01*
X0166550Y0091304D01*
X0166546Y0091163D01*
X0166538Y0091022D01*
X0166526Y0090882D01*
X0166510Y0090742D01*
X0166490Y0090602D01*
X0166466Y0090463D01*
X0166439Y0090325D01*
X0166407Y0090188D01*
X0166372Y0090052D01*
X0166333Y0089916D01*
X0166290Y0089782D01*
X0166243Y0089649D01*
X0166193Y0089518D01*
X0166138Y0089388D01*
X0166081Y0089259D01*
X0166019Y0089132D01*
X0165954Y0089007D01*
X0165886Y0088884D01*
X0165814Y0088763D01*
X0165739Y0088644D01*
X0165660Y0088527D01*
X0165578Y0088412D01*
X0165493Y0088300D01*
X0165405Y0088190D01*
X0165314Y0088083D01*
X0165220Y0087978D01*
X0165123Y0087876D01*
X0165023Y0087777D01*
X0164920Y0087680D01*
X0164815Y0087587D01*
X0164707Y0087496D01*
X0164596Y0087409D01*
X0164483Y0087325D01*
X0164368Y0087244D01*
X0164251Y0087166D01*
X0164131Y0087092D01*
X0164009Y0087021D01*
X0163886Y0086953D01*
X0163760Y0086889D01*
X0163633Y0086829D01*
X0163504Y0086772D01*
X0163374Y0086718D01*
X0163242Y0086669D01*
X0163108Y0086623D01*
X0162974Y0086581D01*
X0162838Y0086543D01*
X0162702Y0086508D01*
X0162564Y0086478D01*
X0162426Y0086451D01*
X0162287Y0086429D01*
X0162147Y0086410D01*
X0162007Y0086395D01*
X0161867Y0086384D01*
X0161726Y0086377D01*
X0161585Y0086374D01*
X0161444Y0086375D01*
X0161304Y0086380D01*
X0161163Y0086389D01*
X0161023Y0086402D01*
X0160883Y0086419D01*
X0160743Y0086439D01*
X0160605Y0086464D01*
X0160467Y0086493D01*
X0160330Y0086525D01*
X0160194Y0086561D01*
X0160059Y0086602D01*
X0159925Y0086646D01*
X0159792Y0086693D01*
X0159661Y0086745D01*
X0159531Y0086800D01*
X0159403Y0086858D01*
X0159277Y0086921D01*
X0159152Y0086986D01*
X0159030Y0087056D01*
X0158909Y0087128D01*
X0158790Y0087204D01*
X0158674Y0087284D01*
X0158560Y0087367D01*
X0158448Y0087452D01*
X0158339Y0087541D01*
X0158232Y0087633D01*
X0158128Y0087728D01*
X0158027Y0087826D01*
X0157928Y0087927D01*
X0157833Y0088030D01*
X0157740Y0088136D01*
X0157650Y0088245D01*
X0157564Y0088356D01*
X0157480Y0088469D01*
X0157400Y0088585D01*
X0157323Y0088703D01*
X0157250Y0088823D01*
X0157179Y0088946D01*
X0157113Y0089070D01*
X0157050Y0089196D01*
X0156990Y0089323D01*
X0156934Y0089452D01*
X0156882Y0089583D01*
X0156833Y0089715D01*
X0156788Y0089849D01*
X0156747Y0089984D01*
X0156710Y0090120D01*
X0156676Y0090256D01*
X0156647Y0090394D01*
X0156621Y0090533D01*
X0156600Y0090672D01*
X0156582Y0090812D01*
X0156568Y0090952D01*
X0156558Y0091092D01*
X0156552Y0091233D01*
X0156550Y0091374D01*
X0196441Y0056480D02*
X0196441Y0004768D01*
X0237659Y0004768D01*
X0237659Y0056480D01*
X0251605Y0052929D02*
X0262495Y0052929D01*
X0262495Y0065819D01*
X0251605Y0065819D01*
X0251605Y0052929D01*
X0257050Y0062051D02*
X0257050Y0064531D01*
X0258231Y0063311D02*
X0255751Y0063311D01*
X0216643Y0075622D02*
X0216643Y0076108D01*
X0216643Y0075622D02*
X0209457Y0075622D01*
X0209457Y0076108D01*
X0209457Y0087640D02*
X0209457Y0088126D01*
X0216643Y0088126D01*
X0216643Y0087640D01*
X0247038Y0015268D02*
X0247038Y0012118D01*
X0249400Y0012118D01*
X0255700Y0012118D02*
X0258062Y0012118D01*
X0258062Y0015268D01*
X0215062Y0168480D02*
X0215062Y0171630D01*
X0212700Y0171630D01*
X0206400Y0171630D02*
X0204038Y0171630D01*
X0204038Y0168480D01*
X0232038Y0178480D02*
X0232038Y0181630D01*
X0234400Y0181630D01*
X0240700Y0181630D02*
X0243062Y0181630D01*
X0243062Y0178480D01*
X0245038Y0178480D02*
X0245038Y0181630D01*
X0247400Y0181630D01*
X0253700Y0181630D02*
X0256062Y0181630D01*
X0256062Y0178480D01*
D29*
X0247824Y0182924D02*
X0246823Y0182924D01*
X0246351Y0182924D02*
X0245850Y0183424D01*
X0245600Y0182924D02*
X0245350Y0183174D01*
X0245350Y0184175D01*
X0245600Y0184425D01*
X0246101Y0184425D01*
X0246351Y0184175D01*
X0246351Y0183174D01*
X0246101Y0182924D01*
X0245600Y0182924D01*
X0246823Y0183925D02*
X0247324Y0184425D01*
X0247324Y0182924D01*
X0234824Y0182924D02*
X0233823Y0182924D01*
X0234824Y0183925D01*
X0234824Y0184175D01*
X0234574Y0184425D01*
X0234073Y0184425D01*
X0233823Y0184175D01*
X0233351Y0184175D02*
X0233351Y0183174D01*
X0233101Y0182924D01*
X0232600Y0182924D01*
X0232350Y0183174D01*
X0232350Y0184175D01*
X0232600Y0184425D01*
X0233101Y0184425D01*
X0233351Y0184175D01*
X0232850Y0183424D02*
X0233351Y0182924D01*
X0236459Y0055480D02*
X0197641Y0055480D01*
X0197641Y0006268D01*
X0236459Y0006268D01*
X0236459Y0055480D01*
X0255154Y0010825D02*
X0255654Y0010825D01*
X0255904Y0010575D01*
X0255904Y0009574D01*
X0255654Y0009324D01*
X0255154Y0009324D01*
X0254903Y0009574D01*
X0254903Y0010575D01*
X0255154Y0010825D01*
X0255404Y0009824D02*
X0255904Y0009324D01*
X0256377Y0010075D02*
X0257127Y0010825D01*
X0257127Y0009324D01*
X0257378Y0010075D02*
X0256377Y0010075D01*
X0065657Y0129204D02*
X0065657Y0130204D01*
X0065657Y0130677D02*
X0065657Y0131678D01*
X0065657Y0131177D02*
X0064156Y0131177D01*
X0064657Y0130677D01*
X0064156Y0129204D02*
X0065657Y0129204D01*
X0048561Y0155924D02*
X0048561Y0158226D01*
X0047410Y0157075D01*
X0048945Y0157075D01*
X0046735Y0156308D02*
X0046735Y0158226D01*
X0045200Y0158226D02*
X0045200Y0156308D01*
X0045584Y0155924D01*
X0046351Y0155924D01*
X0046735Y0156308D01*
X0046577Y0165924D02*
X0046193Y0166308D01*
X0046577Y0165924D02*
X0047344Y0165924D01*
X0047728Y0166308D01*
X0047728Y0167075D01*
X0047344Y0167459D01*
X0046960Y0167459D01*
X0046193Y0167075D01*
X0046193Y0168226D01*
X0047728Y0168226D01*
X0048403Y0167842D02*
X0048787Y0168226D01*
X0049554Y0168226D01*
X0049938Y0167842D01*
X0049938Y0167459D01*
X0049554Y0167075D01*
X0049938Y0166691D01*
X0049938Y0166308D01*
X0049554Y0165924D01*
X0048787Y0165924D01*
X0048403Y0166308D01*
X0049170Y0167075D02*
X0049554Y0167075D01*
X0050613Y0166308D02*
X0050613Y0165924D01*
X0050613Y0166308D02*
X0052147Y0167842D01*
X0052147Y0168226D01*
X0050613Y0168226D01*
X0052823Y0167842D02*
X0053206Y0168226D01*
X0053974Y0168226D01*
X0054357Y0167842D01*
X0052823Y0166308D01*
X0053206Y0165924D01*
X0053974Y0165924D01*
X0054357Y0166308D01*
X0054357Y0167842D01*
X0052823Y0167842D02*
X0052823Y0166308D01*
X0045518Y0166308D02*
X0045134Y0165924D01*
X0044367Y0165924D01*
X0043983Y0166308D01*
X0043983Y0167842D01*
X0044367Y0168226D01*
X0045134Y0168226D01*
X0045518Y0167842D01*
X0043277Y0168226D02*
X0042510Y0168226D01*
X0042894Y0168226D02*
X0042894Y0165924D01*
X0043277Y0165924D02*
X0042510Y0165924D01*
X0041835Y0165924D02*
X0041835Y0168226D01*
X0041067Y0167459D01*
X0040300Y0168226D01*
X0040300Y0165924D01*
D30*
X0060136Y0218976D02*
X0060138Y0219015D01*
X0060144Y0219054D01*
X0060154Y0219092D01*
X0060167Y0219129D01*
X0060184Y0219164D01*
X0060204Y0219198D01*
X0060228Y0219229D01*
X0060255Y0219258D01*
X0060284Y0219284D01*
X0060316Y0219307D01*
X0060350Y0219327D01*
X0060386Y0219343D01*
X0060423Y0219355D01*
X0060462Y0219364D01*
X0060501Y0219369D01*
X0060540Y0219370D01*
X0060579Y0219367D01*
X0060618Y0219360D01*
X0060655Y0219349D01*
X0060692Y0219335D01*
X0060727Y0219317D01*
X0060760Y0219296D01*
X0060791Y0219271D01*
X0060819Y0219244D01*
X0060844Y0219214D01*
X0060866Y0219181D01*
X0060885Y0219147D01*
X0060900Y0219111D01*
X0060912Y0219073D01*
X0060920Y0219035D01*
X0060924Y0218996D01*
X0060924Y0218956D01*
X0060920Y0218917D01*
X0060912Y0218879D01*
X0060900Y0218841D01*
X0060885Y0218805D01*
X0060866Y0218771D01*
X0060844Y0218738D01*
X0060819Y0218708D01*
X0060791Y0218681D01*
X0060760Y0218656D01*
X0060727Y0218635D01*
X0060692Y0218617D01*
X0060655Y0218603D01*
X0060618Y0218592D01*
X0060579Y0218585D01*
X0060540Y0218582D01*
X0060501Y0218583D01*
X0060462Y0218588D01*
X0060423Y0218597D01*
X0060386Y0218609D01*
X0060350Y0218625D01*
X0060316Y0218645D01*
X0060284Y0218668D01*
X0060255Y0218694D01*
X0060228Y0218723D01*
X0060204Y0218754D01*
X0060184Y0218788D01*
X0060167Y0218823D01*
X0060154Y0218860D01*
X0060144Y0218898D01*
X0060138Y0218937D01*
X0060136Y0218976D01*
X0060138Y0219015D01*
X0060144Y0219054D01*
X0060154Y0219092D01*
X0060167Y0219129D01*
X0060184Y0219164D01*
X0060204Y0219198D01*
X0060228Y0219229D01*
X0060255Y0219258D01*
X0060284Y0219284D01*
X0060316Y0219307D01*
X0060350Y0219327D01*
X0060386Y0219343D01*
X0060423Y0219355D01*
X0060462Y0219364D01*
X0060501Y0219369D01*
X0060540Y0219370D01*
X0060579Y0219367D01*
X0060618Y0219360D01*
X0060655Y0219349D01*
X0060692Y0219335D01*
X0060727Y0219317D01*
X0060760Y0219296D01*
X0060791Y0219271D01*
X0060819Y0219244D01*
X0060844Y0219214D01*
X0060866Y0219181D01*
X0060885Y0219147D01*
X0060900Y0219111D01*
X0060912Y0219073D01*
X0060920Y0219035D01*
X0060924Y0218996D01*
X0060924Y0218956D01*
X0060920Y0218917D01*
X0060912Y0218879D01*
X0060900Y0218841D01*
X0060885Y0218805D01*
X0060866Y0218771D01*
X0060844Y0218738D01*
X0060819Y0218708D01*
X0060791Y0218681D01*
X0060760Y0218656D01*
X0060727Y0218635D01*
X0060692Y0218617D01*
X0060655Y0218603D01*
X0060618Y0218592D01*
X0060579Y0218585D01*
X0060540Y0218582D01*
X0060501Y0218583D01*
X0060462Y0218588D01*
X0060423Y0218597D01*
X0060386Y0218609D01*
X0060350Y0218625D01*
X0060316Y0218645D01*
X0060284Y0218668D01*
X0060255Y0218694D01*
X0060228Y0218723D01*
X0060204Y0218754D01*
X0060184Y0218788D01*
X0060167Y0218823D01*
X0060154Y0218860D01*
X0060144Y0218898D01*
X0060138Y0218937D01*
X0060136Y0218976D01*
X0017443Y0061500D02*
X0017445Y0061539D01*
X0017451Y0061578D01*
X0017461Y0061616D01*
X0017474Y0061653D01*
X0017491Y0061688D01*
X0017511Y0061722D01*
X0017535Y0061753D01*
X0017562Y0061782D01*
X0017591Y0061808D01*
X0017623Y0061831D01*
X0017657Y0061851D01*
X0017693Y0061867D01*
X0017730Y0061879D01*
X0017769Y0061888D01*
X0017808Y0061893D01*
X0017847Y0061894D01*
X0017886Y0061891D01*
X0017925Y0061884D01*
X0017962Y0061873D01*
X0017999Y0061859D01*
X0018034Y0061841D01*
X0018067Y0061820D01*
X0018098Y0061795D01*
X0018126Y0061768D01*
X0018151Y0061738D01*
X0018173Y0061705D01*
X0018192Y0061671D01*
X0018207Y0061635D01*
X0018219Y0061597D01*
X0018227Y0061559D01*
X0018231Y0061520D01*
X0018231Y0061480D01*
X0018227Y0061441D01*
X0018219Y0061403D01*
X0018207Y0061365D01*
X0018192Y0061329D01*
X0018173Y0061295D01*
X0018151Y0061262D01*
X0018126Y0061232D01*
X0018098Y0061205D01*
X0018067Y0061180D01*
X0018034Y0061159D01*
X0017999Y0061141D01*
X0017962Y0061127D01*
X0017925Y0061116D01*
X0017886Y0061109D01*
X0017847Y0061106D01*
X0017808Y0061107D01*
X0017769Y0061112D01*
X0017730Y0061121D01*
X0017693Y0061133D01*
X0017657Y0061149D01*
X0017623Y0061169D01*
X0017591Y0061192D01*
X0017562Y0061218D01*
X0017535Y0061247D01*
X0017511Y0061278D01*
X0017491Y0061312D01*
X0017474Y0061347D01*
X0017461Y0061384D01*
X0017451Y0061422D01*
X0017445Y0061461D01*
X0017443Y0061500D01*
X0017445Y0061539D01*
X0017451Y0061578D01*
X0017461Y0061616D01*
X0017474Y0061653D01*
X0017491Y0061688D01*
X0017511Y0061722D01*
X0017535Y0061753D01*
X0017562Y0061782D01*
X0017591Y0061808D01*
X0017623Y0061831D01*
X0017657Y0061851D01*
X0017693Y0061867D01*
X0017730Y0061879D01*
X0017769Y0061888D01*
X0017808Y0061893D01*
X0017847Y0061894D01*
X0017886Y0061891D01*
X0017925Y0061884D01*
X0017962Y0061873D01*
X0017999Y0061859D01*
X0018034Y0061841D01*
X0018067Y0061820D01*
X0018098Y0061795D01*
X0018126Y0061768D01*
X0018151Y0061738D01*
X0018173Y0061705D01*
X0018192Y0061671D01*
X0018207Y0061635D01*
X0018219Y0061597D01*
X0018227Y0061559D01*
X0018231Y0061520D01*
X0018231Y0061480D01*
X0018227Y0061441D01*
X0018219Y0061403D01*
X0018207Y0061365D01*
X0018192Y0061329D01*
X0018173Y0061295D01*
X0018151Y0061262D01*
X0018126Y0061232D01*
X0018098Y0061205D01*
X0018067Y0061180D01*
X0018034Y0061159D01*
X0017999Y0061141D01*
X0017962Y0061127D01*
X0017925Y0061116D01*
X0017886Y0061109D01*
X0017847Y0061106D01*
X0017808Y0061107D01*
X0017769Y0061112D01*
X0017730Y0061121D01*
X0017693Y0061133D01*
X0017657Y0061149D01*
X0017623Y0061169D01*
X0017591Y0061192D01*
X0017562Y0061218D01*
X0017535Y0061247D01*
X0017511Y0061278D01*
X0017491Y0061312D01*
X0017474Y0061347D01*
X0017461Y0061384D01*
X0017451Y0061422D01*
X0017445Y0061461D01*
X0017443Y0061500D01*
X0156495Y0007764D02*
X0156497Y0007803D01*
X0156503Y0007842D01*
X0156513Y0007880D01*
X0156526Y0007917D01*
X0156543Y0007952D01*
X0156563Y0007986D01*
X0156587Y0008017D01*
X0156614Y0008046D01*
X0156643Y0008072D01*
X0156675Y0008095D01*
X0156709Y0008115D01*
X0156745Y0008131D01*
X0156782Y0008143D01*
X0156821Y0008152D01*
X0156860Y0008157D01*
X0156899Y0008158D01*
X0156938Y0008155D01*
X0156977Y0008148D01*
X0157014Y0008137D01*
X0157051Y0008123D01*
X0157086Y0008105D01*
X0157119Y0008084D01*
X0157150Y0008059D01*
X0157178Y0008032D01*
X0157203Y0008002D01*
X0157225Y0007969D01*
X0157244Y0007935D01*
X0157259Y0007899D01*
X0157271Y0007861D01*
X0157279Y0007823D01*
X0157283Y0007784D01*
X0157283Y0007744D01*
X0157279Y0007705D01*
X0157271Y0007667D01*
X0157259Y0007629D01*
X0157244Y0007593D01*
X0157225Y0007559D01*
X0157203Y0007526D01*
X0157178Y0007496D01*
X0157150Y0007469D01*
X0157119Y0007444D01*
X0157086Y0007423D01*
X0157051Y0007405D01*
X0157014Y0007391D01*
X0156977Y0007380D01*
X0156938Y0007373D01*
X0156899Y0007370D01*
X0156860Y0007371D01*
X0156821Y0007376D01*
X0156782Y0007385D01*
X0156745Y0007397D01*
X0156709Y0007413D01*
X0156675Y0007433D01*
X0156643Y0007456D01*
X0156614Y0007482D01*
X0156587Y0007511D01*
X0156563Y0007542D01*
X0156543Y0007576D01*
X0156526Y0007611D01*
X0156513Y0007648D01*
X0156503Y0007686D01*
X0156497Y0007725D01*
X0156495Y0007764D01*
X0156497Y0007803D01*
X0156503Y0007842D01*
X0156513Y0007880D01*
X0156526Y0007917D01*
X0156543Y0007952D01*
X0156563Y0007986D01*
X0156587Y0008017D01*
X0156614Y0008046D01*
X0156643Y0008072D01*
X0156675Y0008095D01*
X0156709Y0008115D01*
X0156745Y0008131D01*
X0156782Y0008143D01*
X0156821Y0008152D01*
X0156860Y0008157D01*
X0156899Y0008158D01*
X0156938Y0008155D01*
X0156977Y0008148D01*
X0157014Y0008137D01*
X0157051Y0008123D01*
X0157086Y0008105D01*
X0157119Y0008084D01*
X0157150Y0008059D01*
X0157178Y0008032D01*
X0157203Y0008002D01*
X0157225Y0007969D01*
X0157244Y0007935D01*
X0157259Y0007899D01*
X0157271Y0007861D01*
X0157279Y0007823D01*
X0157283Y0007784D01*
X0157283Y0007744D01*
X0157279Y0007705D01*
X0157271Y0007667D01*
X0157259Y0007629D01*
X0157244Y0007593D01*
X0157225Y0007559D01*
X0157203Y0007526D01*
X0157178Y0007496D01*
X0157150Y0007469D01*
X0157119Y0007444D01*
X0157086Y0007423D01*
X0157051Y0007405D01*
X0157014Y0007391D01*
X0156977Y0007380D01*
X0156938Y0007373D01*
X0156899Y0007370D01*
X0156860Y0007371D01*
X0156821Y0007376D01*
X0156782Y0007385D01*
X0156745Y0007397D01*
X0156709Y0007413D01*
X0156675Y0007433D01*
X0156643Y0007456D01*
X0156614Y0007482D01*
X0156587Y0007511D01*
X0156563Y0007542D01*
X0156543Y0007576D01*
X0156526Y0007611D01*
X0156513Y0007648D01*
X0156503Y0007686D01*
X0156497Y0007725D01*
X0156495Y0007764D01*
X0277463Y0162626D02*
X0277465Y0162665D01*
X0277471Y0162704D01*
X0277481Y0162742D01*
X0277494Y0162779D01*
X0277511Y0162814D01*
X0277531Y0162848D01*
X0277555Y0162879D01*
X0277582Y0162908D01*
X0277611Y0162934D01*
X0277643Y0162957D01*
X0277677Y0162977D01*
X0277713Y0162993D01*
X0277750Y0163005D01*
X0277789Y0163014D01*
X0277828Y0163019D01*
X0277867Y0163020D01*
X0277906Y0163017D01*
X0277945Y0163010D01*
X0277982Y0162999D01*
X0278019Y0162985D01*
X0278054Y0162967D01*
X0278087Y0162946D01*
X0278118Y0162921D01*
X0278146Y0162894D01*
X0278171Y0162864D01*
X0278193Y0162831D01*
X0278212Y0162797D01*
X0278227Y0162761D01*
X0278239Y0162723D01*
X0278247Y0162685D01*
X0278251Y0162646D01*
X0278251Y0162606D01*
X0278247Y0162567D01*
X0278239Y0162529D01*
X0278227Y0162491D01*
X0278212Y0162455D01*
X0278193Y0162421D01*
X0278171Y0162388D01*
X0278146Y0162358D01*
X0278118Y0162331D01*
X0278087Y0162306D01*
X0278054Y0162285D01*
X0278019Y0162267D01*
X0277982Y0162253D01*
X0277945Y0162242D01*
X0277906Y0162235D01*
X0277867Y0162232D01*
X0277828Y0162233D01*
X0277789Y0162238D01*
X0277750Y0162247D01*
X0277713Y0162259D01*
X0277677Y0162275D01*
X0277643Y0162295D01*
X0277611Y0162318D01*
X0277582Y0162344D01*
X0277555Y0162373D01*
X0277531Y0162404D01*
X0277511Y0162438D01*
X0277494Y0162473D01*
X0277481Y0162510D01*
X0277471Y0162548D01*
X0277465Y0162587D01*
X0277463Y0162626D01*
X0277465Y0162665D01*
X0277471Y0162704D01*
X0277481Y0162742D01*
X0277494Y0162779D01*
X0277511Y0162814D01*
X0277531Y0162848D01*
X0277555Y0162879D01*
X0277582Y0162908D01*
X0277611Y0162934D01*
X0277643Y0162957D01*
X0277677Y0162977D01*
X0277713Y0162993D01*
X0277750Y0163005D01*
X0277789Y0163014D01*
X0277828Y0163019D01*
X0277867Y0163020D01*
X0277906Y0163017D01*
X0277945Y0163010D01*
X0277982Y0162999D01*
X0278019Y0162985D01*
X0278054Y0162967D01*
X0278087Y0162946D01*
X0278118Y0162921D01*
X0278146Y0162894D01*
X0278171Y0162864D01*
X0278193Y0162831D01*
X0278212Y0162797D01*
X0278227Y0162761D01*
X0278239Y0162723D01*
X0278247Y0162685D01*
X0278251Y0162646D01*
X0278251Y0162606D01*
X0278247Y0162567D01*
X0278239Y0162529D01*
X0278227Y0162491D01*
X0278212Y0162455D01*
X0278193Y0162421D01*
X0278171Y0162388D01*
X0278146Y0162358D01*
X0278118Y0162331D01*
X0278087Y0162306D01*
X0278054Y0162285D01*
X0278019Y0162267D01*
X0277982Y0162253D01*
X0277945Y0162242D01*
X0277906Y0162235D01*
X0277867Y0162232D01*
X0277828Y0162233D01*
X0277789Y0162238D01*
X0277750Y0162247D01*
X0277713Y0162259D01*
X0277677Y0162275D01*
X0277643Y0162295D01*
X0277611Y0162318D01*
X0277582Y0162344D01*
X0277555Y0162373D01*
X0277531Y0162404D01*
X0277511Y0162438D01*
X0277494Y0162473D01*
X0277481Y0162510D01*
X0277471Y0162548D01*
X0277465Y0162587D01*
X0277463Y0162626D01*
D31*
X0170273Y0015878D03*
X0159827Y0015870D03*
D32*
X0162234Y0007394D03*
X0166834Y0007394D03*
X0190766Y0060854D03*
X0195366Y0060854D03*
X0196766Y0066854D03*
X0201366Y0066854D03*
X0225734Y0063894D03*
X0230334Y0063894D03*
X0230334Y0070894D03*
X0225734Y0070894D03*
X0252766Y0076354D03*
X0257366Y0076354D03*
X0257366Y0083354D03*
X0252766Y0083354D03*
X0266734Y0083394D03*
X0271334Y0083394D03*
X0271334Y0076394D03*
X0266734Y0076394D03*
X0265734Y0212394D03*
X0270334Y0212394D03*
D33*
X0278030Y0207658D03*
X0278030Y0203058D03*
X0214030Y0070158D03*
X0214030Y0065558D03*
X0095070Y0143090D03*
X0095070Y0147690D03*
X0064070Y0218090D03*
X0064070Y0222690D03*
X0069570Y0029690D03*
X0069570Y0025090D03*
D34*
X0039687Y0216197D03*
X0039687Y0218756D03*
X0039687Y0221315D03*
X0039687Y0223874D03*
X0039687Y0226433D03*
X0039687Y0228992D03*
X0039687Y0231551D03*
X0018413Y0231551D03*
X0018413Y0228992D03*
X0018413Y0226433D03*
X0018413Y0223874D03*
X0018413Y0221315D03*
X0018413Y0218756D03*
X0018413Y0216197D03*
D35*
X0008050Y0219574D03*
X0008050Y0224574D03*
X0057050Y0170374D03*
X0057050Y0165374D03*
X0111050Y0147874D03*
X0111050Y0142874D03*
X0119050Y0142874D03*
X0119050Y0147874D03*
X0095357Y0095031D03*
X0095357Y0090031D03*
X0085515Y0090031D03*
X0085515Y0095031D03*
X0068585Y0066685D03*
X0068585Y0061685D03*
X0060318Y0061291D03*
X0060318Y0066291D03*
X0054806Y0050937D03*
X0054806Y0045937D03*
X0039050Y0055874D03*
X0039050Y0060874D03*
X0033050Y0078874D03*
X0033050Y0083874D03*
X0200050Y0167374D03*
X0200050Y0172374D03*
X0243050Y0088874D03*
X0243050Y0083874D03*
X0264050Y0026874D03*
X0264050Y0021874D03*
D36*
X0181050Y0022874D03*
X0181050Y0012874D03*
X0181050Y0032874D03*
X0181050Y0042874D03*
X0181050Y0052874D03*
X0181050Y0062874D03*
D37*
X0143750Y0131424D03*
X0136350Y0131424D03*
X0140050Y0139324D03*
X0269350Y0057424D03*
X0276750Y0057424D03*
X0273050Y0065324D03*
D38*
X0141056Y0151494D03*
X0141056Y0157294D03*
D39*
X0209851Y0087632D02*
X0216249Y0087632D01*
X0216249Y0076116D01*
X0209851Y0076116D01*
X0209851Y0087632D01*
X0072808Y0051573D02*
X0072808Y0045175D01*
X0061292Y0045175D01*
X0061292Y0051573D01*
X0072808Y0051573D01*
X0043249Y0043632D02*
X0043249Y0032116D01*
X0036851Y0032116D01*
X0036851Y0043632D01*
X0043249Y0043632D01*
D40*
X0044873Y0041614D03*
X0044873Y0037874D03*
X0044873Y0034134D03*
X0035227Y0034134D03*
X0035227Y0037874D03*
X0035227Y0041614D03*
X0208227Y0078134D03*
X0208227Y0081874D03*
X0208227Y0085614D03*
X0217873Y0085614D03*
X0217873Y0081874D03*
X0217873Y0078134D03*
D41*
X0217674Y0074587D03*
X0074337Y0052998D03*
X0044674Y0030587D03*
D42*
X0194910Y0166145D02*
X0194550Y0166145D01*
X0194551Y0166146D02*
X0194548Y0166208D01*
X0194541Y0166270D01*
X0194530Y0166331D01*
X0194515Y0166391D01*
X0194497Y0166451D01*
X0194475Y0166509D01*
X0194450Y0166565D01*
X0194421Y0166620D01*
X0194388Y0166673D01*
X0194353Y0166724D01*
X0194314Y0166773D01*
X0194273Y0166819D01*
X0194228Y0166862D01*
X0194181Y0166903D01*
X0194132Y0166941D01*
X0194080Y0166975D01*
X0194027Y0167006D01*
X0193971Y0167034D01*
X0193914Y0167058D01*
X0193856Y0167079D01*
X0193796Y0167096D01*
X0193735Y0167110D01*
X0193674Y0167119D01*
X0193612Y0167125D01*
X0193550Y0167127D01*
X0193488Y0167125D01*
X0193426Y0167119D01*
X0193365Y0167110D01*
X0193304Y0167096D01*
X0193244Y0167079D01*
X0193186Y0167058D01*
X0193129Y0167034D01*
X0193073Y0167006D01*
X0193020Y0166975D01*
X0192968Y0166941D01*
X0192919Y0166903D01*
X0192872Y0166862D01*
X0192827Y0166819D01*
X0192786Y0166773D01*
X0192747Y0166724D01*
X0192712Y0166673D01*
X0192679Y0166620D01*
X0192650Y0166565D01*
X0192625Y0166509D01*
X0192603Y0166451D01*
X0192585Y0166391D01*
X0192570Y0166331D01*
X0192559Y0166270D01*
X0192552Y0166208D01*
X0192549Y0166146D01*
X0192190Y0166145D01*
X0192189Y0166146D01*
X0192192Y0166219D01*
X0192199Y0166292D01*
X0192210Y0166364D01*
X0192225Y0166435D01*
X0192243Y0166506D01*
X0192265Y0166576D01*
X0192291Y0166644D01*
X0192321Y0166711D01*
X0192354Y0166776D01*
X0192391Y0166839D01*
X0192431Y0166900D01*
X0192474Y0166959D01*
X0192520Y0167015D01*
X0192569Y0167069D01*
X0192621Y0167121D01*
X0192676Y0167169D01*
X0192733Y0167214D01*
X0192793Y0167257D01*
X0192854Y0167296D01*
X0192918Y0167331D01*
X0192984Y0167364D01*
X0193051Y0167392D01*
X0193119Y0167417D01*
X0193189Y0167438D01*
X0193260Y0167456D01*
X0193332Y0167469D01*
X0193404Y0167479D01*
X0193477Y0167485D01*
X0193550Y0167487D01*
X0193623Y0167485D01*
X0193696Y0167479D01*
X0193768Y0167469D01*
X0193840Y0167456D01*
X0193911Y0167438D01*
X0193981Y0167417D01*
X0194049Y0167392D01*
X0194116Y0167364D01*
X0194182Y0167331D01*
X0194246Y0167296D01*
X0194307Y0167257D01*
X0194367Y0167214D01*
X0194424Y0167169D01*
X0194479Y0167121D01*
X0194531Y0167069D01*
X0194580Y0167015D01*
X0194626Y0166959D01*
X0194669Y0166900D01*
X0194709Y0166839D01*
X0194746Y0166776D01*
X0194779Y0166711D01*
X0194809Y0166644D01*
X0194835Y0166576D01*
X0194857Y0166506D01*
X0194875Y0166435D01*
X0194890Y0166364D01*
X0194901Y0166292D01*
X0194908Y0166219D01*
X0194911Y0166146D01*
X0194874Y0166146D01*
X0194871Y0166218D01*
X0194864Y0166290D01*
X0194853Y0166362D01*
X0194838Y0166432D01*
X0194819Y0166502D01*
X0194797Y0166571D01*
X0194771Y0166638D01*
X0194741Y0166704D01*
X0194708Y0166768D01*
X0194671Y0166830D01*
X0194631Y0166890D01*
X0194588Y0166948D01*
X0194541Y0167004D01*
X0194492Y0167056D01*
X0194440Y0167106D01*
X0194385Y0167154D01*
X0194328Y0167198D01*
X0194268Y0167238D01*
X0194206Y0167276D01*
X0194143Y0167310D01*
X0194077Y0167341D01*
X0194010Y0167368D01*
X0193942Y0167391D01*
X0193872Y0167410D01*
X0193801Y0167426D01*
X0193730Y0167438D01*
X0193658Y0167446D01*
X0193586Y0167450D01*
X0193514Y0167450D01*
X0193442Y0167446D01*
X0193370Y0167438D01*
X0193299Y0167426D01*
X0193228Y0167410D01*
X0193158Y0167391D01*
X0193090Y0167368D01*
X0193023Y0167341D01*
X0192957Y0167310D01*
X0192894Y0167276D01*
X0192832Y0167238D01*
X0192772Y0167198D01*
X0192715Y0167154D01*
X0192660Y0167106D01*
X0192608Y0167056D01*
X0192559Y0167004D01*
X0192512Y0166948D01*
X0192469Y0166890D01*
X0192429Y0166830D01*
X0192392Y0166768D01*
X0192359Y0166704D01*
X0192329Y0166638D01*
X0192303Y0166571D01*
X0192281Y0166502D01*
X0192262Y0166432D01*
X0192247Y0166362D01*
X0192236Y0166290D01*
X0192229Y0166218D01*
X0192226Y0166146D01*
X0192263Y0166146D01*
X0192266Y0166217D01*
X0192273Y0166289D01*
X0192284Y0166359D01*
X0192299Y0166429D01*
X0192318Y0166498D01*
X0192341Y0166566D01*
X0192367Y0166632D01*
X0192397Y0166697D01*
X0192430Y0166760D01*
X0192467Y0166822D01*
X0192507Y0166881D01*
X0192551Y0166937D01*
X0192598Y0166992D01*
X0192647Y0167043D01*
X0192699Y0167092D01*
X0192754Y0167138D01*
X0192812Y0167180D01*
X0192871Y0167220D01*
X0192933Y0167256D01*
X0192997Y0167288D01*
X0193062Y0167317D01*
X0193129Y0167342D01*
X0193197Y0167364D01*
X0193266Y0167381D01*
X0193337Y0167395D01*
X0193407Y0167405D01*
X0193479Y0167411D01*
X0193550Y0167413D01*
X0193621Y0167411D01*
X0193693Y0167405D01*
X0193763Y0167395D01*
X0193834Y0167381D01*
X0193903Y0167364D01*
X0193971Y0167342D01*
X0194038Y0167317D01*
X0194103Y0167288D01*
X0194167Y0167256D01*
X0194229Y0167220D01*
X0194288Y0167180D01*
X0194346Y0167138D01*
X0194401Y0167092D01*
X0194453Y0167043D01*
X0194502Y0166992D01*
X0194549Y0166937D01*
X0194593Y0166881D01*
X0194633Y0166822D01*
X0194670Y0166760D01*
X0194703Y0166697D01*
X0194733Y0166632D01*
X0194759Y0166566D01*
X0194782Y0166498D01*
X0194801Y0166429D01*
X0194816Y0166359D01*
X0194827Y0166289D01*
X0194834Y0166217D01*
X0194837Y0166146D01*
X0194800Y0166146D01*
X0194797Y0166215D01*
X0194790Y0166284D01*
X0194779Y0166353D01*
X0194765Y0166421D01*
X0194746Y0166488D01*
X0194725Y0166554D01*
X0194699Y0166618D01*
X0194670Y0166681D01*
X0194637Y0166742D01*
X0194602Y0166802D01*
X0194562Y0166859D01*
X0194520Y0166914D01*
X0194475Y0166967D01*
X0194427Y0167017D01*
X0194376Y0167064D01*
X0194323Y0167109D01*
X0194267Y0167150D01*
X0194209Y0167188D01*
X0194149Y0167223D01*
X0194087Y0167255D01*
X0194024Y0167283D01*
X0193959Y0167307D01*
X0193893Y0167328D01*
X0193825Y0167345D01*
X0193757Y0167359D01*
X0193689Y0167368D01*
X0193619Y0167374D01*
X0193550Y0167376D01*
X0193481Y0167374D01*
X0193411Y0167368D01*
X0193343Y0167359D01*
X0193275Y0167345D01*
X0193207Y0167328D01*
X0193141Y0167307D01*
X0193076Y0167283D01*
X0193013Y0167255D01*
X0192951Y0167223D01*
X0192891Y0167188D01*
X0192833Y0167150D01*
X0192777Y0167109D01*
X0192724Y0167064D01*
X0192673Y0167017D01*
X0192625Y0166967D01*
X0192580Y0166914D01*
X0192538Y0166859D01*
X0192498Y0166802D01*
X0192463Y0166742D01*
X0192430Y0166681D01*
X0192401Y0166618D01*
X0192375Y0166554D01*
X0192354Y0166488D01*
X0192335Y0166421D01*
X0192321Y0166353D01*
X0192310Y0166284D01*
X0192303Y0166215D01*
X0192300Y0166146D01*
X0192337Y0166146D01*
X0192340Y0166214D01*
X0192347Y0166283D01*
X0192358Y0166350D01*
X0192373Y0166417D01*
X0192391Y0166483D01*
X0192413Y0166548D01*
X0192439Y0166612D01*
X0192468Y0166674D01*
X0192500Y0166734D01*
X0192536Y0166792D01*
X0192576Y0166849D01*
X0192618Y0166903D01*
X0192663Y0166954D01*
X0192712Y0167003D01*
X0192763Y0167049D01*
X0192816Y0167092D01*
X0192872Y0167132D01*
X0192930Y0167168D01*
X0192989Y0167202D01*
X0193051Y0167232D01*
X0193114Y0167258D01*
X0193179Y0167281D01*
X0193245Y0167300D01*
X0193312Y0167315D01*
X0193379Y0167327D01*
X0193447Y0167335D01*
X0193516Y0167339D01*
X0193584Y0167339D01*
X0193653Y0167335D01*
X0193721Y0167327D01*
X0193788Y0167315D01*
X0193855Y0167300D01*
X0193921Y0167281D01*
X0193986Y0167258D01*
X0194049Y0167232D01*
X0194111Y0167202D01*
X0194170Y0167168D01*
X0194228Y0167132D01*
X0194284Y0167092D01*
X0194337Y0167049D01*
X0194388Y0167003D01*
X0194437Y0166954D01*
X0194482Y0166903D01*
X0194524Y0166849D01*
X0194564Y0166792D01*
X0194600Y0166734D01*
X0194632Y0166674D01*
X0194661Y0166612D01*
X0194687Y0166548D01*
X0194709Y0166483D01*
X0194727Y0166417D01*
X0194742Y0166350D01*
X0194753Y0166283D01*
X0194760Y0166214D01*
X0194763Y0166146D01*
X0194726Y0166146D01*
X0194723Y0166214D01*
X0194716Y0166281D01*
X0194705Y0166348D01*
X0194690Y0166414D01*
X0194672Y0166479D01*
X0194650Y0166543D01*
X0194624Y0166605D01*
X0194595Y0166666D01*
X0194562Y0166726D01*
X0194526Y0166783D01*
X0194486Y0166838D01*
X0194444Y0166890D01*
X0194398Y0166941D01*
X0194350Y0166988D01*
X0194299Y0167033D01*
X0194246Y0167074D01*
X0194190Y0167113D01*
X0194132Y0167148D01*
X0194072Y0167180D01*
X0194011Y0167208D01*
X0193948Y0167233D01*
X0193884Y0167254D01*
X0193818Y0167271D01*
X0193752Y0167285D01*
X0193685Y0167294D01*
X0193618Y0167300D01*
X0193550Y0167302D01*
X0193482Y0167300D01*
X0193415Y0167294D01*
X0193348Y0167285D01*
X0193282Y0167271D01*
X0193216Y0167254D01*
X0193152Y0167233D01*
X0193089Y0167208D01*
X0193028Y0167180D01*
X0192968Y0167148D01*
X0192910Y0167113D01*
X0192854Y0167074D01*
X0192801Y0167033D01*
X0192750Y0166988D01*
X0192702Y0166941D01*
X0192656Y0166890D01*
X0192614Y0166838D01*
X0192574Y0166783D01*
X0192538Y0166726D01*
X0192505Y0166666D01*
X0192476Y0166605D01*
X0192450Y0166543D01*
X0192428Y0166479D01*
X0192410Y0166414D01*
X0192395Y0166348D01*
X0192384Y0166281D01*
X0192377Y0166214D01*
X0192374Y0166146D01*
X0192411Y0166146D01*
X0192414Y0166213D01*
X0192421Y0166279D01*
X0192432Y0166345D01*
X0192447Y0166410D01*
X0192466Y0166474D01*
X0192488Y0166537D01*
X0192514Y0166599D01*
X0192543Y0166658D01*
X0192576Y0166717D01*
X0192612Y0166773D01*
X0192652Y0166826D01*
X0192694Y0166878D01*
X0192740Y0166927D01*
X0192788Y0166973D01*
X0192839Y0167016D01*
X0192892Y0167056D01*
X0192948Y0167093D01*
X0193006Y0167127D01*
X0193065Y0167157D01*
X0193126Y0167183D01*
X0193189Y0167206D01*
X0193253Y0167226D01*
X0193318Y0167241D01*
X0193384Y0167253D01*
X0193450Y0167261D01*
X0193517Y0167265D01*
X0193583Y0167265D01*
X0193650Y0167261D01*
X0193716Y0167253D01*
X0193782Y0167241D01*
X0193847Y0167226D01*
X0193911Y0167206D01*
X0193974Y0167183D01*
X0194035Y0167157D01*
X0194094Y0167127D01*
X0194152Y0167093D01*
X0194208Y0167056D01*
X0194261Y0167016D01*
X0194312Y0166973D01*
X0194360Y0166927D01*
X0194406Y0166878D01*
X0194448Y0166826D01*
X0194488Y0166773D01*
X0194524Y0166717D01*
X0194557Y0166658D01*
X0194586Y0166599D01*
X0194612Y0166537D01*
X0194634Y0166474D01*
X0194653Y0166410D01*
X0194668Y0166345D01*
X0194679Y0166279D01*
X0194686Y0166213D01*
X0194689Y0166146D01*
X0194652Y0166146D01*
X0194649Y0166212D01*
X0194642Y0166277D01*
X0194631Y0166342D01*
X0194616Y0166406D01*
X0194597Y0166469D01*
X0194575Y0166531D01*
X0194549Y0166592D01*
X0194519Y0166650D01*
X0194486Y0166707D01*
X0194450Y0166762D01*
X0194410Y0166815D01*
X0194368Y0166865D01*
X0194322Y0166912D01*
X0194274Y0166957D01*
X0194223Y0166999D01*
X0194170Y0167037D01*
X0194114Y0167073D01*
X0194057Y0167105D01*
X0193997Y0167133D01*
X0193936Y0167158D01*
X0193874Y0167179D01*
X0193811Y0167197D01*
X0193746Y0167210D01*
X0193681Y0167220D01*
X0193616Y0167226D01*
X0193550Y0167228D01*
X0193484Y0167226D01*
X0193419Y0167220D01*
X0193354Y0167210D01*
X0193289Y0167197D01*
X0193226Y0167179D01*
X0193164Y0167158D01*
X0193103Y0167133D01*
X0193043Y0167105D01*
X0192986Y0167073D01*
X0192930Y0167037D01*
X0192877Y0166999D01*
X0192826Y0166957D01*
X0192778Y0166912D01*
X0192732Y0166865D01*
X0192690Y0166815D01*
X0192650Y0166762D01*
X0192614Y0166707D01*
X0192581Y0166650D01*
X0192551Y0166592D01*
X0192525Y0166531D01*
X0192503Y0166469D01*
X0192484Y0166406D01*
X0192469Y0166342D01*
X0192458Y0166277D01*
X0192451Y0166212D01*
X0192448Y0166146D01*
X0192485Y0166146D01*
X0192488Y0166211D01*
X0192495Y0166275D01*
X0192507Y0166339D01*
X0192521Y0166402D01*
X0192540Y0166464D01*
X0192563Y0166525D01*
X0192589Y0166584D01*
X0192618Y0166642D01*
X0192651Y0166698D01*
X0192688Y0166751D01*
X0192727Y0166802D01*
X0192770Y0166851D01*
X0192816Y0166897D01*
X0192864Y0166941D01*
X0192915Y0166981D01*
X0192968Y0167018D01*
X0193023Y0167052D01*
X0193081Y0167082D01*
X0193140Y0167109D01*
X0193200Y0167132D01*
X0193262Y0167151D01*
X0193325Y0167167D01*
X0193389Y0167179D01*
X0193453Y0167187D01*
X0193518Y0167191D01*
X0193582Y0167191D01*
X0193647Y0167187D01*
X0193711Y0167179D01*
X0193775Y0167167D01*
X0193838Y0167151D01*
X0193900Y0167132D01*
X0193960Y0167109D01*
X0194019Y0167082D01*
X0194077Y0167052D01*
X0194132Y0167018D01*
X0194185Y0166981D01*
X0194236Y0166941D01*
X0194284Y0166897D01*
X0194330Y0166851D01*
X0194373Y0166802D01*
X0194412Y0166751D01*
X0194449Y0166698D01*
X0194482Y0166642D01*
X0194511Y0166584D01*
X0194537Y0166525D01*
X0194560Y0166464D01*
X0194579Y0166402D01*
X0194593Y0166339D01*
X0194605Y0166275D01*
X0194612Y0166211D01*
X0194615Y0166146D01*
X0194578Y0166146D01*
X0194575Y0166210D01*
X0194567Y0166273D01*
X0194556Y0166336D01*
X0194541Y0166398D01*
X0194523Y0166459D01*
X0194500Y0166519D01*
X0194474Y0166577D01*
X0194444Y0166633D01*
X0194411Y0166688D01*
X0194375Y0166740D01*
X0194335Y0166790D01*
X0194292Y0166837D01*
X0194247Y0166882D01*
X0194198Y0166924D01*
X0194148Y0166962D01*
X0194095Y0166998D01*
X0194040Y0167030D01*
X0193983Y0167059D01*
X0193924Y0167084D01*
X0193864Y0167105D01*
X0193803Y0167122D01*
X0193740Y0167136D01*
X0193677Y0167146D01*
X0193614Y0167152D01*
X0193550Y0167154D01*
X0193486Y0167152D01*
X0193423Y0167146D01*
X0193360Y0167136D01*
X0193297Y0167122D01*
X0193236Y0167105D01*
X0193176Y0167084D01*
X0193117Y0167059D01*
X0193060Y0167030D01*
X0193005Y0166998D01*
X0192952Y0166962D01*
X0192902Y0166924D01*
X0192853Y0166882D01*
X0192808Y0166837D01*
X0192765Y0166790D01*
X0192725Y0166740D01*
X0192689Y0166688D01*
X0192656Y0166633D01*
X0192626Y0166577D01*
X0192600Y0166519D01*
X0192577Y0166459D01*
X0192559Y0166398D01*
X0192544Y0166336D01*
X0192533Y0166273D01*
X0192525Y0166210D01*
X0192522Y0166146D01*
X0244410Y0069145D02*
X0244050Y0069145D01*
X0244051Y0069146D02*
X0244048Y0069208D01*
X0244041Y0069270D01*
X0244030Y0069331D01*
X0244015Y0069391D01*
X0243997Y0069451D01*
X0243975Y0069509D01*
X0243950Y0069565D01*
X0243921Y0069620D01*
X0243888Y0069673D01*
X0243853Y0069724D01*
X0243814Y0069773D01*
X0243773Y0069819D01*
X0243728Y0069862D01*
X0243681Y0069903D01*
X0243632Y0069941D01*
X0243580Y0069975D01*
X0243527Y0070006D01*
X0243471Y0070034D01*
X0243414Y0070058D01*
X0243356Y0070079D01*
X0243296Y0070096D01*
X0243235Y0070110D01*
X0243174Y0070119D01*
X0243112Y0070125D01*
X0243050Y0070127D01*
X0242988Y0070125D01*
X0242926Y0070119D01*
X0242865Y0070110D01*
X0242804Y0070096D01*
X0242744Y0070079D01*
X0242686Y0070058D01*
X0242629Y0070034D01*
X0242573Y0070006D01*
X0242520Y0069975D01*
X0242468Y0069941D01*
X0242419Y0069903D01*
X0242372Y0069862D01*
X0242327Y0069819D01*
X0242286Y0069773D01*
X0242247Y0069724D01*
X0242212Y0069673D01*
X0242179Y0069620D01*
X0242150Y0069565D01*
X0242125Y0069509D01*
X0242103Y0069451D01*
X0242085Y0069391D01*
X0242070Y0069331D01*
X0242059Y0069270D01*
X0242052Y0069208D01*
X0242049Y0069146D01*
X0241690Y0069145D01*
X0241689Y0069146D01*
X0241692Y0069219D01*
X0241699Y0069292D01*
X0241710Y0069364D01*
X0241725Y0069435D01*
X0241743Y0069506D01*
X0241765Y0069576D01*
X0241791Y0069644D01*
X0241821Y0069711D01*
X0241854Y0069776D01*
X0241891Y0069839D01*
X0241931Y0069900D01*
X0241974Y0069959D01*
X0242020Y0070015D01*
X0242069Y0070069D01*
X0242121Y0070121D01*
X0242176Y0070169D01*
X0242233Y0070214D01*
X0242293Y0070257D01*
X0242354Y0070296D01*
X0242418Y0070331D01*
X0242484Y0070364D01*
X0242551Y0070392D01*
X0242619Y0070417D01*
X0242689Y0070438D01*
X0242760Y0070456D01*
X0242832Y0070469D01*
X0242904Y0070479D01*
X0242977Y0070485D01*
X0243050Y0070487D01*
X0243123Y0070485D01*
X0243196Y0070479D01*
X0243268Y0070469D01*
X0243340Y0070456D01*
X0243411Y0070438D01*
X0243481Y0070417D01*
X0243549Y0070392D01*
X0243616Y0070364D01*
X0243682Y0070331D01*
X0243746Y0070296D01*
X0243807Y0070257D01*
X0243867Y0070214D01*
X0243924Y0070169D01*
X0243979Y0070121D01*
X0244031Y0070069D01*
X0244080Y0070015D01*
X0244126Y0069959D01*
X0244169Y0069900D01*
X0244209Y0069839D01*
X0244246Y0069776D01*
X0244279Y0069711D01*
X0244309Y0069644D01*
X0244335Y0069576D01*
X0244357Y0069506D01*
X0244375Y0069435D01*
X0244390Y0069364D01*
X0244401Y0069292D01*
X0244408Y0069219D01*
X0244411Y0069146D01*
X0244374Y0069146D01*
X0244371Y0069218D01*
X0244364Y0069290D01*
X0244353Y0069362D01*
X0244338Y0069432D01*
X0244319Y0069502D01*
X0244297Y0069571D01*
X0244271Y0069638D01*
X0244241Y0069704D01*
X0244208Y0069768D01*
X0244171Y0069830D01*
X0244131Y0069890D01*
X0244088Y0069948D01*
X0244041Y0070004D01*
X0243992Y0070056D01*
X0243940Y0070106D01*
X0243885Y0070154D01*
X0243828Y0070198D01*
X0243768Y0070238D01*
X0243706Y0070276D01*
X0243643Y0070310D01*
X0243577Y0070341D01*
X0243510Y0070368D01*
X0243442Y0070391D01*
X0243372Y0070410D01*
X0243301Y0070426D01*
X0243230Y0070438D01*
X0243158Y0070446D01*
X0243086Y0070450D01*
X0243014Y0070450D01*
X0242942Y0070446D01*
X0242870Y0070438D01*
X0242799Y0070426D01*
X0242728Y0070410D01*
X0242658Y0070391D01*
X0242590Y0070368D01*
X0242523Y0070341D01*
X0242457Y0070310D01*
X0242394Y0070276D01*
X0242332Y0070238D01*
X0242272Y0070198D01*
X0242215Y0070154D01*
X0242160Y0070106D01*
X0242108Y0070056D01*
X0242059Y0070004D01*
X0242012Y0069948D01*
X0241969Y0069890D01*
X0241929Y0069830D01*
X0241892Y0069768D01*
X0241859Y0069704D01*
X0241829Y0069638D01*
X0241803Y0069571D01*
X0241781Y0069502D01*
X0241762Y0069432D01*
X0241747Y0069362D01*
X0241736Y0069290D01*
X0241729Y0069218D01*
X0241726Y0069146D01*
X0241763Y0069146D01*
X0241766Y0069217D01*
X0241773Y0069289D01*
X0241784Y0069359D01*
X0241799Y0069429D01*
X0241818Y0069498D01*
X0241841Y0069566D01*
X0241867Y0069632D01*
X0241897Y0069697D01*
X0241930Y0069760D01*
X0241967Y0069822D01*
X0242007Y0069881D01*
X0242051Y0069937D01*
X0242098Y0069992D01*
X0242147Y0070043D01*
X0242199Y0070092D01*
X0242254Y0070138D01*
X0242312Y0070180D01*
X0242371Y0070220D01*
X0242433Y0070256D01*
X0242497Y0070288D01*
X0242562Y0070317D01*
X0242629Y0070342D01*
X0242697Y0070364D01*
X0242766Y0070381D01*
X0242837Y0070395D01*
X0242907Y0070405D01*
X0242979Y0070411D01*
X0243050Y0070413D01*
X0243121Y0070411D01*
X0243193Y0070405D01*
X0243263Y0070395D01*
X0243334Y0070381D01*
X0243403Y0070364D01*
X0243471Y0070342D01*
X0243538Y0070317D01*
X0243603Y0070288D01*
X0243667Y0070256D01*
X0243729Y0070220D01*
X0243788Y0070180D01*
X0243846Y0070138D01*
X0243901Y0070092D01*
X0243953Y0070043D01*
X0244002Y0069992D01*
X0244049Y0069937D01*
X0244093Y0069881D01*
X0244133Y0069822D01*
X0244170Y0069760D01*
X0244203Y0069697D01*
X0244233Y0069632D01*
X0244259Y0069566D01*
X0244282Y0069498D01*
X0244301Y0069429D01*
X0244316Y0069359D01*
X0244327Y0069289D01*
X0244334Y0069217D01*
X0244337Y0069146D01*
X0244300Y0069146D01*
X0244297Y0069215D01*
X0244290Y0069284D01*
X0244279Y0069353D01*
X0244265Y0069421D01*
X0244246Y0069488D01*
X0244225Y0069554D01*
X0244199Y0069618D01*
X0244170Y0069681D01*
X0244137Y0069742D01*
X0244102Y0069802D01*
X0244062Y0069859D01*
X0244020Y0069914D01*
X0243975Y0069967D01*
X0243927Y0070017D01*
X0243876Y0070064D01*
X0243823Y0070109D01*
X0243767Y0070150D01*
X0243709Y0070188D01*
X0243649Y0070223D01*
X0243587Y0070255D01*
X0243524Y0070283D01*
X0243459Y0070307D01*
X0243393Y0070328D01*
X0243325Y0070345D01*
X0243257Y0070359D01*
X0243189Y0070368D01*
X0243119Y0070374D01*
X0243050Y0070376D01*
X0242981Y0070374D01*
X0242911Y0070368D01*
X0242843Y0070359D01*
X0242775Y0070345D01*
X0242707Y0070328D01*
X0242641Y0070307D01*
X0242576Y0070283D01*
X0242513Y0070255D01*
X0242451Y0070223D01*
X0242391Y0070188D01*
X0242333Y0070150D01*
X0242277Y0070109D01*
X0242224Y0070064D01*
X0242173Y0070017D01*
X0242125Y0069967D01*
X0242080Y0069914D01*
X0242038Y0069859D01*
X0241998Y0069802D01*
X0241963Y0069742D01*
X0241930Y0069681D01*
X0241901Y0069618D01*
X0241875Y0069554D01*
X0241854Y0069488D01*
X0241835Y0069421D01*
X0241821Y0069353D01*
X0241810Y0069284D01*
X0241803Y0069215D01*
X0241800Y0069146D01*
X0241837Y0069146D01*
X0241840Y0069214D01*
X0241847Y0069283D01*
X0241858Y0069350D01*
X0241873Y0069417D01*
X0241891Y0069483D01*
X0241913Y0069548D01*
X0241939Y0069612D01*
X0241968Y0069674D01*
X0242000Y0069734D01*
X0242036Y0069792D01*
X0242076Y0069849D01*
X0242118Y0069903D01*
X0242163Y0069954D01*
X0242212Y0070003D01*
X0242263Y0070049D01*
X0242316Y0070092D01*
X0242372Y0070132D01*
X0242430Y0070168D01*
X0242489Y0070202D01*
X0242551Y0070232D01*
X0242614Y0070258D01*
X0242679Y0070281D01*
X0242745Y0070300D01*
X0242812Y0070315D01*
X0242879Y0070327D01*
X0242947Y0070335D01*
X0243016Y0070339D01*
X0243084Y0070339D01*
X0243153Y0070335D01*
X0243221Y0070327D01*
X0243288Y0070315D01*
X0243355Y0070300D01*
X0243421Y0070281D01*
X0243486Y0070258D01*
X0243549Y0070232D01*
X0243611Y0070202D01*
X0243670Y0070168D01*
X0243728Y0070132D01*
X0243784Y0070092D01*
X0243837Y0070049D01*
X0243888Y0070003D01*
X0243937Y0069954D01*
X0243982Y0069903D01*
X0244024Y0069849D01*
X0244064Y0069792D01*
X0244100Y0069734D01*
X0244132Y0069674D01*
X0244161Y0069612D01*
X0244187Y0069548D01*
X0244209Y0069483D01*
X0244227Y0069417D01*
X0244242Y0069350D01*
X0244253Y0069283D01*
X0244260Y0069214D01*
X0244263Y0069146D01*
X0244226Y0069146D01*
X0244223Y0069214D01*
X0244216Y0069281D01*
X0244205Y0069348D01*
X0244190Y0069414D01*
X0244172Y0069479D01*
X0244150Y0069543D01*
X0244124Y0069605D01*
X0244095Y0069666D01*
X0244062Y0069726D01*
X0244026Y0069783D01*
X0243986Y0069838D01*
X0243944Y0069890D01*
X0243898Y0069941D01*
X0243850Y0069988D01*
X0243799Y0070033D01*
X0243746Y0070074D01*
X0243690Y0070113D01*
X0243632Y0070148D01*
X0243572Y0070180D01*
X0243511Y0070208D01*
X0243448Y0070233D01*
X0243384Y0070254D01*
X0243318Y0070271D01*
X0243252Y0070285D01*
X0243185Y0070294D01*
X0243118Y0070300D01*
X0243050Y0070302D01*
X0242982Y0070300D01*
X0242915Y0070294D01*
X0242848Y0070285D01*
X0242782Y0070271D01*
X0242716Y0070254D01*
X0242652Y0070233D01*
X0242589Y0070208D01*
X0242528Y0070180D01*
X0242468Y0070148D01*
X0242410Y0070113D01*
X0242354Y0070074D01*
X0242301Y0070033D01*
X0242250Y0069988D01*
X0242202Y0069941D01*
X0242156Y0069890D01*
X0242114Y0069838D01*
X0242074Y0069783D01*
X0242038Y0069726D01*
X0242005Y0069666D01*
X0241976Y0069605D01*
X0241950Y0069543D01*
X0241928Y0069479D01*
X0241910Y0069414D01*
X0241895Y0069348D01*
X0241884Y0069281D01*
X0241877Y0069214D01*
X0241874Y0069146D01*
X0241911Y0069146D01*
X0241914Y0069213D01*
X0241921Y0069279D01*
X0241932Y0069345D01*
X0241947Y0069410D01*
X0241966Y0069474D01*
X0241988Y0069537D01*
X0242014Y0069599D01*
X0242043Y0069658D01*
X0242076Y0069717D01*
X0242112Y0069773D01*
X0242152Y0069826D01*
X0242194Y0069878D01*
X0242240Y0069927D01*
X0242288Y0069973D01*
X0242339Y0070016D01*
X0242392Y0070056D01*
X0242448Y0070093D01*
X0242506Y0070127D01*
X0242565Y0070157D01*
X0242626Y0070183D01*
X0242689Y0070206D01*
X0242753Y0070226D01*
X0242818Y0070241D01*
X0242884Y0070253D01*
X0242950Y0070261D01*
X0243017Y0070265D01*
X0243083Y0070265D01*
X0243150Y0070261D01*
X0243216Y0070253D01*
X0243282Y0070241D01*
X0243347Y0070226D01*
X0243411Y0070206D01*
X0243474Y0070183D01*
X0243535Y0070157D01*
X0243594Y0070127D01*
X0243652Y0070093D01*
X0243708Y0070056D01*
X0243761Y0070016D01*
X0243812Y0069973D01*
X0243860Y0069927D01*
X0243906Y0069878D01*
X0243948Y0069826D01*
X0243988Y0069773D01*
X0244024Y0069717D01*
X0244057Y0069658D01*
X0244086Y0069599D01*
X0244112Y0069537D01*
X0244134Y0069474D01*
X0244153Y0069410D01*
X0244168Y0069345D01*
X0244179Y0069279D01*
X0244186Y0069213D01*
X0244189Y0069146D01*
X0244152Y0069146D01*
X0244149Y0069212D01*
X0244142Y0069277D01*
X0244131Y0069342D01*
X0244116Y0069406D01*
X0244097Y0069469D01*
X0244075Y0069531D01*
X0244049Y0069592D01*
X0244019Y0069650D01*
X0243986Y0069707D01*
X0243950Y0069762D01*
X0243910Y0069815D01*
X0243868Y0069865D01*
X0243822Y0069912D01*
X0243774Y0069957D01*
X0243723Y0069999D01*
X0243670Y0070037D01*
X0243614Y0070073D01*
X0243557Y0070105D01*
X0243497Y0070133D01*
X0243436Y0070158D01*
X0243374Y0070179D01*
X0243311Y0070197D01*
X0243246Y0070210D01*
X0243181Y0070220D01*
X0243116Y0070226D01*
X0243050Y0070228D01*
X0242984Y0070226D01*
X0242919Y0070220D01*
X0242854Y0070210D01*
X0242789Y0070197D01*
X0242726Y0070179D01*
X0242664Y0070158D01*
X0242603Y0070133D01*
X0242543Y0070105D01*
X0242486Y0070073D01*
X0242430Y0070037D01*
X0242377Y0069999D01*
X0242326Y0069957D01*
X0242278Y0069912D01*
X0242232Y0069865D01*
X0242190Y0069815D01*
X0242150Y0069762D01*
X0242114Y0069707D01*
X0242081Y0069650D01*
X0242051Y0069592D01*
X0242025Y0069531D01*
X0242003Y0069469D01*
X0241984Y0069406D01*
X0241969Y0069342D01*
X0241958Y0069277D01*
X0241951Y0069212D01*
X0241948Y0069146D01*
X0241985Y0069146D01*
X0241988Y0069211D01*
X0241995Y0069275D01*
X0242007Y0069339D01*
X0242021Y0069402D01*
X0242040Y0069464D01*
X0242063Y0069525D01*
X0242089Y0069584D01*
X0242118Y0069642D01*
X0242151Y0069698D01*
X0242188Y0069751D01*
X0242227Y0069802D01*
X0242270Y0069851D01*
X0242316Y0069897D01*
X0242364Y0069941D01*
X0242415Y0069981D01*
X0242468Y0070018D01*
X0242523Y0070052D01*
X0242581Y0070082D01*
X0242640Y0070109D01*
X0242700Y0070132D01*
X0242762Y0070151D01*
X0242825Y0070167D01*
X0242889Y0070179D01*
X0242953Y0070187D01*
X0243018Y0070191D01*
X0243082Y0070191D01*
X0243147Y0070187D01*
X0243211Y0070179D01*
X0243275Y0070167D01*
X0243338Y0070151D01*
X0243400Y0070132D01*
X0243460Y0070109D01*
X0243519Y0070082D01*
X0243577Y0070052D01*
X0243632Y0070018D01*
X0243685Y0069981D01*
X0243736Y0069941D01*
X0243784Y0069897D01*
X0243830Y0069851D01*
X0243873Y0069802D01*
X0243912Y0069751D01*
X0243949Y0069698D01*
X0243982Y0069642D01*
X0244011Y0069584D01*
X0244037Y0069525D01*
X0244060Y0069464D01*
X0244079Y0069402D01*
X0244093Y0069339D01*
X0244105Y0069275D01*
X0244112Y0069211D01*
X0244115Y0069146D01*
X0244078Y0069146D01*
X0244075Y0069210D01*
X0244067Y0069273D01*
X0244056Y0069336D01*
X0244041Y0069398D01*
X0244023Y0069459D01*
X0244000Y0069519D01*
X0243974Y0069577D01*
X0243944Y0069633D01*
X0243911Y0069688D01*
X0243875Y0069740D01*
X0243835Y0069790D01*
X0243792Y0069837D01*
X0243747Y0069882D01*
X0243698Y0069924D01*
X0243648Y0069962D01*
X0243595Y0069998D01*
X0243540Y0070030D01*
X0243483Y0070059D01*
X0243424Y0070084D01*
X0243364Y0070105D01*
X0243303Y0070122D01*
X0243240Y0070136D01*
X0243177Y0070146D01*
X0243114Y0070152D01*
X0243050Y0070154D01*
X0242986Y0070152D01*
X0242923Y0070146D01*
X0242860Y0070136D01*
X0242797Y0070122D01*
X0242736Y0070105D01*
X0242676Y0070084D01*
X0242617Y0070059D01*
X0242560Y0070030D01*
X0242505Y0069998D01*
X0242452Y0069962D01*
X0242402Y0069924D01*
X0242353Y0069882D01*
X0242308Y0069837D01*
X0242265Y0069790D01*
X0242225Y0069740D01*
X0242189Y0069688D01*
X0242156Y0069633D01*
X0242126Y0069577D01*
X0242100Y0069519D01*
X0242077Y0069459D01*
X0242059Y0069398D01*
X0242044Y0069336D01*
X0242033Y0069273D01*
X0242025Y0069210D01*
X0242022Y0069146D01*
D43*
X0241878Y0075613D02*
X0242058Y0075613D01*
X0242057Y0075612D02*
X0242060Y0075550D01*
X0242066Y0075488D01*
X0242076Y0075427D01*
X0242090Y0075367D01*
X0242108Y0075308D01*
X0242130Y0075249D01*
X0242155Y0075193D01*
X0242183Y0075138D01*
X0242215Y0075085D01*
X0242250Y0075033D01*
X0242288Y0074985D01*
X0242330Y0074938D01*
X0242374Y0074895D01*
X0242420Y0074854D01*
X0242470Y0074816D01*
X0242521Y0074782D01*
X0242574Y0074750D01*
X0242630Y0074722D01*
X0242687Y0074698D01*
X0242745Y0074677D01*
X0242805Y0074660D01*
X0242865Y0074646D01*
X0242926Y0074637D01*
X0242988Y0074631D01*
X0243050Y0074629D01*
X0243112Y0074631D01*
X0243174Y0074637D01*
X0243235Y0074646D01*
X0243295Y0074660D01*
X0243355Y0074677D01*
X0243413Y0074698D01*
X0243470Y0074722D01*
X0243526Y0074750D01*
X0243579Y0074782D01*
X0243630Y0074816D01*
X0243680Y0074854D01*
X0243726Y0074895D01*
X0243770Y0074938D01*
X0243812Y0074985D01*
X0243850Y0075033D01*
X0243885Y0075085D01*
X0243917Y0075138D01*
X0243945Y0075193D01*
X0243970Y0075249D01*
X0243992Y0075308D01*
X0244010Y0075367D01*
X0244024Y0075427D01*
X0244034Y0075488D01*
X0244040Y0075550D01*
X0244043Y0075612D01*
X0244222Y0075613D01*
X0244223Y0075612D01*
X0244220Y0075544D01*
X0244214Y0075477D01*
X0244204Y0075410D01*
X0244189Y0075343D01*
X0244171Y0075278D01*
X0244150Y0075214D01*
X0244124Y0075151D01*
X0244095Y0075089D01*
X0244062Y0075030D01*
X0244027Y0074972D01*
X0243987Y0074917D01*
X0243945Y0074864D01*
X0243900Y0074813D01*
X0243851Y0074765D01*
X0243801Y0074721D01*
X0243747Y0074679D01*
X0243691Y0074640D01*
X0243634Y0074604D01*
X0243574Y0074572D01*
X0243512Y0074544D01*
X0243449Y0074519D01*
X0243385Y0074498D01*
X0243319Y0074480D01*
X0243253Y0074467D01*
X0243185Y0074457D01*
X0243118Y0074451D01*
X0243050Y0074449D01*
X0242982Y0074451D01*
X0242915Y0074457D01*
X0242847Y0074467D01*
X0242781Y0074480D01*
X0242715Y0074498D01*
X0242651Y0074519D01*
X0242588Y0074544D01*
X0242526Y0074572D01*
X0242466Y0074604D01*
X0242409Y0074640D01*
X0242353Y0074679D01*
X0242299Y0074721D01*
X0242249Y0074765D01*
X0242200Y0074813D01*
X0242155Y0074864D01*
X0242113Y0074917D01*
X0242073Y0074972D01*
X0242038Y0075030D01*
X0242005Y0075089D01*
X0241976Y0075151D01*
X0241950Y0075214D01*
X0241929Y0075278D01*
X0241911Y0075343D01*
X0241896Y0075410D01*
X0241886Y0075477D01*
X0241880Y0075544D01*
X0241877Y0075612D01*
X0241895Y0075612D01*
X0241898Y0075545D01*
X0241904Y0075479D01*
X0241914Y0075413D01*
X0241928Y0075347D01*
X0241946Y0075283D01*
X0241967Y0075220D01*
X0241992Y0075158D01*
X0242021Y0075097D01*
X0242053Y0075039D01*
X0242088Y0074982D01*
X0242127Y0074928D01*
X0242169Y0074875D01*
X0242213Y0074826D01*
X0242261Y0074779D01*
X0242311Y0074734D01*
X0242364Y0074693D01*
X0242418Y0074655D01*
X0242475Y0074620D01*
X0242534Y0074589D01*
X0242595Y0074560D01*
X0242657Y0074536D01*
X0242721Y0074515D01*
X0242785Y0074498D01*
X0242851Y0074484D01*
X0242917Y0074475D01*
X0242983Y0074469D01*
X0243050Y0074467D01*
X0243117Y0074469D01*
X0243183Y0074475D01*
X0243249Y0074484D01*
X0243315Y0074498D01*
X0243379Y0074515D01*
X0243443Y0074536D01*
X0243505Y0074560D01*
X0243566Y0074589D01*
X0243625Y0074620D01*
X0243682Y0074655D01*
X0243736Y0074693D01*
X0243789Y0074734D01*
X0243839Y0074779D01*
X0243887Y0074826D01*
X0243931Y0074875D01*
X0243973Y0074928D01*
X0244012Y0074982D01*
X0244047Y0075039D01*
X0244079Y0075097D01*
X0244108Y0075158D01*
X0244133Y0075220D01*
X0244154Y0075283D01*
X0244172Y0075347D01*
X0244186Y0075413D01*
X0244196Y0075479D01*
X0244202Y0075545D01*
X0244205Y0075612D01*
X0244187Y0075612D01*
X0244184Y0075545D01*
X0244178Y0075478D01*
X0244167Y0075412D01*
X0244153Y0075347D01*
X0244135Y0075282D01*
X0244113Y0075219D01*
X0244088Y0075157D01*
X0244058Y0075097D01*
X0244026Y0075038D01*
X0243990Y0074982D01*
X0243950Y0074927D01*
X0243908Y0074876D01*
X0243862Y0074826D01*
X0243814Y0074780D01*
X0243763Y0074736D01*
X0243710Y0074696D01*
X0243654Y0074659D01*
X0243596Y0074625D01*
X0243536Y0074594D01*
X0243475Y0074567D01*
X0243412Y0074544D01*
X0243348Y0074525D01*
X0243283Y0074509D01*
X0243217Y0074497D01*
X0243150Y0074489D01*
X0243084Y0074485D01*
X0243016Y0074485D01*
X0242950Y0074489D01*
X0242883Y0074497D01*
X0242817Y0074509D01*
X0242752Y0074525D01*
X0242688Y0074544D01*
X0242625Y0074567D01*
X0242564Y0074594D01*
X0242504Y0074625D01*
X0242446Y0074659D01*
X0242390Y0074696D01*
X0242337Y0074736D01*
X0242286Y0074780D01*
X0242238Y0074826D01*
X0242192Y0074876D01*
X0242150Y0074927D01*
X0242110Y0074982D01*
X0242074Y0075038D01*
X0242042Y0075097D01*
X0242012Y0075157D01*
X0241987Y0075219D01*
X0241965Y0075282D01*
X0241947Y0075347D01*
X0241933Y0075412D01*
X0241922Y0075478D01*
X0241916Y0075545D01*
X0241913Y0075612D01*
X0241931Y0075612D01*
X0241934Y0075546D01*
X0241940Y0075480D01*
X0241950Y0075415D01*
X0241964Y0075351D01*
X0241982Y0075287D01*
X0242004Y0075225D01*
X0242029Y0075164D01*
X0242058Y0075105D01*
X0242090Y0075047D01*
X0242125Y0074992D01*
X0242164Y0074938D01*
X0242206Y0074887D01*
X0242251Y0074839D01*
X0242298Y0074793D01*
X0242348Y0074750D01*
X0242401Y0074711D01*
X0242456Y0074674D01*
X0242513Y0074641D01*
X0242571Y0074611D01*
X0242632Y0074584D01*
X0242694Y0074561D01*
X0242757Y0074542D01*
X0242821Y0074527D01*
X0242886Y0074515D01*
X0242951Y0074507D01*
X0243017Y0074503D01*
X0243083Y0074503D01*
X0243149Y0074507D01*
X0243214Y0074515D01*
X0243279Y0074527D01*
X0243343Y0074542D01*
X0243406Y0074561D01*
X0243468Y0074584D01*
X0243529Y0074611D01*
X0243587Y0074641D01*
X0243644Y0074674D01*
X0243699Y0074711D01*
X0243752Y0074750D01*
X0243802Y0074793D01*
X0243849Y0074839D01*
X0243894Y0074887D01*
X0243936Y0074938D01*
X0243975Y0074992D01*
X0244010Y0075047D01*
X0244042Y0075105D01*
X0244071Y0075164D01*
X0244096Y0075225D01*
X0244118Y0075287D01*
X0244136Y0075351D01*
X0244150Y0075415D01*
X0244160Y0075480D01*
X0244166Y0075546D01*
X0244169Y0075612D01*
X0244151Y0075612D01*
X0244148Y0075547D01*
X0244142Y0075483D01*
X0244132Y0075419D01*
X0244118Y0075355D01*
X0244101Y0075293D01*
X0244079Y0075231D01*
X0244055Y0075171D01*
X0244026Y0075113D01*
X0243995Y0075056D01*
X0243960Y0075002D01*
X0243922Y0074949D01*
X0243880Y0074899D01*
X0243836Y0074851D01*
X0243790Y0074806D01*
X0243740Y0074764D01*
X0243689Y0074725D01*
X0243635Y0074689D01*
X0243579Y0074656D01*
X0243521Y0074627D01*
X0243462Y0074601D01*
X0243401Y0074578D01*
X0243339Y0074559D01*
X0243275Y0074544D01*
X0243212Y0074533D01*
X0243147Y0074525D01*
X0243082Y0074521D01*
X0243018Y0074521D01*
X0242953Y0074525D01*
X0242888Y0074533D01*
X0242825Y0074544D01*
X0242761Y0074559D01*
X0242699Y0074578D01*
X0242638Y0074601D01*
X0242579Y0074627D01*
X0242521Y0074656D01*
X0242465Y0074689D01*
X0242411Y0074725D01*
X0242360Y0074764D01*
X0242310Y0074806D01*
X0242264Y0074851D01*
X0242220Y0074899D01*
X0242178Y0074949D01*
X0242140Y0075002D01*
X0242105Y0075056D01*
X0242074Y0075113D01*
X0242045Y0075171D01*
X0242021Y0075231D01*
X0241999Y0075293D01*
X0241982Y0075355D01*
X0241968Y0075419D01*
X0241958Y0075483D01*
X0241952Y0075547D01*
X0241949Y0075612D01*
X0241967Y0075612D01*
X0241970Y0075547D01*
X0241976Y0075482D01*
X0241986Y0075418D01*
X0242001Y0075355D01*
X0242018Y0075292D01*
X0242040Y0075231D01*
X0242065Y0075171D01*
X0242094Y0075113D01*
X0242127Y0075056D01*
X0242162Y0075002D01*
X0242201Y0074950D01*
X0242243Y0074900D01*
X0242288Y0074853D01*
X0242335Y0074808D01*
X0242385Y0074767D01*
X0242438Y0074729D01*
X0242493Y0074693D01*
X0242549Y0074662D01*
X0242608Y0074633D01*
X0242668Y0074609D01*
X0242730Y0074587D01*
X0242792Y0074570D01*
X0242856Y0074557D01*
X0242920Y0074547D01*
X0242985Y0074541D01*
X0243050Y0074539D01*
X0243115Y0074541D01*
X0243180Y0074547D01*
X0243244Y0074557D01*
X0243308Y0074570D01*
X0243370Y0074587D01*
X0243432Y0074609D01*
X0243492Y0074633D01*
X0243551Y0074662D01*
X0243607Y0074693D01*
X0243662Y0074729D01*
X0243715Y0074767D01*
X0243765Y0074808D01*
X0243812Y0074853D01*
X0243857Y0074900D01*
X0243899Y0074950D01*
X0243938Y0075002D01*
X0243973Y0075056D01*
X0244006Y0075113D01*
X0244035Y0075171D01*
X0244060Y0075231D01*
X0244082Y0075292D01*
X0244099Y0075355D01*
X0244114Y0075418D01*
X0244124Y0075482D01*
X0244130Y0075547D01*
X0244133Y0075612D01*
X0244115Y0075612D01*
X0244112Y0075548D01*
X0244106Y0075484D01*
X0244096Y0075421D01*
X0244082Y0075359D01*
X0244064Y0075297D01*
X0244043Y0075237D01*
X0244018Y0075178D01*
X0243990Y0075121D01*
X0243958Y0075065D01*
X0243923Y0075012D01*
X0243885Y0074961D01*
X0243844Y0074912D01*
X0243800Y0074865D01*
X0243753Y0074822D01*
X0243703Y0074781D01*
X0243652Y0074743D01*
X0243598Y0074709D01*
X0243542Y0074678D01*
X0243485Y0074650D01*
X0243425Y0074625D01*
X0243365Y0074605D01*
X0243303Y0074588D01*
X0243241Y0074574D01*
X0243178Y0074565D01*
X0243114Y0074559D01*
X0243050Y0074557D01*
X0242986Y0074559D01*
X0242922Y0074565D01*
X0242859Y0074574D01*
X0242797Y0074588D01*
X0242735Y0074605D01*
X0242675Y0074625D01*
X0242615Y0074650D01*
X0242558Y0074678D01*
X0242502Y0074709D01*
X0242448Y0074743D01*
X0242397Y0074781D01*
X0242347Y0074822D01*
X0242300Y0074865D01*
X0242256Y0074912D01*
X0242215Y0074961D01*
X0242177Y0075012D01*
X0242142Y0075065D01*
X0242110Y0075121D01*
X0242082Y0075178D01*
X0242057Y0075237D01*
X0242036Y0075297D01*
X0242018Y0075359D01*
X0242004Y0075421D01*
X0241994Y0075484D01*
X0241988Y0075548D01*
X0241985Y0075612D01*
X0242003Y0075612D01*
X0242006Y0075548D01*
X0242012Y0075484D01*
X0242022Y0075421D01*
X0242037Y0075358D01*
X0242055Y0075297D01*
X0242076Y0075237D01*
X0242102Y0075178D01*
X0242131Y0075121D01*
X0242163Y0075065D01*
X0242199Y0075012D01*
X0242238Y0074961D01*
X0242280Y0074913D01*
X0242325Y0074867D01*
X0242372Y0074824D01*
X0242422Y0074784D01*
X0242475Y0074747D01*
X0242529Y0074714D01*
X0242586Y0074683D01*
X0242644Y0074657D01*
X0242704Y0074634D01*
X0242765Y0074614D01*
X0242827Y0074599D01*
X0242890Y0074587D01*
X0242954Y0074579D01*
X0243018Y0074575D01*
X0243082Y0074575D01*
X0243146Y0074579D01*
X0243210Y0074587D01*
X0243273Y0074599D01*
X0243335Y0074614D01*
X0243396Y0074634D01*
X0243456Y0074657D01*
X0243514Y0074683D01*
X0243571Y0074714D01*
X0243625Y0074747D01*
X0243678Y0074784D01*
X0243728Y0074824D01*
X0243775Y0074867D01*
X0243820Y0074913D01*
X0243862Y0074961D01*
X0243901Y0075012D01*
X0243937Y0075065D01*
X0243969Y0075121D01*
X0243998Y0075178D01*
X0244024Y0075237D01*
X0244045Y0075297D01*
X0244063Y0075358D01*
X0244078Y0075421D01*
X0244088Y0075484D01*
X0244094Y0075548D01*
X0244097Y0075612D01*
X0244079Y0075612D01*
X0244076Y0075549D01*
X0244070Y0075486D01*
X0244060Y0075424D01*
X0244046Y0075363D01*
X0244028Y0075302D01*
X0244007Y0075243D01*
X0243982Y0075185D01*
X0243953Y0075129D01*
X0243921Y0075075D01*
X0243886Y0075023D01*
X0243848Y0074972D01*
X0243807Y0074925D01*
X0243763Y0074880D01*
X0243716Y0074838D01*
X0243667Y0074798D01*
X0243615Y0074762D01*
X0243562Y0074729D01*
X0243506Y0074700D01*
X0243449Y0074673D01*
X0243390Y0074651D01*
X0243330Y0074632D01*
X0243269Y0074617D01*
X0243207Y0074605D01*
X0243144Y0074597D01*
X0243081Y0074593D01*
X0243019Y0074593D01*
X0242956Y0074597D01*
X0242893Y0074605D01*
X0242831Y0074617D01*
X0242770Y0074632D01*
X0242710Y0074651D01*
X0242651Y0074673D01*
X0242594Y0074700D01*
X0242538Y0074729D01*
X0242485Y0074762D01*
X0242433Y0074798D01*
X0242384Y0074838D01*
X0242337Y0074880D01*
X0242293Y0074925D01*
X0242252Y0074972D01*
X0242214Y0075023D01*
X0242179Y0075075D01*
X0242147Y0075129D01*
X0242118Y0075185D01*
X0242093Y0075243D01*
X0242072Y0075302D01*
X0242054Y0075363D01*
X0242040Y0075424D01*
X0242030Y0075486D01*
X0242024Y0075549D01*
X0242021Y0075612D01*
X0242039Y0075612D01*
X0242042Y0075549D01*
X0242048Y0075486D01*
X0242059Y0075424D01*
X0242073Y0075362D01*
X0242091Y0075302D01*
X0242113Y0075243D01*
X0242138Y0075185D01*
X0242167Y0075129D01*
X0242200Y0075075D01*
X0242236Y0075023D01*
X0242275Y0074973D01*
X0242317Y0074926D01*
X0242361Y0074882D01*
X0242409Y0074840D01*
X0242459Y0074802D01*
X0242511Y0074766D01*
X0242566Y0074735D01*
X0242622Y0074706D01*
X0242680Y0074681D01*
X0242739Y0074660D01*
X0242800Y0074642D01*
X0242862Y0074629D01*
X0242924Y0074619D01*
X0242987Y0074613D01*
X0243050Y0074611D01*
X0243113Y0074613D01*
X0243176Y0074619D01*
X0243238Y0074629D01*
X0243300Y0074642D01*
X0243361Y0074660D01*
X0243420Y0074681D01*
X0243478Y0074706D01*
X0243534Y0074735D01*
X0243589Y0074766D01*
X0243641Y0074802D01*
X0243691Y0074840D01*
X0243739Y0074882D01*
X0243783Y0074926D01*
X0243825Y0074973D01*
X0243864Y0075023D01*
X0243900Y0075075D01*
X0243933Y0075129D01*
X0243962Y0075185D01*
X0243987Y0075243D01*
X0244009Y0075302D01*
X0244027Y0075362D01*
X0244041Y0075424D01*
X0244052Y0075486D01*
X0244058Y0075549D01*
X0244061Y0075612D01*
X0192378Y0172613D02*
X0192558Y0172613D01*
X0192557Y0172612D02*
X0192560Y0172550D01*
X0192566Y0172488D01*
X0192576Y0172427D01*
X0192590Y0172367D01*
X0192608Y0172308D01*
X0192630Y0172249D01*
X0192655Y0172193D01*
X0192683Y0172138D01*
X0192715Y0172085D01*
X0192750Y0172033D01*
X0192788Y0171985D01*
X0192830Y0171938D01*
X0192874Y0171895D01*
X0192920Y0171854D01*
X0192970Y0171816D01*
X0193021Y0171782D01*
X0193074Y0171750D01*
X0193130Y0171722D01*
X0193187Y0171698D01*
X0193245Y0171677D01*
X0193305Y0171660D01*
X0193365Y0171646D01*
X0193426Y0171637D01*
X0193488Y0171631D01*
X0193550Y0171629D01*
X0193612Y0171631D01*
X0193674Y0171637D01*
X0193735Y0171646D01*
X0193795Y0171660D01*
X0193855Y0171677D01*
X0193913Y0171698D01*
X0193970Y0171722D01*
X0194026Y0171750D01*
X0194079Y0171782D01*
X0194130Y0171816D01*
X0194180Y0171854D01*
X0194226Y0171895D01*
X0194270Y0171938D01*
X0194312Y0171985D01*
X0194350Y0172033D01*
X0194385Y0172085D01*
X0194417Y0172138D01*
X0194445Y0172193D01*
X0194470Y0172249D01*
X0194492Y0172308D01*
X0194510Y0172367D01*
X0194524Y0172427D01*
X0194534Y0172488D01*
X0194540Y0172550D01*
X0194543Y0172612D01*
X0194722Y0172613D01*
X0194723Y0172612D01*
X0194720Y0172544D01*
X0194714Y0172477D01*
X0194704Y0172410D01*
X0194689Y0172343D01*
X0194671Y0172278D01*
X0194650Y0172214D01*
X0194624Y0172151D01*
X0194595Y0172089D01*
X0194562Y0172030D01*
X0194527Y0171972D01*
X0194487Y0171917D01*
X0194445Y0171864D01*
X0194400Y0171813D01*
X0194351Y0171765D01*
X0194301Y0171721D01*
X0194247Y0171679D01*
X0194191Y0171640D01*
X0194134Y0171604D01*
X0194074Y0171572D01*
X0194012Y0171544D01*
X0193949Y0171519D01*
X0193885Y0171498D01*
X0193819Y0171480D01*
X0193753Y0171467D01*
X0193685Y0171457D01*
X0193618Y0171451D01*
X0193550Y0171449D01*
X0193482Y0171451D01*
X0193415Y0171457D01*
X0193347Y0171467D01*
X0193281Y0171480D01*
X0193215Y0171498D01*
X0193151Y0171519D01*
X0193088Y0171544D01*
X0193026Y0171572D01*
X0192966Y0171604D01*
X0192909Y0171640D01*
X0192853Y0171679D01*
X0192799Y0171721D01*
X0192749Y0171765D01*
X0192700Y0171813D01*
X0192655Y0171864D01*
X0192613Y0171917D01*
X0192573Y0171972D01*
X0192538Y0172030D01*
X0192505Y0172089D01*
X0192476Y0172151D01*
X0192450Y0172214D01*
X0192429Y0172278D01*
X0192411Y0172343D01*
X0192396Y0172410D01*
X0192386Y0172477D01*
X0192380Y0172544D01*
X0192377Y0172612D01*
X0192395Y0172612D01*
X0192398Y0172545D01*
X0192404Y0172479D01*
X0192414Y0172413D01*
X0192428Y0172347D01*
X0192446Y0172283D01*
X0192467Y0172220D01*
X0192492Y0172158D01*
X0192521Y0172097D01*
X0192553Y0172039D01*
X0192588Y0171982D01*
X0192627Y0171928D01*
X0192669Y0171875D01*
X0192713Y0171826D01*
X0192761Y0171779D01*
X0192811Y0171734D01*
X0192864Y0171693D01*
X0192918Y0171655D01*
X0192975Y0171620D01*
X0193034Y0171589D01*
X0193095Y0171560D01*
X0193157Y0171536D01*
X0193221Y0171515D01*
X0193285Y0171498D01*
X0193351Y0171484D01*
X0193417Y0171475D01*
X0193483Y0171469D01*
X0193550Y0171467D01*
X0193617Y0171469D01*
X0193683Y0171475D01*
X0193749Y0171484D01*
X0193815Y0171498D01*
X0193879Y0171515D01*
X0193943Y0171536D01*
X0194005Y0171560D01*
X0194066Y0171589D01*
X0194125Y0171620D01*
X0194182Y0171655D01*
X0194236Y0171693D01*
X0194289Y0171734D01*
X0194339Y0171779D01*
X0194387Y0171826D01*
X0194431Y0171875D01*
X0194473Y0171928D01*
X0194512Y0171982D01*
X0194547Y0172039D01*
X0194579Y0172097D01*
X0194608Y0172158D01*
X0194633Y0172220D01*
X0194654Y0172283D01*
X0194672Y0172347D01*
X0194686Y0172413D01*
X0194696Y0172479D01*
X0194702Y0172545D01*
X0194705Y0172612D01*
X0194687Y0172612D01*
X0194684Y0172545D01*
X0194678Y0172478D01*
X0194667Y0172412D01*
X0194653Y0172347D01*
X0194635Y0172282D01*
X0194613Y0172219D01*
X0194588Y0172157D01*
X0194558Y0172097D01*
X0194526Y0172038D01*
X0194490Y0171982D01*
X0194450Y0171927D01*
X0194408Y0171876D01*
X0194362Y0171826D01*
X0194314Y0171780D01*
X0194263Y0171736D01*
X0194210Y0171696D01*
X0194154Y0171659D01*
X0194096Y0171625D01*
X0194036Y0171594D01*
X0193975Y0171567D01*
X0193912Y0171544D01*
X0193848Y0171525D01*
X0193783Y0171509D01*
X0193717Y0171497D01*
X0193650Y0171489D01*
X0193584Y0171485D01*
X0193516Y0171485D01*
X0193450Y0171489D01*
X0193383Y0171497D01*
X0193317Y0171509D01*
X0193252Y0171525D01*
X0193188Y0171544D01*
X0193125Y0171567D01*
X0193064Y0171594D01*
X0193004Y0171625D01*
X0192946Y0171659D01*
X0192890Y0171696D01*
X0192837Y0171736D01*
X0192786Y0171780D01*
X0192738Y0171826D01*
X0192692Y0171876D01*
X0192650Y0171927D01*
X0192610Y0171982D01*
X0192574Y0172038D01*
X0192542Y0172097D01*
X0192512Y0172157D01*
X0192487Y0172219D01*
X0192465Y0172282D01*
X0192447Y0172347D01*
X0192433Y0172412D01*
X0192422Y0172478D01*
X0192416Y0172545D01*
X0192413Y0172612D01*
X0192431Y0172612D01*
X0192434Y0172546D01*
X0192440Y0172480D01*
X0192450Y0172415D01*
X0192464Y0172351D01*
X0192482Y0172287D01*
X0192504Y0172225D01*
X0192529Y0172164D01*
X0192558Y0172105D01*
X0192590Y0172047D01*
X0192625Y0171992D01*
X0192664Y0171938D01*
X0192706Y0171887D01*
X0192751Y0171839D01*
X0192798Y0171793D01*
X0192848Y0171750D01*
X0192901Y0171711D01*
X0192956Y0171674D01*
X0193013Y0171641D01*
X0193071Y0171611D01*
X0193132Y0171584D01*
X0193194Y0171561D01*
X0193257Y0171542D01*
X0193321Y0171527D01*
X0193386Y0171515D01*
X0193451Y0171507D01*
X0193517Y0171503D01*
X0193583Y0171503D01*
X0193649Y0171507D01*
X0193714Y0171515D01*
X0193779Y0171527D01*
X0193843Y0171542D01*
X0193906Y0171561D01*
X0193968Y0171584D01*
X0194029Y0171611D01*
X0194087Y0171641D01*
X0194144Y0171674D01*
X0194199Y0171711D01*
X0194252Y0171750D01*
X0194302Y0171793D01*
X0194349Y0171839D01*
X0194394Y0171887D01*
X0194436Y0171938D01*
X0194475Y0171992D01*
X0194510Y0172047D01*
X0194542Y0172105D01*
X0194571Y0172164D01*
X0194596Y0172225D01*
X0194618Y0172287D01*
X0194636Y0172351D01*
X0194650Y0172415D01*
X0194660Y0172480D01*
X0194666Y0172546D01*
X0194669Y0172612D01*
X0194651Y0172612D01*
X0194648Y0172547D01*
X0194642Y0172483D01*
X0194632Y0172419D01*
X0194618Y0172355D01*
X0194601Y0172293D01*
X0194579Y0172231D01*
X0194555Y0172171D01*
X0194526Y0172113D01*
X0194495Y0172056D01*
X0194460Y0172002D01*
X0194422Y0171949D01*
X0194380Y0171899D01*
X0194336Y0171851D01*
X0194290Y0171806D01*
X0194240Y0171764D01*
X0194189Y0171725D01*
X0194135Y0171689D01*
X0194079Y0171656D01*
X0194021Y0171627D01*
X0193962Y0171601D01*
X0193901Y0171578D01*
X0193839Y0171559D01*
X0193775Y0171544D01*
X0193712Y0171533D01*
X0193647Y0171525D01*
X0193582Y0171521D01*
X0193518Y0171521D01*
X0193453Y0171525D01*
X0193388Y0171533D01*
X0193325Y0171544D01*
X0193261Y0171559D01*
X0193199Y0171578D01*
X0193138Y0171601D01*
X0193079Y0171627D01*
X0193021Y0171656D01*
X0192965Y0171689D01*
X0192911Y0171725D01*
X0192860Y0171764D01*
X0192810Y0171806D01*
X0192764Y0171851D01*
X0192720Y0171899D01*
X0192678Y0171949D01*
X0192640Y0172002D01*
X0192605Y0172056D01*
X0192574Y0172113D01*
X0192545Y0172171D01*
X0192521Y0172231D01*
X0192499Y0172293D01*
X0192482Y0172355D01*
X0192468Y0172419D01*
X0192458Y0172483D01*
X0192452Y0172547D01*
X0192449Y0172612D01*
X0192467Y0172612D01*
X0192470Y0172547D01*
X0192476Y0172482D01*
X0192486Y0172418D01*
X0192501Y0172355D01*
X0192518Y0172292D01*
X0192540Y0172231D01*
X0192565Y0172171D01*
X0192594Y0172113D01*
X0192627Y0172056D01*
X0192662Y0172002D01*
X0192701Y0171950D01*
X0192743Y0171900D01*
X0192788Y0171853D01*
X0192835Y0171808D01*
X0192885Y0171767D01*
X0192938Y0171729D01*
X0192993Y0171693D01*
X0193049Y0171662D01*
X0193108Y0171633D01*
X0193168Y0171609D01*
X0193230Y0171587D01*
X0193292Y0171570D01*
X0193356Y0171557D01*
X0193420Y0171547D01*
X0193485Y0171541D01*
X0193550Y0171539D01*
X0193615Y0171541D01*
X0193680Y0171547D01*
X0193744Y0171557D01*
X0193808Y0171570D01*
X0193870Y0171587D01*
X0193932Y0171609D01*
X0193992Y0171633D01*
X0194051Y0171662D01*
X0194107Y0171693D01*
X0194162Y0171729D01*
X0194215Y0171767D01*
X0194265Y0171808D01*
X0194312Y0171853D01*
X0194357Y0171900D01*
X0194399Y0171950D01*
X0194438Y0172002D01*
X0194473Y0172056D01*
X0194506Y0172113D01*
X0194535Y0172171D01*
X0194560Y0172231D01*
X0194582Y0172292D01*
X0194599Y0172355D01*
X0194614Y0172418D01*
X0194624Y0172482D01*
X0194630Y0172547D01*
X0194633Y0172612D01*
X0194615Y0172612D01*
X0194612Y0172548D01*
X0194606Y0172484D01*
X0194596Y0172421D01*
X0194582Y0172359D01*
X0194564Y0172297D01*
X0194543Y0172237D01*
X0194518Y0172178D01*
X0194490Y0172121D01*
X0194458Y0172065D01*
X0194423Y0172012D01*
X0194385Y0171961D01*
X0194344Y0171912D01*
X0194300Y0171865D01*
X0194253Y0171822D01*
X0194203Y0171781D01*
X0194152Y0171743D01*
X0194098Y0171709D01*
X0194042Y0171678D01*
X0193985Y0171650D01*
X0193925Y0171625D01*
X0193865Y0171605D01*
X0193803Y0171588D01*
X0193741Y0171574D01*
X0193678Y0171565D01*
X0193614Y0171559D01*
X0193550Y0171557D01*
X0193486Y0171559D01*
X0193422Y0171565D01*
X0193359Y0171574D01*
X0193297Y0171588D01*
X0193235Y0171605D01*
X0193175Y0171625D01*
X0193115Y0171650D01*
X0193058Y0171678D01*
X0193002Y0171709D01*
X0192948Y0171743D01*
X0192897Y0171781D01*
X0192847Y0171822D01*
X0192800Y0171865D01*
X0192756Y0171912D01*
X0192715Y0171961D01*
X0192677Y0172012D01*
X0192642Y0172065D01*
X0192610Y0172121D01*
X0192582Y0172178D01*
X0192557Y0172237D01*
X0192536Y0172297D01*
X0192518Y0172359D01*
X0192504Y0172421D01*
X0192494Y0172484D01*
X0192488Y0172548D01*
X0192485Y0172612D01*
X0192503Y0172612D01*
X0192506Y0172548D01*
X0192512Y0172484D01*
X0192522Y0172421D01*
X0192537Y0172358D01*
X0192555Y0172297D01*
X0192576Y0172237D01*
X0192602Y0172178D01*
X0192631Y0172121D01*
X0192663Y0172065D01*
X0192699Y0172012D01*
X0192738Y0171961D01*
X0192780Y0171913D01*
X0192825Y0171867D01*
X0192872Y0171824D01*
X0192922Y0171784D01*
X0192975Y0171747D01*
X0193029Y0171714D01*
X0193086Y0171683D01*
X0193144Y0171657D01*
X0193204Y0171634D01*
X0193265Y0171614D01*
X0193327Y0171599D01*
X0193390Y0171587D01*
X0193454Y0171579D01*
X0193518Y0171575D01*
X0193582Y0171575D01*
X0193646Y0171579D01*
X0193710Y0171587D01*
X0193773Y0171599D01*
X0193835Y0171614D01*
X0193896Y0171634D01*
X0193956Y0171657D01*
X0194014Y0171683D01*
X0194071Y0171714D01*
X0194125Y0171747D01*
X0194178Y0171784D01*
X0194228Y0171824D01*
X0194275Y0171867D01*
X0194320Y0171913D01*
X0194362Y0171961D01*
X0194401Y0172012D01*
X0194437Y0172065D01*
X0194469Y0172121D01*
X0194498Y0172178D01*
X0194524Y0172237D01*
X0194545Y0172297D01*
X0194563Y0172358D01*
X0194578Y0172421D01*
X0194588Y0172484D01*
X0194594Y0172548D01*
X0194597Y0172612D01*
X0194579Y0172612D01*
X0194576Y0172549D01*
X0194570Y0172486D01*
X0194560Y0172424D01*
X0194546Y0172363D01*
X0194528Y0172302D01*
X0194507Y0172243D01*
X0194482Y0172185D01*
X0194453Y0172129D01*
X0194421Y0172075D01*
X0194386Y0172023D01*
X0194348Y0171972D01*
X0194307Y0171925D01*
X0194263Y0171880D01*
X0194216Y0171838D01*
X0194167Y0171798D01*
X0194115Y0171762D01*
X0194062Y0171729D01*
X0194006Y0171700D01*
X0193949Y0171673D01*
X0193890Y0171651D01*
X0193830Y0171632D01*
X0193769Y0171617D01*
X0193707Y0171605D01*
X0193644Y0171597D01*
X0193581Y0171593D01*
X0193519Y0171593D01*
X0193456Y0171597D01*
X0193393Y0171605D01*
X0193331Y0171617D01*
X0193270Y0171632D01*
X0193210Y0171651D01*
X0193151Y0171673D01*
X0193094Y0171700D01*
X0193038Y0171729D01*
X0192985Y0171762D01*
X0192933Y0171798D01*
X0192884Y0171838D01*
X0192837Y0171880D01*
X0192793Y0171925D01*
X0192752Y0171972D01*
X0192714Y0172023D01*
X0192679Y0172075D01*
X0192647Y0172129D01*
X0192618Y0172185D01*
X0192593Y0172243D01*
X0192572Y0172302D01*
X0192554Y0172363D01*
X0192540Y0172424D01*
X0192530Y0172486D01*
X0192524Y0172549D01*
X0192521Y0172612D01*
X0192539Y0172612D01*
X0192542Y0172549D01*
X0192548Y0172486D01*
X0192559Y0172424D01*
X0192573Y0172362D01*
X0192591Y0172302D01*
X0192613Y0172243D01*
X0192638Y0172185D01*
X0192667Y0172129D01*
X0192700Y0172075D01*
X0192736Y0172023D01*
X0192775Y0171973D01*
X0192817Y0171926D01*
X0192861Y0171882D01*
X0192909Y0171840D01*
X0192959Y0171802D01*
X0193011Y0171766D01*
X0193066Y0171735D01*
X0193122Y0171706D01*
X0193180Y0171681D01*
X0193239Y0171660D01*
X0193300Y0171642D01*
X0193362Y0171629D01*
X0193424Y0171619D01*
X0193487Y0171613D01*
X0193550Y0171611D01*
X0193613Y0171613D01*
X0193676Y0171619D01*
X0193738Y0171629D01*
X0193800Y0171642D01*
X0193861Y0171660D01*
X0193920Y0171681D01*
X0193978Y0171706D01*
X0194034Y0171735D01*
X0194089Y0171766D01*
X0194141Y0171802D01*
X0194191Y0171840D01*
X0194239Y0171882D01*
X0194283Y0171926D01*
X0194325Y0171973D01*
X0194364Y0172023D01*
X0194400Y0172075D01*
X0194433Y0172129D01*
X0194462Y0172185D01*
X0194487Y0172243D01*
X0194509Y0172302D01*
X0194527Y0172362D01*
X0194541Y0172424D01*
X0194552Y0172486D01*
X0194558Y0172549D01*
X0194561Y0172612D01*
D44*
X0259900Y0091949D02*
X0259900Y0088799D01*
X0266200Y0088799D01*
X0266200Y0091949D01*
X0259900Y0091949D01*
X0049625Y0147224D02*
X0046475Y0147224D01*
X0046475Y0153524D01*
X0049625Y0153524D01*
X0049625Y0147224D01*
X0027200Y0159799D02*
X0027200Y0162949D01*
X0020900Y0162949D01*
X0020900Y0159799D01*
X0027200Y0159799D01*
D45*
X0024444Y0161374D03*
X0262656Y0090374D03*
D46*
X0048050Y0149980D03*
D47*
X0051046Y0116597D03*
X0051054Y0106151D03*
X0079054Y0106151D03*
X0087554Y0106151D03*
X0087546Y0116597D03*
X0079046Y0116597D03*
D48*
X0070790Y0053197D03*
X0067050Y0053197D03*
X0063310Y0053197D03*
X0063310Y0043551D03*
X0067050Y0043551D03*
X0070790Y0043551D03*
D49*
X0025479Y0032374D03*
X0016621Y0032374D03*
D50*
X0023265Y0032374D03*
D51*
X0050500Y0086674D03*
X0050500Y0094074D03*
X0042600Y0090374D03*
D52*
X0046113Y0071811D02*
X0053987Y0071811D01*
M02*
