G75*
%MOIN*%
%OFA0B0*%
%FSLAX25Y25*%
%IPPOS*%
%LPD*%
%AMOC8*
5,1,8,0,0,1.08239X$1,22.5*
%
%ADD10C,0.00000*%
%ADD11C,0.00500*%
D10*
X0005800Y0012374D02*
X0005802Y0012532D01*
X0005808Y0012689D01*
X0005818Y0012847D01*
X0005832Y0013004D01*
X0005850Y0013160D01*
X0005871Y0013317D01*
X0005897Y0013472D01*
X0005927Y0013627D01*
X0005960Y0013781D01*
X0005998Y0013934D01*
X0006039Y0014087D01*
X0006084Y0014238D01*
X0006133Y0014388D01*
X0006186Y0014536D01*
X0006242Y0014684D01*
X0006303Y0014829D01*
X0006366Y0014974D01*
X0006434Y0015116D01*
X0006505Y0015257D01*
X0006579Y0015396D01*
X0006657Y0015533D01*
X0006739Y0015668D01*
X0006823Y0015801D01*
X0006912Y0015932D01*
X0007003Y0016060D01*
X0007098Y0016187D01*
X0007195Y0016310D01*
X0007296Y0016432D01*
X0007400Y0016550D01*
X0007507Y0016666D01*
X0007617Y0016779D01*
X0007729Y0016890D01*
X0007845Y0016997D01*
X0007963Y0017102D01*
X0008083Y0017204D01*
X0008206Y0017302D01*
X0008332Y0017398D01*
X0008460Y0017490D01*
X0008590Y0017579D01*
X0008722Y0017665D01*
X0008857Y0017747D01*
X0008994Y0017826D01*
X0009132Y0017901D01*
X0009272Y0017973D01*
X0009415Y0018041D01*
X0009558Y0018106D01*
X0009704Y0018167D01*
X0009851Y0018224D01*
X0009999Y0018278D01*
X0010149Y0018328D01*
X0010299Y0018374D01*
X0010451Y0018416D01*
X0010604Y0018455D01*
X0010758Y0018489D01*
X0010913Y0018520D01*
X0011068Y0018546D01*
X0011224Y0018569D01*
X0011381Y0018588D01*
X0011538Y0018603D01*
X0011695Y0018614D01*
X0011853Y0018621D01*
X0012011Y0018624D01*
X0012168Y0018623D01*
X0012326Y0018618D01*
X0012483Y0018609D01*
X0012641Y0018596D01*
X0012797Y0018579D01*
X0012954Y0018558D01*
X0013109Y0018534D01*
X0013264Y0018505D01*
X0013419Y0018472D01*
X0013572Y0018436D01*
X0013725Y0018395D01*
X0013876Y0018351D01*
X0014026Y0018303D01*
X0014175Y0018252D01*
X0014323Y0018196D01*
X0014469Y0018137D01*
X0014614Y0018074D01*
X0014757Y0018007D01*
X0014898Y0017937D01*
X0015037Y0017864D01*
X0015175Y0017787D01*
X0015311Y0017706D01*
X0015444Y0017622D01*
X0015575Y0017535D01*
X0015704Y0017444D01*
X0015831Y0017350D01*
X0015956Y0017253D01*
X0016077Y0017153D01*
X0016197Y0017050D01*
X0016313Y0016944D01*
X0016427Y0016835D01*
X0016539Y0016723D01*
X0016647Y0016609D01*
X0016752Y0016491D01*
X0016855Y0016371D01*
X0016954Y0016249D01*
X0017050Y0016124D01*
X0017143Y0015996D01*
X0017233Y0015867D01*
X0017319Y0015735D01*
X0017403Y0015601D01*
X0017482Y0015465D01*
X0017559Y0015327D01*
X0017631Y0015187D01*
X0017700Y0015045D01*
X0017766Y0014902D01*
X0017828Y0014757D01*
X0017886Y0014610D01*
X0017941Y0014462D01*
X0017992Y0014313D01*
X0018039Y0014162D01*
X0018082Y0014011D01*
X0018121Y0013858D01*
X0018157Y0013704D01*
X0018188Y0013550D01*
X0018216Y0013395D01*
X0018240Y0013239D01*
X0018260Y0013082D01*
X0018276Y0012925D01*
X0018288Y0012768D01*
X0018296Y0012611D01*
X0018300Y0012453D01*
X0018300Y0012295D01*
X0018296Y0012137D01*
X0018288Y0011980D01*
X0018276Y0011823D01*
X0018260Y0011666D01*
X0018240Y0011509D01*
X0018216Y0011353D01*
X0018188Y0011198D01*
X0018157Y0011044D01*
X0018121Y0010890D01*
X0018082Y0010737D01*
X0018039Y0010586D01*
X0017992Y0010435D01*
X0017941Y0010286D01*
X0017886Y0010138D01*
X0017828Y0009991D01*
X0017766Y0009846D01*
X0017700Y0009703D01*
X0017631Y0009561D01*
X0017559Y0009421D01*
X0017482Y0009283D01*
X0017403Y0009147D01*
X0017319Y0009013D01*
X0017233Y0008881D01*
X0017143Y0008752D01*
X0017050Y0008624D01*
X0016954Y0008499D01*
X0016855Y0008377D01*
X0016752Y0008257D01*
X0016647Y0008139D01*
X0016539Y0008025D01*
X0016427Y0007913D01*
X0016313Y0007804D01*
X0016197Y0007698D01*
X0016077Y0007595D01*
X0015956Y0007495D01*
X0015831Y0007398D01*
X0015704Y0007304D01*
X0015575Y0007213D01*
X0015444Y0007126D01*
X0015311Y0007042D01*
X0015175Y0006961D01*
X0015037Y0006884D01*
X0014898Y0006811D01*
X0014757Y0006741D01*
X0014614Y0006674D01*
X0014469Y0006611D01*
X0014323Y0006552D01*
X0014175Y0006496D01*
X0014026Y0006445D01*
X0013876Y0006397D01*
X0013725Y0006353D01*
X0013572Y0006312D01*
X0013419Y0006276D01*
X0013264Y0006243D01*
X0013109Y0006214D01*
X0012954Y0006190D01*
X0012797Y0006169D01*
X0012641Y0006152D01*
X0012483Y0006139D01*
X0012326Y0006130D01*
X0012168Y0006125D01*
X0012011Y0006124D01*
X0011853Y0006127D01*
X0011695Y0006134D01*
X0011538Y0006145D01*
X0011381Y0006160D01*
X0011224Y0006179D01*
X0011068Y0006202D01*
X0010913Y0006228D01*
X0010758Y0006259D01*
X0010604Y0006293D01*
X0010451Y0006332D01*
X0010299Y0006374D01*
X0010149Y0006420D01*
X0009999Y0006470D01*
X0009851Y0006524D01*
X0009704Y0006581D01*
X0009558Y0006642D01*
X0009415Y0006707D01*
X0009272Y0006775D01*
X0009132Y0006847D01*
X0008994Y0006922D01*
X0008857Y0007001D01*
X0008722Y0007083D01*
X0008590Y0007169D01*
X0008460Y0007258D01*
X0008332Y0007350D01*
X0008206Y0007446D01*
X0008083Y0007544D01*
X0007963Y0007646D01*
X0007845Y0007751D01*
X0007729Y0007858D01*
X0007617Y0007969D01*
X0007507Y0008082D01*
X0007400Y0008198D01*
X0007296Y0008316D01*
X0007195Y0008438D01*
X0007098Y0008561D01*
X0007003Y0008688D01*
X0006912Y0008816D01*
X0006823Y0008947D01*
X0006739Y0009080D01*
X0006657Y0009215D01*
X0006579Y0009352D01*
X0006505Y0009491D01*
X0006434Y0009632D01*
X0006366Y0009774D01*
X0006303Y0009919D01*
X0006242Y0010064D01*
X0006186Y0010212D01*
X0006133Y0010360D01*
X0006084Y0010510D01*
X0006039Y0010661D01*
X0005998Y0010814D01*
X0005960Y0010967D01*
X0005927Y0011121D01*
X0005897Y0011276D01*
X0005871Y0011431D01*
X0005850Y0011588D01*
X0005832Y0011744D01*
X0005818Y0011901D01*
X0005808Y0012059D01*
X0005802Y0012216D01*
X0005800Y0012374D01*
X0030503Y0020520D02*
X0030505Y0020594D01*
X0030511Y0020668D01*
X0030521Y0020741D01*
X0030535Y0020814D01*
X0030552Y0020886D01*
X0030574Y0020956D01*
X0030599Y0021026D01*
X0030628Y0021094D01*
X0030661Y0021160D01*
X0030697Y0021225D01*
X0030737Y0021287D01*
X0030779Y0021348D01*
X0030825Y0021406D01*
X0030874Y0021461D01*
X0030926Y0021514D01*
X0030981Y0021564D01*
X0031038Y0021610D01*
X0031098Y0021654D01*
X0031160Y0021694D01*
X0031224Y0021731D01*
X0031290Y0021765D01*
X0031358Y0021795D01*
X0031427Y0021821D01*
X0031498Y0021844D01*
X0031569Y0021862D01*
X0031642Y0021877D01*
X0031715Y0021888D01*
X0031789Y0021895D01*
X0031863Y0021898D01*
X0031936Y0021897D01*
X0032010Y0021892D01*
X0032084Y0021883D01*
X0032157Y0021870D01*
X0032229Y0021853D01*
X0032300Y0021833D01*
X0032370Y0021808D01*
X0032438Y0021780D01*
X0032505Y0021749D01*
X0032570Y0021713D01*
X0032633Y0021675D01*
X0032694Y0021633D01*
X0032753Y0021587D01*
X0032809Y0021539D01*
X0032862Y0021488D01*
X0032912Y0021434D01*
X0032960Y0021377D01*
X0033004Y0021318D01*
X0033046Y0021256D01*
X0033084Y0021193D01*
X0033118Y0021127D01*
X0033149Y0021060D01*
X0033176Y0020991D01*
X0033199Y0020921D01*
X0033219Y0020850D01*
X0033235Y0020777D01*
X0033247Y0020704D01*
X0033255Y0020631D01*
X0033259Y0020557D01*
X0033259Y0020483D01*
X0033255Y0020409D01*
X0033247Y0020336D01*
X0033235Y0020263D01*
X0033219Y0020190D01*
X0033199Y0020119D01*
X0033176Y0020049D01*
X0033149Y0019980D01*
X0033118Y0019913D01*
X0033084Y0019847D01*
X0033046Y0019784D01*
X0033004Y0019722D01*
X0032960Y0019663D01*
X0032912Y0019606D01*
X0032862Y0019552D01*
X0032809Y0019501D01*
X0032753Y0019453D01*
X0032694Y0019407D01*
X0032633Y0019365D01*
X0032570Y0019327D01*
X0032505Y0019291D01*
X0032438Y0019260D01*
X0032370Y0019232D01*
X0032300Y0019207D01*
X0032229Y0019187D01*
X0032157Y0019170D01*
X0032084Y0019157D01*
X0032010Y0019148D01*
X0031936Y0019143D01*
X0031863Y0019142D01*
X0031789Y0019145D01*
X0031715Y0019152D01*
X0031642Y0019163D01*
X0031569Y0019178D01*
X0031498Y0019196D01*
X0031427Y0019219D01*
X0031358Y0019245D01*
X0031290Y0019275D01*
X0031224Y0019309D01*
X0031160Y0019346D01*
X0031098Y0019386D01*
X0031038Y0019430D01*
X0030981Y0019476D01*
X0030926Y0019526D01*
X0030874Y0019579D01*
X0030825Y0019634D01*
X0030779Y0019692D01*
X0030737Y0019753D01*
X0030697Y0019815D01*
X0030661Y0019880D01*
X0030628Y0019946D01*
X0030599Y0020014D01*
X0030574Y0020084D01*
X0030552Y0020154D01*
X0030535Y0020226D01*
X0030521Y0020299D01*
X0030511Y0020372D01*
X0030505Y0020446D01*
X0030503Y0020520D01*
X0046841Y0020520D02*
X0046843Y0020594D01*
X0046849Y0020668D01*
X0046859Y0020741D01*
X0046873Y0020814D01*
X0046890Y0020886D01*
X0046912Y0020956D01*
X0046937Y0021026D01*
X0046966Y0021094D01*
X0046999Y0021160D01*
X0047035Y0021225D01*
X0047075Y0021287D01*
X0047117Y0021348D01*
X0047163Y0021406D01*
X0047212Y0021461D01*
X0047264Y0021514D01*
X0047319Y0021564D01*
X0047376Y0021610D01*
X0047436Y0021654D01*
X0047498Y0021694D01*
X0047562Y0021731D01*
X0047628Y0021765D01*
X0047696Y0021795D01*
X0047765Y0021821D01*
X0047836Y0021844D01*
X0047907Y0021862D01*
X0047980Y0021877D01*
X0048053Y0021888D01*
X0048127Y0021895D01*
X0048201Y0021898D01*
X0048274Y0021897D01*
X0048348Y0021892D01*
X0048422Y0021883D01*
X0048495Y0021870D01*
X0048567Y0021853D01*
X0048638Y0021833D01*
X0048708Y0021808D01*
X0048776Y0021780D01*
X0048843Y0021749D01*
X0048908Y0021713D01*
X0048971Y0021675D01*
X0049032Y0021633D01*
X0049091Y0021587D01*
X0049147Y0021539D01*
X0049200Y0021488D01*
X0049250Y0021434D01*
X0049298Y0021377D01*
X0049342Y0021318D01*
X0049384Y0021256D01*
X0049422Y0021193D01*
X0049456Y0021127D01*
X0049487Y0021060D01*
X0049514Y0020991D01*
X0049537Y0020921D01*
X0049557Y0020850D01*
X0049573Y0020777D01*
X0049585Y0020704D01*
X0049593Y0020631D01*
X0049597Y0020557D01*
X0049597Y0020483D01*
X0049593Y0020409D01*
X0049585Y0020336D01*
X0049573Y0020263D01*
X0049557Y0020190D01*
X0049537Y0020119D01*
X0049514Y0020049D01*
X0049487Y0019980D01*
X0049456Y0019913D01*
X0049422Y0019847D01*
X0049384Y0019784D01*
X0049342Y0019722D01*
X0049298Y0019663D01*
X0049250Y0019606D01*
X0049200Y0019552D01*
X0049147Y0019501D01*
X0049091Y0019453D01*
X0049032Y0019407D01*
X0048971Y0019365D01*
X0048908Y0019327D01*
X0048843Y0019291D01*
X0048776Y0019260D01*
X0048708Y0019232D01*
X0048638Y0019207D01*
X0048567Y0019187D01*
X0048495Y0019170D01*
X0048422Y0019157D01*
X0048348Y0019148D01*
X0048274Y0019143D01*
X0048201Y0019142D01*
X0048127Y0019145D01*
X0048053Y0019152D01*
X0047980Y0019163D01*
X0047907Y0019178D01*
X0047836Y0019196D01*
X0047765Y0019219D01*
X0047696Y0019245D01*
X0047628Y0019275D01*
X0047562Y0019309D01*
X0047498Y0019346D01*
X0047436Y0019386D01*
X0047376Y0019430D01*
X0047319Y0019476D01*
X0047264Y0019526D01*
X0047212Y0019579D01*
X0047163Y0019634D01*
X0047117Y0019692D01*
X0047075Y0019753D01*
X0047035Y0019815D01*
X0046999Y0019880D01*
X0046966Y0019946D01*
X0046937Y0020014D01*
X0046912Y0020084D01*
X0046890Y0020154D01*
X0046873Y0020226D01*
X0046859Y0020299D01*
X0046849Y0020372D01*
X0046843Y0020446D01*
X0046841Y0020520D01*
X0275800Y0012374D02*
X0275802Y0012532D01*
X0275808Y0012689D01*
X0275818Y0012847D01*
X0275832Y0013004D01*
X0275850Y0013160D01*
X0275871Y0013317D01*
X0275897Y0013472D01*
X0275927Y0013627D01*
X0275960Y0013781D01*
X0275998Y0013934D01*
X0276039Y0014087D01*
X0276084Y0014238D01*
X0276133Y0014388D01*
X0276186Y0014536D01*
X0276242Y0014684D01*
X0276303Y0014829D01*
X0276366Y0014974D01*
X0276434Y0015116D01*
X0276505Y0015257D01*
X0276579Y0015396D01*
X0276657Y0015533D01*
X0276739Y0015668D01*
X0276823Y0015801D01*
X0276912Y0015932D01*
X0277003Y0016060D01*
X0277098Y0016187D01*
X0277195Y0016310D01*
X0277296Y0016432D01*
X0277400Y0016550D01*
X0277507Y0016666D01*
X0277617Y0016779D01*
X0277729Y0016890D01*
X0277845Y0016997D01*
X0277963Y0017102D01*
X0278083Y0017204D01*
X0278206Y0017302D01*
X0278332Y0017398D01*
X0278460Y0017490D01*
X0278590Y0017579D01*
X0278722Y0017665D01*
X0278857Y0017747D01*
X0278994Y0017826D01*
X0279132Y0017901D01*
X0279272Y0017973D01*
X0279415Y0018041D01*
X0279558Y0018106D01*
X0279704Y0018167D01*
X0279851Y0018224D01*
X0279999Y0018278D01*
X0280149Y0018328D01*
X0280299Y0018374D01*
X0280451Y0018416D01*
X0280604Y0018455D01*
X0280758Y0018489D01*
X0280913Y0018520D01*
X0281068Y0018546D01*
X0281224Y0018569D01*
X0281381Y0018588D01*
X0281538Y0018603D01*
X0281695Y0018614D01*
X0281853Y0018621D01*
X0282011Y0018624D01*
X0282168Y0018623D01*
X0282326Y0018618D01*
X0282483Y0018609D01*
X0282641Y0018596D01*
X0282797Y0018579D01*
X0282954Y0018558D01*
X0283109Y0018534D01*
X0283264Y0018505D01*
X0283419Y0018472D01*
X0283572Y0018436D01*
X0283725Y0018395D01*
X0283876Y0018351D01*
X0284026Y0018303D01*
X0284175Y0018252D01*
X0284323Y0018196D01*
X0284469Y0018137D01*
X0284614Y0018074D01*
X0284757Y0018007D01*
X0284898Y0017937D01*
X0285037Y0017864D01*
X0285175Y0017787D01*
X0285311Y0017706D01*
X0285444Y0017622D01*
X0285575Y0017535D01*
X0285704Y0017444D01*
X0285831Y0017350D01*
X0285956Y0017253D01*
X0286077Y0017153D01*
X0286197Y0017050D01*
X0286313Y0016944D01*
X0286427Y0016835D01*
X0286539Y0016723D01*
X0286647Y0016609D01*
X0286752Y0016491D01*
X0286855Y0016371D01*
X0286954Y0016249D01*
X0287050Y0016124D01*
X0287143Y0015996D01*
X0287233Y0015867D01*
X0287319Y0015735D01*
X0287403Y0015601D01*
X0287482Y0015465D01*
X0287559Y0015327D01*
X0287631Y0015187D01*
X0287700Y0015045D01*
X0287766Y0014902D01*
X0287828Y0014757D01*
X0287886Y0014610D01*
X0287941Y0014462D01*
X0287992Y0014313D01*
X0288039Y0014162D01*
X0288082Y0014011D01*
X0288121Y0013858D01*
X0288157Y0013704D01*
X0288188Y0013550D01*
X0288216Y0013395D01*
X0288240Y0013239D01*
X0288260Y0013082D01*
X0288276Y0012925D01*
X0288288Y0012768D01*
X0288296Y0012611D01*
X0288300Y0012453D01*
X0288300Y0012295D01*
X0288296Y0012137D01*
X0288288Y0011980D01*
X0288276Y0011823D01*
X0288260Y0011666D01*
X0288240Y0011509D01*
X0288216Y0011353D01*
X0288188Y0011198D01*
X0288157Y0011044D01*
X0288121Y0010890D01*
X0288082Y0010737D01*
X0288039Y0010586D01*
X0287992Y0010435D01*
X0287941Y0010286D01*
X0287886Y0010138D01*
X0287828Y0009991D01*
X0287766Y0009846D01*
X0287700Y0009703D01*
X0287631Y0009561D01*
X0287559Y0009421D01*
X0287482Y0009283D01*
X0287403Y0009147D01*
X0287319Y0009013D01*
X0287233Y0008881D01*
X0287143Y0008752D01*
X0287050Y0008624D01*
X0286954Y0008499D01*
X0286855Y0008377D01*
X0286752Y0008257D01*
X0286647Y0008139D01*
X0286539Y0008025D01*
X0286427Y0007913D01*
X0286313Y0007804D01*
X0286197Y0007698D01*
X0286077Y0007595D01*
X0285956Y0007495D01*
X0285831Y0007398D01*
X0285704Y0007304D01*
X0285575Y0007213D01*
X0285444Y0007126D01*
X0285311Y0007042D01*
X0285175Y0006961D01*
X0285037Y0006884D01*
X0284898Y0006811D01*
X0284757Y0006741D01*
X0284614Y0006674D01*
X0284469Y0006611D01*
X0284323Y0006552D01*
X0284175Y0006496D01*
X0284026Y0006445D01*
X0283876Y0006397D01*
X0283725Y0006353D01*
X0283572Y0006312D01*
X0283419Y0006276D01*
X0283264Y0006243D01*
X0283109Y0006214D01*
X0282954Y0006190D01*
X0282797Y0006169D01*
X0282641Y0006152D01*
X0282483Y0006139D01*
X0282326Y0006130D01*
X0282168Y0006125D01*
X0282011Y0006124D01*
X0281853Y0006127D01*
X0281695Y0006134D01*
X0281538Y0006145D01*
X0281381Y0006160D01*
X0281224Y0006179D01*
X0281068Y0006202D01*
X0280913Y0006228D01*
X0280758Y0006259D01*
X0280604Y0006293D01*
X0280451Y0006332D01*
X0280299Y0006374D01*
X0280149Y0006420D01*
X0279999Y0006470D01*
X0279851Y0006524D01*
X0279704Y0006581D01*
X0279558Y0006642D01*
X0279415Y0006707D01*
X0279272Y0006775D01*
X0279132Y0006847D01*
X0278994Y0006922D01*
X0278857Y0007001D01*
X0278722Y0007083D01*
X0278590Y0007169D01*
X0278460Y0007258D01*
X0278332Y0007350D01*
X0278206Y0007446D01*
X0278083Y0007544D01*
X0277963Y0007646D01*
X0277845Y0007751D01*
X0277729Y0007858D01*
X0277617Y0007969D01*
X0277507Y0008082D01*
X0277400Y0008198D01*
X0277296Y0008316D01*
X0277195Y0008438D01*
X0277098Y0008561D01*
X0277003Y0008688D01*
X0276912Y0008816D01*
X0276823Y0008947D01*
X0276739Y0009080D01*
X0276657Y0009215D01*
X0276579Y0009352D01*
X0276505Y0009491D01*
X0276434Y0009632D01*
X0276366Y0009774D01*
X0276303Y0009919D01*
X0276242Y0010064D01*
X0276186Y0010212D01*
X0276133Y0010360D01*
X0276084Y0010510D01*
X0276039Y0010661D01*
X0275998Y0010814D01*
X0275960Y0010967D01*
X0275927Y0011121D01*
X0275897Y0011276D01*
X0275871Y0011431D01*
X0275850Y0011588D01*
X0275832Y0011744D01*
X0275818Y0011901D01*
X0275808Y0012059D01*
X0275802Y0012216D01*
X0275800Y0012374D01*
X0052066Y0228917D02*
X0052068Y0228979D01*
X0052074Y0229042D01*
X0052084Y0229103D01*
X0052098Y0229164D01*
X0052115Y0229224D01*
X0052136Y0229283D01*
X0052162Y0229340D01*
X0052190Y0229395D01*
X0052222Y0229449D01*
X0052258Y0229500D01*
X0052296Y0229550D01*
X0052338Y0229596D01*
X0052382Y0229640D01*
X0052430Y0229681D01*
X0052479Y0229719D01*
X0052531Y0229753D01*
X0052585Y0229784D01*
X0052641Y0229812D01*
X0052699Y0229836D01*
X0052758Y0229857D01*
X0052818Y0229873D01*
X0052879Y0229886D01*
X0052941Y0229895D01*
X0053003Y0229900D01*
X0053066Y0229901D01*
X0053128Y0229898D01*
X0053190Y0229891D01*
X0053252Y0229880D01*
X0053312Y0229865D01*
X0053372Y0229847D01*
X0053430Y0229825D01*
X0053487Y0229799D01*
X0053542Y0229769D01*
X0053595Y0229736D01*
X0053646Y0229700D01*
X0053694Y0229661D01*
X0053740Y0229618D01*
X0053783Y0229573D01*
X0053823Y0229525D01*
X0053860Y0229475D01*
X0053894Y0229422D01*
X0053925Y0229368D01*
X0053951Y0229312D01*
X0053975Y0229254D01*
X0053994Y0229194D01*
X0054010Y0229134D01*
X0054022Y0229072D01*
X0054030Y0229011D01*
X0054034Y0228948D01*
X0054034Y0228886D01*
X0054030Y0228823D01*
X0054022Y0228762D01*
X0054010Y0228700D01*
X0053994Y0228640D01*
X0053975Y0228580D01*
X0053951Y0228522D01*
X0053925Y0228466D01*
X0053894Y0228412D01*
X0053860Y0228359D01*
X0053823Y0228309D01*
X0053783Y0228261D01*
X0053740Y0228216D01*
X0053694Y0228173D01*
X0053646Y0228134D01*
X0053595Y0228098D01*
X0053542Y0228065D01*
X0053487Y0228035D01*
X0053430Y0228009D01*
X0053372Y0227987D01*
X0053312Y0227969D01*
X0053252Y0227954D01*
X0053190Y0227943D01*
X0053128Y0227936D01*
X0053066Y0227933D01*
X0053003Y0227934D01*
X0052941Y0227939D01*
X0052879Y0227948D01*
X0052818Y0227961D01*
X0052758Y0227977D01*
X0052699Y0227998D01*
X0052641Y0228022D01*
X0052585Y0228050D01*
X0052531Y0228081D01*
X0052479Y0228115D01*
X0052430Y0228153D01*
X0052382Y0228194D01*
X0052338Y0228238D01*
X0052296Y0228284D01*
X0052258Y0228334D01*
X0052222Y0228385D01*
X0052190Y0228439D01*
X0052162Y0228494D01*
X0052136Y0228551D01*
X0052115Y0228610D01*
X0052098Y0228670D01*
X0052084Y0228731D01*
X0052074Y0228792D01*
X0052068Y0228855D01*
X0052066Y0228917D01*
X0005800Y0242374D02*
X0005802Y0242532D01*
X0005808Y0242689D01*
X0005818Y0242847D01*
X0005832Y0243004D01*
X0005850Y0243160D01*
X0005871Y0243317D01*
X0005897Y0243472D01*
X0005927Y0243627D01*
X0005960Y0243781D01*
X0005998Y0243934D01*
X0006039Y0244087D01*
X0006084Y0244238D01*
X0006133Y0244388D01*
X0006186Y0244536D01*
X0006242Y0244684D01*
X0006303Y0244829D01*
X0006366Y0244974D01*
X0006434Y0245116D01*
X0006505Y0245257D01*
X0006579Y0245396D01*
X0006657Y0245533D01*
X0006739Y0245668D01*
X0006823Y0245801D01*
X0006912Y0245932D01*
X0007003Y0246060D01*
X0007098Y0246187D01*
X0007195Y0246310D01*
X0007296Y0246432D01*
X0007400Y0246550D01*
X0007507Y0246666D01*
X0007617Y0246779D01*
X0007729Y0246890D01*
X0007845Y0246997D01*
X0007963Y0247102D01*
X0008083Y0247204D01*
X0008206Y0247302D01*
X0008332Y0247398D01*
X0008460Y0247490D01*
X0008590Y0247579D01*
X0008722Y0247665D01*
X0008857Y0247747D01*
X0008994Y0247826D01*
X0009132Y0247901D01*
X0009272Y0247973D01*
X0009415Y0248041D01*
X0009558Y0248106D01*
X0009704Y0248167D01*
X0009851Y0248224D01*
X0009999Y0248278D01*
X0010149Y0248328D01*
X0010299Y0248374D01*
X0010451Y0248416D01*
X0010604Y0248455D01*
X0010758Y0248489D01*
X0010913Y0248520D01*
X0011068Y0248546D01*
X0011224Y0248569D01*
X0011381Y0248588D01*
X0011538Y0248603D01*
X0011695Y0248614D01*
X0011853Y0248621D01*
X0012011Y0248624D01*
X0012168Y0248623D01*
X0012326Y0248618D01*
X0012483Y0248609D01*
X0012641Y0248596D01*
X0012797Y0248579D01*
X0012954Y0248558D01*
X0013109Y0248534D01*
X0013264Y0248505D01*
X0013419Y0248472D01*
X0013572Y0248436D01*
X0013725Y0248395D01*
X0013876Y0248351D01*
X0014026Y0248303D01*
X0014175Y0248252D01*
X0014323Y0248196D01*
X0014469Y0248137D01*
X0014614Y0248074D01*
X0014757Y0248007D01*
X0014898Y0247937D01*
X0015037Y0247864D01*
X0015175Y0247787D01*
X0015311Y0247706D01*
X0015444Y0247622D01*
X0015575Y0247535D01*
X0015704Y0247444D01*
X0015831Y0247350D01*
X0015956Y0247253D01*
X0016077Y0247153D01*
X0016197Y0247050D01*
X0016313Y0246944D01*
X0016427Y0246835D01*
X0016539Y0246723D01*
X0016647Y0246609D01*
X0016752Y0246491D01*
X0016855Y0246371D01*
X0016954Y0246249D01*
X0017050Y0246124D01*
X0017143Y0245996D01*
X0017233Y0245867D01*
X0017319Y0245735D01*
X0017403Y0245601D01*
X0017482Y0245465D01*
X0017559Y0245327D01*
X0017631Y0245187D01*
X0017700Y0245045D01*
X0017766Y0244902D01*
X0017828Y0244757D01*
X0017886Y0244610D01*
X0017941Y0244462D01*
X0017992Y0244313D01*
X0018039Y0244162D01*
X0018082Y0244011D01*
X0018121Y0243858D01*
X0018157Y0243704D01*
X0018188Y0243550D01*
X0018216Y0243395D01*
X0018240Y0243239D01*
X0018260Y0243082D01*
X0018276Y0242925D01*
X0018288Y0242768D01*
X0018296Y0242611D01*
X0018300Y0242453D01*
X0018300Y0242295D01*
X0018296Y0242137D01*
X0018288Y0241980D01*
X0018276Y0241823D01*
X0018260Y0241666D01*
X0018240Y0241509D01*
X0018216Y0241353D01*
X0018188Y0241198D01*
X0018157Y0241044D01*
X0018121Y0240890D01*
X0018082Y0240737D01*
X0018039Y0240586D01*
X0017992Y0240435D01*
X0017941Y0240286D01*
X0017886Y0240138D01*
X0017828Y0239991D01*
X0017766Y0239846D01*
X0017700Y0239703D01*
X0017631Y0239561D01*
X0017559Y0239421D01*
X0017482Y0239283D01*
X0017403Y0239147D01*
X0017319Y0239013D01*
X0017233Y0238881D01*
X0017143Y0238752D01*
X0017050Y0238624D01*
X0016954Y0238499D01*
X0016855Y0238377D01*
X0016752Y0238257D01*
X0016647Y0238139D01*
X0016539Y0238025D01*
X0016427Y0237913D01*
X0016313Y0237804D01*
X0016197Y0237698D01*
X0016077Y0237595D01*
X0015956Y0237495D01*
X0015831Y0237398D01*
X0015704Y0237304D01*
X0015575Y0237213D01*
X0015444Y0237126D01*
X0015311Y0237042D01*
X0015175Y0236961D01*
X0015037Y0236884D01*
X0014898Y0236811D01*
X0014757Y0236741D01*
X0014614Y0236674D01*
X0014469Y0236611D01*
X0014323Y0236552D01*
X0014175Y0236496D01*
X0014026Y0236445D01*
X0013876Y0236397D01*
X0013725Y0236353D01*
X0013572Y0236312D01*
X0013419Y0236276D01*
X0013264Y0236243D01*
X0013109Y0236214D01*
X0012954Y0236190D01*
X0012797Y0236169D01*
X0012641Y0236152D01*
X0012483Y0236139D01*
X0012326Y0236130D01*
X0012168Y0236125D01*
X0012011Y0236124D01*
X0011853Y0236127D01*
X0011695Y0236134D01*
X0011538Y0236145D01*
X0011381Y0236160D01*
X0011224Y0236179D01*
X0011068Y0236202D01*
X0010913Y0236228D01*
X0010758Y0236259D01*
X0010604Y0236293D01*
X0010451Y0236332D01*
X0010299Y0236374D01*
X0010149Y0236420D01*
X0009999Y0236470D01*
X0009851Y0236524D01*
X0009704Y0236581D01*
X0009558Y0236642D01*
X0009415Y0236707D01*
X0009272Y0236775D01*
X0009132Y0236847D01*
X0008994Y0236922D01*
X0008857Y0237001D01*
X0008722Y0237083D01*
X0008590Y0237169D01*
X0008460Y0237258D01*
X0008332Y0237350D01*
X0008206Y0237446D01*
X0008083Y0237544D01*
X0007963Y0237646D01*
X0007845Y0237751D01*
X0007729Y0237858D01*
X0007617Y0237969D01*
X0007507Y0238082D01*
X0007400Y0238198D01*
X0007296Y0238316D01*
X0007195Y0238438D01*
X0007098Y0238561D01*
X0007003Y0238688D01*
X0006912Y0238816D01*
X0006823Y0238947D01*
X0006739Y0239080D01*
X0006657Y0239215D01*
X0006579Y0239352D01*
X0006505Y0239491D01*
X0006434Y0239632D01*
X0006366Y0239774D01*
X0006303Y0239919D01*
X0006242Y0240064D01*
X0006186Y0240212D01*
X0006133Y0240360D01*
X0006084Y0240510D01*
X0006039Y0240661D01*
X0005998Y0240814D01*
X0005960Y0240967D01*
X0005927Y0241121D01*
X0005897Y0241276D01*
X0005871Y0241431D01*
X0005850Y0241588D01*
X0005832Y0241744D01*
X0005818Y0241901D01*
X0005808Y0242059D01*
X0005802Y0242216D01*
X0005800Y0242374D01*
X0275800Y0242374D02*
X0275802Y0242532D01*
X0275808Y0242689D01*
X0275818Y0242847D01*
X0275832Y0243004D01*
X0275850Y0243160D01*
X0275871Y0243317D01*
X0275897Y0243472D01*
X0275927Y0243627D01*
X0275960Y0243781D01*
X0275998Y0243934D01*
X0276039Y0244087D01*
X0276084Y0244238D01*
X0276133Y0244388D01*
X0276186Y0244536D01*
X0276242Y0244684D01*
X0276303Y0244829D01*
X0276366Y0244974D01*
X0276434Y0245116D01*
X0276505Y0245257D01*
X0276579Y0245396D01*
X0276657Y0245533D01*
X0276739Y0245668D01*
X0276823Y0245801D01*
X0276912Y0245932D01*
X0277003Y0246060D01*
X0277098Y0246187D01*
X0277195Y0246310D01*
X0277296Y0246432D01*
X0277400Y0246550D01*
X0277507Y0246666D01*
X0277617Y0246779D01*
X0277729Y0246890D01*
X0277845Y0246997D01*
X0277963Y0247102D01*
X0278083Y0247204D01*
X0278206Y0247302D01*
X0278332Y0247398D01*
X0278460Y0247490D01*
X0278590Y0247579D01*
X0278722Y0247665D01*
X0278857Y0247747D01*
X0278994Y0247826D01*
X0279132Y0247901D01*
X0279272Y0247973D01*
X0279415Y0248041D01*
X0279558Y0248106D01*
X0279704Y0248167D01*
X0279851Y0248224D01*
X0279999Y0248278D01*
X0280149Y0248328D01*
X0280299Y0248374D01*
X0280451Y0248416D01*
X0280604Y0248455D01*
X0280758Y0248489D01*
X0280913Y0248520D01*
X0281068Y0248546D01*
X0281224Y0248569D01*
X0281381Y0248588D01*
X0281538Y0248603D01*
X0281695Y0248614D01*
X0281853Y0248621D01*
X0282011Y0248624D01*
X0282168Y0248623D01*
X0282326Y0248618D01*
X0282483Y0248609D01*
X0282641Y0248596D01*
X0282797Y0248579D01*
X0282954Y0248558D01*
X0283109Y0248534D01*
X0283264Y0248505D01*
X0283419Y0248472D01*
X0283572Y0248436D01*
X0283725Y0248395D01*
X0283876Y0248351D01*
X0284026Y0248303D01*
X0284175Y0248252D01*
X0284323Y0248196D01*
X0284469Y0248137D01*
X0284614Y0248074D01*
X0284757Y0248007D01*
X0284898Y0247937D01*
X0285037Y0247864D01*
X0285175Y0247787D01*
X0285311Y0247706D01*
X0285444Y0247622D01*
X0285575Y0247535D01*
X0285704Y0247444D01*
X0285831Y0247350D01*
X0285956Y0247253D01*
X0286077Y0247153D01*
X0286197Y0247050D01*
X0286313Y0246944D01*
X0286427Y0246835D01*
X0286539Y0246723D01*
X0286647Y0246609D01*
X0286752Y0246491D01*
X0286855Y0246371D01*
X0286954Y0246249D01*
X0287050Y0246124D01*
X0287143Y0245996D01*
X0287233Y0245867D01*
X0287319Y0245735D01*
X0287403Y0245601D01*
X0287482Y0245465D01*
X0287559Y0245327D01*
X0287631Y0245187D01*
X0287700Y0245045D01*
X0287766Y0244902D01*
X0287828Y0244757D01*
X0287886Y0244610D01*
X0287941Y0244462D01*
X0287992Y0244313D01*
X0288039Y0244162D01*
X0288082Y0244011D01*
X0288121Y0243858D01*
X0288157Y0243704D01*
X0288188Y0243550D01*
X0288216Y0243395D01*
X0288240Y0243239D01*
X0288260Y0243082D01*
X0288276Y0242925D01*
X0288288Y0242768D01*
X0288296Y0242611D01*
X0288300Y0242453D01*
X0288300Y0242295D01*
X0288296Y0242137D01*
X0288288Y0241980D01*
X0288276Y0241823D01*
X0288260Y0241666D01*
X0288240Y0241509D01*
X0288216Y0241353D01*
X0288188Y0241198D01*
X0288157Y0241044D01*
X0288121Y0240890D01*
X0288082Y0240737D01*
X0288039Y0240586D01*
X0287992Y0240435D01*
X0287941Y0240286D01*
X0287886Y0240138D01*
X0287828Y0239991D01*
X0287766Y0239846D01*
X0287700Y0239703D01*
X0287631Y0239561D01*
X0287559Y0239421D01*
X0287482Y0239283D01*
X0287403Y0239147D01*
X0287319Y0239013D01*
X0287233Y0238881D01*
X0287143Y0238752D01*
X0287050Y0238624D01*
X0286954Y0238499D01*
X0286855Y0238377D01*
X0286752Y0238257D01*
X0286647Y0238139D01*
X0286539Y0238025D01*
X0286427Y0237913D01*
X0286313Y0237804D01*
X0286197Y0237698D01*
X0286077Y0237595D01*
X0285956Y0237495D01*
X0285831Y0237398D01*
X0285704Y0237304D01*
X0285575Y0237213D01*
X0285444Y0237126D01*
X0285311Y0237042D01*
X0285175Y0236961D01*
X0285037Y0236884D01*
X0284898Y0236811D01*
X0284757Y0236741D01*
X0284614Y0236674D01*
X0284469Y0236611D01*
X0284323Y0236552D01*
X0284175Y0236496D01*
X0284026Y0236445D01*
X0283876Y0236397D01*
X0283725Y0236353D01*
X0283572Y0236312D01*
X0283419Y0236276D01*
X0283264Y0236243D01*
X0283109Y0236214D01*
X0282954Y0236190D01*
X0282797Y0236169D01*
X0282641Y0236152D01*
X0282483Y0236139D01*
X0282326Y0236130D01*
X0282168Y0236125D01*
X0282011Y0236124D01*
X0281853Y0236127D01*
X0281695Y0236134D01*
X0281538Y0236145D01*
X0281381Y0236160D01*
X0281224Y0236179D01*
X0281068Y0236202D01*
X0280913Y0236228D01*
X0280758Y0236259D01*
X0280604Y0236293D01*
X0280451Y0236332D01*
X0280299Y0236374D01*
X0280149Y0236420D01*
X0279999Y0236470D01*
X0279851Y0236524D01*
X0279704Y0236581D01*
X0279558Y0236642D01*
X0279415Y0236707D01*
X0279272Y0236775D01*
X0279132Y0236847D01*
X0278994Y0236922D01*
X0278857Y0237001D01*
X0278722Y0237083D01*
X0278590Y0237169D01*
X0278460Y0237258D01*
X0278332Y0237350D01*
X0278206Y0237446D01*
X0278083Y0237544D01*
X0277963Y0237646D01*
X0277845Y0237751D01*
X0277729Y0237858D01*
X0277617Y0237969D01*
X0277507Y0238082D01*
X0277400Y0238198D01*
X0277296Y0238316D01*
X0277195Y0238438D01*
X0277098Y0238561D01*
X0277003Y0238688D01*
X0276912Y0238816D01*
X0276823Y0238947D01*
X0276739Y0239080D01*
X0276657Y0239215D01*
X0276579Y0239352D01*
X0276505Y0239491D01*
X0276434Y0239632D01*
X0276366Y0239774D01*
X0276303Y0239919D01*
X0276242Y0240064D01*
X0276186Y0240212D01*
X0276133Y0240360D01*
X0276084Y0240510D01*
X0276039Y0240661D01*
X0275998Y0240814D01*
X0275960Y0240967D01*
X0275927Y0241121D01*
X0275897Y0241276D01*
X0275871Y0241431D01*
X0275850Y0241588D01*
X0275832Y0241744D01*
X0275818Y0241901D01*
X0275808Y0242059D01*
X0275802Y0242216D01*
X0275800Y0242374D01*
D11*
X0282050Y0002374D02*
X0012050Y0002374D01*
X0011808Y0002377D01*
X0011567Y0002386D01*
X0011326Y0002400D01*
X0011085Y0002421D01*
X0010845Y0002447D01*
X0010605Y0002479D01*
X0010366Y0002517D01*
X0010129Y0002560D01*
X0009892Y0002610D01*
X0009657Y0002665D01*
X0009423Y0002725D01*
X0009191Y0002792D01*
X0008960Y0002863D01*
X0008731Y0002941D01*
X0008504Y0003024D01*
X0008279Y0003112D01*
X0008056Y0003206D01*
X0007836Y0003305D01*
X0007618Y0003410D01*
X0007403Y0003519D01*
X0007190Y0003634D01*
X0006980Y0003754D01*
X0006774Y0003879D01*
X0006570Y0004009D01*
X0006369Y0004144D01*
X0006172Y0004284D01*
X0005978Y0004428D01*
X0005788Y0004577D01*
X0005602Y0004731D01*
X0005419Y0004889D01*
X0005240Y0005051D01*
X0005065Y0005218D01*
X0004894Y0005389D01*
X0004727Y0005564D01*
X0004565Y0005743D01*
X0004407Y0005926D01*
X0004253Y0006112D01*
X0004104Y0006302D01*
X0003960Y0006496D01*
X0003820Y0006693D01*
X0003685Y0006894D01*
X0003555Y0007098D01*
X0003430Y0007304D01*
X0003310Y0007514D01*
X0003195Y0007727D01*
X0003086Y0007942D01*
X0002981Y0008160D01*
X0002882Y0008380D01*
X0002788Y0008603D01*
X0002700Y0008828D01*
X0002617Y0009055D01*
X0002539Y0009284D01*
X0002468Y0009515D01*
X0002401Y0009747D01*
X0002341Y0009981D01*
X0002286Y0010216D01*
X0002236Y0010453D01*
X0002193Y0010690D01*
X0002155Y0010929D01*
X0002123Y0011169D01*
X0002097Y0011409D01*
X0002076Y0011650D01*
X0002062Y0011891D01*
X0002053Y0012132D01*
X0002050Y0012374D01*
X0002050Y0242374D01*
X0002053Y0242616D01*
X0002062Y0242857D01*
X0002076Y0243098D01*
X0002097Y0243339D01*
X0002123Y0243579D01*
X0002155Y0243819D01*
X0002193Y0244058D01*
X0002236Y0244295D01*
X0002286Y0244532D01*
X0002341Y0244767D01*
X0002401Y0245001D01*
X0002468Y0245233D01*
X0002539Y0245464D01*
X0002617Y0245693D01*
X0002700Y0245920D01*
X0002788Y0246145D01*
X0002882Y0246368D01*
X0002981Y0246588D01*
X0003086Y0246806D01*
X0003195Y0247021D01*
X0003310Y0247234D01*
X0003430Y0247444D01*
X0003555Y0247650D01*
X0003685Y0247854D01*
X0003820Y0248055D01*
X0003960Y0248252D01*
X0004104Y0248446D01*
X0004253Y0248636D01*
X0004407Y0248822D01*
X0004565Y0249005D01*
X0004727Y0249184D01*
X0004894Y0249359D01*
X0005065Y0249530D01*
X0005240Y0249697D01*
X0005419Y0249859D01*
X0005602Y0250017D01*
X0005788Y0250171D01*
X0005978Y0250320D01*
X0006172Y0250464D01*
X0006369Y0250604D01*
X0006570Y0250739D01*
X0006774Y0250869D01*
X0006980Y0250994D01*
X0007190Y0251114D01*
X0007403Y0251229D01*
X0007618Y0251338D01*
X0007836Y0251443D01*
X0008056Y0251542D01*
X0008279Y0251636D01*
X0008504Y0251724D01*
X0008731Y0251807D01*
X0008960Y0251885D01*
X0009191Y0251956D01*
X0009423Y0252023D01*
X0009657Y0252083D01*
X0009892Y0252138D01*
X0010129Y0252188D01*
X0010366Y0252231D01*
X0010605Y0252269D01*
X0010845Y0252301D01*
X0011085Y0252327D01*
X0011326Y0252348D01*
X0011567Y0252362D01*
X0011808Y0252371D01*
X0012050Y0252374D01*
X0067050Y0252374D01*
X0067292Y0252371D01*
X0067533Y0252362D01*
X0067774Y0252348D01*
X0068015Y0252327D01*
X0068255Y0252301D01*
X0068495Y0252269D01*
X0068734Y0252231D01*
X0068971Y0252188D01*
X0069208Y0252138D01*
X0069443Y0252083D01*
X0069677Y0252023D01*
X0069909Y0251956D01*
X0070140Y0251885D01*
X0070369Y0251807D01*
X0070596Y0251724D01*
X0070821Y0251636D01*
X0071044Y0251542D01*
X0071264Y0251443D01*
X0071482Y0251338D01*
X0071697Y0251229D01*
X0071910Y0251114D01*
X0072120Y0250994D01*
X0072326Y0250869D01*
X0072530Y0250739D01*
X0072731Y0250604D01*
X0072928Y0250464D01*
X0073122Y0250320D01*
X0073312Y0250171D01*
X0073498Y0250017D01*
X0073681Y0249859D01*
X0073860Y0249697D01*
X0074035Y0249530D01*
X0074206Y0249359D01*
X0074373Y0249184D01*
X0074535Y0249005D01*
X0074693Y0248822D01*
X0074847Y0248636D01*
X0074996Y0248446D01*
X0075140Y0248252D01*
X0075280Y0248055D01*
X0075415Y0247854D01*
X0075545Y0247650D01*
X0075670Y0247444D01*
X0075790Y0247234D01*
X0075905Y0247021D01*
X0076014Y0246806D01*
X0076119Y0246588D01*
X0076218Y0246368D01*
X0076312Y0246145D01*
X0076400Y0245920D01*
X0076483Y0245693D01*
X0076561Y0245464D01*
X0076632Y0245233D01*
X0076699Y0245001D01*
X0076759Y0244767D01*
X0076814Y0244532D01*
X0076864Y0244295D01*
X0076907Y0244058D01*
X0076945Y0243819D01*
X0076977Y0243579D01*
X0077003Y0243339D01*
X0077024Y0243098D01*
X0077038Y0242857D01*
X0077047Y0242616D01*
X0077050Y0242374D01*
X0077050Y0227374D01*
X0077056Y0226887D01*
X0077074Y0226400D01*
X0077103Y0225914D01*
X0077145Y0225429D01*
X0077198Y0224945D01*
X0077263Y0224462D01*
X0077340Y0223981D01*
X0077428Y0223502D01*
X0077528Y0223025D01*
X0077640Y0222551D01*
X0077763Y0222080D01*
X0077898Y0221612D01*
X0078044Y0221147D01*
X0078201Y0220686D01*
X0078370Y0220229D01*
X0078549Y0219777D01*
X0078740Y0219328D01*
X0078941Y0218885D01*
X0079153Y0218446D01*
X0079376Y0218013D01*
X0079609Y0217586D01*
X0079853Y0217164D01*
X0080106Y0216748D01*
X0080370Y0216339D01*
X0080644Y0215936D01*
X0080927Y0215540D01*
X0081220Y0215151D01*
X0081522Y0214769D01*
X0081834Y0214394D01*
X0082155Y0214028D01*
X0082484Y0213669D01*
X0082822Y0213318D01*
X0083169Y0212976D01*
X0083523Y0212642D01*
X0083886Y0212317D01*
X0084257Y0212001D01*
X0084635Y0211694D01*
X0085020Y0211396D01*
X0085413Y0211108D01*
X0085812Y0210830D01*
X0086219Y0210561D01*
X0086631Y0210302D01*
X0087050Y0210053D01*
X0087475Y0209815D01*
X0087905Y0209587D01*
X0088341Y0209370D01*
X0088782Y0209163D01*
X0089228Y0208967D01*
X0089678Y0208782D01*
X0090133Y0208608D01*
X0090592Y0208445D01*
X0091055Y0208294D01*
X0091522Y0208153D01*
X0091991Y0208024D01*
X0092464Y0207907D01*
X0092939Y0207801D01*
X0093417Y0207707D01*
X0093897Y0207624D01*
X0094379Y0207553D01*
X0094863Y0207494D01*
X0095347Y0207447D01*
X0095833Y0207411D01*
X0096320Y0207387D01*
X0096806Y0207375D01*
X0097294Y0207375D01*
X0097780Y0207387D01*
X0098267Y0207411D01*
X0098753Y0207447D01*
X0099237Y0207494D01*
X0099721Y0207553D01*
X0100203Y0207624D01*
X0100683Y0207707D01*
X0101161Y0207801D01*
X0101636Y0207907D01*
X0102109Y0208024D01*
X0102578Y0208153D01*
X0103045Y0208294D01*
X0103508Y0208445D01*
X0103967Y0208608D01*
X0104422Y0208782D01*
X0104872Y0208967D01*
X0105318Y0209163D01*
X0105759Y0209370D01*
X0106195Y0209587D01*
X0106625Y0209815D01*
X0107050Y0210053D01*
X0107469Y0210302D01*
X0107881Y0210561D01*
X0108288Y0210830D01*
X0108687Y0211108D01*
X0109080Y0211396D01*
X0109465Y0211694D01*
X0109843Y0212001D01*
X0110214Y0212317D01*
X0110577Y0212642D01*
X0110931Y0212976D01*
X0111278Y0213318D01*
X0111616Y0213669D01*
X0111945Y0214028D01*
X0112266Y0214394D01*
X0112578Y0214769D01*
X0112880Y0215151D01*
X0113173Y0215540D01*
X0113456Y0215936D01*
X0113730Y0216339D01*
X0113994Y0216748D01*
X0114247Y0217164D01*
X0114491Y0217586D01*
X0114724Y0218013D01*
X0114947Y0218446D01*
X0115159Y0218885D01*
X0115360Y0219328D01*
X0115551Y0219777D01*
X0115730Y0220229D01*
X0115899Y0220686D01*
X0116056Y0221147D01*
X0116202Y0221612D01*
X0116337Y0222080D01*
X0116460Y0222551D01*
X0116572Y0223025D01*
X0116672Y0223502D01*
X0116760Y0223981D01*
X0116837Y0224462D01*
X0116902Y0224945D01*
X0116955Y0225429D01*
X0116997Y0225914D01*
X0117026Y0226400D01*
X0117044Y0226887D01*
X0117050Y0227374D01*
X0117050Y0242374D01*
X0117053Y0242616D01*
X0117062Y0242857D01*
X0117076Y0243098D01*
X0117097Y0243339D01*
X0117123Y0243579D01*
X0117155Y0243819D01*
X0117193Y0244058D01*
X0117236Y0244295D01*
X0117286Y0244532D01*
X0117341Y0244767D01*
X0117401Y0245001D01*
X0117468Y0245233D01*
X0117539Y0245464D01*
X0117617Y0245693D01*
X0117700Y0245920D01*
X0117788Y0246145D01*
X0117882Y0246368D01*
X0117981Y0246588D01*
X0118086Y0246806D01*
X0118195Y0247021D01*
X0118310Y0247234D01*
X0118430Y0247444D01*
X0118555Y0247650D01*
X0118685Y0247854D01*
X0118820Y0248055D01*
X0118960Y0248252D01*
X0119104Y0248446D01*
X0119253Y0248636D01*
X0119407Y0248822D01*
X0119565Y0249005D01*
X0119727Y0249184D01*
X0119894Y0249359D01*
X0120065Y0249530D01*
X0120240Y0249697D01*
X0120419Y0249859D01*
X0120602Y0250017D01*
X0120788Y0250171D01*
X0120978Y0250320D01*
X0121172Y0250464D01*
X0121369Y0250604D01*
X0121570Y0250739D01*
X0121774Y0250869D01*
X0121980Y0250994D01*
X0122190Y0251114D01*
X0122403Y0251229D01*
X0122618Y0251338D01*
X0122836Y0251443D01*
X0123056Y0251542D01*
X0123279Y0251636D01*
X0123504Y0251724D01*
X0123731Y0251807D01*
X0123960Y0251885D01*
X0124191Y0251956D01*
X0124423Y0252023D01*
X0124657Y0252083D01*
X0124892Y0252138D01*
X0125129Y0252188D01*
X0125366Y0252231D01*
X0125605Y0252269D01*
X0125845Y0252301D01*
X0126085Y0252327D01*
X0126326Y0252348D01*
X0126567Y0252362D01*
X0126808Y0252371D01*
X0127050Y0252374D01*
X0282050Y0252374D01*
X0282292Y0252371D01*
X0282533Y0252362D01*
X0282774Y0252348D01*
X0283015Y0252327D01*
X0283255Y0252301D01*
X0283495Y0252269D01*
X0283734Y0252231D01*
X0283971Y0252188D01*
X0284208Y0252138D01*
X0284443Y0252083D01*
X0284677Y0252023D01*
X0284909Y0251956D01*
X0285140Y0251885D01*
X0285369Y0251807D01*
X0285596Y0251724D01*
X0285821Y0251636D01*
X0286044Y0251542D01*
X0286264Y0251443D01*
X0286482Y0251338D01*
X0286697Y0251229D01*
X0286910Y0251114D01*
X0287120Y0250994D01*
X0287326Y0250869D01*
X0287530Y0250739D01*
X0287731Y0250604D01*
X0287928Y0250464D01*
X0288122Y0250320D01*
X0288312Y0250171D01*
X0288498Y0250017D01*
X0288681Y0249859D01*
X0288860Y0249697D01*
X0289035Y0249530D01*
X0289206Y0249359D01*
X0289373Y0249184D01*
X0289535Y0249005D01*
X0289693Y0248822D01*
X0289847Y0248636D01*
X0289996Y0248446D01*
X0290140Y0248252D01*
X0290280Y0248055D01*
X0290415Y0247854D01*
X0290545Y0247650D01*
X0290670Y0247444D01*
X0290790Y0247234D01*
X0290905Y0247021D01*
X0291014Y0246806D01*
X0291119Y0246588D01*
X0291218Y0246368D01*
X0291312Y0246145D01*
X0291400Y0245920D01*
X0291483Y0245693D01*
X0291561Y0245464D01*
X0291632Y0245233D01*
X0291699Y0245001D01*
X0291759Y0244767D01*
X0291814Y0244532D01*
X0291864Y0244295D01*
X0291907Y0244058D01*
X0291945Y0243819D01*
X0291977Y0243579D01*
X0292003Y0243339D01*
X0292024Y0243098D01*
X0292038Y0242857D01*
X0292047Y0242616D01*
X0292050Y0242374D01*
X0292050Y0012374D01*
X0292047Y0012132D01*
X0292038Y0011891D01*
X0292024Y0011650D01*
X0292003Y0011409D01*
X0291977Y0011169D01*
X0291945Y0010929D01*
X0291907Y0010690D01*
X0291864Y0010453D01*
X0291814Y0010216D01*
X0291759Y0009981D01*
X0291699Y0009747D01*
X0291632Y0009515D01*
X0291561Y0009284D01*
X0291483Y0009055D01*
X0291400Y0008828D01*
X0291312Y0008603D01*
X0291218Y0008380D01*
X0291119Y0008160D01*
X0291014Y0007942D01*
X0290905Y0007727D01*
X0290790Y0007514D01*
X0290670Y0007304D01*
X0290545Y0007098D01*
X0290415Y0006894D01*
X0290280Y0006693D01*
X0290140Y0006496D01*
X0289996Y0006302D01*
X0289847Y0006112D01*
X0289693Y0005926D01*
X0289535Y0005743D01*
X0289373Y0005564D01*
X0289206Y0005389D01*
X0289035Y0005218D01*
X0288860Y0005051D01*
X0288681Y0004889D01*
X0288498Y0004731D01*
X0288312Y0004577D01*
X0288122Y0004428D01*
X0287928Y0004284D01*
X0287731Y0004144D01*
X0287530Y0004009D01*
X0287326Y0003879D01*
X0287120Y0003754D01*
X0286910Y0003634D01*
X0286697Y0003519D01*
X0286482Y0003410D01*
X0286264Y0003305D01*
X0286044Y0003206D01*
X0285821Y0003112D01*
X0285596Y0003024D01*
X0285369Y0002941D01*
X0285140Y0002863D01*
X0284909Y0002792D01*
X0284677Y0002725D01*
X0284443Y0002665D01*
X0284208Y0002610D01*
X0283971Y0002560D01*
X0283734Y0002517D01*
X0283495Y0002479D01*
X0283255Y0002447D01*
X0283015Y0002421D01*
X0282774Y0002400D01*
X0282533Y0002386D01*
X0282292Y0002377D01*
X0282050Y0002374D01*
M02*
