G75*
%MOIN*%
%OFA0B0*%
%FSLAX25Y25*%
%IPPOS*%
%LPD*%
%AMOC8*
5,1,8,0,0,1.08239X$1,22.5*
%
%ADD10C,0.13300*%
%ADD11C,0.02769*%
%ADD12C,0.06800*%
%ADD13R,0.09461X0.09855*%
%ADD14R,0.09461X0.05524*%
%ADD15C,0.02867*%
%ADD16C,0.02276*%
%ADD17C,0.02000*%
%ADD18R,0.03556X0.03320*%
%ADD19R,0.06509X0.03044*%
%ADD20R,0.07296X0.02847*%
%ADD21R,0.08517X0.03044*%
%ADD22R,0.02572X0.05918*%
%ADD23R,0.03556X0.03556*%
%ADD24R,0.02965X0.06902*%
%ADD25R,0.08083X0.03044*%
%ADD26R,0.04028X0.02847*%
%ADD27R,0.05328X0.02847*%
%ADD28R,0.07493X0.04776*%
%ADD29C,0.03556*%
%ADD30C,0.04048*%
%ADD31C,0.02572*%
%ADD32C,0.03753*%
%ADD33C,0.02965*%
D10*
X0012050Y0012374D03*
X0012050Y0242374D03*
X0282050Y0242374D03*
X0282050Y0012374D03*
D11*
X0053050Y0228917D03*
D12*
X0178050Y0062874D02*
X0184050Y0062874D01*
X0184050Y0052874D02*
X0178050Y0052874D01*
X0178050Y0042874D02*
X0184050Y0042874D01*
X0184050Y0032874D02*
X0178050Y0032874D01*
X0178050Y0022874D02*
X0184050Y0022874D01*
X0184050Y0012874D02*
X0178050Y0012874D01*
D13*
X0141050Y0226028D03*
D14*
X0141050Y0234886D03*
D15*
X0098050Y0176374D03*
X0090050Y0172374D03*
X0081050Y0172374D03*
X0095550Y0155874D03*
X0105050Y0169374D03*
X0108550Y0169374D03*
X0111550Y0171874D03*
X0112550Y0092374D03*
X0106550Y0092374D03*
X0118550Y0092374D03*
X0124050Y0092374D03*
X0130050Y0092374D03*
X0155550Y0074741D03*
X0159050Y0074874D03*
X0162550Y0074874D03*
X0166050Y0074874D03*
X0170050Y0074874D03*
X0173550Y0074874D03*
X0177050Y0074874D03*
X0180550Y0074874D03*
X0204050Y0081874D03*
X0213727Y0090874D03*
X0222050Y0081874D03*
X0209050Y0067874D03*
X0205050Y0048874D03*
X0200050Y0039874D03*
X0247050Y0009374D03*
X0260050Y0015374D03*
X0278050Y0066374D03*
X0254235Y0108689D03*
X0250298Y0108689D03*
X0250298Y0112626D03*
X0246361Y0112626D03*
X0242424Y0112626D03*
X0242424Y0116563D03*
X0246361Y0116563D03*
X0250298Y0116563D03*
X0250298Y0120500D03*
X0246361Y0120500D03*
X0242424Y0120500D03*
X0242424Y0124437D03*
X0246361Y0124437D03*
X0250298Y0124437D03*
X0250298Y0128374D03*
X0246361Y0128374D03*
X0242424Y0128374D03*
X0242424Y0132311D03*
X0246361Y0132311D03*
X0250298Y0132311D03*
X0250298Y0136248D03*
X0246361Y0136248D03*
X0242424Y0136248D03*
X0238487Y0136248D03*
X0234550Y0136248D03*
X0230613Y0136248D03*
X0230613Y0132311D03*
X0230613Y0128374D03*
X0234550Y0128374D03*
X0238487Y0128374D03*
X0238487Y0132311D03*
X0234550Y0132311D03*
X0234550Y0124437D03*
X0234550Y0120500D03*
X0230613Y0120500D03*
X0230613Y0124437D03*
X0226676Y0124437D03*
X0226676Y0120500D03*
X0222739Y0120500D03*
X0222739Y0124437D03*
X0218802Y0124437D03*
X0218802Y0120500D03*
X0218802Y0116563D03*
X0222739Y0116563D03*
X0226676Y0116563D03*
X0226676Y0112626D03*
X0222739Y0112626D03*
X0218802Y0112626D03*
X0218802Y0108689D03*
X0214865Y0108689D03*
X0214865Y0112626D03*
X0214865Y0116563D03*
X0210928Y0116563D03*
X0210928Y0112626D03*
X0206991Y0112626D03*
X0206991Y0116563D03*
X0206991Y0120500D03*
X0210928Y0120500D03*
X0214865Y0120500D03*
X0214865Y0124437D03*
X0210928Y0124437D03*
X0206991Y0124437D03*
X0206991Y0128374D03*
X0210928Y0128374D03*
X0214865Y0128374D03*
X0214865Y0132311D03*
X0210928Y0132311D03*
X0206991Y0132311D03*
X0206991Y0136248D03*
X0210928Y0136248D03*
X0214865Y0136248D03*
X0218802Y0136248D03*
X0222739Y0136248D03*
X0226676Y0136248D03*
X0226676Y0132311D03*
X0226676Y0128374D03*
X0222739Y0128374D03*
X0222739Y0132311D03*
X0218802Y0132311D03*
X0218802Y0128374D03*
X0218802Y0140185D03*
X0222739Y0140185D03*
X0226676Y0140185D03*
X0226676Y0144122D03*
X0222739Y0144122D03*
X0218802Y0144122D03*
X0214865Y0144122D03*
X0214865Y0140185D03*
X0210928Y0140185D03*
X0210928Y0144122D03*
X0206991Y0144122D03*
X0206991Y0140185D03*
X0214865Y0148059D03*
X0218802Y0148059D03*
X0226676Y0148059D03*
X0230613Y0148059D03*
X0234550Y0148059D03*
X0238487Y0148059D03*
X0238487Y0144122D03*
X0238487Y0140185D03*
X0234550Y0140185D03*
X0230613Y0140185D03*
X0230613Y0144122D03*
X0234550Y0144122D03*
X0242424Y0144122D03*
X0242424Y0140185D03*
X0246361Y0140185D03*
X0250298Y0140185D03*
X0250298Y0144122D03*
X0246361Y0144122D03*
X0242424Y0148059D03*
X0250298Y0148059D03*
X0254235Y0148059D03*
X0254235Y0144122D03*
X0254235Y0140185D03*
X0258172Y0140185D03*
X0258172Y0144122D03*
X0262109Y0144122D03*
X0262109Y0140185D03*
X0262109Y0136248D03*
X0258172Y0136248D03*
X0254235Y0136248D03*
X0254235Y0132311D03*
X0254235Y0128374D03*
X0258172Y0128374D03*
X0258172Y0132311D03*
X0262109Y0132311D03*
X0262109Y0128374D03*
X0262109Y0124437D03*
X0258172Y0124437D03*
X0254235Y0124437D03*
X0254235Y0120500D03*
X0258172Y0120500D03*
X0262109Y0120500D03*
X0262109Y0116563D03*
X0258172Y0116563D03*
X0254235Y0116563D03*
X0254235Y0112626D03*
X0258172Y0112626D03*
X0262109Y0112626D03*
X0242424Y0108689D03*
X0238487Y0108689D03*
X0234550Y0108689D03*
X0230613Y0108689D03*
X0230613Y0112626D03*
X0230613Y0116563D03*
X0234550Y0116563D03*
X0238487Y0116563D03*
X0238487Y0112626D03*
X0234550Y0112626D03*
X0238487Y0120500D03*
X0238487Y0124437D03*
X0226676Y0108689D03*
X0217550Y0167874D03*
X0231550Y0195874D03*
X0244550Y0195874D03*
X0264550Y0177874D03*
X0133550Y0068374D03*
X0097050Y0084874D03*
X0088550Y0084874D03*
X0073310Y0062610D03*
X0071050Y0057374D03*
X0075550Y0045874D03*
X0073550Y0039374D03*
X0089050Y0022874D03*
X0092050Y0025374D03*
X0068050Y0014374D03*
X0067550Y0010374D03*
X0064050Y0014107D03*
X0047550Y0046374D03*
X0047550Y0049874D03*
D16*
X0061113Y0115406D03*
X0061113Y0119343D03*
X0065050Y0119343D03*
X0068987Y0119343D03*
X0068987Y0115406D03*
X0065050Y0115406D03*
D17*
X0025790Y0069374D03*
X0022050Y0069374D03*
X0018310Y0069374D03*
D18*
X0085731Y0064705D03*
X0085731Y0060374D03*
X0085731Y0056043D03*
X0085731Y0051713D03*
X0085731Y0047382D03*
X0085731Y0043051D03*
X0085731Y0038720D03*
X0085731Y0034390D03*
D19*
X0057286Y0081693D03*
D20*
X0084648Y0081791D03*
D21*
X0110810Y0081693D03*
D22*
X0111932Y0076634D03*
D23*
X0110141Y0042264D03*
D24*
X0112404Y0034803D03*
D25*
X0111026Y0029055D03*
D26*
X0098093Y0028957D03*
D27*
X0089373Y0028957D03*
D28*
X0057778Y0029921D03*
D29*
X0048219Y0020520D03*
X0031881Y0020520D03*
D30*
X0026050Y0024874D03*
X0029050Y0040374D03*
X0028050Y0050874D03*
X0024050Y0050874D03*
X0005050Y0069374D03*
X0038550Y0074374D03*
X0063369Y0077217D03*
X0063050Y0103374D03*
X0100896Y0068886D03*
X0122550Y0063374D03*
X0136550Y0050874D03*
X0123550Y0122374D03*
X0115050Y0122374D03*
X0110050Y0136374D03*
X0131050Y0136374D03*
X0156050Y0138374D03*
X0160050Y0138374D03*
X0164050Y0138374D03*
X0162050Y0157874D03*
X0157550Y0157874D03*
X0153050Y0157874D03*
X0076050Y0139374D03*
X0064050Y0145374D03*
X0035050Y0138374D03*
X0045050Y0173374D03*
D31*
X0101550Y0182374D03*
X0114050Y0169374D03*
X0090562Y0096339D03*
X0073239Y0067598D03*
X0056977Y0056503D03*
X0067259Y0048512D03*
X0051192Y0043583D03*
X0219550Y0176874D03*
X0231550Y0078874D03*
X0234050Y0078874D03*
X0242550Y0059874D03*
X0245050Y0059874D03*
D32*
X0271550Y0042374D03*
X0282050Y0046374D03*
X0282050Y0050374D03*
X0282050Y0054374D03*
X0282050Y0058374D03*
X0178050Y0118874D03*
X0177050Y0123874D03*
X0162550Y0089374D03*
X0140550Y0070874D03*
X0143550Y0066874D03*
X0169550Y0048374D03*
X0143050Y0012874D03*
X0139050Y0012874D03*
X0135050Y0012874D03*
X0109050Y0019874D03*
X0104050Y0019874D03*
X0088550Y0011374D03*
X0069550Y0036374D03*
X0075550Y0049874D03*
X0049050Y0032874D03*
X0034050Y0029874D03*
X0046050Y0064874D03*
X0048550Y0081874D03*
X0052050Y0081874D03*
X0043550Y0085374D03*
X0034550Y0091874D03*
X0037550Y0094374D03*
X0049050Y0098874D03*
X0052550Y0098874D03*
X0024050Y0116874D03*
X0020050Y0116874D03*
X0047050Y0134374D03*
X0052550Y0131098D03*
X0052050Y0123374D03*
X0048550Y0123374D03*
X0073050Y0124374D03*
X0077050Y0124374D03*
X0081050Y0124374D03*
X0078050Y0148374D03*
X0057050Y0160374D03*
X0030050Y0166374D03*
X0008050Y0164374D03*
X0008050Y0160374D03*
X0008050Y0168374D03*
X0017050Y0212374D03*
X0022050Y0236374D03*
X0043050Y0212374D03*
X0070050Y0224374D03*
X0070050Y0228374D03*
X0141050Y0164374D03*
X0128050Y0155374D03*
X0131550Y0131374D03*
X0120050Y0118874D03*
X0138050Y0110374D03*
X0101550Y0092374D03*
X0185550Y0161874D03*
X0147050Y0176374D03*
D33*
X0117050Y0169344D03*
X0095550Y0169874D03*
X0087550Y0168768D03*
X0086550Y0173374D03*
X0083550Y0175874D03*
X0087050Y0157374D03*
X0076550Y0157374D03*
X0009050Y0214374D03*
X0014050Y0221374D03*
X0023050Y0224374D03*
X0227550Y0184874D03*
X0243550Y0184874D03*
M02*
